<svg width="70" height="65" viewBox="0 0 70 65" fill="none" xmlns="http://www.w3.org/2000/svg">
<mask id="mask0_147_7436" style="mask-type:luminance" maskUnits="userSpaceOnUse" x="48" y="0" width="12" height="4">
<path d="M48.2666 1.65051L48.9452 1.259C51.764 0.0148884 55.3485 0.502096 59.0373 2.63362L58.3674 3.02513C54.6786 0.893599 51.0941 0.406391 48.2666 1.65051Z" fill="white"/>
</mask>
<g mask="url(#mask0_147_7436)">
<path d="M48.2666 1.65051L48.9452 1.259C51.764 0.0148884 55.3485 0.502096 59.0373 2.63362L58.3674 3.02513C54.6786 0.893599 51.0941 0.415091 48.2666 1.65051Z" fill="#ACACAC"/>
</g>
<path d="M68.3379 13.1433L69.0165 12.7518L67.668 13.7437L66.998 14.1352L68.3379 13.1433Z" fill="#737373"/>
<mask id="mask1_147_7436" style="mask-type:luminance" maskUnits="userSpaceOnUse" x="58" y="2" width="12" height="12">
<path d="M58.3672 3.02513L59.0371 2.63363C63.1149 5.17209 66.5344 8.63924 69.0161 12.7518L68.3375 13.1434C65.8554 9.03398 62.4396 5.5675 58.3672 3.02513Z" fill="white"/>
</mask>
<g mask="url(#mask1_147_7436)">
<path d="M58.3672 3.02513L59.0371 2.63363C63.1149 5.17209 66.5344 8.63924 69.0161 12.7518L68.3375 13.1434C65.8554 9.03398 62.4396 5.5675 58.3672 3.02513Z" fill="#ACACAC"/>
</g>
<path d="M58.3674 3.02513C62.4398 5.56751 65.8556 9.03398 68.3378 13.1434L66.9979 14.1439C64.851 10.5772 61.8906 7.56915 58.3587 5.36546C55.1658 3.52974 52.0599 3.11213 49.6151 4.18225L48.2666 1.65051C51.0941 0.406395 54.6786 0.893602 58.3674 3.02513Z" fill="#E2E2E2"/>
<mask id="mask2_147_7436" style="mask-type:luminance" maskUnits="userSpaceOnUse" x="51" y="8" width="9" height="2">
<path d="M51.6943 9.05431L52.3729 8.66281C54.2261 7.845 56.5925 8.1669 59.0198 9.53282L58.3499 9.93303C55.9139 8.55841 53.5475 8.2365 51.6943 9.05431Z" fill="white"/>
</mask>
<g mask="url(#mask2_147_7436)">
<path d="M51.6943 9.05431L52.3729 8.66281C54.2261 7.845 56.5925 8.1669 59.0198 9.53282L58.3499 9.93303C55.9139 8.52361 53.5475 8.19301 51.6943 9.06302V9.05431Z" fill="#ACACAC"/>
</g>
<path d="M64.9189 16.6233L65.5975 16.2318L64.249 17.2324L63.5791 17.6239L64.9189 16.6233Z" fill="#737373"/>
<mask id="mask3_147_7436" style="mask-type:luminance" maskUnits="userSpaceOnUse" x="58" y="9" width="8" height="8">
<path d="M58.3496 9.96773L59.0195 9.56753C61.7028 11.2442 63.9555 13.5267 65.5968 16.2318L64.9182 16.6233C63.2824 13.9192 61.032 11.6389 58.3496 9.96773Z" fill="white"/>
</mask>
<g mask="url(#mask3_147_7436)">
<path d="M58.3496 9.96773L59.0195 9.56753C61.7028 11.2442 63.9555 13.5267 65.5968 16.2318L64.9182 16.6233C63.2824 13.9192 61.032 11.6389 58.3496 9.96773Z" fill="#ACACAC"/>
</g>
<path d="M58.3501 9.96783C61.0325 11.639 63.2829 13.9193 64.9187 16.6234L63.5789 17.6239C62.2806 15.4665 60.4923 13.6454 58.3588 12.3082C56.4535 11.2119 54.5221 10.951 53.0604 11.5948L51.7119 9.05431C53.5476 8.2365 55.9141 8.55841 58.3501 9.96783Z" fill="#E2E2E2"/>
<mask id="mask4_147_7436" style="mask-type:luminance" maskUnits="userSpaceOnUse" x="54" y="15" width="6" height="2">
<path d="M54.7832 16.345L55.4618 15.9535C56.0488 15.7506 56.6753 15.689 57.2906 15.7736C57.9058 15.8583 58.4924 16.0868 59.0028 16.4407L58.3329 16.8322C57.8209 16.4782 57.2328 16.2497 56.6162 16.165C55.9995 16.0804 55.3716 16.142 54.7832 16.345Z" fill="white"/>
</mask>
<g mask="url(#mask4_147_7436)">
<path d="M54.7832 16.345L55.4618 15.9535C56.0488 15.7506 56.6753 15.689 57.2906 15.7736C57.9058 15.8583 58.4924 16.0868 59.0028 16.4407L58.3329 16.8322C57.8209 16.4782 57.2328 16.2497 56.6162 16.165C55.9995 16.0804 55.3716 16.142 54.7832 16.345Z" fill="#ACACAC"/>
</g>
<path d="M61.83 20.3731L62.5086 19.9816L61.1601 20.9821L60.4814 21.3736L61.83 20.3731Z" fill="#737373"/>
<mask id="mask5_147_7436" style="mask-type:luminance" maskUnits="userSpaceOnUse" x="58" y="16" width="5" height="5">
<path d="M58.333 16.8321L59.0029 16.4406C60.4257 17.3302 61.6181 18.5435 62.483 19.9816L61.8043 20.3731C60.9402 18.9374 59.7512 17.7246 58.333 16.8321Z" fill="white"/>
</mask>
<g mask="url(#mask5_147_7436)">
<path d="M58.3329 16.8321L59.0028 16.4406C60.4256 17.3302 61.618 18.5435 62.4829 19.9816L61.8043 20.3731C60.9376 18.9364 59.7456 17.7235 58.3242 16.8321H58.3329Z" fill="#ACACAC"/>
</g>
<path d="M58.3327 16.8322C59.754 17.7236 60.9461 18.9365 61.8127 20.3731L60.4642 21.3736C59.9308 20.4783 59.191 19.7236 58.3066 19.1725C57.9888 18.957 57.6251 18.8188 57.2444 18.769C56.8637 18.7191 56.4767 18.759 56.1141 18.8854L54.7656 16.345C55.3565 16.1391 55.9877 16.076 56.6076 16.1606C57.2275 16.2453 57.8186 16.4754 58.3327 16.8322Z" fill="#E2E2E2"/>
<path d="M32.9365 56.583L50.5021 46.5779C50.7125 46.4716 50.9449 46.4162 51.1807 46.4162C51.4164 46.4162 51.6488 46.4716 51.8593 46.5779L34.2937 56.5917C34.0833 56.4854 33.8509 56.43 33.6151 56.43C33.3794 56.43 33.1469 56.4854 32.9365 56.5917V56.583Z" fill="#9F9F9F"/>
<path d="M52.2065 46.7433C52.095 46.6767 51.9787 46.6185 51.8585 46.5693L34.293 56.5831C34.4061 56.6266 34.5192 56.6875 34.641 56.7484C35.2484 57.1488 35.7682 57.6683 36.169 58.2754C36.5697 58.8826 36.8431 59.5648 36.9726 60.2806L54.5381 50.2668C54.41 49.5516 54.1371 48.8702 53.7361 48.2643C53.3352 47.6584 52.8147 47.1408 52.2065 46.7433Z" fill="#E5E5E5"/>
<path d="M36.9728 60.2545L54.5383 50.2407C54.5722 50.439 54.5897 50.6398 54.5905 50.841C54.6194 51.1348 54.5703 51.4312 54.4481 51.7C54.3259 51.9688 54.135 52.2007 53.8945 52.3722L36.3203 62.386C36.5637 62.2168 36.7573 61.9856 36.8812 61.7164C37.0052 61.4471 37.0548 61.1497 37.025 60.8548C37.025 60.6536 37.0075 60.4527 36.9728 60.2545Z" fill="#9F9F9F"/>
<path d="M34.6414 56.7744C35.3352 57.2278 35.9125 57.8382 36.3266 58.5561C36.7408 59.2741 36.9801 60.0794 37.0253 60.9069C37.0253 62.4208 35.9465 63.0385 34.6241 62.2729C33.928 61.8239 33.3489 61.2158 32.9343 60.4987C32.5198 59.7816 32.2819 58.9762 32.2402 58.149C32.2489 56.6004 33.319 55.9914 34.6414 56.7744Z" fill="#F0910A"/>
<path d="M35.5991 63.5083L40.6973 60.5416C40.709 60.6485 40.6918 60.7565 40.6474 60.8545C40.603 60.9524 40.5331 61.0367 40.445 61.0984L35.3555 64.0651C35.4435 64.0034 35.5134 63.9192 35.5578 63.8212C35.6022 63.7233 35.6195 63.6152 35.6078 63.5083H35.5991Z" fill="#EBEBEB"/>
<path d="M30.1357 55.1214L35.234 52.1547C35.3343 52.1077 35.4453 52.0886 35.5555 52.0994C35.6657 52.1101 35.771 52.1502 35.8604 52.2156L30.7534 55.1823C30.6658 55.1168 30.5619 55.0765 30.4531 55.0658C30.3442 55.0551 30.2345 55.0743 30.1357 55.1214Z" fill="#C9C9C9"/>
<path d="M35.6083 58.9668L40.7153 56L40.6979 60.5415L35.5996 63.5082L35.6083 58.9668Z" fill="#F5F5F5"/>
<path d="M30.7881 55.1823L35.895 52.2155L39.8449 54.495L34.7379 57.4617L30.7881 55.1823Z" fill="#DCDCDC"/>
<path d="M34.7383 57.4616L39.8452 54.4949C40.0983 54.6598 40.3089 54.882 40.4601 55.1435C40.6112 55.405 40.6986 55.6984 40.7153 56L35.6083 58.9667C35.5952 58.6644 35.5093 58.3696 35.3578 58.1075C35.2063 57.8455 34.9938 57.6239 34.7383 57.4616Z" fill="#EBEBEB"/>
<path d="M34.7378 57.4617C34.9933 57.624 35.2059 57.8456 35.3573 58.1076C35.5088 58.3697 35.5948 58.6644 35.6078 58.9668V63.5083C35.6078 64.0564 35.2163 64.2826 34.7378 64.0042L30.788 61.7248C30.5359 61.5588 30.326 61.3364 30.175 61.0751C30.0239 60.8138 29.9359 60.5209 29.918 60.2197V55.6782C29.918 55.1214 30.3095 54.9039 30.788 55.1823L34.7378 57.4617Z" fill="#BFBFBF"/>
<path d="M35.3376 27.2201L38.6785 25.2712L38.6524 55.5128L35.3115 57.4617L35.3376 27.2201Z" fill="#969696"/>
<path d="M31.458 24.9842L34.8076 23.0354L38.6791 25.2713L35.3383 27.2202L31.458 24.9842Z" fill="#C1C1C1"/>
<path d="M35.338 27.2202L35.3119 57.4617L31.4316 55.2258L31.4577 24.9842L35.338 27.2202Z" fill="#DFDFDF"/>
<mask id="mask6_147_7436" style="mask-type:luminance" maskUnits="userSpaceOnUse" x="1" y="8" width="33" height="26">
<path d="M4.46965 25.0017L33.615 8.05389C31.4139 9.73301 30.744 13.274 30.3873 16.5278L1.21582 33.4756C1.60733 30.2218 2.29463 26.6808 4.46965 25.0017Z" fill="white"/>
</mask>
<g mask="url(#mask6_147_7436)">
<path d="M4.46965 25.0017L33.615 8.05389C31.4139 9.73301 30.744 13.274 30.3873 16.5278L1.21582 33.4756C1.58122 30.2218 2.25113 26.6808 4.44355 25.0017H4.46965Z" fill="#9F9F9F"/>
</g>
<mask id="mask7_147_7436" style="mask-type:luminance" maskUnits="userSpaceOnUse" x="8" y="8" width="34" height="17">
<path d="M8.22852 24.0707L33.8416 9.18481C35.8079 8.0451 38.5397 8.2017 41.5499 9.94172L15.9368 24.8276C12.9266 23.0876 10.2034 22.9223 8.22852 24.0707Z" fill="white"/>
</mask>
<g mask="url(#mask7_147_7436)">
<path d="M8.22852 24.0707L33.8416 9.18482C35.2812 8.40724 36.9695 8.22903 38.5397 8.6889L12.9266 23.5748C11.3564 23.1149 9.66811 23.2931 8.22852 24.0707Z" fill="#011824"/>
<path d="M12.9268 23.5748L38.5399 8.6889C39.5969 8.96376 40.6102 9.38547 41.5501 9.94171L15.937 24.8276C14.9989 24.2678 13.9851 23.8458 12.9268 23.5748Z" fill="#011D2B"/>
</g>
<mask id="mask8_147_7436" style="mask-type:luminance" maskUnits="userSpaceOnUse" x="15" y="9" width="38" height="42">
<path d="M49.1797 35.5809L23.5752 50.4668C25.5153 49.3358 26.7247 46.9346 26.7334 43.5067C26.7334 36.625 21.9222 28.2641 15.9365 24.8102L41.5497 9.92432C47.5266 13.4044 52.3639 21.7478 52.3378 28.6209C52.3291 32.0487 51.1285 34.4586 49.1797 35.5809Z" fill="white"/>
</mask>
<g mask="url(#mask8_147_7436)">
<path d="M15.9365 24.8276L41.5497 9.94172C45.63 12.2994 49.1797 16.9453 51.0154 21.8435L25.4022 36.7642C23.5665 31.866 20.0256 27.194 15.9365 24.8624V24.8276Z" fill="#011D2B"/>
<path d="M25.4022 36.7642L51.0154 21.8435C51.8588 24.0111 52.3067 26.3125 52.3378 28.6383C52.3378 32.0487 51.1285 34.4586 49.1796 35.5984L23.5752 50.4842C25.5153 49.3532 26.7246 46.952 26.7333 43.5242C26.6949 41.1983 26.2442 38.8978 25.4022 36.7294V36.7642Z" fill="#9F9F9F"/>
</g>
<path d="M23.575 50.4819C27.796 48.0292 27.7832 40.1303 23.5465 32.8392C19.3098 25.5481 12.4535 21.6258 8.23254 24.0785C4.0116 26.5312 4.02438 34.4301 8.26109 41.7212C12.4978 49.0123 19.3541 52.9346 23.575 50.4819Z" fill="#D9D9D9"/>
<path d="M20.7302 50.1884C19.1888 50.1183 17.691 49.654 16.3802 48.8399C10.6903 45.5513 6.07054 37.5298 6.08794 31.0221C6.08794 26.9069 8.01938 24.3491 11.0818 24.3491C12.624 24.4149 14.1228 24.8795 15.4319 25.6976C21.1217 28.9863 25.7415 37.0078 25.7241 43.5154C25.7067 47.6306 23.7927 50.1884 20.7302 50.1884Z" fill="#283033"/>
<path d="M20.7304 49.6838C19.2746 49.6166 17.8605 49.1762 16.624 48.4049C11.0733 45.1946 6.56663 37.3993 6.58403 31.0047C6.58403 27.194 8.32406 24.8363 11.0733 24.8363C12.5291 24.9035 13.9432 25.3439 15.1797 26.1152C20.7304 29.3256 25.2371 37.1209 25.2197 43.5154C25.2023 47.3174 23.4884 49.6838 20.7304 49.6838Z" fill="#00B5AC"/>
<mask id="mask9_147_7436" style="mask-type:luminance" maskUnits="userSpaceOnUse" x="4" y="6" width="39" height="20">
<path d="M4.21777 24.584L33.3892 7.6362C35.9993 6.40079 39.1487 6.76619 42.2025 8.54972L13.0397 25.454C9.98596 23.714 6.86261 23.3312 4.21777 24.584Z" fill="white"/>
</mask>
<g mask="url(#mask9_147_7436)">
<path d="M4.21777 24.5841L33.3892 7.63626C35.1275 6.85424 37.0834 6.70047 38.9225 7.20125L9.75106 24.1491C7.9119 23.649 5.95619 23.8028 4.21777 24.5841Z" fill="#E5E5E5"/>
<path d="M9.75098 24.1316L38.9224 7.18378C40.0745 7.47458 41.179 7.92869 42.2024 8.5323L13.0396 25.454C12.0124 24.8518 10.9053 24.3978 9.75098 24.1055V24.1316Z" fill="white" fill-opacity="0.49"/>
</g>
<mask id="mask10_147_7436" style="mask-type:luminance" maskUnits="userSpaceOnUse" x="13" y="8" width="36" height="24">
<path d="M13.04 25.454L42.2028 8.50623C44.582 9.95461 46.6516 11.8587 48.2929 14.1091L19.1301 31.0569C17.4888 28.8065 15.4192 26.9024 13.04 25.454Z" fill="white"/>
</mask>
<g mask="url(#mask10_147_7436)">
<path d="M13.04 25.454L42.2028 8.50623C44.582 9.95461 46.6516 11.8587 48.2929 14.1091L19.1301 31.0569C17.4888 28.8065 15.4192 26.9024 13.04 25.454Z" fill="white" fill-opacity="0.49"/>
</g>
<mask id="mask11_147_7436" style="mask-type:luminance" maskUnits="userSpaceOnUse" x="19" y="14" width="36" height="33">
<path d="M19.1387 31.083L48.3015 14.1439C52.0077 19.2769 54.0957 25.0538 54.0174 29.9955L24.8547 46.9433C24.9156 41.9842 22.8449 36.2161 19.1387 31.083Z" fill="white"/>
</mask>
<g mask="url(#mask11_147_7436)">
<path d="M19.1387 31.083L48.3015 14.1439C50.0217 16.506 51.4202 19.0865 52.4601 21.8174L23.2973 38.7652C22.254 36.0359 20.8558 33.4559 19.1387 31.0917V31.083Z" fill="#E5E5E5"/>
<path d="M23.2969 38.7565L52.4596 21.8087C53.4768 24.4159 54.0047 27.1882 54.017 29.9868L24.8542 46.9346C24.8419 44.136 24.314 41.3637 23.2969 38.7565Z" fill="#E5E5E5"/>
</g>
<path d="M13.0397 25.454C15.4189 26.9024 17.4885 28.8065 19.1298 31.0569C22.836 36.19 24.9154 41.9668 24.8458 46.9085L24.4804 46.6997C24.5587 41.8885 22.5315 36.2596 18.921 31.2831C17.3378 29.1049 15.3352 27.2651 13.031 25.8716C10.0643 24.1316 7.02793 23.7836 4.46139 25.0016C2.26897 26.6807 1.59907 30.2217 1.23366 33.4755L0.876953 33.2232C1.25106 29.9172 1.92968 26.2631 4.20911 24.5231C6.86264 23.3312 9.98598 23.714 13.0397 25.454Z" fill="white" fill-opacity="0.49"/>
</svg>
