<svg width="550" height="378" viewBox="0 0 550 378" fill="none" xmlns="http://www.w3.org/2000/svg">
<path fill-rule="evenodd" clip-rule="evenodd" d="M457.423 2.17562C459.024 1.94406 460.656 1.82458 462.315 1.82458H466.699V0.915039H462.315C460.621 0.915039 458.953 1.03708 457.317 1.27372L457.423 2.17562ZM475.468 1.82458H484.236V0.915039H475.468V1.82458ZM501.773 1.82458H493.005V0.915039H501.773V1.82458ZM510.542 1.82458H519.311V0.915039H510.542V1.82458ZM536.848 1.82458H528.079V0.915039H536.848V1.82458ZM545.616 1.82458H550.001V0.915039H545.616V1.82458ZM447.979 4.97566C444.935 6.37561 442.093 8.20817 439.516 10.4043L439.016 9.68311C441.649 7.4391 444.553 5.56631 447.665 4.13549L447.979 4.97566ZM427.706 27.4569C428.968 24.081 430.621 20.9295 432.601 18.0717L431.951 17.5175C429.927 20.4376 428.238 23.6581 426.948 27.1085L427.706 27.4569ZM425.181 37.929C424.972 39.7042 424.864 41.5148 424.864 43.3536V49.1847H424.044V43.3536C424.044 41.4754 424.154 39.6255 424.367 37.8113L425.181 37.929ZM424.864 72.509V60.8469H424.044V72.509H424.864ZM424.864 84.1712V95.8333H424.044V84.1712H424.864ZM424.864 113.327V107.495H424.044V113.327C424.044 115.165 423.936 116.976 423.727 118.751L424.541 118.869C424.754 117.055 424.864 115.205 424.864 113.327ZM421.96 129.572C420.67 133.022 418.981 136.243 416.957 139.163L416.307 138.609C418.287 135.751 419.94 132.599 421.202 129.223L421.96 129.572ZM401.243 152.545C404.355 151.114 407.259 149.241 409.892 146.997L409.392 146.276C406.815 148.472 403.973 150.305 400.929 151.705L401.243 152.545ZM391.591 155.406C389.955 155.643 388.287 155.765 386.593 155.765H382.156V154.856H386.593C388.251 154.856 389.884 154.736 391.485 154.505L391.591 155.406ZM328.915 155.765H337.789V154.856H328.915V155.765ZM355.536 155.765H346.662V154.856H355.536V155.765ZM364.409 155.765H373.283V154.856H364.409V155.765ZM462.315 376.175C460.656 376.175 459.024 376.056 457.423 375.824L457.317 376.726C458.953 376.963 460.621 377.085 462.315 377.085H466.699V376.175H462.315ZM475.468 376.175H484.236V377.085H475.468V376.175ZM501.773 376.175H493.005V377.085H501.773V376.175ZM510.542 376.175H519.311V377.085H510.542V376.175ZM536.848 376.175H528.079V377.085H536.848V376.175ZM545.616 376.175H550.001V377.085H545.616V376.175ZM447.979 373.024C444.935 371.624 442.093 369.792 439.516 367.596L439.016 368.317C441.649 370.561 444.553 372.434 447.665 373.864L447.979 373.024ZM427.706 350.543C428.968 353.919 430.621 357.07 432.601 359.928L431.951 360.482C429.927 357.562 428.238 354.342 426.948 350.891L427.706 350.543ZM425.181 340.071C424.972 338.296 424.864 336.485 424.864 334.646V328.815H424.044V334.646C424.044 336.524 424.154 338.374 424.367 340.189L425.181 340.071ZM424.864 305.491V317.153H424.044V305.491H424.864ZM424.864 293.829V282.167H424.044V293.829H424.864ZM424.864 264.673V270.504H424.044V264.673C424.044 262.835 423.936 261.024 423.727 259.249L424.541 259.131C424.754 260.945 424.864 262.795 424.864 264.673ZM421.96 248.428C420.67 244.978 418.981 241.757 416.957 238.837L416.307 239.391C418.287 242.249 419.94 245.401 421.202 248.777L421.96 248.428ZM401.243 225.455C404.355 226.886 407.259 228.759 409.892 231.003L409.392 231.724C406.815 229.528 403.973 227.695 400.929 226.295L401.243 225.455ZM391.591 222.593C389.955 222.357 388.287 222.235 386.593 222.235H382.156V223.144H386.593C388.251 223.144 389.884 223.264 391.485 223.495L391.591 222.593ZM328.915 222.235H337.789V223.144H328.915V222.235ZM355.536 222.235H346.662V223.144H355.536V222.235ZM364.409 222.235H373.283V223.144H364.409V222.235ZM476.82 61.8949C478.151 61.7023 479.509 61.603 480.888 61.603H485.207V60.6934H480.888C479.473 60.6934 478.08 60.7954 476.714 60.993L476.82 61.8949ZM502.485 61.603H493.846V60.6934H502.485V61.603ZM511.125 61.603H519.764V60.6934H511.125V61.603ZM537.042 61.603H528.403V60.6934H537.042V61.603ZM545.681 61.603H550.001V60.6934H545.681V61.603ZM468.968 64.2231C466.436 65.3871 464.073 66.9109 461.93 68.737L461.43 68.0158C463.629 66.1419 466.055 64.5778 468.653 63.3829L468.968 64.2231ZM452.11 82.9165C453.16 80.1094 454.534 77.4889 456.181 75.1126L455.53 74.5584C453.84 76.997 452.43 79.6866 451.352 82.5681L452.11 82.9165ZM450.01 91.624C449.837 93.1001 449.747 94.6057 449.747 96.1347V103.281H448.927V96.1347C448.927 94.5662 449.019 93.0213 449.197 91.5063L450.01 91.624ZM449.747 124.72V117.573H448.927V124.72C448.927 126.326 448.857 127.913 448.719 129.479L449.536 129.567C449.676 127.972 449.747 126.355 449.747 124.72ZM447.838 139.075C446.984 142.202 445.858 145.197 444.491 148.028L443.768 147.599C445.11 144.82 446.215 141.88 447.053 138.811L447.838 139.075ZM433.449 162.935C435.705 160.88 437.775 158.584 439.629 156.082L438.995 155.505C437.176 157.961 435.143 160.215 432.928 162.233L433.449 162.935ZM426.186 168.327C423.633 169.843 420.931 171.092 418.112 172.039L417.874 171.169C420.641 170.239 423.293 169.013 425.798 167.525L426.186 168.327ZM405.166 174.156C406.641 174.156 408.099 174.076 409.537 173.921L409.458 173.016C408.046 173.168 406.614 173.246 405.166 173.246H400.707V174.156H405.166ZM338.271 174.156H329.351V173.246H338.271V174.156ZM347.19 174.156H356.109V173.246H347.19V174.156ZM373.948 174.156H365.029V173.246H373.948V174.156ZM382.868 174.156H391.787V173.246H382.868V174.156ZM476.82 316.089C478.151 316.282 479.509 316.381 480.888 316.381H485.207V317.29H480.888C479.473 317.29 478.08 317.189 476.714 316.991L476.82 316.089ZM502.485 316.381H493.846V317.29H502.485V316.381ZM511.125 316.381H519.764V317.29H511.125V316.381ZM537.042 316.381H528.403V317.29H537.042V316.381ZM545.681 316.381H550.001V317.29H545.681V316.381ZM468.968 313.761C466.436 312.597 464.073 311.073 461.93 309.247L461.43 309.968C463.629 311.842 466.055 313.406 468.653 314.601L468.968 313.761ZM452.11 295.067C453.16 297.874 454.534 300.495 456.181 302.871L455.53 303.426C453.84 300.987 452.43 298.297 451.352 295.416L452.11 295.067ZM450.01 286.36C449.837 284.884 449.747 283.378 449.747 281.849V274.852H448.927V281.849C448.927 283.418 449.019 284.963 449.197 286.478L450.01 286.36ZM449.747 253.86V260.857H448.927V253.86C448.927 252.254 448.857 250.667 448.719 249.101L449.536 249.013C449.676 250.608 449.747 252.225 449.747 253.86ZM447.838 239.505C446.984 236.378 445.858 233.382 444.491 230.552L443.768 230.981C445.11 233.76 446.215 236.7 447.053 239.769L447.838 239.505ZM433.449 215.644C435.705 217.7 437.775 219.996 439.629 222.498L438.995 223.075C437.176 220.619 435.143 218.365 432.928 216.347L433.449 215.644ZM426.186 210.253C423.633 208.737 420.931 207.488 418.112 206.541L417.874 207.411C420.641 208.341 423.293 209.566 425.798 211.055L426.186 210.253ZM405.166 204.424C406.641 204.424 408.099 204.504 409.537 204.659L409.458 205.564C408.046 205.412 406.614 205.334 405.166 205.334H400.707V204.424H405.166ZM338.271 204.424H329.351V205.334H338.271V204.424ZM347.19 204.424H356.109V205.334H347.19V204.424ZM373.948 204.424H365.029V205.334H373.948V204.424ZM382.868 204.424H391.787V205.334H382.868V204.424ZM428.943 190.061H424.54C424.52 190.066 424.499 190.07 424.478 190.071C424.468 190.072 424.459 190.072 424.449 190.072H419.953V189.163H424.368C424.397 189.155 424.428 189.152 424.459 189.152H428.943V190.061ZM424.614 190.027L424.606 190.031L424.449 189.612L424.459 189.617L424.461 189.618L424.614 190.027ZM424.293 189.197L424.302 189.193L424.459 189.612L424.449 189.607L424.447 189.606L424.293 189.197ZM446.877 190.061H437.91V189.152H446.877V190.061ZM455.844 190.061H464.812V189.152H455.844V190.061ZM482.746 190.061H473.779V189.152H482.746V190.061ZM491.713 190.061H500.681V189.152H491.713V190.061ZM518.615 190.061H509.648V189.152H518.615V190.061ZM527.582 190.061H536.55V189.152H527.582V190.061ZM550.001 190.061H545.517V189.152H550.001V190.061ZM330.037 190.072H339.029V189.163H330.037V190.072ZM357.012 190.072H348.02V189.163H357.012V190.072ZM366.003 190.072H374.995V189.163H366.003V190.072ZM392.978 190.072H383.987V189.163H392.978V190.072ZM401.97 190.072H410.961V189.163H401.97V190.072ZM97.2081 155.406C95.5722 155.643 93.9039 155.765 92.2101 155.765H87.7733V154.856H92.2101C93.8683 154.856 95.5012 154.736 97.102 154.505L97.2081 155.406ZM7.9116 155.765H0.164062V154.856H7.9116V155.765ZM0.164062 174.156V173.246H8.20985V174.156H0.164062ZM0.164062 189.163V190.072H8.67908V189.163H0.164062ZM0.164062 205.334V204.424H8.20985V205.334H0.164062ZM0.164062 222.235V223.144H7.9116V222.235H0.164062ZM16.7851 155.765H25.6587V154.856H16.7851V155.765ZM43.4057 155.765H34.5322V154.856H43.4057V155.765ZM52.2792 155.765H61.1528V154.856H52.2792V155.765ZM78.8998 155.765H70.0263V154.856H78.8998V155.765ZM92.2101 222.235C93.9039 222.235 95.5722 222.357 97.2081 222.593L97.102 223.495C95.5012 223.264 93.8683 223.144 92.2101 223.144H87.7733V222.235H92.2101ZM25.6587 222.235H16.7851V223.144H25.6587V222.235ZM34.5322 222.235H43.4057V223.144H34.5322V222.235ZM61.1528 222.235H52.2792V223.144H61.1528V222.235ZM70.0263 222.235H78.8998V223.144H70.0263V222.235ZM17.1293 174.156H26.0487V173.246H17.1293V174.156ZM43.8875 174.156H34.9681V173.246H43.8875V174.156ZM52.8069 174.156H61.7263V173.246H52.8069V174.156ZM79.5652 174.156H70.6457V173.246H79.5652V174.156ZM88.4846 174.156H97.404V173.246H88.4846V174.156ZM17.1293 204.424H26.0487V205.334H17.1293V204.424ZM43.8875 204.424H34.9681V205.334H43.8875V204.424ZM52.8069 204.424H61.7263V205.334H52.8069V204.424ZM79.5652 204.424H70.6457V205.334H79.5652V204.424ZM88.4846 204.424H97.404V205.334H88.4846V204.424ZM17.6707 190.072H26.6623V189.163H17.6707V190.072ZM44.6455 190.072H35.6539V189.163H44.6455V190.072ZM53.6371 190.072H62.6287V189.163H53.6371V190.072ZM80.6119 190.072H71.6203V189.163H80.6119V190.072ZM89.6035 190.072H98.5951V189.163H89.6035V190.072Z" fill="url(#paint0_linear_602_318)"/>
<defs>
<linearGradient id="paint0_linear_602_318" x1="-6.6062" y1="90.3923" x2="534.303" y2="171.965" gradientUnits="userSpaceOnUse">
<stop stop-color="#FBFBFB" stop-opacity="0.74"/>
<stop offset="0.239583" stop-color="#FBFBFB" stop-opacity="0"/>
<stop offset="0.473958" stop-color="#FBFBFB" stop-opacity="0.72"/>
<stop offset="0.692708" stop-color="#FBFBFB" stop-opacity="0.19"/>
<stop offset="1" stop-color="#FBFBFB"/>
</linearGradient>
</defs>
</svg>
