<svg width="70" height="64" viewBox="0 0 70 64" fill="none" xmlns="http://www.w3.org/2000/svg">
<g id="Group 10">
<g id="Group">
<g id="Group_2">
<g id="Clip path group">
<mask id="mask0_578_765" style="mask-type:luminance" maskUnits="userSpaceOnUse" x="48" y="0" width="12" height="3">
<g id="clip-path-12">
<path id="Vector" d="M48.3652 1.31903L49.0438 0.92753C51.8626 -0.316586 55.4471 0.170622 59.1359 2.30215L58.466 2.69365C54.7772 0.562124 51.1927 0.0749164 48.3652 1.31903Z" fill="white"/>
</g>
</mask>
<g mask="url(#mask0_578_765)">
<g id="Group_3">
<g id="Group_4">
<path id="Vector_2" d="M48.3652 1.31903L49.0438 0.92753C51.8626 -0.316586 55.4471 0.170622 59.1359 2.30215L58.466 2.69365C54.7772 0.562124 51.1927 0.0836165 48.3652 1.31903Z" fill="#ACACAC"/>
</g>
</g>
</g>
</g>
</g>
<path id="Vector_3" d="M68.4364 12.8119L69.115 12.4204L67.7665 13.4122L67.0965 13.8037L68.4364 12.8119Z" fill="#737373"/>
<g id="Group_5">
<g id="Clip path group_2">
<mask id="mask1_578_765" style="mask-type:luminance" maskUnits="userSpaceOnUse" x="58" y="2" width="12" height="11">
<g id="clip-path-13">
<path id="Vector_4" d="M58.466 2.69363L59.1359 2.30212C63.2137 4.84059 66.6332 8.30774 69.1149 12.4203L68.4363 12.8119C65.9542 8.70248 62.5384 5.236 58.466 2.69363Z" fill="white"/>
</g>
</mask>
<g mask="url(#mask1_578_765)">
<g id="Group_6">
<g id="Group_7">
<path id="Vector_5" d="M58.466 2.69363L59.1359 2.30212C63.2137 4.84059 66.6332 8.30774 69.1149 12.4203L68.4363 12.8119C65.9542 8.70248 62.5384 5.236 58.466 2.69363Z" fill="#ACACAC"/>
</g>
</g>
</g>
</g>
</g>
<path id="Vector_6" d="M58.466 2.69363C62.5384 5.23601 65.9542 8.70248 68.4363 12.8119L67.0965 13.8124C64.9495 10.2457 61.9892 7.23765 58.4573 5.03396C55.2644 3.19824 52.1584 2.78063 49.7137 3.85074L48.3652 1.31901C51.1927 0.0748936 54.7772 0.562101 58.466 2.69363Z" fill="#E2E2E2"/>
</g>
<g id="Group_8">
<g id="Group_9">
<g id="Clip path group_3">
<mask id="mask2_578_765" style="mask-type:luminance" maskUnits="userSpaceOnUse" x="51" y="7" width="9" height="3">
<g id="clip-path-14">
<path id="Vector_7" d="M51.7927 8.72286L52.4713 8.33136C54.3244 7.51355 56.6909 7.83545 59.1182 9.20137L58.4483 9.60158C56.0122 8.22697 53.6458 7.90505 51.7927 8.72286Z" fill="white"/>
</g>
</mask>
<g mask="url(#mask2_578_765)">
<g id="Group_10">
<g id="Group_11">
<path id="Vector_8" d="M51.7927 8.72286L52.4713 8.33136C54.3244 7.51355 56.6909 7.83545 59.1182 9.20137L58.4483 9.60158C56.0122 8.19216 53.6458 7.86156 51.7927 8.73157V8.72286Z" fill="#ACACAC"/>
</g>
</g>
</g>
</g>
</g>
<path id="Vector_9" d="M65.0173 16.2919L65.6959 15.9004L64.3474 16.9009L63.6775 17.2924L65.0173 16.2919Z" fill="#737373"/>
<g id="Group_12">
<g id="Clip path group_4">
<mask id="mask3_578_765" style="mask-type:luminance" maskUnits="userSpaceOnUse" x="58" y="9" width="8" height="8">
<g id="clip-path-15">
<path id="Vector_10" d="M58.448 9.6364L59.1179 9.23621C61.8012 10.9129 64.0539 13.1954 65.6952 15.9005L65.0166 16.292C63.3808 13.5879 61.1304 11.3076 58.448 9.6364Z" fill="white"/>
</g>
</mask>
<g mask="url(#mask3_578_765)">
<g id="Group_13">
<g id="Group_14">
<path id="Vector_11" d="M58.448 9.6364L59.1179 9.23621C61.8012 10.9129 64.0539 13.1954 65.6952 15.9005L65.0166 16.292C63.3808 13.5879 61.1304 11.3076 58.448 9.6364Z" fill="#ACACAC"/>
</g>
</g>
</g>
</g>
</g>
<path id="Vector_12" d="M58.4483 9.63635C61.1307 11.3075 63.3812 13.5878 65.0169 16.2919L63.6771 17.2924C62.3789 15.135 60.5905 13.3139 58.4571 11.9767C56.5517 10.8805 54.6203 10.6195 53.1587 11.2633L51.8102 8.72283C53.6459 7.90502 56.0123 8.22693 58.4483 9.63635Z" fill="#E2E2E2"/>
</g>
<g id="Group_15">
<g id="Group_16">
<g id="Clip path group_5">
<mask id="mask4_578_765" style="mask-type:luminance" maskUnits="userSpaceOnUse" x="54" y="15" width="6" height="2">
<g id="clip-path-16">
<path id="Vector_13" d="M54.8817 16.0135L55.5603 15.622C56.1472 15.4191 56.7738 15.3575 57.389 15.4421C58.0043 15.5268 58.5909 15.7553 59.1012 16.1092L58.4313 16.5007C57.9193 16.1467 57.3313 15.9182 56.7146 15.8335C56.098 15.7489 55.4701 15.8105 54.8817 16.0135Z" fill="white"/>
</g>
</mask>
<g mask="url(#mask4_578_765)">
<g id="Group_17">
<g id="Group_18">
<path id="Vector_14" d="M54.8817 16.0135L55.5603 15.622C56.1472 15.4191 56.7738 15.3575 57.389 15.4421C58.0043 15.5268 58.5909 15.7553 59.1012 16.1092L58.4313 16.5007C57.9193 16.1467 57.3313 15.9182 56.7146 15.8335C56.098 15.7489 55.4701 15.8105 54.8817 16.0135Z" fill="#ACACAC"/>
</g>
</g>
</g>
</g>
</g>
<path id="Vector_15" d="M61.9285 20.0417L62.6071 19.6501L61.2586 20.6507L60.58 21.0422L61.9285 20.0417Z" fill="#737373"/>
<g id="Group_19">
<g id="Clip path group_6">
<mask id="mask5_578_765" style="mask-type:luminance" maskUnits="userSpaceOnUse" x="58" y="16" width="5" height="5">
<g id="clip-path-17">
<path id="Vector_16" d="M58.4316 16.5006L59.1015 16.1091C60.5243 16.9988 61.7167 18.2121 62.5815 19.6501L61.9029 20.0416C61.0387 18.606 59.8498 17.3931 58.4316 16.5006Z" fill="white"/>
</g>
</mask>
<g mask="url(#mask5_578_765)">
<g id="Group_20">
<g id="Group_21">
<path id="Vector_17" d="M58.4316 16.5006L59.1015 16.1091C60.5243 16.9988 61.7167 18.2121 62.5816 19.6501L61.903 20.0416C61.0363 18.605 59.8443 17.3921 58.4229 16.5006H58.4316Z" fill="#ACACAC"/>
</g>
</g>
</g>
</g>
</g>
<path id="Vector_18" d="M58.4313 16.5007C59.8526 17.3922 61.0447 18.6051 61.9113 20.0417L60.5628 21.0422C60.0294 20.1469 59.2896 19.3922 58.4052 18.8411C58.0874 18.6256 57.7237 18.4874 57.343 18.4376C56.9623 18.3877 56.5753 18.4276 56.2127 18.554L54.8642 16.0135C55.4551 15.8077 56.0863 15.7445 56.7062 15.8292C57.3261 15.9139 57.9173 16.144 58.4313 16.5007Z" fill="#E2E2E2"/>
</g>
<g id="Group_22">
<path id="Vector_19" d="M33.0351 56.2515L50.6006 46.2464C50.811 46.1401 51.0435 46.0847 51.2792 46.0847C51.515 46.0847 51.7474 46.1401 51.9578 46.2464L34.3923 56.2602C34.1819 56.1539 33.9494 56.0986 33.7137 56.0986C33.478 56.0986 33.2455 56.1539 33.0351 56.2602V56.2515Z" fill="#9F9F9F"/>
<g id="Group_23">
<g id="Group_24">
<path id="Vector_20" d="M52.3051 46.4117C52.1936 46.3451 52.0772 46.2869 51.9571 46.2377L34.3915 56.2515C34.5046 56.295 34.6177 56.3559 34.7395 56.4168C35.3469 56.8172 35.8668 57.3367 36.2675 57.9438C36.6683 58.551 36.9417 59.2332 37.0712 59.949L54.6367 49.9352C54.5086 49.2201 54.2356 48.5386 53.8347 47.9327C53.4338 47.3268 52.9132 46.8092 52.3051 46.4117Z" fill="#E5E5E5"/>
<path id="Vector_21" d="M37.0714 59.9229L54.6369 49.9091C54.6708 50.1074 54.6883 50.3082 54.6891 50.5094C54.718 50.8032 54.6689 51.0996 54.5467 51.3684C54.4245 51.6372 54.2335 51.8691 53.9931 52.0406L36.4189 62.0544C36.6622 61.8852 36.8559 61.654 36.9798 61.3848C37.1037 61.1155 37.1534 60.8181 37.1236 60.5232C37.1236 60.322 37.1061 60.1211 37.0714 59.9229Z" fill="#9F9F9F"/>
</g>
</g>
<path id="Vector_22" d="M34.74 56.443C35.4338 56.8964 36.0111 57.5068 36.4252 58.2247C36.8393 58.9426 37.0787 59.7479 37.1238 60.5755C37.1238 62.0893 36.045 62.707 34.7226 61.9414C34.0266 61.4925 33.4474 60.8843 33.0329 60.1673C32.6184 59.4502 32.3805 58.6448 32.3388 57.8176C32.3475 56.269 33.4176 55.66 34.74 56.443Z" fill="#F0910A"/>
</g>
<g id="Group_25">
<g id="Group_26">
<path id="Vector_23" d="M35.6975 63.1768L40.7958 60.2101C40.8074 60.317 40.7902 60.4251 40.7458 60.523C40.7014 60.621 40.6315 60.7052 40.5434 60.7669L35.4539 63.7336C35.5419 63.6719 35.6118 63.5877 35.6562 63.4897C35.7006 63.3918 35.7179 63.2837 35.7062 63.1768H35.6975Z" fill="#EBEBEB"/>
</g>
<g id="Group_27">
<path id="Vector_24" d="M30.2341 54.79L35.3323 51.8232C35.4326 51.7763 35.5437 51.7572 35.6539 51.7679C35.7641 51.7786 35.8694 51.8188 35.9587 51.8841L30.8518 54.8509C30.7641 54.7854 30.6603 54.7451 30.5514 54.7344C30.4425 54.7236 30.3328 54.7429 30.2341 54.79Z" fill="#C9C9C9"/>
</g>
<path id="Vector_25" d="M35.7066 58.6354L40.8136 55.6687L40.7962 60.2102L35.6979 63.1769L35.7066 58.6354Z" fill="#F5F5F5"/>
<path id="Vector_26" d="M30.8863 54.8509L35.9933 51.8842L39.9431 54.1636L34.8362 57.1303L30.8863 54.8509Z" fill="#DCDCDC"/>
<g id="Group_28">
<path id="Vector_27" d="M34.8366 57.1303L39.9436 54.1636C40.1966 54.3285 40.4073 54.5507 40.5584 54.8122C40.7096 55.0737 40.797 55.3671 40.8136 55.6687L35.7066 58.6354C35.6935 58.333 35.6076 58.0383 35.4561 57.7762C35.3046 57.5142 35.0921 57.2926 34.8366 57.1303Z" fill="#EBEBEB"/>
</g>
<path id="Vector_28" d="M34.8362 57.1302C35.0917 57.2925 35.3042 57.5141 35.4557 57.7761C35.6072 58.0382 35.6931 58.333 35.7062 58.6353V63.1768C35.7062 63.7249 35.3147 63.9511 34.8362 63.6727L30.8863 61.3933C30.6342 61.2274 30.4243 61.0049 30.2733 60.7436C30.1223 60.4823 30.0343 60.1894 30.0163 59.8882V55.3467C30.0163 54.7899 30.4078 54.5724 30.8863 54.8508L34.8362 57.1302Z" fill="#BFBFBF"/>
</g>
<g id="Group_29">
<path id="Vector_29" d="M35.4361 26.8888L38.7769 24.9399L38.7508 55.1815L35.41 57.1304L35.4361 26.8888Z" fill="#969696"/>
<path id="Vector_30" d="M31.5563 24.6528L34.9058 22.704L38.7774 24.9399L35.4365 26.8887L31.5563 24.6528Z" fill="#C1C1C1"/>
<path id="Vector_31" d="M35.4365 26.8888L35.4104 57.1303L31.5301 54.8944L31.5562 24.6528L35.4365 26.8888Z" fill="#DFDFDF"/>
</g>
<g id="Group_30">
<g id="Clip path group_7">
<mask id="mask6_578_765" style="mask-type:luminance" maskUnits="userSpaceOnUse" x="1" y="7" width="33" height="27">
<g id="clip-path-18">
<path id="Vector_32" d="M4.56823 24.6701L33.7136 7.72229C31.5125 9.40141 30.8426 12.9424 30.4859 16.1962L1.31439 33.144C1.7059 29.8902 2.3932 26.3492 4.56823 24.6701Z" fill="white"/>
</g>
</mask>
<g mask="url(#mask6_578_765)">
<g id="Group_31">
<g id="Group_32">
<path id="Vector_33" d="M4.56823 24.6701L33.7136 7.72229C31.5125 9.40141 30.8426 12.9424 30.4859 16.1962L1.31439 33.144C1.6798 29.8902 2.3497 26.3492 4.54213 24.6701H4.56823Z" fill="#9F9F9F"/>
</g>
</g>
</g>
</g>
</g>
<g id="Group_33">
<g id="Group_34">
<g id="Clip path group_8">
<mask id="mask7_578_765" style="mask-type:luminance" maskUnits="userSpaceOnUse" x="8" y="8" width="34" height="17">
<g id="clip-path-19">
<path id="Vector_34" d="M8.32694 23.7393L33.9401 8.85339C35.9063 7.71368 38.6381 7.87028 41.6483 9.6103L16.0352 24.4962C13.025 22.7562 10.3019 22.5909 8.32694 23.7393Z" fill="white"/>
</g>
</mask>
<g mask="url(#mask7_578_765)">
<g id="Group_35">
<g id="Group_36">
<path id="Vector_35" d="M8.32696 23.7393L33.9401 8.85338C35.3797 8.07581 37.0679 7.8976 38.6381 8.35747L13.025 23.2434C11.4548 22.7835 9.76656 22.9617 8.32696 23.7393Z" fill="#011824"/>
<path id="Vector_36" d="M13.0251 23.2433L38.6382 8.35742C39.6952 8.63228 40.7085 9.054 41.6484 9.61024L16.0353 24.4961C15.0972 23.9363 14.0834 23.5144 13.0251 23.2433Z" fill="#011D2B"/>
</g>
</g>
</g>
</g>
</g>
<g id="Group_37">
<g id="Clip path group_9">
<mask id="mask8_578_765" style="mask-type:luminance" maskUnits="userSpaceOnUse" x="16" y="9" width="37" height="42">
<g id="clip-path-20">
<path id="Vector_37" d="M49.2784 35.2495L23.6739 50.1354C25.614 49.0044 26.8234 46.6032 26.8321 43.1753C26.8321 36.2935 22.0209 27.9327 16.0352 24.4788L41.6484 9.5929C47.6253 13.0729 52.4626 21.4164 52.4365 28.2894C52.4278 31.7173 51.2272 34.1272 49.2784 35.2495Z" fill="white"/>
</g>
</mask>
<g mask="url(#mask8_578_765)">
<g id="Group_38">
<g id="Group_39">
<path id="Vector_38" d="M16.0353 24.4962L41.6484 9.61035C45.7288 11.9681 49.2784 16.6139 51.1141 21.5121L25.501 36.4328C23.6653 31.5346 20.1243 26.8627 16.0353 24.531V24.4962Z" fill="#011D2B"/>
<path id="Vector_39" d="M25.5011 36.4328L51.1142 21.5121C51.9577 23.6797 52.4056 25.9811 52.4366 28.3069C52.4366 31.7173 51.2273 34.1272 49.2785 35.267L23.6741 50.1528C25.6142 49.0218 26.8235 46.6206 26.8322 43.1928C26.7937 40.8669 26.343 38.5664 25.5011 36.398V36.4328Z" fill="#9F9F9F"/>
</g>
</g>
</g>
</g>
</g>
<path id="Vector_40" d="M23.6735 50.1505C27.8945 47.6978 27.8817 39.7989 23.6449 32.5078C19.4082 25.2167 12.552 21.2944 8.33102 23.7471C4.11008 26.1998 4.12286 34.0987 8.35957 41.3898C12.5963 48.6809 19.4526 52.6032 23.6735 50.1505Z" fill="#D9D9D9"/>
<path id="Vector_41" d="M20.829 49.857C19.2875 49.7869 17.7898 49.3226 16.4789 48.5085C10.7891 45.2199 6.16929 37.1984 6.18669 30.6907C6.18669 26.5755 8.11813 24.0177 11.1806 24.0177C12.7228 24.0835 14.2216 24.5481 15.5306 25.3662C21.2205 28.6549 25.8402 36.6764 25.8228 43.184C25.8054 47.2992 23.8914 49.857 20.829 49.857Z" fill="#283033"/>
<path id="Vector_42" d="M20.8289 49.3524C19.3731 49.2852 17.959 48.8448 16.7225 48.0735C11.1718 44.8632 6.66515 37.0679 6.68255 30.6733C6.68255 26.8626 8.42257 24.5049 11.1718 24.5049C12.6276 24.5721 14.0417 25.0125 15.2783 25.7838C20.8289 28.9941 25.3356 36.7894 25.3182 43.184C25.3008 46.986 23.5869 49.3524 20.8289 49.3524Z" fill="#00B5AC"/>
</g>
<g id="Group_40">
<g id="Group_41">
<g id="Clip path group_10">
<mask id="mask9_578_765" style="mask-type:luminance" maskUnits="userSpaceOnUse" x="4" y="6" width="39" height="20">
<g id="clip-path-21">
<path id="Vector_43" d="M4.31618 24.2526L33.4877 7.30478C36.0977 6.06936 39.2471 6.43477 42.3009 8.21829L13.1381 25.1226C10.0844 23.3826 6.96102 22.9998 4.31618 24.2526Z" fill="white"/>
</g>
</mask>
<g mask="url(#mask9_578_765)">
<g id="Group_42">
<g id="Group_43">
<path id="Vector_44" d="M4.31624 24.2526L33.4877 7.30478C35.2259 6.52276 37.1819 6.36899 39.021 6.86977L9.84952 23.8176C8.01037 23.3175 6.05466 23.4713 4.31624 24.2526Z" fill="#E5E5E5"/>
<path id="Vector_45" d="M9.84954 23.8001L39.021 6.85229C40.173 7.1431 41.2775 7.59721 42.3009 8.20081L13.1382 25.1225C12.111 24.5203 11.0038 24.0663 9.84954 23.774V23.8001Z" fill="white" fill-opacity="0.49"/>
</g>
</g>
</g>
</g>
</g>
<g id="Group_44">
<g id="Clip path group_11">
<mask id="mask10_578_765" style="mask-type:luminance" maskUnits="userSpaceOnUse" x="13" y="8" width="36" height="23">
<g id="clip-path-22">
<path id="Vector_46" d="M13.1384 25.1226L42.3012 8.1748C44.6803 9.62319 46.75 11.5273 48.3913 13.7777L19.2285 30.7255C17.5872 28.4751 15.5176 26.571 13.1384 25.1226Z" fill="white"/>
</g>
</mask>
<g mask="url(#mask10_578_765)">
<g id="Group_45">
<g id="Group_46">
<path id="Vector_47" d="M13.1384 25.1226L42.3012 8.1748C44.6803 9.62319 46.75 11.5273 48.3913 13.7777L19.2285 30.7255C17.5872 28.4751 15.5176 26.571 13.1384 25.1226Z" fill="white" fill-opacity="0.49"/>
</g>
</g>
</g>
</g>
</g>
<g id="Group_47">
<g id="Clip path group_12">
<mask id="mask11_578_765" style="mask-type:luminance" maskUnits="userSpaceOnUse" x="19" y="13" width="36" height="34">
<g id="clip-path-23">
<path id="Vector_48" d="M19.2369 30.7516L48.3997 13.8125C52.1059 18.9456 54.194 24.7224 54.1157 29.6641L24.9529 46.6119C25.0138 41.6529 22.9431 35.8847 19.2369 30.7516Z" fill="white"/>
</g>
</mask>
<g mask="url(#mask11_578_765)">
<g id="Group_48">
<path id="Vector_49" d="M19.2369 30.7516L48.3997 13.8125C50.12 16.1746 51.5184 18.7551 52.5583 21.486L23.3956 38.4338C22.3523 35.7045 20.954 33.1245 19.2369 30.7603V30.7516Z" fill="#E5E5E5"/>
<path id="Vector_50" d="M23.3951 38.4251L52.5579 21.4773C53.575 24.0845 54.1029 26.8568 54.1152 29.6554L24.9524 46.6032C24.9401 43.8047 24.4122 41.0323 23.3951 38.4251Z" fill="#E5E5E5"/>
</g>
</g>
</g>
</g>
<path id="Vector_51" d="M13.1381 25.1226C15.5173 26.571 17.5869 28.4751 19.2282 30.7255C22.9345 35.8586 25.0138 41.6354 24.9442 46.5771L24.5788 46.3683C24.6571 41.5571 22.6299 35.9282 19.0194 30.9517C17.4362 28.7735 15.4337 26.9337 13.1294 25.5402C10.1627 23.8002 7.12635 23.4522 4.55981 24.6702C2.36739 26.3493 1.69748 29.8903 1.33208 33.1441L0.975372 32.8918C1.34948 29.5858 2.0281 25.9317 4.30753 24.1917C6.96106 22.9998 10.0844 23.3826 13.1381 25.1226Z" fill="white" fill-opacity="0.49"/>
</g>
</g>
</svg>
