<svg width="67" height="102" viewBox="0 0 67 102" fill="none" xmlns="http://www.w3.org/2000/svg">
<path d="M43.2676 92.4299L43.9562 94.9114L42.5399 96.367L41.8453 93.8963L43.2676 92.4299Z" fill="#5E5B65"/>
<path d="M41.8448 93.8964L42.5394 96.3671L39.0261 95.4751L38.3375 92.9937L41.8448 93.8964Z" fill="#333137"/>
<path d="M43.2676 92.43L41.8453 93.8963L38.338 92.9936L39.7543 91.538L43.2676 92.43Z" fill="#413F46"/>
<path d="M61.5859 73.6875L62.2746 76.169L60.8583 77.6246L60.1636 75.1538L61.5859 73.6875Z" fill="#5E5B65"/>
<path d="M60.1631 75.1537L60.8578 77.6244L57.3445 76.7325L56.6558 74.251L60.1631 75.1537Z" fill="#333137"/>
<path d="M61.586 73.6873L60.1637 75.1536L56.6564 74.2509L58.0727 72.7953L61.586 73.6873Z" fill="#413F46"/>
<path d="M27.2666 88.3616L27.9553 90.843L26.5413 92.307L25.8526 89.8255L27.2666 88.3616Z" fill="#5E5B65"/>
<path d="M25.8522 89.8254L26.5408 92.3069L23.0252 91.4066L22.3365 88.9251L25.8522 89.8254Z" fill="#333137"/>
<path d="M27.2667 88.3614L25.8527 89.8253L22.337 88.925L23.7617 87.467L27.2667 88.3614Z" fill="#413F46"/>
<path d="M42.4081 95.7714L22.1976 90.5547L3.90527 26.0732L24.105 31.284L42.4081 95.7714Z" fill="#C8D1E3" fill-opacity="0.5"/>
<path d="M32.6276 68.4086L34.8028 68.9448L34.4789 67.8249L32.3312 67.29L32.6276 68.4086Z" fill="#333137"/>
<path d="M22.5354 30.8757L21.874 30.7092L39.9921 95.1493L40.6535 95.3158L22.5354 30.8757Z" fill="#787C87"/>
<path d="M24.1053 31.284L3.90565 26.0732L23.5837 5.89983L43.7918 11.1082L24.1053 31.284Z" fill="#EDEFF5" fill-opacity="0.28"/>
<path d="M54.4782 48.7632L54.4494 48.7893L54.1283 48.7079L53.3309 48.5074L53.907 47.9206L54.1567 47.6516L43.7917 11.1083L24.1137 31.2817L34.4786 67.825L34.8002 68.9366L42.406 95.7631L62.0865 75.5981L54.4782 48.7632Z" fill="#E1E4EA" fill-opacity="0.47"/>
<path d="M22.5785 30.9L21.9017 30.7107L41.5882 10.5349L42.2673 10.7326L22.5785 30.9Z" fill="#CFD1D6"/>
<path d="M33.6346 61.3836L34.5301 60.454L35.5829 60.7273L34.6852 61.6485L33.6346 61.3836Z" fill="#413F46"/>
<path d="M35.787 61.9351L36.6824 61.0055L36.8826 61.7174L35.9871 62.647L35.787 61.9351Z" fill="#5E5B65"/>
<path d="M25.7299 33.0774L26.6277 32.1562L27.6866 32.4188L26.7888 33.34L25.7299 33.0774Z" fill="#413F46"/>
<path d="M28.0893 34.3302L28.9787 33.4113L36.683 61.0055L35.7875 61.9351L28.0893 34.3302Z" fill="#5E5B65"/>
<path d="M27.8915 33.6268L28.7869 32.6972L28.9787 33.4114L28.0893 34.3303L27.8915 33.6268Z" fill="#5E5B65"/>
<path d="M26.7895 33.3401L27.6873 32.4189L28.7868 32.6972L27.8913 33.6267L26.7895 33.3401Z" fill="#413F46"/>
<path d="M27.8907 33.6268L28.0885 34.3303L35.7867 61.9352L35.9868 62.6471L34.885 62.3605L33.8345 62.0955L33.6343 61.3836L34.6848 61.6485L26.989 34.052L25.9277 33.781L25.7299 33.0775L26.7889 33.3401L27.8907 33.6268Z" fill="#333137"/>
<path d="M53.3308 48.5072L33.648 68.6639L34.8001 68.9364L54.4494 48.7892L53.3308 48.5072Z" fill="#4E4C54"/>
<path d="M48.3302 31.3955L40.2705 39.6624L37.9699 31.4797L46.0295 23.2128L48.3302 31.3955Z" fill="#C8D1E3" fill-opacity="0.5"/>
<path d="M47.3443 29.2057L39.9075 36.8275L38.4593 31.6767L45.8984 24.0632L47.3443 29.2057Z" fill="#025074"/>
<path d="M46.2035 32.7345L47.8598 31.0397L47.4737 29.6662L45.8173 31.361L46.2035 32.7345Z" fill="#EDEFF5" fill-opacity="0.28"/>
<path d="M45.5994 31.5848L43.8734 33.3534L44.2596 34.7269L45.9856 32.9583L45.5994 31.5848Z" fill="#EDEFF5" fill-opacity="0.28"/>
<path d="M42.3434 36.6847L44.0489 34.9399L43.6651 33.5747L41.9596 35.3195L42.3434 36.6847Z" fill="#EDEFF5" fill-opacity="0.28"/>
<path d="M41.7422 35.5435L40.0367 37.2883L40.4205 38.6535L42.1261 36.9087L41.7422 35.5435Z" fill="#EDEFF5" fill-opacity="0.28"/>
<path d="M40.7878 34.1399C40.3737 34.5636 39.9057 34.4421 39.7456 33.8726C39.6752 33.5572 39.6802 33.2298 39.7603 32.9168C39.8403 32.6037 39.993 32.314 40.2061 32.0712C40.6286 31.6451 41.0942 31.7582 41.2543 32.3277C41.3264 32.6451 41.3217 32.9751 41.2405 33.2903C41.1594 33.6055 41.0042 33.8968 40.7878 34.1399ZM40.2815 32.3392C40.1254 32.5199 40.0136 32.7345 39.9548 32.9659C39.8959 33.1974 39.8917 33.4393 39.9424 33.6726C40.0625 34.0998 40.4111 34.1825 40.7124 33.8719C40.8714 33.6923 40.9858 33.4777 41.0462 33.2456C41.1066 33.0135 41.1112 32.7703 41.0598 32.5361C40.9397 32.1089 40.5888 32.0178 40.2815 32.3392Z" fill="white" fill-opacity="0.49"/>
<path d="M40.7067 33.2767C40.7181 33.3297 40.7171 33.3845 40.7036 33.437C40.6901 33.4894 40.6645 33.538 40.629 33.5788C40.5536 33.6 40.4866 33.6188 40.4607 33.5267L40.2935 32.932C40.2826 32.88 40.2831 32.8263 40.2951 32.7745C40.3071 32.7228 40.3302 32.6743 40.3629 32.6324C40.4325 32.5586 40.5136 32.59 40.5372 32.6737L40.7067 33.2767Z" fill="white" fill-opacity="0.49"/>
<path d="M46.2225 27.0809L46.1637 26.8716C46.1637 26.8716 46.1637 26.8716 46.1218 26.8833L45.9166 27.0856C45.8762 27.0467 45.8278 27.0171 45.7748 26.999L45.7714 26.6656L45.7596 26.6237L45.5837 26.6731L45.4926 27.0241C45.4288 27.0553 45.3701 27.0961 45.3188 27.1453L45.1641 26.9809L45.0019 27.2073C45.0018 27.225 45.0067 27.2424 45.016 27.2575L45.0961 27.5423C45.0578 27.6276 45.0251 27.7153 44.9982 27.8048L44.7838 27.9102L44.7419 28.2112L44.946 28.2623C44.9569 28.3461 44.9799 28.4279 45.0143 28.5052L44.8588 28.82L44.873 28.8702L44.9318 29.0796L45.137 28.8773C45.1792 28.9139 45.2271 28.9431 45.2789 28.964L45.2906 29.2951L45.3024 29.3369L45.4783 29.2875L45.5694 28.9365C45.6313 28.9072 45.6873 28.867 45.7348 28.8177L45.8979 28.9797L46.0601 28.7533C46.0601 28.7533 46.0484 28.7115 46.046 28.7031L45.966 28.4183C46.0042 28.3331 46.0369 28.2454 46.0639 28.1558L46.2782 28.0504L46.3117 27.7517L46.3 27.7099L46.0935 27.6505C46.0797 27.5702 46.0576 27.4916 46.0275 27.4159L46.1747 27.1035C46.1838 27.1035 46.1929 27.1016 46.2012 27.0977C46.2095 27.0938 46.2168 27.0881 46.2225 27.0809ZM45.6278 28.405C45.4679 28.6397 45.2574 28.6627 45.146 28.4591C45.1003 28.3309 45.0853 28.1937 45.1023 28.0587C45.1193 27.9236 45.1677 27.7945 45.2437 27.6815C45.4036 27.4468 45.6224 27.4214 45.7255 27.6274C45.7756 27.7548 45.7929 27.8928 45.7759 28.0286C45.7588 28.1645 45.7079 28.2939 45.6278 28.405Z" fill="white" fill-opacity="0.49"/>
<path d="M41.6658 32.2842L42.2591 32.4337C42.2872 32.4409 42.3168 32.4405 42.3447 32.4326C42.3726 32.4248 42.398 32.4097 42.4183 32.3889C42.4737 32.3293 42.5123 32.2561 42.5303 32.1767L42.7916 31.1453C42.8353 30.9793 42.7929 30.8286 42.695 30.8019C42.5972 30.7752 42.4857 30.8608 42.4513 31.0602L42.3893 31.3216L42.1727 30.5511C42.1279 30.392 41.9942 30.3663 41.8814 30.4794C41.8217 30.546 41.7787 30.6259 41.7559 30.7125C41.7331 30.799 41.7311 30.8897 41.7502 30.9772L41.9668 31.7477L41.7855 31.6812C41.6876 31.6545 41.5677 31.7424 41.5394 31.9311C41.5111 32.1198 41.5679 32.2575 41.6658 32.2842Z" fill="white" fill-opacity="0.49"/>
<path d="M44.2571 28.8987L43.6829 28.7529C43.6563 28.7451 43.6281 28.745 43.6015 28.7525C43.5748 28.76 43.5508 28.7748 43.5322 28.7953C43.4784 28.8511 43.4417 28.9209 43.4261 28.9968L43.1675 29.9733C43.1214 30.1308 43.1614 30.2732 43.2593 30.2999C43.3572 30.3266 43.4603 30.2434 43.4886 30.0547L43.553 29.8016L43.7602 30.5386C43.7637 30.5701 43.7767 30.5998 43.7974 30.6238C43.8181 30.6478 43.8456 30.6649 43.8762 30.673C43.9069 30.681 43.9392 30.6795 43.969 30.6688C43.9988 30.658 44.0247 30.6385 44.0432 30.6127C44.0967 30.5453 44.1349 30.467 44.1551 30.3833C44.1753 30.2995 44.1769 30.2124 44.1599 30.128L43.955 29.3994L44.0995 29.431C44.189 29.4601 44.3005 29.3745 44.3395 29.1918C44.3785 29.0092 44.3443 28.9194 44.2571 28.8987Z" fill="white" fill-opacity="0.49"/>
</svg>
