<svg width="67" height="101" viewBox="0 0 67 101" fill="none" xmlns="http://www.w3.org/2000/svg">
<g id="Group 7">
<g id="Group">
<path id="Vector" d="M43.8535 91.4925L44.5421 93.974L43.1258 95.4296L42.4312 92.9589L43.8535 91.4925Z" fill="#5E5B65"/>
<path id="Vector_2" d="M42.4308 92.9588L43.1255 95.4296L39.6122 94.5376L38.9235 92.0561L42.4308 92.9588Z" fill="#333137"/>
<path id="Vector_3" d="M43.8535 91.4926L42.4312 92.9589L38.9239 92.0562L40.3402 90.6006L43.8535 91.4926Z" fill="#413F46"/>
</g>
<g id="Group_2">
<path id="Vector_4" d="M62.1718 72.7499L62.8605 75.2313L61.4442 76.6869L60.7495 74.2162L62.1718 72.7499Z" fill="#5E5B65"/>
<path id="Vector_5" d="M60.7492 74.2161L61.4438 76.6869L57.9305 75.7949L57.2419 73.3134L60.7492 74.2161Z" fill="#333137"/>
<path id="Vector_6" d="M62.1719 72.7499L60.7496 74.2162L57.2423 73.3135L58.6586 71.8579L62.1719 72.7499Z" fill="#413F46"/>
</g>
<g id="Group_3">
<path id="Vector_7" d="M27.8525 87.4241L28.5412 89.9055L27.1272 91.3695L26.4386 88.888L27.8525 87.4241Z" fill="#5E5B65"/>
<path id="Vector_8" d="M26.4381 88.888L27.1268 91.3695L23.6111 90.4691L22.9225 87.9876L26.4381 88.888Z" fill="#333137"/>
<path id="Vector_9" d="M27.8526 87.424L26.4386 88.888L22.9229 87.9876L24.3476 86.5297L27.8526 87.424Z" fill="#413F46"/>
</g>
<path id="Vector_10" d="M42.994 94.8339L22.7836 89.6172L4.49121 25.1357L24.6909 30.3465L42.994 94.8339Z" fill="#C8D1E3" fill-opacity="0.5"/>
<path id="Vector_11" d="M33.2136 67.4711L35.3887 68.0073L35.0648 66.8874L32.9171 66.3525L33.2136 67.4711Z" fill="#333137"/>
<path id="Vector_12" d="M23.1213 29.9382L22.4599 29.7717L40.578 94.2118L41.2394 94.3783L23.1213 29.9382Z" fill="#787C87"/>
<path id="Vector_13" d="M24.6913 30.3465L4.49158 25.1357L24.1696 4.96233L44.3777 10.1707L24.6913 30.3465Z" fill="#EDEFF5" fill-opacity="0.28"/>
<path id="Vector_14" d="M55.0641 47.8255L55.0353 47.8517L54.7142 47.7703L53.9168 47.5697L54.4929 46.983L54.7426 46.714L44.3776 10.1707L24.6996 30.3441L35.0645 66.8874L35.3861 67.9989L42.9919 94.8255L62.6724 74.6605L55.0641 47.8255Z" fill="#E1E4EA" fill-opacity="0.47"/>
<path id="Vector_15" d="M23.1645 29.9625L22.4876 29.7732L42.1741 9.59742L42.8533 9.79509L23.1645 29.9625Z" fill="#CFD1D6"/>
<g id="Group_4">
<path id="Vector_16" d="M34.2203 60.4459L35.1157 59.5163L36.1686 59.7896L35.2708 60.7108L34.2203 60.4459Z" fill="#413F46"/>
<path id="Vector_17" d="M36.3726 60.9975L37.2681 60.068L37.4682 60.7799L36.5728 61.7094L36.3726 60.9975Z" fill="#5E5B65"/>
<path id="Vector_18" d="M26.3156 32.1398L27.2134 31.2186L28.2723 31.4812L27.3745 32.4024L26.3156 32.1398Z" fill="#413F46"/>
<path id="Vector_19" d="M28.675 33.3926L29.5644 32.4738L37.2686 60.068L36.3732 60.9975L28.675 33.3926Z" fill="#5E5B65"/>
<path id="Vector_20" d="M28.4771 32.6891L29.3726 31.7595L29.5643 32.4737L28.6749 33.3926L28.4771 32.6891Z" fill="#5E5B65"/>
<path id="Vector_21" d="M27.3752 32.4024L28.2729 31.4812L29.3724 31.7595L28.477 32.6891L27.3752 32.4024Z" fill="#413F46"/>
<path id="Vector_22" d="M28.4764 32.6891L28.6742 33.3926L36.3723 60.9975L36.5725 61.7094L35.4707 61.4228L34.4201 61.1578L34.22 60.4459L35.2705 60.7109L27.5747 33.1143L26.5134 32.8433L26.3156 32.1398L27.3745 32.4024L28.4764 32.6891Z" fill="#333137"/>
</g>
<path id="Vector_23" d="M53.9167 47.5697L34.2339 67.7264L35.386 67.9989L55.0353 47.8517L53.9167 47.5697Z" fill="#4E4C54"/>
<path id="Vector_24" d="M48.9161 30.4581L40.8564 38.7251L38.5558 30.5423L46.6155 22.2754L48.9161 30.4581Z" fill="#C8D1E3" fill-opacity="0.5"/>
<path id="Vector_25" d="M47.9302 28.2682L40.4934 35.89L39.0452 30.7392L46.4843 23.1257L47.9302 28.2682Z" fill="#025074"/>
<path id="Vector_26" d="M46.7894 31.7972L48.4458 30.1024L48.0596 28.7288L46.4032 30.4236L46.7894 31.7972Z" fill="#EDEFF5" fill-opacity="0.28"/>
<path id="Vector_27" d="M46.1853 30.6474L44.4594 32.416L44.8455 33.7895L46.5715 32.021L46.1853 30.6474Z" fill="#EDEFF5" fill-opacity="0.28"/>
<path id="Vector_28" d="M42.9293 35.7473L44.6348 34.0026L44.251 32.6374L42.5455 34.3822L42.9293 35.7473Z" fill="#EDEFF5" fill-opacity="0.28"/>
<path id="Vector_29" d="M42.3282 34.6059L40.6226 36.3507L41.0065 37.7158L42.712 35.9711L42.3282 34.6059Z" fill="#EDEFF5" fill-opacity="0.28"/>
<path id="Vector_30" d="M41.3737 33.2024C40.9596 33.6261 40.4916 33.5046 40.3315 32.9351C40.2611 32.6197 40.2662 32.2923 40.3462 31.9793C40.4262 31.6662 40.579 31.3765 40.792 31.1337C41.2145 30.7076 41.6801 30.8207 41.8402 31.3902C41.9123 31.7076 41.9076 32.0376 41.8264 32.3528C41.7453 32.668 41.5901 32.9593 41.3737 33.2024ZM40.8674 31.4017C40.7113 31.5824 40.5995 31.797 40.5407 32.0284C40.4818 32.2599 40.4776 32.5018 40.5283 32.7351C40.6484 33.1623 40.997 33.245 41.2983 32.9344C41.4574 32.7548 41.5717 32.5402 41.6321 32.3081C41.6925 32.076 41.6971 31.8328 41.6457 31.5986C41.5256 31.1714 41.1747 31.0803 40.8674 31.4017Z" fill="white" fill-opacity="0.49"/>
<path id="Vector_31" d="M41.2926 32.3392C41.304 32.3922 41.303 32.447 41.2895 32.4995C41.276 32.5519 41.2504 32.6005 41.2149 32.6413C41.1395 32.6625 41.0725 32.6813 41.0466 32.5892L40.8794 31.9945C40.8685 31.9425 40.869 31.8888 40.881 31.837C40.893 31.7853 40.9161 31.7368 40.9488 31.6949C41.0184 31.6211 41.0995 31.6525 41.1231 31.7362L41.2926 32.3392Z" fill="white" fill-opacity="0.49"/>
<path id="Vector_32" d="M46.8085 26.1434L46.7496 25.9341C46.7496 25.9341 46.7496 25.9341 46.7077 25.9458L46.5025 26.1481C46.4621 26.1092 46.4137 26.0796 46.3607 26.0615L46.3573 25.7281L46.3455 25.6862L46.1696 25.7356L46.0785 26.0866C46.0147 26.1178 45.956 26.1586 45.9047 26.2078L45.7501 26.0434L45.5878 26.2698C45.5877 26.2875 45.5926 26.3049 45.6019 26.32L45.682 26.6048C45.6437 26.6901 45.611 26.7778 45.5841 26.8673L45.3697 26.9727L45.3278 27.2737L45.5319 27.3248C45.5428 27.4086 45.5658 27.4904 45.6002 27.5677L45.4447 27.8825L45.4589 27.9327L45.5177 28.1421L45.7229 27.9398C45.7651 27.9764 45.813 28.0056 45.8648 28.0265L45.8765 28.3576L45.8883 28.3994L46.0642 28.35L46.1553 27.999C46.2172 27.9697 46.2732 27.9295 46.3207 27.8802L46.4838 28.0422L46.6461 27.8158C46.6461 27.8158 46.6343 27.774 46.6319 27.7656L46.5519 27.4808C46.5901 27.3956 46.6229 27.3079 46.6498 27.2183L46.8641 27.1129L46.8977 26.8142L46.8859 26.7724L46.6794 26.713C46.6656 26.6327 46.6435 26.5541 46.6134 26.4784L46.7606 26.166C46.7697 26.166 46.7788 26.1641 46.7871 26.1602C46.7954 26.1563 46.8027 26.1506 46.8085 26.1434ZM46.2137 27.4675C46.0538 27.7022 45.8434 27.7252 45.7319 27.5216C45.6862 27.3934 45.6712 27.2562 45.6882 27.1212C45.7052 26.9861 45.7536 26.857 45.8296 26.744C45.9895 26.5093 46.2083 26.4839 46.3114 26.6899C46.3615 26.8173 46.3788 26.9553 46.3618 27.0911C46.3447 27.227 46.2938 27.3564 46.2137 27.4675Z" fill="white" fill-opacity="0.49"/>
<path id="Vector_33" d="M42.2517 31.3466L42.845 31.4961C42.8732 31.5032 42.9027 31.5029 42.9306 31.495C42.9585 31.4872 42.9839 31.4721 43.0042 31.4513C43.0596 31.3917 43.0982 31.3185 43.1162 31.2391L43.3775 30.2076C43.4212 30.0417 43.3788 29.891 43.2809 29.8643C43.1831 29.8376 43.0716 29.9231 43.0373 30.1226L42.9752 30.384L42.7586 29.6135C42.7138 29.4543 42.5801 29.4287 42.4673 29.5417C42.4076 29.6084 42.3646 29.6883 42.3418 29.7748C42.319 29.8614 42.317 29.9521 42.3361 30.0395L42.5527 30.8101L42.3714 30.7436C42.2735 30.7169 42.1536 30.8048 42.1253 30.9935C42.0971 31.1822 42.1538 31.3199 42.2517 31.3466Z" fill="white" fill-opacity="0.49"/>
<path id="Vector_34" d="M44.843 27.9612L44.2688 27.8154C44.2422 27.8076 44.214 27.8075 44.1874 27.815C44.1607 27.8225 44.1367 27.8373 44.1181 27.8578C44.0644 27.9136 44.0276 27.9834 44.012 28.0593L43.7534 29.0358C43.7073 29.1933 43.7473 29.3357 43.8452 29.3624C43.9431 29.3891 44.0462 29.3059 44.0745 29.1172L44.1389 28.8641L44.3461 29.6011C44.3496 29.6326 44.3626 29.6623 44.3833 29.6863C44.404 29.7103 44.4315 29.7274 44.4621 29.7355C44.4928 29.7435 44.5251 29.742 44.5549 29.7313C44.5848 29.7205 44.6106 29.701 44.6291 29.6752C44.6826 29.6078 44.7208 29.5295 44.741 29.4458C44.7612 29.362 44.7628 29.2749 44.7458 29.1905L44.541 28.4619L44.6854 28.4935C44.7749 28.5226 44.8864 28.437 44.9254 28.2543C44.9645 28.0717 44.9302 27.9819 44.843 27.9612Z" fill="white" fill-opacity="0.49"/>
</g>
</svg>
