<svg width="66" height="57" viewBox="0 0 66 57" fill="none" xmlns="http://www.w3.org/2000/svg">
<g id="Group 11">
<g id="Group">
<path id="Vector" d="M26.5882 47.9093L54.3937 31.7532L56.2469 37.2081L28.4413 53.3729L26.5882 47.9093Z" fill="#E1E4EA" fill-opacity="0.47"/>
<path id="Vector_2" d="M26.1271 47.9093L53.9327 31.7445L54.3938 31.7532L26.5882 47.9093H26.1271Z" fill="#606060"/>
<path id="Vector_3" d="M26.5882 47.9093L28.4413 53.373H27.9802L26.1271 47.9093H26.5882Z" fill="#C8D1E3" fill-opacity="0.5"/>
</g>
<g id="Group_2">
<g id="Group_3">
<path id="Vector_4" d="M63.1554 26.6985L13.1037 55.7829C14.3043 55.0869 15.0525 53.5905 15.0612 51.4329L65.113 22.3397C65.0956 24.506 64.3473 25.9938 63.1554 26.6985Z" fill="#D8DBE0"/>
<g id="Clip path group">
<mask id="mask0_578_37" style="mask-type:luminance" maskUnits="userSpaceOnUse" x="13" y="22" width="53" height="34">
<g id="clip-path-65">
<path id="Vector_5" d="M63.1554 26.6985L13.1037 55.7829C14.3043 55.0869 15.0525 53.5905 15.0612 51.4329L65.113 22.3397C65.0956 24.506 64.3473 25.9938 63.1554 26.6985Z" fill="white"/>
</g>
</mask>
<g mask="url(#mask0_578_37)">
<g id="Group_4">
<g id="Group_5">
<path id="Vector_6" d="M15.0433 51.4763L65.095 22.3832V22.4876L15.0433 51.572V51.4763Z" fill="#E1E4EA" fill-opacity="0.47"/>
<path id="Vector_7" d="M15.0442 51.572L65.096 22.4875C65.1387 23.1906 65.0329 23.8948 64.7856 24.5543C64.5383 25.2139 64.1549 25.8139 63.6604 26.3156L13.6087 55.4088C14.1012 54.9039 14.4831 54.302 14.7303 53.6415C14.9774 52.9809 15.0844 52.2762 15.0442 51.572Z" fill="#D8DBE0"/>
<path id="Vector_8" d="M13.6082 55.4088L63.66 26.3157C63.5015 26.4632 63.3263 26.5917 63.138 26.6985L13.0862 55.783C13.2711 55.6741 13.4458 55.5489 13.6082 55.4088Z" fill="#D8DBE0"/>
<path id="Vector_9" d="M22.9173 45.9691L56.9173 26.2112C56.9173 27.4031 56.5345 30.3611 55.9429 30.8918L21.9429 50.6498C22.2763 50.3053 22.535 49.8957 22.7026 49.4465C22.8703 48.9974 22.9434 48.5185 22.9173 48.0398V45.9691Z" fill="#807F83"/>
</g>
</g>
</g>
</g>
</g>
<path id="Vector_10" d="M15.0605 45.6821L65.1123 16.5977L65.0949 22.3832L15.0432 51.4764L15.0605 45.6821Z" fill="#E1E4EA" fill-opacity="0.47"/>
<path id="Vector_11" d="M0.522644 29.5608L50.5831 0.476318L58.4219 5.00037L8.37013 34.0935L0.522644 29.5608Z" fill="#FAFBFD" fill-opacity="0.35"/>
<g id="Group_6">
<path id="Vector_12" d="M8.34491 34.0935L58.3966 5.00037C62.1029 7.14059 65.1044 12.3346 65.087 16.5976L15.0353 45.6821C14.9094 43.3606 14.238 41.1014 13.0756 39.0879C11.9132 37.0744 10.2924 35.3634 8.34491 34.0935Z" fill="#E1E4EA" fill-opacity="0.47"/>
<g id="Clip path group_2">
<mask id="mask1_578_37" style="mask-type:luminance" maskUnits="userSpaceOnUse" x="8" y="5" width="58" height="41">
<g id="clip-path-66">
<path id="Vector_13" d="M8.34491 34.0935L58.3966 5.00037C62.1029 7.14059 65.1044 12.3346 65.087 16.5976L15.0353 45.6821C14.9094 43.3606 14.238 41.1014 13.0756 39.0879C11.9132 37.0744 10.2924 35.3634 8.34491 34.0935Z" fill="white"/>
</g>
</mask>
<g mask="url(#mask1_578_37)">
<g id="Group_7">
<g id="Group_8">
<path id="Vector_14" d="M8.34491 34.0935L58.3966 5.00037C60.0239 6.0029 61.4133 7.34778 62.4683 8.94152L12.4166 38.026C11.3634 36.4331 9.97349 35.0907 8.34491 34.0935Z" fill="#F2F2F2" fill-opacity="0.24"/>
<path id="Vector_15" d="M12.4427 38.026L62.4944 8.94153C63.0972 9.81564 63.6103 10.7484 64.0257 11.7256L13.9739 40.81C13.5532 39.8355 13.0404 38.9032 12.4427 38.026Z" fill="#E1E4EA" fill-opacity="0.47"/>
<path id="Vector_16" d="M13.9739 40.8101L64.0256 11.7256C64.7147 13.2591 65.0847 14.9167 65.1132 16.5976L15.0614 45.6821C15.028 44.0018 14.6582 42.3451 13.9739 40.8101Z" fill="#E1E4EA" fill-opacity="0.47"/>
</g>
</g>
</g>
</g>
</g>
<path id="Vector_17" d="M8.34441 34.0935C10.2919 35.3634 11.9127 37.0745 13.0751 39.0879C14.2375 41.1014 14.9089 43.3606 15.0348 45.6821V51.4764C15.0348 55.7394 12.0072 57.462 8.30092 55.3218L0.470825 50.7891L0.531706 29.5608L8.34441 34.0935Z" fill="#C8D1E3" fill-opacity="0.5"/>
</g>
<path id="Vector_18" d="M63.2161 20.9825C63.7033 20.6953 64.0862 20.9216 64.0862 21.4871C64.0688 21.7897 63.9812 22.0841 63.8302 22.3468C63.6791 22.6096 63.4689 22.8336 63.2161 23.0009C62.7289 23.2793 62.3461 23.0618 62.3461 22.505C62.3607 22.2005 62.4472 21.9039 62.5984 21.6393C62.7496 21.3747 62.9613 21.1496 63.2161 20.9825Z" fill="#FA7564"/>
<path id="Vector_19" d="M60.2491 22.5833C60.7363 22.3049 61.1191 22.5311 61.1191 23.0879C61.1018 23.3905 61.0141 23.6849 60.8631 23.9477C60.7121 24.2104 60.5019 24.4344 60.2491 24.6017C59.7619 24.8888 59.3791 24.6626 59.3791 24.1058C59.3944 23.8015 59.4811 23.5051 59.6323 23.2406C59.7834 22.9761 59.9947 22.7509 60.2491 22.5833Z" fill="#B1D132"/>
<path id="Vector_20" d="M35.8978 32.1795L45.3113 26.7419V33.7194L35.8978 39.1483V32.1795Z" fill="#C8D1E3" fill-opacity="0.5"/>
<path id="Vector_21" d="M44.911 33.3192L36.3066 38.287V32.571L44.9023 27.6033L44.911 33.3192Z" fill="#025074"/>
<path id="Vector_22" d="M37.6729 36.0076C37.177 36.2947 36.8029 36.0685 36.8029 35.4943C36.8176 35.1863 36.9039 34.886 37.0549 34.6171C37.2059 34.3483 37.4175 34.1184 37.6729 33.9457C38.1688 33.6586 38.5429 33.8935 38.5429 34.4677C38.529 34.7746 38.4429 35.074 38.2918 35.3415C38.1406 35.609 37.9286 35.8372 37.6729 36.0076ZM37.6729 34.2154C37.4796 34.3406 37.3187 34.5101 37.2038 34.7098C37.0888 34.9095 37.023 35.1336 37.0117 35.3638C37.0117 35.7814 37.3075 35.9554 37.6729 35.7466C37.8653 35.6203 38.0254 35.4505 38.1402 35.2511C38.2551 35.0516 38.3215 34.828 38.3341 34.5982C38.3341 34.1719 38.0383 34.0066 37.6729 34.2154Z" fill="white" fill-opacity="0.49"/>
<path id="Vector_23" d="M37.8205 35.1898C37.8168 35.2416 37.8017 35.2919 37.7761 35.3371C37.7505 35.3822 37.7151 35.4211 37.6725 35.4508C37.5855 35.4943 37.5247 35.4508 37.5247 35.3638V34.7722C37.5255 34.7198 37.5395 34.6684 37.5653 34.6228C37.5911 34.5772 37.628 34.5388 37.6725 34.5112C37.7508 34.459 37.8205 34.5112 37.8205 34.5982V35.1898Z" fill="white" fill-opacity="0.49"/>
<path id="Vector_24" d="M44.5199 30.9006L44.4677 30.6918L44.2241 30.831C44.1933 30.787 44.155 30.7487 44.111 30.7179L44.1894 30.4047C44.1894 30.4047 44.1894 30.4047 44.1894 30.3612H44.0153L43.8413 30.657C43.7766 30.6685 43.7146 30.6921 43.6586 30.7266L43.5542 30.5265L43.3454 30.7005C43.3416 30.7087 43.3395 30.7176 43.3395 30.7266C43.3395 30.7356 43.3416 30.7446 43.3454 30.7527V31.0311C43.2856 31.0978 43.2331 31.1707 43.1888 31.2486H42.9626C42.9626 31.2486 42.9626 31.2486 42.9191 31.2486L42.806 31.5096L42.98 31.614C42.9679 31.6919 42.9679 31.7711 42.98 31.8489L42.7538 32.1012C42.749 32.1183 42.749 32.1364 42.7538 32.1534L42.7973 32.3622L43.0409 32.223C43.0693 32.2714 43.1079 32.313 43.154 32.3448L43.067 32.6493H43.2497L43.4237 32.3535L43.6151 32.2839L43.7195 32.4753L43.9196 32.31C43.9196 32.31 43.9196 32.31 43.9196 32.2578V31.9707C43.9795 31.902 44.0347 31.8293 44.0849 31.7532H44.3111L44.4155 31.4835L44.2415 31.3791C44.25 31.301 44.25 31.2223 44.2415 31.1442L44.4591 30.9006C44.4788 30.9072 44.5002 30.9072 44.5199 30.9006ZM43.6499 31.9707C43.4411 32.1447 43.241 32.1099 43.1975 31.9011C43.1902 31.771 43.2122 31.6409 43.2619 31.5205C43.3116 31.4 43.3877 31.2922 43.4846 31.2051C43.6934 31.0311 43.9022 31.0659 43.9457 31.2747C43.9546 31.4084 43.9298 31.5422 43.8736 31.6638C43.8173 31.7854 43.7314 31.8909 43.6238 31.9707H43.6499Z" fill="white" fill-opacity="0.49"/>
<path id="Vector_25" d="M38.9597 34.5199L39.473 34.8244C39.4974 34.836 39.5242 34.842 39.5513 34.842C39.5784 34.842 39.6051 34.836 39.6296 34.8244C39.6942 34.7863 39.7481 34.7324 39.7862 34.6678L40.2995 33.7978C40.3778 33.6586 40.3778 33.5107 40.2995 33.4672C40.2212 33.4237 40.0907 33.4672 40.0037 33.6325L39.8732 33.8587V33.0931C39.8732 32.9365 39.7688 32.8756 39.6296 32.9539C39.5565 32.9996 39.4955 33.0622 39.4516 33.1364C39.4077 33.2105 39.3822 33.2941 39.3773 33.3802V34.1458L39.2468 34.0675C39.1685 34.0675 39.038 34.0675 38.9597 34.2415C38.8814 34.4155 38.8727 34.4764 38.9597 34.5199Z" fill="white" fill-opacity="0.49"/>
<path id="Vector_26" d="M42.2752 32.0752L41.7793 31.7881C41.7566 31.7759 41.7312 31.7695 41.7054 31.7695C41.6796 31.7695 41.6542 31.7759 41.6314 31.7881C41.569 31.8289 41.5156 31.8822 41.4748 31.9447L40.9876 32.8147C40.9093 32.9539 40.9093 33.0931 40.9876 33.1366C41.0659 33.1801 41.1877 33.1366 41.266 32.98L41.3965 32.7625V33.4933C41.3965 33.6412 41.5009 33.7021 41.6314 33.6325C41.6995 33.5871 41.7561 33.5265 41.7968 33.4556C41.8376 33.3846 41.8613 33.3053 41.8663 33.2236V32.4841L41.9882 32.5624C42.0665 32.5624 42.1969 32.5624 42.2752 32.3971C42.3535 32.2318 42.2752 32.1187 42.2752 32.0752Z" fill="white" fill-opacity="0.49"/>
</g>
</svg>
