<svg width="57" height="70" viewBox="0 0 57 70" fill="none" xmlns="http://www.w3.org/2000/svg">
<g id="Group 6">
<path id="Vector" d="M28.0551 65.2848L23.6099 63.6856L24.6358 60.9111L29.0729 62.5073L28.0551 65.2848Z" fill="#081929"/>
<path id="Vector_2" d="M29.2489 63.3012C30.3543 64.6235 29.8133 65.973 28.0564 66.2562C27.1071 66.3687 26.1446 66.2542 25.2482 65.922C24.3518 65.5899 23.5471 65.0497 22.9002 64.3458C21.7949 63.0235 22.3358 61.674 24.0875 61.3796C25.0383 61.2719 26.0011 61.3898 26.8979 61.7236C27.7946 62.0575 28.6001 62.598 29.2489 63.3012Z" fill="#134663"/>
<g id="Group">
<path id="Vector_3" d="M32.2469 60.4413C34.0548 62.6635 33.1748 64.8526 30.285 65.3293C28.7182 65.5114 27.1306 65.3198 25.6521 64.7702C24.1736 64.2206 22.8464 63.3287 21.7789 62.1674C19.971 59.9452 20.8399 57.7614 23.7261 57.3204C25.2918 57.1329 26.8796 57.3179 28.3603 57.8603C29.841 58.4026 31.1727 59.2869 32.2469 60.4413Z" fill="#505050"/>
<path id="Vector_4" d="M21.8607 61.5308C21.5534 61.1652 21.2947 60.7613 21.091 60.3293C21.0187 60.163 20.9565 59.9924 20.9049 59.8185C20.8449 59.6014 20.8041 59.3794 20.783 59.1552C20.7667 58.9507 20.7725 58.7451 20.8002 58.5419C20.8212 58.3496 20.8644 58.1604 20.9291 57.978C20.9676 57.835 21.0178 57.6953 21.0793 57.5605C21.1698 57.3807 21.2829 57.2133 21.4158 57.0621C21.6585 56.7684 21.9514 56.52 22.2807 56.3285C22.6247 56.1012 22.9996 55.9247 23.3939 55.8043C24.4062 55.5184 25.4676 55.4497 26.5084 55.6026C27.1707 55.6885 27.824 55.8338 28.4603 56.0367C28.7769 56.1327 29.0884 56.2447 29.3936 56.3725C29.6929 56.4958 29.9854 56.6349 30.2699 56.7895C30.5505 56.9357 30.8224 57.0983 31.084 57.2765C31.3369 57.4432 31.5807 57.6236 31.8143 57.8166C32.0612 58.0084 32.2953 58.2162 32.5151 58.4386C32.6359 58.5653 32.7859 58.7395 32.9009 58.8825C32.8698 58.8433 32.8313 58.8106 32.7876 58.7863C32.5606 58.6707 32.3001 58.6393 32.0522 58.6974C31.1488 57.7186 30.0272 56.9669 28.7786 56.5033C27.53 56.0396 26.1896 55.8771 24.8664 56.029C22.4268 56.4365 21.6898 58.2794 23.2141 60.1592C24.1174 61.138 25.239 61.8897 26.4876 62.3534C27.7362 62.817 29.0766 62.9795 30.3998 62.8276C32.8476 62.4231 33.5846 60.5801 32.0522 58.6974C32.3001 58.6393 32.5606 58.6707 32.7876 58.7863C32.8313 58.8106 32.8698 58.8433 32.9009 58.8825C33.0077 59.0226 33.1629 59.2079 33.2556 59.3615C33.3885 59.5624 33.5076 59.7721 33.6123 59.9891C33.6922 60.1606 33.7615 60.3369 33.82 60.5169C33.8876 60.739 33.9356 60.9667 33.9636 61.1972C34.0021 61.5592 33.9739 61.9251 33.8803 62.2768C33.8421 62.4382 33.7858 62.5947 33.7124 62.7434C33.6263 62.9221 33.5247 63.0928 33.4087 63.2536C33.2794 63.4186 33.1349 63.5709 32.9769 63.7085C32.8387 63.8345 32.6896 63.9479 32.5313 64.0475C32.1855 64.2714 31.8111 64.4477 31.4182 64.5716C30.9054 64.7326 30.3742 64.8273 29.8374 64.8536C29.2943 64.8869 28.7494 64.8703 28.2094 64.8041C25.7665 64.518 23.5106 63.3549 21.8607 61.5308Z" fill="#6E6E6E"/>
<path id="Vector_5" d="M22.4877 59.7871C22.1733 59.4267 21.9139 59.0219 21.718 58.5856C21.6456 58.4193 21.5834 58.2487 21.5319 58.0749C21.4702 57.8581 21.4294 57.636 21.4099 57.4115C21.3922 57.2063 21.3952 56.9999 21.419 56.7953C21.4456 56.601 21.4898 56.4095 21.5508 56.2232C21.5744 56.1577 21.6568 55.9285 21.6981 55.8139C21.7949 55.6379 21.9075 55.4711 22.0346 55.3155C22.1679 55.1487 22.3211 54.9989 22.4909 54.8694C22.6431 54.7463 22.804 54.6342 22.9722 54.534C23.3543 54.3166 23.7648 54.1531 24.1917 54.0482C24.6249 53.9356 25.0681 53.8659 25.5149 53.84C25.7255 53.8221 25.937 53.8179 26.1481 53.8274C26.6321 53.8443 26.7421 53.8469 27.1511 53.8924C27.8136 53.9772 28.467 54.1225 29.103 54.3265C29.1767 54.353 29.5696 54.4943 30.028 54.6593C30.4865 54.8242 30.5454 54.8916 30.9043 55.0762C30.9043 55.0762 31.2849 55.2779 31.7184 55.5633C32.152 55.8487 32.1975 55.9021 32.4487 56.1034C32.6999 56.3047 32.8827 56.4906 33.1466 56.7335C33.2704 56.8521 33.4256 57.0374 33.5354 57.1693C33.5072 57.1312 33.4714 57.0994 33.4302 57.076C33.2004 56.9661 32.94 56.9376 32.6919 56.9953C31.7911 56.0131 30.6698 55.2591 29.4205 54.7952C28.1712 54.3312 26.8296 54.1707 25.5061 54.3269C23.0613 54.7233 22.3213 56.5744 23.8485 58.446C24.7508 59.4287 25.8733 60.1833 27.1239 60.6476C28.3746 61.112 29.7175 61.273 31.0425 61.1173C33.4791 60.718 34.2191 58.8669 32.6919 56.9953C32.94 56.9376 33.2004 56.9661 33.4302 57.076C33.4714 57.0994 33.5072 57.1312 33.5354 57.1693C33.6503 57.3123 33.7944 57.5029 33.8901 57.6483C34.0269 57.8491 34.1453 58.0619 34.2438 58.284C34.4368 58.6607 34.556 59.0708 34.5951 59.4922C34.6376 59.8517 34.6131 60.2159 34.523 60.5665C34.4823 60.7271 34.426 60.8834 34.3551 61.0331C34.2746 61.2148 34.1727 61.3861 34.0513 61.5434C33.9234 61.7112 33.7806 61.8671 33.6248 62.0094C33.4506 62.1594 33.2437 62.2976 33.1792 62.3484C32.8331 62.5717 32.4588 62.748 32.0661 62.8725C31.5551 63.0298 31.0271 63.1254 30.4935 63.1574C29.9484 63.1899 29.4014 63.1696 28.8602 63.0968C26.4004 62.8177 24.1307 61.6389 22.4877 59.7871Z" fill="#6E6E6E"/>
<path id="Vector_6" d="M23.1035 58.0486C22.7938 57.6848 22.5348 57.2806 22.3338 56.8471C22.1661 56.4758 22.0619 56.0789 22.0258 55.673C22.0093 55.4678 22.0124 55.2615 22.0348 55.0568C22.0601 54.8652 22.1032 54.6764 22.1637 54.4929C22.203 54.3501 22.2533 54.2105 22.3139 54.0754C22.4033 53.8992 22.5125 53.7338 22.6393 53.5822C22.7807 53.4194 22.9342 53.2676 23.0986 53.128C23.2503 53.0081 23.4101 52.8988 23.5769 52.8008C23.9577 52.5859 24.3649 52.4216 24.7883 52.312C25.2283 52.2008 25.6777 52.1303 26.1307 52.1015C26.673 52.0683 27.2172 52.0876 27.7558 52.1591C28.4468 52.2259 29.1301 52.3572 29.7967 52.5513C30.4203 52.7508 31.0249 53.0054 31.6033 53.3122C31.884 53.4584 32.1558 53.6211 32.4174 53.7992C32.6704 53.966 32.9142 54.1463 33.1477 54.3393C33.3949 54.5309 33.629 54.7386 33.8486 54.9613C33.9776 55.0909 34.1276 55.2651 34.2373 55.3971L34.1293 55.3119C33.9025 55.1957 33.6417 55.1642 33.3938 55.223C32.4904 54.2443 31.3689 53.4926 30.1203 53.0289C28.8717 52.5653 27.5313 52.4028 26.2081 52.5546C23.7685 52.9621 23.0233 54.8022 24.5557 56.6849C25.4591 57.6636 26.5807 58.4153 27.8293 58.879C29.0779 59.3427 30.4183 59.5052 31.7415 59.3533C34.1811 58.9458 34.9263 57.1058 33.3938 55.223C33.6417 55.1642 33.9025 55.1957 34.1293 55.3119L34.2373 55.3971C34.3493 55.5483 34.4964 55.7306 34.5973 55.8871C34.7313 56.0897 34.8496 56.3023 34.951 56.5229C35.1366 56.9025 35.2554 57.3112 35.3023 57.7311C35.3408 58.0901 35.3135 58.4532 35.222 58.8025C35.1793 58.9625 35.1231 59.1186 35.0541 59.2691C34.9671 59.4481 34.8626 59.618 34.7422 59.7764C34.502 60.0914 34.2077 60.3612 33.873 60.5732C33.5239 60.7912 33.1502 60.9671 32.7598 61.0973C32.2465 61.2506 31.7169 61.3425 31.182 61.371C30.6361 61.4045 30.0884 61.3869 29.5458 61.3187C27.0696 61.057 24.7764 59.893 23.1035 58.0486Z" fill="#02567D"/>
<path id="Vector_7" d="M23.7201 56.3102C23.4127 55.9446 23.154 55.5407 22.9503 55.1086C22.8825 54.9425 22.8231 54.773 22.7724 54.6009C22.7087 54.3846 22.6678 54.1623 22.6505 53.9375C22.6286 53.7325 22.6317 53.5255 22.6595 53.3212C22.6862 53.127 22.7303 52.9355 22.7914 52.7492C22.8295 52.6091 22.8788 52.4722 22.9386 52.3399C23.0319 52.1617 23.1447 51.9945 23.2751 51.8415C23.4078 51.676 23.5581 51.5254 23.7233 51.3924C23.8755 51.2693 24.0363 51.1572 24.2045 51.0571C24.5895 50.8454 24.9991 50.6822 25.4241 50.5712C25.8602 50.4599 26.3061 50.3912 26.7554 50.366C27.3012 50.3311 27.8491 50.3486 28.3916 50.4183C29.0513 50.5027 29.7019 50.647 30.3353 50.8495C30.54 50.9231 30.8675 51.0409 31.2686 51.1853C31.6697 51.3296 31.786 51.4176 32.1449 51.6022C32.1449 51.6022 32.5254 51.8038 32.959 52.0893C33.2111 52.2572 33.4548 52.4375 33.6893 52.6294C33.9344 52.8252 34.1675 53.0356 34.3872 53.2595C34.511 53.3781 34.658 53.5604 34.7759 53.6953C34.7448 53.6561 34.7063 53.6234 34.6626 53.599C34.435 53.4913 34.1776 53.4639 33.9324 53.5213C33.0302 52.5385 31.9077 51.784 30.657 51.3196C29.4064 50.8552 28.0634 50.6942 26.7385 50.8499C24.3018 51.2493 23.5619 53.1004 25.0891 54.972C25.9899 55.9541 27.1111 56.7082 28.3604 57.1721C29.6097 57.636 30.9514 57.7965 32.2748 57.6404C34.7197 57.244 35.4596 55.3929 33.9324 53.5213C34.1776 53.4639 34.435 53.4913 34.6626 53.599C34.7063 53.6234 34.7448 53.6561 34.7759 53.6953C35.005 53.9751 35.2062 54.2767 35.3766 54.5956C35.5416 54.8955 35.669 55.2146 35.756 55.5457C35.8693 55.9954 35.8836 56.4643 35.7979 56.92C35.699 57.3875 35.4823 57.8219 35.1682 58.182C34.8194 58.5762 34.3908 58.8916 33.9107 59.1073C33.7097 59.2069 33.5006 59.2895 33.2857 59.354C33.1082 59.4103 32.8646 59.4706 32.6849 59.5076C32.2935 59.5842 31.8968 59.6301 31.4983 59.6448C30.5208 59.6712 29.545 59.5508 28.6034 59.2875C28.1284 59.153 27.6634 58.9857 27.2117 58.7868C26.7544 58.5983 26.3125 58.3744 25.89 58.1172C25.6621 57.9797 25.3641 57.78 25.142 57.6261C25.0091 57.5344 24.881 57.4358 24.7582 57.3309C24.3825 57.0223 24.035 56.6807 23.7201 56.3102Z" fill="#02567D"/>
<path id="Vector_8" d="M31.0861 63.1026C29.5197 63.284 27.9325 63.093 26.4539 62.5449C24.9753 61.9969 23.647 61.1074 22.5771 59.9489C22.2412 59.5877 21.989 59.157 21.8383 58.6873C21.6877 58.2177 21.6424 57.7206 21.7056 57.2314C21.2189 58.1473 21.4081 59.3434 22.368 60.5301C23.4355 61.6914 24.7628 62.5833 26.2412 63.1329C27.7197 63.6825 29.3073 63.8741 30.8741 63.692C32.5151 63.4225 33.5143 62.5985 33.7321 61.5303C33.4412 61.9778 33.0512 62.3523 32.5924 62.6249C32.1336 62.8975 31.6182 63.061 31.0861 63.1026Z" fill="#505050"/>
<path id="Vector_9" d="M31.7258 61.3261C30.1593 61.5075 28.5722 61.3164 27.0936 60.7684C25.6149 60.2204 24.2866 59.3309 23.2168 58.1724C22.8809 57.8112 22.6286 57.3805 22.478 56.9108C22.3274 56.4411 22.282 55.9441 22.3452 55.4549C21.8585 56.3708 22.0477 57.5669 23.0077 58.7536C24.0751 59.9149 25.4024 60.8068 26.8809 61.3564C28.3594 61.906 29.947 62.0976 31.5137 61.9155C33.1548 61.646 34.1539 60.822 34.3718 59.7539C34.0808 60.2013 33.6909 60.5758 33.232 60.8484C32.7732 61.121 32.2579 61.2845 31.7258 61.3261Z" fill="#134663"/>
<path id="Vector_10" d="M32.3382 59.6233C30.7714 59.8054 29.1838 59.6138 27.7053 59.0642C26.2268 58.5146 24.8995 57.6227 23.8321 56.4615C23.4953 56.1025 23.2421 55.6733 23.0909 55.2049C22.9397 54.7364 22.8942 54.2403 22.9576 53.7521C22.4709 54.6681 22.663 55.8559 23.62 57.0509C24.6875 58.2121 26.0148 59.1041 27.4932 59.6536C28.9717 60.2032 30.5593 60.3948 32.1261 60.2128C33.7701 59.9351 34.7663 59.1192 34.9841 58.0511C34.6932 58.4985 34.3032 58.873 33.8444 59.1456C33.3856 59.4183 32.8702 59.5817 32.3382 59.6233Z" fill="#134663"/>
<path id="Vector_11" d="M32.9474 57.9287C31.4121 58.0764 29.8643 57.8374 28.4451 57.2335C26.9185 56.7692 25.5401 55.913 24.4473 54.7504C24.1113 54.3892 23.8591 53.9585 23.7084 53.4889C23.5578 53.0192 23.5125 52.5221 23.5757 52.0329C23.089 52.9488 23.2782 54.1449 24.2352 55.3398C25.305 56.4984 26.6333 57.3878 28.112 57.9359C29.5906 58.4839 31.1778 58.675 32.7442 58.4935C34.3852 58.224 35.3844 57.4 35.6022 56.3319C35.3131 56.785 34.9229 57.1649 34.4623 57.442C34.0017 57.719 33.4832 57.8856 32.9474 57.9287Z" fill="#134663"/>
</g>
<path id="Vector_12" d="M21.0429 57.7881C20.5279 57.1713 20.0918 56.4926 19.7449 55.7678C19.3701 54.9933 19.1061 54.17 18.9605 53.322C18.8997 52.9647 18.8659 52.6033 18.8594 52.2409C18.8508 51.8058 18.8685 51.3706 18.9122 50.9376C18.9789 50.317 19.1208 49.7067 19.3349 49.1203C18.7812 50.6594 19.218 52.5548 20.7721 54.4546C23.9818 58.3831 30.7009 60.8836 35.8119 60.041C38.4447 59.6105 40.1114 58.3702 40.6975 56.7411C40.565 57.1095 40.3444 57.5941 40.1628 57.9448C39.5395 59.0646 38.6765 60.0328 37.6356 60.7803C36.8406 61.343 35.9633 61.779 35.0347 62.0729C34.0761 62.378 33.0805 62.5517 32.0752 62.5892C28.8848 62.6798 25.7544 61.7097 23.1743 59.8308C22.3802 59.243 21.664 58.5566 21.0429 57.7881Z" fill="#9E9E9E"/>
<path id="Vector_13" d="M38.0859 40.3051C39.3609 41.9011 38.7837 43.5056 36.6679 43.8355C35.5351 43.9684 34.387 43.8305 33.318 43.433C32.249 43.0356 31.2896 42.39 30.5189 41.5493C29.2409 39.9616 29.8181 38.357 31.9369 38.019C33.0695 37.8882 34.217 38.0272 35.2856 38.4245C36.3543 38.8218 37.3138 39.4662 38.0859 40.3051Z" fill="#E5E5E5"/>
<path id="Vector_14" d="M29.0076 36.5491C30.1918 36.3586 31.3972 36.3407 32.5865 36.496C33.6872 36.6318 34.7681 36.8966 35.8069 37.2847C38.0026 38.0573 39.9545 39.3976 41.4642 41.1692C41.0331 40.7333 40.4945 40.419 39.9029 40.2581C39.3114 40.0973 38.6878 40.0955 38.0953 40.2531C37.3233 39.4142 36.3637 38.7697 35.2951 38.3724C34.2264 37.9751 33.0789 37.8362 31.9463 37.9669C29.8521 38.3138 29.2176 39.8977 30.5283 41.4973C31.2991 42.3379 32.2584 42.9835 33.3275 43.381C34.3965 43.7784 35.5446 43.9163 36.6773 43.7834C38.7686 43.4448 39.4031 41.8608 38.0953 40.2531C38.6878 40.0955 39.3114 40.0973 39.9029 40.2581C40.4945 40.419 41.0331 40.7333 41.4642 41.1692C41.7151 41.4998 42.0429 41.9506 42.2715 42.2918C42.42 42.5264 42.5548 42.7694 42.6754 43.0196C43.0731 43.7926 43.3549 44.6198 43.5118 45.4748C43.6492 46.2614 43.672 47.0638 43.5795 47.8569C43.5485 48.1954 43.4955 48.5315 43.4209 48.8631C43.3207 49.1415 43.2344 49.5357 43.1395 49.8252C42.5505 51.4625 40.8644 52.7051 38.2539 53.1251C33.1428 53.9677 26.4073 51.4613 23.2141 47.5387C21.66 45.6389 21.2231 43.7434 21.7768 42.2044C21.9094 41.836 22.089 41.3367 22.3116 41.0007C22.5013 40.6663 22.7102 40.3432 22.9371 40.033C23.3376 39.491 23.803 39.0002 24.3228 38.5713C24.9719 38.0316 25.6929 37.5846 26.465 37.2431C27.2782 36.9006 28.1332 36.6672 29.0076 36.5491Z" fill="#6A6B6E"/>
<path id="Vector_15" d="M19.3355 49.1203L21.8006 42.2682C21.2469 43.8073 21.6838 45.7027 23.2379 47.6025C26.4475 51.531 33.1666 54.0315 38.2777 53.1889C40.9023 52.7555 42.5772 51.5181 43.1633 49.889L40.6982 56.7411C40.1091 58.3784 38.4313 59.6239 35.8126 60.041C30.7015 60.8836 23.9713 58.3883 20.7727 54.4545C19.2187 52.5548 18.79 50.6623 19.3355 49.1203Z" fill="#C4C4C4"/>
<path id="Vector_16" d="M22.4292 49.9005C25.6389 53.8291 32.358 56.3296 37.469 55.487C40.0937 55.0536 41.7685 53.8162 42.3546 52.1871L40.1222 58.3924L42.5873 51.5403C41.9983 53.1776 40.3123 54.4203 37.7017 54.8403C32.5907 55.6828 25.8522 53.1846 22.6589 49.262C21.1078 47.354 20.6709 45.4586 21.2217 43.9278L20.9743 44.6154C20.4219 46.0995 20.8565 47.9756 22.4292 49.9005Z" fill="#9E9E9E"/>
<g id="Group_2">
<path id="Vector_17" d="M32.0934 42.5964L35.2527 42.0132L44.8377 15.5507L41.6702 16.1309L32.0934 42.5964Z" fill="#4B97A8"/>
<g id="Group_3">
<path id="Vector_18" d="M41.6674 16.1391L44.8319 15.5671C44.9199 15.1929 45.1047 14.8485 45.3678 14.5683C45.6308 14.288 45.963 14.0819 46.3309 13.9705L43.1716 14.5537C42.804 14.6624 42.4718 14.8667 42.209 15.1458C41.9462 15.4248 41.7621 15.7686 41.6756 16.1421L41.6674 16.1391Z" fill="#4B97A8"/>
</g>
<path id="Vector_19" d="M38.9421 50.7003L42.1095 50.1201L51.6863 23.6546L48.527 24.2378L38.9421 50.7003Z" fill="#6BB8C7"/>
<g id="Group_4">
<path id="Vector_20" d="M46.3837 12.3344L49.5429 11.7512C48.2899 10.2741 46.8815 9.66569 45.5911 9.88567L42.4236 10.4659C43.6812 10.2341 45.0681 10.8255 46.3755 12.3314L46.3837 12.3344Z" fill="#99C8D1"/>
</g>
<g id="Group_5">
<path id="Vector_21" d="M48.5264 24.2377L51.6856 23.6546C52.2827 21.6406 52.3949 19.514 52.0132 17.4484C51.6315 15.3828 50.7667 13.4368 49.4893 11.7692L46.3301 12.3524C47.595 14.0234 48.4492 15.9685 48.8236 18.0306C49.198 20.0927 49.0822 22.214 48.4854 24.223L48.5264 24.2377Z" fill="#99C8D1"/>
</g>
<path id="Vector_22" d="M46.3836 12.3344C43.8857 9.38312 40.7798 9.92076 39.475 13.5474L29.8983 40.0128L32.0828 42.6017L41.6707 16.131C42.3422 14.2645 43.9393 13.9885 45.2298 15.516C45.8856 16.3792 46.3275 17.3855 46.519 18.4526C46.7105 19.5196 46.6463 20.6168 46.3315 21.6542L36.7548 48.1196L38.9393 50.7085L48.5242 24.246C49.1298 22.2321 49.2516 20.1038 48.8797 18.034C48.5077 15.9642 47.6525 14.0114 46.3836 12.3344Z" fill="#7DBAC6"/>
</g>
<g id="Group_6">
<path id="Vector_23" d="M25.3581 44.0474L28.5226 43.4754L38.1105 17.0047L34.943 17.5849L25.3581 44.0474Z" fill="#66B3C4"/>
<g id="Group_7">
<path id="Vector_24" d="M34.9756 17.5967L38.1431 17.0165C38.2296 16.643 38.4137 16.2992 38.6765 16.0202C38.9393 15.7411 39.2715 15.5368 39.6391 15.4281L36.4746 16.0001C36.1009 16.104 35.7615 16.3052 35.491 16.5831C35.2205 16.861 35.0285 17.2056 34.9347 17.582L34.9756 17.5967Z" fill="#66B3C4"/>
</g>
<path id="Vector_25" d="M32.2145 52.1541L35.379 51.5821L44.9588 25.1084L41.7995 25.6916L32.2145 52.1541Z" fill="#8AD5E3"/>
<g id="Group_8">
<path id="Vector_26" d="M39.6562 13.7883L42.8125 13.2133C41.5624 11.728 40.1511 11.1278 38.8607 11.3478L35.6962 11.9198C36.9509 11.6962 38.3377 12.2876 39.648 13.7853L39.6562 13.7883Z" fill="#BEE6ED"/>
</g>
<g id="Group_9">
<path id="Vector_27" d="M41.7998 25.6917L44.9591 25.1086C45.5568 23.0947 45.6694 20.968 45.2877 18.9022C44.906 16.8365 44.0407 14.8905 42.7628 13.2232L39.6065 13.7982C40.8806 15.4674 41.7435 17.4134 42.1251 19.4784C42.5067 21.5433 42.3963 23.6692 41.8027 25.6835L41.7998 25.6917Z" fill="#BEE6ED"/>
</g>
<path id="Vector_28" d="M39.6561 13.7883C37.1581 10.837 34.0522 11.3746 32.7475 15.0012L23.1707 41.4667L25.3634 44.0585L34.9402 17.5931C35.6117 15.7265 37.2089 15.4505 38.5022 16.9699C39.1562 17.834 39.5968 18.8403 39.7883 19.907C39.9798 20.9736 39.9166 22.0704 39.604 23.108L30.0272 49.5735L32.2117 52.1624L41.7967 25.6998C42.4023 23.686 42.5241 21.5576 42.1521 19.4878C41.7802 17.4181 40.925 15.4653 39.6561 13.7883Z" fill="#9ED7E2"/>
</g>
<g id="Group_10">
<g id="Group_11">
<g id="Clip path group">
<mask id="mask0_578_76" style="mask-type:luminance" maskUnits="userSpaceOnUse" x="16" y="13" width="11" height="6">
<g id="clip-path-50">
<path id="Vector_29" d="M16.1428 13.6875L16.9525 13.5442C20.197 13.3153 23.5843 15.0795 26.4891 18.5192L25.6794 18.6625C22.7717 15.2309 19.3844 13.4667 16.1428 13.6875Z" fill="white"/>
</g>
</mask>
<g mask="url(#mask0_578_76)">
<g id="Group_12">
<g id="Group_13">
<path id="Vector_30" d="M16.1428 13.6875L16.9525 13.5442C20.197 13.3153 23.5843 15.0795 26.4891 18.5192L25.6794 18.6625C22.7717 15.2309 19.3844 13.4667 16.1428 13.6875Z" fill="#ACACAC"/>
</g>
</g>
</g>
</g>
</g>
<path id="Vector_31" d="M31.9684 32.279L32.7811 32.1276L31.0903 32.6381L30.2777 32.7895L31.9684 32.279Z" fill="#737373"/>
<g id="Group_14">
<g id="Clip path group_2">
<mask id="mask1_578_76" style="mask-type:luminance" maskUnits="userSpaceOnUse" x="25" y="18" width="8" height="15">
<g id="clip-path-51">
<path id="Vector_32" d="M25.6643 18.7034L26.474 18.5601C29.6131 22.5378 31.7689 27.2004 32.7659 32.1685L31.9532 32.32C30.9583 27.3492 28.8035 22.6837 25.6643 18.7034Z" fill="white"/>
</g>
</mask>
<g mask="url(#mask1_578_76)">
<g id="Group_15">
<g id="Group_16">
<path id="Vector_33" d="M25.6643 18.7034L26.474 18.5601C29.6131 22.5378 31.7689 27.2004 32.7659 32.1685L31.9532 32.32C30.9583 27.3492 28.8035 22.6837 25.6643 18.7034Z" fill="#ACACAC"/>
</g>
</g>
</g>
</g>
</g>
<path id="Vector_34" d="M25.6642 18.7033C28.8034 22.6837 30.9582 27.3492 31.9531 32.32L30.2624 32.8305C29.4154 28.51 27.5539 24.4526 24.8314 20.9926C22.3229 18.019 19.3868 16.4912 16.5697 16.6889L16.1424 13.6874C19.3839 13.4667 22.7713 15.2309 25.6642 18.7033Z" fill="#E2E2E2"/>
</g>
<g id="Group_17">
<g id="Group_18">
<g id="Clip path group_3">
<mask id="mask2_578_76" style="mask-type:luminance" maskUnits="userSpaceOnUse" x="16" y="22" width="8" height="4">
<g id="clip-path-52">
<path id="Vector_35" d="M16.9006 22.2723L17.7133 22.1209C19.8497 21.9649 22.0732 23.1347 23.9957 25.3982L23.1831 25.5496C21.2688 23.2891 19.0341 22.1245 16.9006 22.2723Z" fill="white"/>
</g>
</mask>
<g mask="url(#mask2_578_76)">
<g id="Group_19">
<g id="Group_20">
<path id="Vector_36" d="M16.9006 22.2723L17.7133 22.1209C19.8497 21.9649 22.0732 23.1347 23.9957 25.3982L23.1831 25.5496C21.2278 23.2743 19.0341 22.1245 16.9006 22.2723Z" fill="#ACACAC"/>
</g>
</g>
</g>
</g>
</g>
<path id="Vector_37" d="M27.3277 34.5116L28.1375 34.3683L26.4496 34.8706L25.637 35.022L27.3277 34.5116Z" fill="#737373"/>
<g id="Group_21">
<g id="Clip path group_4">
<mask id="mask3_578_76" style="mask-type:luminance" maskUnits="userSpaceOnUse" x="23" y="25" width="6" height="10">
<g id="clip-path-53">
<path id="Vector_38" d="M23.1828 25.5495L23.9955 25.3981C26.073 28.0206 27.5007 31.0974 28.162 34.3771L27.3522 34.5204C26.6902 31.2428 25.2614 28.1687 23.1828 25.5495Z" fill="white"/>
</g>
</mask>
<g mask="url(#mask3_578_76)">
<g id="Group_22">
<g id="Group_23">
<path id="Vector_39" d="M23.1828 25.5495L23.9955 25.3981C26.073 28.0206 27.5007 31.0974 28.162 34.3771L27.3522 34.5204C26.6902 31.2428 25.2614 28.1687 23.1828 25.5495Z" fill="#ACACAC"/>
</g>
</g>
</g>
</g>
</g>
<path id="Vector_40" d="M23.1831 25.5496C25.2617 28.1687 26.6905 31.2429 27.3526 34.5204L25.6618 35.0309C25.1386 32.4216 24.0086 29.972 22.3631 27.8804C20.8637 26.1113 19.0424 25.1602 17.3554 25.2745L16.9252 22.2811C19.0342 22.1245 21.2688 23.2891 23.1831 25.5496Z" fill="#E2E2E2"/>
</g>
<g id="Group_24">
<g id="Group_25">
<g id="Clip path group_5">
<mask id="mask4_578_76" style="mask-type:luminance" maskUnits="userSpaceOnUse" x="17" y="30" width="5" height="3">
<g id="clip-path-54">
<path id="Vector_41" d="M17.3506 30.6076L18.1633 30.4561C18.8205 30.4655 19.4664 30.6289 20.0491 30.9333C20.6317 31.2376 21.1348 31.6744 21.5179 32.2085L20.7052 32.36C20.3236 31.8244 19.8208 31.3864 19.2379 31.0819C18.6549 30.7774 18.0083 30.6149 17.3506 30.6076Z" fill="white"/>
</g>
</mask>
<g mask="url(#mask4_578_76)">
<g id="Group_26">
<g id="Group_27">
<path id="Vector_42" d="M17.3506 30.6076L18.1633 30.4561C18.8205 30.4655 19.4664 30.6289 20.0491 30.9333C20.6317 31.2376 21.1348 31.6744 21.5179 32.2085L20.7052 32.36C20.3236 31.8244 19.8208 31.3864 19.2379 31.0819C18.6549 30.7774 18.0083 30.6149 17.3506 30.6076Z" fill="#ACACAC"/>
</g>
</g>
</g>
</g>
</g>
<path id="Vector_43" d="M22.9186 37.1318L23.7283 36.9885L22.0405 37.4909L21.2278 37.6423L22.9186 37.1318Z" fill="#737373"/>
<g id="Group_28">
<g id="Clip path group_6">
<mask id="mask5_578_76" style="mask-type:luminance" maskUnits="userSpaceOnUse" x="20" y="32" width="4" height="6">
<g id="clip-path-55">
<path id="Vector_44" d="M20.7131 32.3629L21.5257 32.2115C22.621 33.6111 23.3748 35.2467 23.7274 36.9886L22.9177 37.1318C22.5673 35.3912 21.8121 33.7575 20.7131 32.3629Z" fill="white"/>
</g>
</mask>
<g mask="url(#mask5_578_76)">
<g id="Group_29">
<g id="Group_30">
<path id="Vector_45" d="M20.7131 32.3629L21.5257 32.2115C22.621 33.6111 23.3748 35.2467 23.7274 36.9886L22.9177 37.1318C22.5673 35.3912 21.8121 33.7575 20.7131 32.3629Z" fill="#ACACAC"/>
</g>
</g>
</g>
</g>
</g>
<path id="Vector_46" d="M20.7135 32.3629C21.8125 33.7574 22.5678 35.3911 22.9181 37.1318L21.2274 37.6423C21.0124 36.5637 20.5471 35.5507 19.8689 34.6849C19.6298 34.3578 19.3179 34.0908 18.9579 33.9051C18.5978 33.7194 18.1995 33.62 17.7944 33.6149L17.3507 30.6075C18.01 30.6139 18.6584 30.7763 19.2429 31.0814C19.8274 31.3865 20.3313 31.8256 20.7135 32.3629Z" fill="#E2E2E2"/>
</g>
</g>
</svg>
