<svg width="62" height="71" viewBox="0 0 62 71" fill="none" xmlns="http://www.w3.org/2000/svg">
<g id="Group 4">
<g id="Group">
<path id="Vector" d="M20.2953 35.372L40.9901 30.8277L33.4535 54.1301L12.756 58.6828L20.2953 35.372Z" fill="#303030"/>
<path id="Vector_2" d="M24.8486 21.3L45.5434 16.7557L40.9906 30.8277L20.2958 35.3721L24.8486 21.3Z" fill="#F8F8F8"/>
</g>
<g id="Group_2">
<path id="Vector_3" d="M36.4316 34.0538L57.1181 29.5068L52.5653 43.5789L31.8788 48.1258L36.4316 34.0538Z" fill="#252525"/>
<path id="Vector_4" d="M45.5433 16.7556L35.7032 5.92099L15.0084 10.4653L24.8485 21.2999L36.4309 34.0538L57.1174 29.5068L45.5433 16.7556Z" fill="#303030"/>
<path id="Vector_5" d="M24.8492 21.2999L15.0091 10.4653L2.91696 47.8481L12.7571 58.6827L20.2964 35.372L31.8788 48.1258L36.4316 34.0538L24.8492 21.2999Z" fill="#141414"/>
</g>
<path id="Vector_6" d="M49.8924 40.2014L38.6706 42.6366L40.9714 35.453L52.1959 33.0096L49.8924 40.2014Z" fill="#141414"/>
<path id="Vector_7" d="M49.8809 39.0651L39.5236 41.3113L41.2618 35.8843L51.6191 33.6381L49.8809 39.0651Z" fill="#025074"/>
<path id="Vector_8" d="M41.5624 39.6254C40.9532 39.7591 40.6102 39.3753 40.8013 38.7787C40.9201 38.452 41.1153 38.1585 41.3704 37.9224C41.6256 37.6863 41.9334 37.5146 42.2683 37.4215C42.8858 37.2904 43.2231 37.6634 43.0321 38.2599C42.9153 38.5891 42.7207 38.8853 42.4648 39.123C42.2089 39.3608 41.8993 39.5331 41.5624 39.6254ZM42.1675 37.7363C41.9236 37.8041 41.699 37.9278 41.5113 38.0977C41.3237 38.2676 41.1783 38.4789 41.0867 38.7148C40.9434 39.1622 41.2025 39.437 41.6526 39.3437C41.8978 39.2754 42.1236 39.1506 42.3117 38.9792C42.4999 38.8078 42.6452 38.5947 42.736 38.3569C42.8767 37.9178 42.6202 37.6347 42.1675 37.7363Z" fill="white" fill-opacity="0.49"/>
<path id="Vector_9" d="M42.0064 38.781C41.9871 38.8342 41.9548 38.8817 41.9125 38.9192C41.8702 38.9567 41.8191 38.983 41.764 38.9958C41.6653 39.0189 41.6066 38.9453 41.6358 38.8542L41.8348 38.2328C41.8564 38.1796 41.8896 38.132 41.932 38.0934C41.9744 38.0548 42.0249 38.0262 42.0798 38.0098C42.1869 37.9893 42.2373 38.0602 42.2081 38.1513L42.0064 38.781Z" fill="white" fill-opacity="0.49"/>
<path id="Vector_10" d="M50.4737 36.56L50.493 36.3286L50.191 36.3872C50.1741 36.3298 50.1484 36.2753 50.1148 36.2257L50.3012 35.9292L50.1189 35.8708C50.1189 35.8708 50.1189 35.8708 50.0692 35.8549L49.7944 36.114C49.7202 36.1012 49.6442 36.105 49.5716 36.1249L49.5303 35.8832C49.5303 35.8832 49.5303 35.8832 49.4888 35.87L49.2177 35.9749C49.2053 35.9917 49.1988 36.0121 49.1991 36.033L49.1062 36.3229C49.0207 36.3747 48.9403 36.4347 48.8662 36.5019L48.6259 36.4249L48.4114 36.6668L48.3955 36.7165L48.5433 36.8826C48.5044 36.961 48.4776 37.0448 48.4637 37.1312L48.1494 37.3137C48.1371 37.3305 48.1305 37.3509 48.1308 37.3717L48.1115 37.6031L48.4162 37.5362C48.4301 37.5947 48.4561 37.6497 48.4923 37.6976L48.2951 37.9999L48.2818 38.0413L48.4641 38.0997C48.4641 38.0997 48.4641 38.0997 48.5055 38.1129L48.786 37.8647L49.0087 37.8539L49.0527 38.0872C49.0527 38.0872 49.0527 38.0872 49.0942 38.1005L49.368 37.9872C49.3803 37.9704 49.3868 37.9501 49.3865 37.9292L49.4794 37.6392C49.563 37.5845 49.6431 37.5248 49.7194 37.4603L49.9597 37.5373C49.9597 37.5373 49.9597 37.5372 50.0144 37.5091L50.2206 37.2645L50.2366 37.2148L50.0861 37.057C50.121 36.974 50.1486 36.888 50.1684 36.8002L50.4826 36.6176C50.4854 36.6079 50.4861 36.5978 50.4845 36.5878C50.483 36.5779 50.4793 36.5684 50.4737 36.56ZM49.1908 37.428C48.917 37.5413 48.7122 37.4392 48.7341 37.1995C48.7634 37.0559 48.8285 36.922 48.9234 36.8102C49.0183 36.6985 49.1398 36.6125 49.2768 36.5603C49.548 36.4553 49.7528 36.5574 49.7309 36.7971C49.7006 36.9389 49.6353 37.071 49.541 37.1811C49.4466 37.2913 49.3263 37.3762 49.1908 37.428Z" fill="white" fill-opacity="0.49"/>
<path id="Vector_11" d="M43.4145 38.4921L43.8522 38.9794C43.8733 39.0013 43.8995 39.0177 43.9284 39.0269C43.9573 39.0362 43.9881 39.0381 44.018 39.0325C44.0995 39.0146 44.1749 38.9758 44.2368 38.9198L45.0752 38.1561C45.2141 38.0361 45.2645 37.8787 45.1893 37.7998C45.1141 37.7209 44.9656 37.7281 44.827 37.8756L44.6175 38.0734L44.8829 37.2449C44.9359 37.0792 44.8412 36.9757 44.6655 37.0108C44.5754 37.0373 44.4926 37.0839 44.4232 37.1472C44.3539 37.2104 44.2999 37.2887 44.2653 37.376L43.9999 38.2045L43.883 38.0848C43.8161 38.0086 43.6593 38.0132 43.5207 38.1606C43.3821 38.3081 43.389 38.4291 43.4145 38.4921Z" fill="white" fill-opacity="0.49"/>
<path id="Vector_12" d="M47.6755 37.0248L47.2491 36.5593C47.2491 36.5593 47.1497 36.5275 47.0917 36.5089C47.0114 36.5249 46.9379 36.5651 46.8812 36.6242L46.0809 37.3545C45.9529 37.4688 45.9051 37.618 45.9721 37.6942C46.039 37.7705 46.1875 37.7632 46.3178 37.6131L46.522 37.4318L46.2778 38.1941C46.2248 38.3598 46.3222 38.455 46.4786 38.4229C46.5663 38.399 46.647 38.3548 46.7142 38.2937C46.7814 38.2327 46.8331 38.1565 46.8652 38.0716L47.112 37.3011L47.2207 37.4181C47.2876 37.4943 47.4361 37.4871 47.572 37.3479C47.708 37.2088 47.7451 37.0927 47.6755 37.0248Z" fill="white" fill-opacity="0.49"/>
<g id="Group_3">
<g id="Group_4">
<path id="Vector_13" d="M13.4509 56.3742L12.7264 58.6362C13.486 59.464 14.3375 60.2026 15.2644 60.8376L15.9915 58.5674C15.0629 57.9304 14.2087 57.1911 13.4453 56.3633L13.4509 56.3742Z" fill="#141414"/>
<path id="Vector_14" d="M15.9972 58.5784L15.2701 60.8486C16.8622 61.9356 18.5962 62.7983 20.4234 63.4127L21.1532 61.1342C19.3272 60.5242 17.5955 59.6621 16.0082 58.5727L15.9972 58.5784Z" fill="#141414"/>
<path id="Vector_15" d="M21.1502 61.115L20.4204 63.3935C23.5235 64.5069 26.8645 64.7863 30.1094 64.2038C32.9855 63.5811 34.7926 62.1318 35.3735 60.2898L36.1006 58.0196C35.5115 59.8589 33.7126 61.3109 30.8365 61.9336C27.5915 62.5208 24.2492 62.2442 21.1449 61.1315L21.1502 61.115Z" fill="#141414"/>
</g>
<path id="Vector_16" d="M34.1648 51.882L13.4501 56.3743C17.3693 60.6809 25.1355 63.1592 30.8496 61.9472C36.5638 60.7353 38.018 56.1949 34.1648 51.882Z" fill="#252525"/>
</g>
<g id="Group_5">
<path id="Vector_17" d="M30.4575 59.6654L30.1006 59.2679C30.2256 59.1343 30.3562 59.0117 30.4895 58.8809C30.6228 58.75 30.8294 58.5329 30.9895 58.3467L31.352 58.7551C31.1945 58.9331 31.0287 59.1084 30.852 59.2893L30.4575 59.6654Z" fill="#0C93BD"/>
<path id="Vector_18" d="M34.7262 54.6379L35.0914 55.038C35.153 55.1309 35.0691 55.4785 34.6967 56.0992C34.3658 56.7425 33.901 57.3075 33.3334 57.756C32.7658 58.2046 32.1088 58.5263 31.4064 58.6996L31.3567 58.6836L30.9942 58.2752L31.0439 58.2911C31.7471 58.12 32.4052 57.7991 32.9731 57.3503C33.5409 56.9015 34.0052 56.3355 34.3342 55.6908C34.7066 55.0701 34.7905 54.7224 34.7315 54.6213L34.7262 54.6379Z" fill="#0C93BD"/>
<path id="Vector_19" d="M35.513 53.9214L35.8755 54.3299C35.6468 54.0739 35.1546 54.099 34.6661 54.1983L34.3009 53.7981C34.7921 53.6905 35.2843 53.6655 35.513 53.9214Z" fill="#0C93BD"/>
<path id="Vector_20" d="M33.7947 55.2073L33.4295 54.8071C33.5884 54.5108 33.7005 54.2179 33.851 53.919L34.2052 54.3248C34.0656 54.618 33.9535 54.911 33.7947 55.2073Z" fill="#0FB4E7"/>
<path id="Vector_21" d="M34.205 54.3248L33.8508 53.919C33.9985 53.8707 34.1486 53.8304 34.3006 53.7981L34.6657 54.1983C34.5093 54.2304 34.3558 54.2817 34.205 54.3248Z" fill="#0C93BD"/>
<path id="Vector_22" d="M34.6823 54.2037C35.6648 53.9885 36.6926 54.1167 35.4597 56.1975C35.0235 57.0322 34.4148 57.7648 33.6741 58.3465C32.9334 58.9282 32.0776 59.3459 31.1632 59.5718C30.9366 59.6241 30.706 59.6572 30.4738 59.6708L30.8683 59.2947C31.045 59.1137 31.2108 58.9385 31.3683 58.7605L31.418 58.7764C32.1203 58.6032 32.7774 58.2815 33.345 57.8329C33.9126 57.3844 34.3774 56.8194 34.7083 56.1761C35.0807 55.5554 35.1646 55.2077 35.103 55.1149C35.0414 55.0221 34.7881 55.0141 34.4036 55.0736C34.1842 55.1312 33.9704 55.1998 33.795 55.2624C33.9539 54.9661 34.066 54.6731 34.2056 54.3799C34.3558 54.2818 34.5093 54.2305 34.6823 54.2037Z" fill="#0FB4E7"/>
</g>
<path id="Vector_23" d="M28.212 59.7139C28.1264 59.9106 27.9896 60.0807 27.8159 60.2066C27.6423 60.3326 27.438 60.4097 27.2244 60.4299C26.6588 60.5215 26.0795 60.4781 25.5338 60.3034C24.9881 60.1286 24.4914 59.8273 24.0842 59.4241C23.9377 59.2869 23.8297 59.1138 23.7709 58.9218C23.7122 58.7299 23.7048 58.5259 23.7494 58.3302L23.5982 58.8025C23.5536 58.9971 23.5613 59.2001 23.6206 59.3908C23.6799 59.5815 23.7886 59.753 23.9356 59.8881C24.3416 60.2931 24.8381 60.5955 25.3842 60.7704C25.9303 60.9453 26.5102 60.9876 27.0758 60.8939C27.2889 60.8767 27.4931 60.8017 27.6667 60.677C27.8403 60.5523 27.9765 60.3826 28.0607 60.1862L28.212 59.7139Z" fill="#0EA4D4"/>
<path id="Vector_24" d="M31.4111 56.8286C29.8249 57.0709 28.2038 56.9338 26.6808 56.4285C25.1578 55.9232 23.7762 55.0642 22.6494 53.9218C22.2421 53.5404 21.9415 53.0593 21.7774 52.526C21.6133 51.9927 21.5914 51.4258 21.7139 50.8815C21.4908 51.6241 21.3558 52.3903 21.3115 53.1644C21.2928 53.5274 21.2952 53.8912 21.3189 54.2539C21.3407 54.613 21.3881 54.9701 21.4608 55.3225C21.5686 55.9037 21.7462 56.4697 21.9897 57.0084C22.1026 57.2682 22.2324 57.5203 22.3783 57.7632C22.4372 57.8643 22.5214 58.0009 22.5913 58.0963C22.6612 58.1918 22.91 58.5273 23.0552 58.7017C23.3769 59.0716 23.7451 59.3983 24.1507 59.6738C24.5672 59.9632 25.0242 60.1896 25.5068 60.3457C25.9831 60.5057 26.4799 60.5971 26.982 60.6172C27.2187 60.628 27.4559 60.6216 27.6916 60.5978C27.913 60.5812 28.1332 60.5511 28.3509 60.5075C28.9641 60.3829 29.5558 60.1692 30.1071 59.8732C30.414 59.7094 30.7105 59.5267 30.9948 59.3262C31.2752 59.1257 31.5411 58.9056 31.7905 58.6675C32.0486 58.4263 32.29 58.1679 32.5132 57.8941C32.9766 57.3354 33.3695 56.7218 33.6831 56.0672C33.7521 55.8517 33.9029 55.5803 33.9885 55.3702C34.0741 55.1601 34.1 55.0222 34.1477 54.8731C33.906 55.4124 33.5252 55.8778 33.0443 56.2214C32.5634 56.5651 31.9997 56.7746 31.4111 56.8286Z" fill="#11C4FE"/>
<path id="Vector_25" d="M22.6499 53.9217C20.7311 51.7266 21.5354 49.472 24.4643 48.8845C26.0505 48.6421 27.6716 48.7792 29.1946 49.2845C30.7176 49.7898 32.0991 50.6489 33.226 51.7913C35.1448 53.9863 34.3322 56.2383 31.4116 56.8285C29.8254 57.0708 28.2043 56.9337 26.6813 56.4284C25.1583 55.9232 23.7767 55.0641 22.6499 53.9217Z" fill="#70DDFE"/>
<path id="Vector_26" d="M26.9461 55.8824C25.4741 55.4443 24.1417 54.6303 23.08 53.5205C22.7293 53.2098 22.4686 52.8105 22.3253 52.3644C22.1821 51.9183 22.1616 51.4418 22.266 50.985C22.4833 50.5407 22.813 50.161 23.2224 49.8835C23.6318 49.6059 24.1066 49.4403 24.5998 49.403C26.0638 49.1625 27.5645 49.2885 28.9679 49.7697C30.4395 50.2086 31.7718 51.0225 32.8339 52.1316C33.1828 52.4429 33.4416 52.8423 33.5833 53.2878C33.7251 53.7334 33.7445 54.2088 33.6397 54.6645C33.4245 55.1104 33.0954 55.4915 32.6855 55.7694C32.2757 56.0472 31.7998 56.2118 31.3059 56.2465C29.8448 56.4865 28.3471 56.3614 26.9461 55.8824Z" fill="#0EA4D4"/>
<g id="Group_6">
<g id="Group_7">
<g id="Clip path group">
<mask id="mask0_578_669" style="mask-type:luminance" maskUnits="userSpaceOnUse" x="37" y="43" width="2" height="1">
<g id="clip-path-42">
<path id="Vector_27" d="M38.0927 43.5568L38.4217 43.9272C38.325 43.8371 38.206 43.7745 38.0769 43.746C37.9479 43.7176 37.8135 43.7242 37.6879 43.7652L37.3589 43.3949C37.4845 43.3539 37.6188 43.3472 37.7479 43.3757C37.8769 43.4042 37.996 43.4668 38.0927 43.5568Z" fill="white"/>
</g>
</mask>
<g mask="url(#mask0_578_669)">
<g id="Group_8">
<path id="Vector_28" d="M37.6722 43.7875L37.3432 43.4171C37.5505 43.3637 37.7702 43.3885 37.9603 43.4869L38.3003 43.8516C38.1063 43.7523 37.8822 43.7294 37.6722 43.7875Z" fill="#0D0D0D"/>
<path id="Vector_29" d="M38.308 43.8267L37.968 43.462C38.0125 43.4848 38.0522 43.5162 38.0847 43.5542L38.4137 43.9245L38.308 43.8267Z" fill="#0D0D0D"/>
</g>
</g>
</g>
</g>
<g id="Group_9">
<g id="Clip path group_2">
<mask id="mask1_578_669" style="mask-type:luminance" maskUnits="userSpaceOnUse" x="35" y="43" width="3" height="3">
<g id="clip-path-43">
<path id="Vector_30" d="M36.2054 45.9122L35.8764 45.5419C35.7979 45.439 35.7485 45.3168 35.7335 45.1882C35.7184 45.0596 35.7382 44.9294 35.7907 44.8111C35.9179 44.4668 36.126 44.1582 36.3974 43.9113C36.6689 43.6643 36.9958 43.4863 37.3506 43.3922L37.6796 43.7625C37.3274 43.8588 37.0029 44.0366 36.7324 44.2817C36.4618 44.5268 36.2529 44.8322 36.1224 45.1731C36.0714 45.293 36.0523 45.4241 36.0668 45.5536C36.0814 45.6831 36.1291 45.8066 36.2054 45.9122Z" fill="white"/>
</g>
</mask>
<g mask="url(#mask1_578_669)">
<g id="Group_10">
<path id="Vector_31" d="M36.2053 45.9122L35.8763 45.5419C35.7978 45.4389 35.7484 45.3168 35.7333 45.1882C35.7183 45.0596 35.738 44.9294 35.7906 44.8111C35.907 44.4826 36.1019 44.1875 36.3583 43.9514L36.6873 44.3217C36.4319 44.5548 36.2379 44.8472 36.1223 45.1731C36.0713 45.293 36.0522 45.4241 36.0667 45.5536C36.0813 45.6831 36.129 45.8066 36.2053 45.9122Z" fill="#0D0D0D"/>
<path id="Vector_32" d="M36.6879 44.3218L36.3589 43.9515C36.6334 43.6669 36.98 43.4621 37.3617 43.3591L37.6907 43.7294C37.309 43.8324 36.9624 44.0372 36.6879 44.3218Z" fill="#0D0D0D"/>
</g>
</g>
</g>
</g>
<path id="Vector_33" d="M37.6716 43.7874C38.3276 43.6504 38.6954 44.0423 38.4993 44.6829C38.3683 45.0235 38.1591 45.3285 37.8886 45.5735C37.6182 45.8185 37.294 45.9966 36.9422 46.0935C36.2835 46.2388 35.9101 45.836 36.1144 45.198C36.2449 44.8571 36.4539 44.5517 36.7244 44.3066C36.995 44.0615 37.3195 43.8837 37.6716 43.7874Z" fill="#303030"/>
</g>
<g id="Group_11">
<g id="Group_12">
<g id="Clip path group_3">
<mask id="mask2_578_669" style="mask-type:luminance" maskUnits="userSpaceOnUse" x="41" y="42" width="2" height="2">
<g id="clip-path-44">
<path id="Vector_34" d="M42.2483 42.7045L42.5856 43.0774C42.4874 42.987 42.3671 42.9241 42.2367 42.8952C42.1064 42.8663 41.9708 42.8724 41.8436 42.9128L41.5119 42.5508C41.637 42.5072 41.7717 42.4985 41.9014 42.5256C42.0311 42.5527 42.151 42.6145 42.2483 42.7045Z" fill="white"/>
</g>
</mask>
<g mask="url(#mask2_578_669)">
<g id="Group_13">
<path id="Vector_35" d="M41.8431 42.9129L41.5115 42.5509C41.6152 42.5194 41.7241 42.5089 41.8319 42.5199C41.9398 42.5309 42.0443 42.5632 42.1395 42.615L42.4686 42.9853C42.2764 42.8839 42.0534 42.8581 41.8431 42.9129Z" fill="#0D0D0D"/>
<path id="Vector_36" d="M42.4685 42.9853L42.1395 42.615C42.1815 42.6369 42.2184 42.6674 42.2479 42.7045L42.5852 43.0775C42.5527 43.0394 42.5131 43.0081 42.4685 42.9853Z" fill="#0D0D0D"/>
</g>
</g>
</g>
</g>
<g id="Group_14">
<g id="Clip path group_4">
<mask id="mask3_578_669" style="mask-type:luminance" maskUnits="userSpaceOnUse" x="39" y="42" width="3" height="4">
<g id="clip-path-45">
<path id="Vector_37" d="M40.3525 45.0572L40.0152 44.6843C39.9376 44.5809 39.8887 44.4588 39.8737 44.3304C39.8586 44.202 39.8779 44.0719 39.9296 43.9534C40.0588 43.6117 40.2674 43.3057 40.5381 43.0604C40.8089 42.8152 41.134 42.6378 41.4867 42.5428L41.8184 42.9049C41.4656 43.0017 41.1408 43.1811 40.871 43.4283C40.6012 43.6755 40.3941 43.9833 40.2669 44.3264C40.2143 44.4447 40.1946 44.5749 40.2096 44.7035C40.2247 44.8321 40.274 44.9543 40.3525 45.0572Z" fill="white"/>
</g>
</mask>
<g mask="url(#mask3_578_669)">
<g id="Group_15">
<path id="Vector_38" d="M40.3524 45.0572L40.0151 44.6842C39.9375 44.5809 39.8886 44.4588 39.8736 44.3304C39.8585 44.202 39.8778 44.0719 39.9294 43.9534C40.044 43.627 40.2382 43.3344 40.4945 43.102L40.8344 43.4667C40.5749 43.7001 40.3795 43.996 40.2668 44.3263C40.2142 44.4447 40.1944 44.5749 40.2095 44.7035C40.2246 44.8321 40.2739 44.9543 40.3524 45.0572Z" fill="#0D0D0D"/>
<path id="Vector_39" d="M40.8599 43.4747L40.52 43.11C40.7925 42.823 41.1398 42.6178 41.5227 42.5177L41.8544 42.8797C41.4762 42.9868 41.1331 43.1921 40.8599 43.4747Z" fill="#0D0D0D"/>
</g>
</g>
</g>
</g>
<path id="Vector_40" d="M41.8428 42.9129C42.4988 42.7758 42.8723 43.1786 42.6679 43.8166C42.5378 44.1564 42.3292 44.4607 42.059 44.7044C41.7888 44.9481 41.4648 45.1244 41.1134 45.2189C40.4548 45.3642 40.0896 44.9641 40.2913 44.3344C40.4185 43.9913 40.6256 43.6835 40.8954 43.4363C41.1652 43.1891 41.49 43.0097 41.8428 42.9129Z" fill="#303030"/>
</g>
<g id="Group_16">
<g id="Group_17">
<g id="Clip path group_5">
<mask id="mask4_578_669" style="mask-type:luminance" maskUnits="userSpaceOnUse" x="45" y="41" width="3" height="2">
<g id="clip-path-46">
<path id="Vector_41" d="M46.6772 41.7388L47.0062 42.1091C46.9095 42.019 46.7905 41.9564 46.6614 41.928C46.5324 41.8995 46.3981 41.9061 46.2724 41.9471L45.9408 41.5851C46.0659 41.5415 46.2006 41.5328 46.3303 41.5599C46.46 41.587 46.5799 41.6488 46.6772 41.7388Z" fill="white"/>
</g>
</mask>
<g mask="url(#mask4_578_669)">
<g id="Group_18">
<path id="Vector_42" d="M46.2642 41.972L45.9325 41.6099C46.0363 41.5785 46.1452 41.5679 46.253 41.579C46.3608 41.59 46.4654 41.6223 46.5606 41.6741L46.8897 42.0444C46.6975 41.943 46.4744 41.9172 46.2642 41.972Z" fill="#0D0D0D"/>
<path id="Vector_43" d="M46.8976 42.0195L46.5685 41.6492L46.6769 41.7387L47.0059 42.109C46.9775 42.0709 46.9404 42.0402 46.8976 42.0195Z" fill="#0D0D0D"/>
</g>
</g>
</g>
</g>
<g id="Group_19">
<g id="Clip path group_6">
<mask id="mask5_578_669" style="mask-type:luminance" maskUnits="userSpaceOnUse" x="44" y="41" width="3" height="4">
<g id="clip-path-47">
<path id="Vector_44" d="M44.7983 44.0969L44.4692 43.7265C44.3899 43.624 44.34 43.5018 44.3249 43.373C44.3098 43.2443 44.3301 43.1138 44.3836 42.9957C44.5128 42.654 44.7214 42.3479 44.9922 42.1027C45.2629 41.8575 45.588 41.6801 45.9408 41.5851L46.2724 41.9471C45.9196 42.0451 45.5946 42.2245 45.3237 42.4709C45.0528 42.7174 44.8435 43.0239 44.7126 43.366C44.661 43.4845 44.6417 43.6146 44.6567 43.743C44.6718 43.8714 44.7206 43.9935 44.7983 44.0969Z" fill="white"/>
</g>
</mask>
<g mask="url(#mask5_578_669)">
<g id="Group_20">
<path id="Vector_45" d="M44.7983 44.0967L44.4692 43.7264C44.3899 43.6239 44.34 43.5017 44.3249 43.3729C44.3098 43.2441 44.3301 43.1137 44.3836 42.9956C44.4982 42.6692 44.6924 42.3766 44.9486 42.1442L45.2803 42.5063C45.0239 42.7423 44.829 43.0374 44.7126 43.3659C44.661 43.4844 44.6417 43.6145 44.6567 43.7429C44.6718 43.8713 44.7206 43.9934 44.7983 44.0967Z" fill="#0D0D0D"/>
<path id="Vector_46" d="M45.2803 42.5063L44.9486 42.1442C45.2211 41.8571 45.5684 41.652 45.9514 41.5519L46.2831 41.9139C45.9025 42.0197 45.5566 42.224 45.2803 42.5063Z" fill="#0D0D0D"/>
</g>
</g>
</g>
</g>
<path id="Vector_47" d="M46.2642 41.972C46.9202 41.835 47.2936 42.2378 47.0893 42.8758C46.9582 43.2164 46.749 43.5214 46.4786 43.7664C46.2081 44.0114 45.8839 44.1895 45.5321 44.2863C44.8761 44.4234 44.511 44.0232 44.7044 43.3909C44.8352 43.0488 45.0445 42.7423 45.3155 42.4958C45.5864 42.2494 45.9113 42.07 46.2642 41.972Z" fill="#303030"/>
</g>
<g id="Group_21">
<g id="Group_22">
<g id="Clip path group_7">
<mask id="mask6_578_669" style="mask-type:luminance" maskUnits="userSpaceOnUse" x="49" y="40" width="3" height="2">
<g id="clip-path-48">
<path id="Vector_48" d="M50.6994 40.9622L51.0311 41.3243C50.9328 41.2359 50.8129 41.1751 50.6836 41.1481C50.5542 41.1211 50.42 41.1289 50.2947 41.1706L49.9573 40.7977C50.0845 40.7572 50.2202 40.7511 50.3505 40.78C50.4808 40.8089 50.6012 40.8718 50.6994 40.9622Z" fill="white"/>
</g>
</mask>
<g mask="url(#mask6_578_669)">
<g id="Group_23">
<path id="Vector_49" d="M50.295 41.1707L49.9577 40.7978C50.0615 40.7674 50.1703 40.7582 50.2777 40.7707C50.3851 40.7831 50.489 40.8169 50.5831 40.8702L50.9231 41.2349C50.7291 41.1356 50.505 41.1127 50.295 41.1707Z" fill="#0D0D0D"/>
<path id="Vector_50" d="M50.9231 41.2347L50.5831 40.87C50.6277 40.8928 50.6673 40.9241 50.6998 40.9622L51.0315 41.3242L50.9231 41.2347Z" fill="#0D0D0D"/>
</g>
</g>
</g>
</g>
<g id="Group_24">
<g id="Clip path group_8">
<mask id="mask7_578_669" style="mask-type:luminance" maskUnits="userSpaceOnUse" x="48" y="40" width="3" height="4">
<g id="clip-path-49">
<path id="Vector_51" d="M48.8198 43.3204L48.4907 42.9501C48.4118 42.8453 48.3619 42.7216 48.3458 42.5914C48.3298 42.4612 48.3483 42.3291 48.3995 42.2083C48.5299 41.8674 48.7389 41.562 49.0095 41.3169C49.28 41.0718 49.6045 40.894 49.9566 40.7978L50.294 41.1707C49.9418 41.2669 49.6173 41.4448 49.3468 41.6899C49.0762 41.9349 48.8672 42.2403 48.7368 42.5813C48.6841 42.7008 48.664 42.8322 48.6786 42.962C48.6932 43.0919 48.7419 43.2155 48.8198 43.3204Z" fill="white"/>
</g>
</mask>
<g mask="url(#mask7_578_669)">
<g id="Group_25">
<path id="Vector_52" d="M48.8197 43.3203L48.4906 42.95C48.4117 42.8452 48.3617 42.7215 48.3457 42.5913C48.3297 42.4611 48.3482 42.329 48.3993 42.2082C48.5162 41.883 48.71 41.5909 48.9644 41.3569L49.3017 41.7298C49.0463 41.9629 48.8522 42.2553 48.7367 42.5811C48.684 42.7007 48.6639 42.8321 48.6785 42.9619C48.693 43.0918 48.7418 43.2154 48.8197 43.3203Z" fill="#0D0D0D"/>
<path id="Vector_53" d="M49.3012 41.7298L48.9639 41.3569C49.2384 41.0723 49.585 40.8675 49.9667 40.7645L50.304 41.1375C49.9211 41.2376 49.5737 41.4428 49.3012 41.7298Z" fill="#0D0D0D"/>
</g>
</g>
</g>
</g>
<path id="Vector_54" d="M50.2947 41.1706C50.9451 41.0226 51.3185 41.4254 51.1142 42.0634C50.9855 42.4055 50.7771 42.7119 50.5063 42.9572C50.2355 43.2025 49.91 43.3797 49.557 43.474C48.8984 43.6193 48.5332 43.2192 48.7375 42.5812C48.868 42.2402 49.077 41.9349 49.3475 41.6898C49.6181 41.4447 49.9426 41.2668 50.2947 41.1706Z" fill="#303030"/>
</g>
</g>
</svg>
