<svg width="84" height="88" viewBox="0 0 84 88" fill="none" xmlns="http://www.w3.org/2000/svg">
<g id="Group 9">
<g id="Group">
<path id="Vector" d="M42.913 74.5382L43.785 76.9613L42.4732 78.5216L41.6041 76.1067L42.913 74.5382Z" fill="#5E5B65"/>
<path id="Vector_2" d="M41.6043 76.1067L42.4734 78.5216L38.9114 77.8915L38.0393 75.4685L41.6043 76.1067Z" fill="#333137"/>
<path id="Vector_3" d="M42.913 74.5382L41.6042 76.1067L38.0393 75.4685L39.3429 73.9111L42.913 74.5382Z" fill="#413F46"/>
</g>
<g id="Group_2">
<path id="Vector_4" d="M23.5327 71.1911L24.4048 73.6142L23.1041 75.1797L22.232 72.7566L23.5327 71.1911Z" fill="#5E5B65"/>
<path id="Vector_5" d="M22.2315 72.7567L23.1036 75.1798L19.5335 74.5527L18.6614 72.1296L22.2315 72.7567Z" fill="#333137"/>
<path id="Vector_6" d="M23.5321 71.1911L22.2315 72.7567L18.6614 72.1296L19.9702 70.5611L23.5321 71.1911Z" fill="#413F46"/>
</g>
<path id="Vector_7" d="M47.9128 21.8765L60.388 55.8697L42.2635 77.4595L29.7883 43.4663L47.9128 21.8765Z" fill="#DADFEA" fill-opacity="0.42"/>
<path id="Vector_8" d="M40.9015 73.7148L17.4538 69.3936L4.98154 35.4086L28.4293 39.7298L40.9015 73.7148Z" fill="#C8D1E3" fill-opacity="0.5"/>
<path id="Vector_9" d="M28.4293 39.7298L4.98157 35.4086L23.106 13.8188L46.5538 18.14L28.4293 39.7298Z" fill="#EDEFF5" fill-opacity="0.28"/>
<path id="Vector_10" d="M46.5533 18.14L59.0255 52.125L40.9011 73.7148L28.4288 39.7299L46.5533 18.14Z" fill="#DADFEA" fill-opacity="0.42"/>
<path id="Vector_11" d="M30.6904 38.9722C30.981 38.6258 31.3311 38.6466 31.4649 39.0145C31.5208 39.2395 31.5243 39.4744 31.4751 39.7009C31.4259 39.9275 31.3253 40.1397 31.1811 40.3213C30.8823 40.6706 30.5322 40.6499 30.3984 40.2819C30.341 40.056 30.3376 39.8198 30.3883 39.5923C30.439 39.3648 30.5425 39.1524 30.6904 38.9722Z" fill="#EBF1FD" fill-opacity="0.62"/>
<path id="Vector_12" d="M32.3911 36.9555C32.6899 36.6062 33.0318 36.6299 33.1656 36.9978C33.2236 37.2227 33.2281 37.458 33.1788 37.6849C33.1295 37.9118 33.0278 38.124 32.8818 38.3046C32.5912 38.651 32.2411 38.6302 32.1072 38.2623C32.05 38.0374 32.0458 37.8022 32.0951 37.5754C32.1443 37.3486 32.2457 37.1364 32.3911 36.9555Z" fill="#EBF1FD" fill-opacity="0.62"/>
<path id="Vector_13" d="M31.4609 41.0897C31.7485 40.7352 32.0986 40.7559 32.2324 41.1239C32.2904 41.3487 32.2949 41.584 32.2456 41.8109C32.1963 42.0378 32.0946 42.2501 31.9486 42.4306C31.6498 42.78 31.3027 42.7674 31.1659 42.3913C31.1089 42.1664 31.1059 41.9313 31.1572 41.7051C31.2085 41.4789 31.3125 41.268 31.4609 41.0897Z" fill="#EBF1FD" fill-opacity="0.62"/>
<path id="Vector_14" d="M33.1618 39.0731C33.4576 38.7155 33.7995 38.7393 33.9333 39.1072C33.9934 39.3319 33.999 39.5676 33.9496 39.7949C33.9002 40.0222 33.7974 40.2344 33.6495 40.4139C33.3589 40.7603 33.0118 40.7477 32.875 40.3716C32.8181 40.1478 32.8144 39.9138 32.8642 39.6883C32.914 39.4628 33.0159 39.2521 33.1618 39.0731Z" fill="#EBF1FD" fill-opacity="0.62"/>
<path id="Vector_15" d="M34.0748 34.964C34.3624 34.6095 34.7125 34.6303 34.8464 34.9982C34.9043 35.223 34.9088 35.4583 34.8595 35.6852C34.8102 35.9121 34.7085 36.1244 34.5625 36.3049C34.2719 36.6513 33.9248 36.6387 33.788 36.2626C33.7311 36.0388 33.7274 35.8048 33.7772 35.5793C33.827 35.3538 33.9289 35.1431 34.0748 34.964Z" fill="#EBF1FD" fill-opacity="0.62"/>
<path id="Vector_16" d="M34.8442 37.0816C35.1348 36.7352 35.4849 36.756 35.6187 37.1239C35.6746 37.3489 35.6781 37.5838 35.6289 37.8103C35.5797 38.0369 35.4791 38.2492 35.3349 38.4307C35.0443 38.7771 34.6942 38.7563 34.5604 38.3884C34.5031 38.1635 34.4989 37.9283 34.5482 37.7015C34.5975 37.4748 34.6988 37.2625 34.8442 37.0816Z" fill="#EBF1FD" fill-opacity="0.62"/>
<g id="Group_3">
<g id="Group_4">
<g id="Clip path group">
<mask id="mask0_578_288" style="mask-type:luminance" maskUnits="userSpaceOnUse" x="37" y="29" width="3" height="1">
<g id="clip-path-30">
<path id="Vector_17" d="M38.8752 29.3295L39.6579 29.4706C39.4468 29.453 39.2349 29.4915 39.0435 29.5822C38.8521 29.673 38.6882 29.8127 38.5683 29.9873L37.7967 29.8513C37.9144 29.6769 38.0762 29.5367 38.2656 29.445C38.455 29.3534 38.6653 29.3135 38.8752 29.3295Z" fill="white"/>
</g>
</mask>
<g mask="url(#mask0_578_288)">
<g id="Group_5">
<g id="Group_6">
<path id="Vector_18" d="M38.5928 29.9784L37.8212 29.8424C38.0236 29.559 38.3302 29.3675 38.6737 29.3101L39.4564 29.4513C39.112 29.5108 38.8032 29.6993 38.5928 29.9784Z" fill="#CACACA"/>
<path id="Vector_19" d="M39.4564 29.4513L38.6737 29.3102C38.7492 29.3063 38.8249 29.3097 38.8997 29.3206L39.6824 29.4617C39.6078 29.4485 39.5318 29.445 39.4564 29.4513Z" fill="#BBBBBB"/>
</g>
</g>
</g>
</g>
</g>
<g id="Group_7">
<g id="Clip path group_2">
<mask id="mask1_578_288" style="mask-type:luminance" maskUnits="userSpaceOnUse" x="37" y="29" width="2" height="6">
<g id="clip-path-31">
<path id="Vector_20" d="M38.8433 34.1275L38.0606 33.9863C37.8605 33.9336 37.6782 33.8278 37.5333 33.6801C37.3883 33.5324 37.2859 33.3483 37.237 33.1472C37.064 32.5896 37.0268 31.9987 37.1286 31.4238C37.2303 30.849 37.4679 30.3068 37.8217 29.8424L38.5933 29.9783C38.2431 30.4462 38.0081 30.9899 37.907 31.5654C37.8059 32.1409 37.8417 32.7322 38.0115 33.2913C38.0649 33.4912 38.1699 33.6737 38.3158 33.8204C38.4618 33.9671 38.6437 34.073 38.8433 34.1275Z" fill="white"/>
</g>
</mask>
<g mask="url(#mask1_578_288)">
<g id="Group_8">
<path id="Vector_21" d="M38.8434 34.1275L38.0607 33.9863C37.8605 33.9336 37.6783 33.8278 37.5333 33.6801C37.3883 33.5324 37.286 33.3483 37.237 33.1472C37.0583 32.6225 37.0165 32.0609 37.1157 31.5156L37.8903 31.6598C37.8005 32.2055 37.8421 32.7648 38.0116 33.2913C38.065 33.4912 38.1699 33.6737 38.3159 33.8204C38.4618 33.9671 38.6437 34.073 38.8434 34.1275Z" fill="#BBBBBB"/>
<path id="Vector_22" d="M37.8739 31.6657L37.0993 31.5216C37.1783 30.9101 37.4223 30.3316 37.8053 29.8483L38.5769 29.9843C38.203 30.4756 37.9609 31.0545 37.8739 31.6657Z" fill="#BBBBBB"/>
</g>
</g>
</g>
</g>
<path id="Vector_23" d="M38.5935 29.9784C39.2869 29.1614 40.144 29.3033 40.5179 30.306C40.6852 30.8643 40.7195 31.4539 40.618 32.0278C40.5164 32.6017 40.2819 33.1438 39.9332 33.6108C39.2345 34.4389 38.3827 34.2858 38.0117 33.2913C37.842 32.7322 37.8062 32.1409 37.9072 31.5654C38.0083 30.9899 38.2434 30.4462 38.5935 29.9784Z" fill="#EDEFF5" fill-opacity="0.28"/>
</g>
<path id="Vector_24" d="M47.9093 24.9976L41.953 32.0891L39.9249 26.513L45.8782 19.4133L47.9093 24.9976Z" fill="#C8D1E3" fill-opacity="0.5"/>
<path id="Vector_25" d="M46.9883 23.3052L41.4958 29.8392L40.333 26.6424L45.8225 20.1002L46.9883 23.3052Z" fill="#025074"/>
<path id="Vector_26" d="M46.2791 26.1922L47.5084 24.736L47.1188 23.665L45.8895 25.1212L46.2791 26.1922Z" fill="#EDEFF5" fill-opacity="0.28"/>
<path id="Vector_27" d="M45.7352 25.3069L44.4554 26.8278L44.8449 27.8989L46.1248 26.378L45.7352 25.3069Z" fill="#EDEFF5" fill-opacity="0.28"/>
<path id="Vector_28" d="M43.4326 29.5885L44.6938 28.0929L44.3013 27.0136L43.043 28.5174L43.4326 29.5885Z" fill="#EDEFF5" fill-opacity="0.28"/>
<path id="Vector_29" d="M42.88 28.7063L41.6299 30.2071L42.0195 31.2781L43.2696 29.7773L42.88 28.7063Z" fill="#EDEFF5" fill-opacity="0.28"/>
<path id="Vector_30" d="M41.9592 28.1616C41.6366 28.5474 41.23 28.4731 41.0605 28.007C40.9827 27.7454 40.9675 27.4692 41.0161 27.2006C41.0648 26.932 41.1759 26.6786 41.3406 26.4609C41.655 26.0781 42.0765 26.1933 42.2311 26.6184C42.3096 26.879 42.3259 27.1544 42.2787 27.4224C42.2314 27.6904 42.122 27.9435 41.9592 28.1616ZM41.4209 26.6817C41.2986 26.8432 41.2164 27.0316 41.1812 27.2311C41.1459 27.4306 41.1585 27.6357 41.2181 27.8294C41.343 28.1728 41.6388 28.2225 41.8789 27.9408C41.9981 27.7783 42.0778 27.5902 42.1115 27.3915C42.1453 27.1928 42.1323 26.9889 42.0735 26.7961C41.9486 26.4527 41.6528 26.4029 41.4209 26.6817Z" fill="white" fill-opacity="0.49"/>
<path id="Vector_31" d="M41.8356 27.4383C41.8496 27.4816 41.8528 27.5277 41.8449 27.5725C41.837 27.6174 41.8183 27.6596 41.7902 27.6955C41.7167 27.7222 41.6594 27.743 41.6356 27.6776L41.4572 27.1871C41.4429 27.1428 41.4403 27.0956 41.4497 27.05C41.4591 27.0044 41.4801 26.962 41.5107 26.9269C41.5612 26.8622 41.6333 26.8823 41.6571 26.9477L41.8356 27.4383Z" fill="white" fill-opacity="0.49"/>
<path id="Vector_32" d="M46.0689 21.8988L45.9656 21.742L45.8028 21.9308C45.7655 21.9012 45.7229 21.879 45.6772 21.8654L45.6504 21.5882L45.5114 21.6387L45.4617 21.9346C45.4117 21.9661 45.3665 22.0044 45.3271 22.0483L45.1859 21.9145L45.0647 22.116C45.0647 22.116 45.0647 22.116 45.0826 22.165L45.1659 22.394C45.1349 22.4669 45.1129 22.5432 45.1005 22.6214L44.9124 22.6898L44.8946 22.9463L44.9095 22.9871L45.0782 23.0183C45.094 23.0864 45.118 23.1523 45.1496 23.2146L45.044 23.4844L45.1065 23.6561L45.2693 23.4673C45.3066 23.4969 45.3492 23.5191 45.3949 23.5327L45.4246 23.8181L45.5718 23.7646L45.6216 23.4687C45.6739 23.4406 45.7197 23.4019 45.7561 23.355L45.9055 23.4858L46.0267 23.2844C46.0267 23.2844 46.0267 23.2844 46.0118 23.2435L45.9256 23.0064C45.9528 22.9339 45.972 22.8586 45.9828 22.7819L46.1708 22.7135C46.1858 22.7137 46.2004 22.7085 46.2117 22.6986L46.2214 22.4452L46.0496 22.4058C46.0338 22.3377 46.0099 22.2719 45.9783 22.2096L46.095 21.9449C46.0898 21.9278 46.0809 21.9121 46.0689 21.8988ZM45.6543 23.0495C45.5331 23.251 45.3525 23.2889 45.2573 23.1291C45.2062 23.0245 45.1819 22.9088 45.1864 22.7924C45.1909 22.6761 45.2242 22.5627 45.2833 22.4623C45.4044 22.2609 45.5851 22.223 45.6832 22.3909C45.7339 22.4944 45.7579 22.6089 45.7528 22.7239C45.7478 22.839 45.7139 22.951 45.6543 23.0495Z" fill="white" fill-opacity="0.49"/>
<path id="Vector_33" d="M42.5681 26.5515L43.0825 26.6422C43.1064 26.6442 43.1305 26.641 43.1531 26.6328C43.1757 26.6246 43.1963 26.6115 43.2133 26.5946C43.2546 26.5424 43.2831 26.4813 43.2965 26.4162L43.454 25.5257C43.4778 25.3874 43.4332 25.2648 43.3529 25.2477C43.2727 25.2306 43.1731 25.3131 43.1582 25.4759L43.1203 25.7026L42.8913 25.0731C42.8438 24.9423 42.733 24.9177 42.6423 25.0248C42.5976 25.0851 42.5674 25.1549 42.5542 25.2288C42.5409 25.3026 42.5449 25.3786 42.5658 25.4507L42.7978 26.0884L42.6677 26.0617C42.5874 26.0446 42.4878 26.1271 42.4729 26.2899C42.4581 26.4527 42.4878 26.5344 42.5681 26.5515Z" fill="white" fill-opacity="0.49"/>
<path id="Vector_34" d="M44.5312 23.5506L44.0361 23.4622C44.0136 23.4597 43.9908 23.4625 43.9696 23.4702C43.9483 23.4779 43.9291 23.4904 43.9135 23.5068C43.875 23.5585 43.8492 23.6186 43.8384 23.6822L43.6853 24.534C43.6668 24.6611 43.7114 24.7838 43.7835 24.8039C43.8556 24.8239 43.9552 24.7414 43.97 24.5786L44.0027 24.363L44.2228 24.9681C44.2674 25.0907 44.3752 25.1071 44.4607 25.0112C44.5032 24.9535 44.532 24.887 44.5449 24.8165C44.5578 24.746 44.5544 24.6735 44.5349 24.6046L44.3149 23.9996L44.442 24.0181C44.5223 24.0352 44.6055 23.9586 44.6233 23.804C44.6412 23.6494 44.6114 23.5677 44.5312 23.5506Z" fill="white" fill-opacity="0.49"/>
<g id="Group_9">
<path id="Vector_35" d="M40.5273 68.0278L41.1161 69.6467L63.3604 73.6372L62.7716 72.0184L40.5273 68.0278Z" fill="#D3D6DC"/>
<path id="Vector_36" d="M62.771 72.0183L63.3598 73.6371L79.1037 54.8943L78.5067 53.2785L62.771 72.0183Z" fill="#737477"/>
<path id="Vector_37" d="M40.5268 68.0278L62.7712 72.0183L78.5069 53.2785L56.2625 49.288L40.5268 68.0278Z" fill="#EDEFF5" fill-opacity="0.28"/>
</g>
<path id="Vector_38" d="M42.2635 77.4594L18.8158 73.1382L6.34058 39.145L29.7883 43.4663L42.2635 77.4594Z" fill="#C8D1E3" fill-opacity="0.5"/>
<path id="Vector_39" d="M47.6359 25.7728L56.2184 49.369L40.5206 68.0857L31.9381 44.4896L32.5431 43.7604L32.8708 43.3634L47.6359 25.7728Z" fill="#263645"/>
<path id="Vector_40" d="M35.635 47.0426L35.861 47.664L35.6506 47.9256L35.4216 47.2961L35.635 47.0426Z" fill="#353535"/>
<path id="Vector_41" d="M35.7563 47.3504L35.9771 47.9829L35.6508 47.9257L35.4218 47.2961L35.7563 47.3504Z" fill="#4B4B4B"/>
<path id="Vector_42" d="M57.3044 51.1588L57.5334 51.7883L35.9767 47.9828L35.7559 47.3503L57.3044 51.1588Z" fill="#4B4B4B"/>
<path id="Vector_43" d="M58.0655 50.706L57.8522 50.9595L57.6389 51.213L57.3044 51.1588L35.7558 47.3503L35.4213 47.296L35.6347 47.0426L35.8561 46.7861L58.0655 50.706Z" fill="#313131"/>
<path id="Vector_44" d="M34.2251 43.1671L34.4511 43.7885L34.2407 44.0502L34.0117 43.4206L34.2251 43.1671Z" fill="#353535"/>
<path id="Vector_45" d="M34.3467 43.4748L34.5675 44.1074L32.6149 43.753L33.0088 43.2579L34.3467 43.4748Z" fill="#4B4B4B"/>
<path id="Vector_46" d="M55.8945 47.2833L56.1235 47.9129L34.5668 44.1074L34.346 43.4748L55.8945 47.2833Z" fill="#4B4B4B"/>
<path id="Vector_47" d="M56.6564 46.8306L56.4431 47.0841L56.2298 47.3376L55.8953 47.2834L34.3467 43.4749L33.0162 43.2275L33.2139 43.0074L33.4324 42.7428L56.6564 46.8306Z" fill="#313131"/>
<g id="Group_10">
<path id="Vector_48" d="M34.0068 43.4318C33.495 43.3546 32.9729 43.4718 32.5432 43.7604L32.8792 43.3605C33.1057 43.3158 33.3381 43.3095 33.5667 43.3419L34.0068 43.4318Z" fill="#9E9FA3"/>
<path id="Vector_49" d="M35.8298 45.2869C35.0715 43.202 33.3351 42.806 31.8702 44.3016L34.7607 52.2487C35.4464 51.2413 35.8982 50.0933 36.0832 48.8888C36.2681 47.6843 36.1816 46.4537 35.8298 45.2869Z" fill="#DEE0E5"/>
</g>
<g id="Group_11">
<g id="Group_12">
<g id="Group_13">
<path id="Vector_50" d="M35.4749 43.6011L35.0378 43.5194C34.5788 43.4821 34.1181 43.5669 33.7024 43.7653C33.2868 43.9636 32.931 44.2684 32.6712 44.6487L33.1083 44.7304C33.3681 44.3501 33.7239 44.0453 34.1395 43.847C34.5551 43.6487 35.0159 43.5638 35.4749 43.6011Z" fill="#9E9FA3"/>
</g>
</g>
<path id="Vector_51" d="M32.6546 44.6546C32.4942 44.847 32.3489 45.0516 32.2199 45.2664L32.4102 45.7896C32.601 45.4163 32.8294 45.0634 33.0917 44.7363L32.6546 44.6546Z" fill="#9E9FA3"/>
<path id="Vector_52" d="M33.092 44.7363C32.8296 45.0634 32.6013 45.4163 32.4104 45.7896L35.1999 53.4588C35.5078 53.2492 35.7837 52.996 36.019 52.7073C36.7885 51.685 37.3055 50.4952 37.5277 49.2351C37.7499 47.9749 37.6711 46.6801 37.2976 45.4563C36.5303 43.245 34.6119 42.9337 33.092 44.7363Z" fill="#DEE0E5"/>
</g>
<g id="Group_14">
<g id="Group_15">
<g id="Group_16">
<path id="Vector_53" d="M36.7534 43.8582L36.3082 43.7794C35.8489 43.7436 35.3883 43.8299 34.9731 44.0297C34.558 44.2294 34.2031 44.5355 33.9446 44.9169L34.3786 44.9904C34.6384 44.6101 34.9942 44.3054 35.4098 44.107C35.8255 43.9087 36.2862 43.8238 36.7452 43.8611L36.7534 43.8582Z" fill="#9E9FA3"/>
</g>
</g>
<path id="Vector_54" d="M34.3297 45.0082L33.8956 44.9347C33.4257 45.5186 33.0582 46.1782 32.8091 46.8852L33.047 47.5393C33.301 46.6183 33.7372 45.7576 34.3297 45.0082Z" fill="#9E9FA3"/>
<path id="Vector_55" d="M34.33 45.0082C33.7375 45.7577 33.3013 46.6183 33.0473 47.5393L35.4442 54.1292C36.1712 53.9864 36.8181 53.576 37.257 52.9792C38.0278 51.9569 38.5461 50.767 38.7698 49.5064C38.9934 48.2458 38.916 46.9502 38.5439 45.7252C37.7357 43.5288 35.85 43.2056 34.33 45.0082Z" fill="#DEE0E5"/>
</g>
<g id="Group_17">
<g id="Group_18">
<g id="Group_19">
<path id="Vector_56" d="M38.1899 44.0395L37.7447 43.9607C37.2854 43.9248 36.8247 44.0112 36.4096 44.2109C35.9945 44.4107 35.6396 44.7168 35.3811 45.0982L35.8152 45.1717C36.0749 44.7914 36.4307 44.4866 36.8464 44.2883C37.262 44.09 37.7227 44.0051 38.1818 44.0424L38.1899 44.0395Z" fill="#9E9FA3"/>
</g>
</g>
<path id="Vector_57" d="M35.8927 54.2161L36.3297 54.2978C35.9234 54.2211 35.5528 54.0149 35.2735 53.71L35.3954 54.0452C35.551 54.1282 35.7189 54.1859 35.8927 54.2161Z" fill="#9E9FA3"/>
<path id="Vector_58" d="M35.7991 45.1775L35.365 45.104C34.3941 46.3573 33.8293 47.8774 33.7464 49.4606L34.1687 50.6216C34.0462 48.6706 34.6244 46.74 35.7991 45.1775Z" fill="#9E9FA3"/>
<path id="Vector_59" d="M35.7994 45.1776C34.6247 46.7401 34.0465 48.6707 34.169 50.6216L35.2931 53.7122C36.2297 54.6583 37.5855 54.517 38.7264 53.1485C39.4972 52.1263 40.0155 50.9363 40.2391 49.6757C40.4627 48.4151 40.3853 47.1195 40.0132 45.8945C39.2051 43.6981 37.3104 43.3504 35.7994 45.1776Z" fill="#DEE0E5"/>
</g>
<g id="Group_20">
<g id="Group_21">
<g id="Group_22">
<path id="Vector_60" d="M39.3362 44.3635L38.9021 44.2899C38.4431 44.2526 37.9823 44.3375 37.5667 44.5358C37.151 44.7341 36.7953 45.0389 36.5355 45.4192L36.9808 45.4979C37.2393 45.1166 37.5941 44.8105 38.0093 44.6107C38.4244 44.411 38.8851 44.3246 39.3444 44.3605L39.3362 44.3635Z" fill="#9E9FA3"/>
</g>
</g>
<g id="Group_23">
<g id="Group_24">
<path id="Vector_61" d="M36.9554 45.5069L36.5102 45.4281C35.7411 46.4522 35.2247 47.6435 35.003 48.9049C34.7813 50.1663 34.8607 51.4623 35.2345 52.6873C35.3496 53.1288 35.5785 53.5325 35.8983 53.858C36.2182 54.1835 36.6177 54.4195 37.0572 54.5424L37.4943 54.6241C37.0544 54.4995 36.655 54.2615 36.336 53.934C36.0171 53.6064 35.7897 53.2009 35.6768 52.7578C35.3019 51.5341 35.2223 50.2391 35.4446 48.9787C35.6668 47.7183 36.1846 46.5285 36.9554 45.5069Z" fill="#9E9FA3"/>
</g>
</g>
<path id="Vector_62" d="M36.9555 45.5068C36.1846 46.5285 35.6668 47.7182 35.4446 48.9786C35.2223 50.239 35.3019 51.5341 35.6768 52.7578C36.4767 54.9572 38.3625 55.2804 39.8743 53.4807C40.6463 52.4591 41.1654 51.2691 41.3891 50.0083C41.6128 48.7475 41.5346 47.4516 41.1611 46.2267C40.35 44.0222 38.4672 43.7072 36.9555 45.5068Z" fill="#DEE0E5"/>
</g>
<g id="Group_25">
<g id="Group_26">
<g id="Group_27">
<path id="Vector_63" d="M40.8043 44.5328L40.362 44.4622C39.903 44.4249 39.4423 44.5097 39.0266 44.708C38.611 44.9064 38.2552 45.2111 37.9955 45.5914L38.4407 45.6702C38.6992 45.2889 39.0541 44.9828 39.4692 44.783C39.8844 44.5832 40.345 44.4969 40.8043 44.5328Z" fill="#9E9FA3"/>
</g>
</g>
<g id="Group_28">
<g id="Group_29">
<path id="Vector_64" d="M38.4396 45.717L37.9943 45.6383C37.226 46.6612 36.7098 47.8509 36.4877 49.1108C36.2655 50.3707 36.3436 51.6652 36.7157 52.8893C36.8298 53.3327 37.0585 53.7383 37.379 54.0654C37.6995 54.3924 38.1003 54.6294 38.5413 54.7526L38.9784 54.8343C38.5374 54.7112 38.1365 54.4742 37.8161 54.1471C37.4956 53.82 37.2668 53.4144 37.1527 52.971C36.7806 51.746 36.7032 50.4504 36.9268 49.1898C37.1505 47.9292 37.6688 46.7393 38.4396 45.717Z" fill="#9E9FA3"/>
</g>
</g>
<path id="Vector_65" d="M38.439 45.717C37.6682 46.7392 37.1499 47.9292 36.9263 49.1898C36.7027 50.4504 36.7801 51.7459 37.1522 52.9709C37.9522 55.1703 39.8461 55.4906 41.3578 53.6909C42.1299 52.6693 42.649 51.4793 42.8727 50.2185C43.0963 48.9577 43.0182 47.6618 42.6447 46.4369C41.8187 44.1915 39.9329 43.8683 38.439 45.717Z" fill="#DEE0E5"/>
</g>
<g id="Group_30">
<g id="Group_31">
<g id="Group_32">
<path id="Vector_66" d="M42.0452 44.813L41.6081 44.7312C41.1491 44.6939 40.6884 44.7787 40.2727 44.9771C39.8571 45.1754 39.5013 45.4802 39.2416 45.8605L39.6786 45.9422C39.9384 45.5619 40.2942 45.2571 40.7098 45.0588C41.1255 44.8605 41.5862 44.7757 42.0452 44.813Z" fill="#9E9FA3"/>
</g>
</g>
<g id="Group_33">
<g id="Group_34">
<path id="Vector_67" d="M39.6615 45.9481L39.2244 45.8664C38.4541 46.8905 37.9364 48.0819 37.7133 49.3438C37.4902 50.6057 37.5681 51.9024 37.9406 53.1285C38.0557 53.5701 38.2846 53.9738 38.6044 54.2993C38.9242 54.6248 39.3238 54.8608 39.7633 54.9837L40.2085 55.0625C39.769 54.9396 39.3694 54.7036 39.0496 54.3781C38.7298 54.0526 38.5009 53.6489 38.3858 53.2073C38.0098 51.9826 37.9294 50.6862 38.1512 49.4244C38.3729 48.1626 38.8905 46.9713 39.6615 45.9481Z" fill="#9E9FA3"/>
</g>
</g>
<path id="Vector_68" d="M39.6619 45.9482C38.891 46.9714 38.3734 48.1626 38.1516 49.4244C37.9299 50.6862 38.0103 51.9826 38.3863 53.2074C39.1862 55.4067 41.072 55.7299 42.5889 53.9191C43.3585 52.8968 43.8755 51.7071 44.0977 50.4469C44.3199 49.1868 44.241 47.892 43.8676 46.6681C43.0594 44.4717 41.1819 44.1456 39.6619 45.9482Z" fill="#DEE0E5"/>
</g>
<g id="Group_35">
<g id="Group_36">
<g id="Group_37">
<path id="Vector_69" d="M43.5139 44.9823L43.0769 44.9005C42.6179 44.8632 42.1571 44.948 41.7415 45.1464C41.3258 45.3447 40.9701 45.6495 40.7103 46.0298L41.1555 46.1085C41.4153 45.7282 41.7711 45.4235 42.1867 45.2251C42.6024 45.0268 43.0631 44.942 43.5221 44.9793L43.5139 44.9823Z" fill="#9E9FA3"/>
</g>
</g>
<g id="Group_38">
<g id="Group_39">
<path id="Vector_70" d="M41.1302 46.1174L40.685 46.0387C39.9159 47.0628 39.3995 48.2541 39.1778 49.5155C38.9561 50.7769 39.0355 52.0729 39.4093 53.2979C39.5244 53.7394 39.7533 54.1431 40.0731 54.4686C40.393 54.7941 40.7925 55.0301 41.232 55.153L41.6773 55.2317C41.2362 55.1086 40.8354 54.8716 40.5149 54.5445C40.1945 54.2175 39.9657 53.8119 39.8516 53.3684C39.4774 52.1447 39.3982 50.8497 39.6204 49.5894C39.8427 48.3292 40.36 47.1394 41.1302 46.1174Z" fill="#9E9FA3"/>
</g>
</g>
<path id="Vector_71" d="M41.1307 46.1174C40.3605 47.1394 39.8431 48.3291 39.6209 49.5894C39.3986 50.8496 39.4779 52.1446 39.852 53.3684C40.655 55.5759 42.5407 55.8991 44.0577 54.0883C44.8272 53.066 45.3442 51.8763 45.5664 50.6161C45.7887 49.356 45.7098 48.0612 45.3364 46.8373C44.5282 44.6409 42.6424 44.3177 41.1307 46.1174Z" fill="#DEE0E5"/>
<path id="Vector_72" d="M41.7438 47.8017C41.3013 48.394 41.0044 49.0821 40.8769 49.8103C40.7494 50.5386 40.7949 51.2866 41.0097 51.994C41.4707 53.2613 42.5656 53.4463 43.4374 52.4071C43.8809 51.8163 44.1794 51.1296 44.3088 50.4023C44.4383 49.675 44.395 48.9275 44.1826 48.22C43.7105 46.9475 42.6238 46.7595 41.7438 47.8017Z" fill="#EDEFF5" fill-opacity="0.28"/>
</g>
<g id="Group_40">
<g id="Group_41">
<g id="Group_42">
<path id="Vector_73" d="M45.2155 45.2333L44.7702 45.1546C44.3112 45.1173 43.8505 45.2021 43.4348 45.4004C43.0192 45.5987 42.6634 45.9035 42.4037 46.2838L42.8489 46.3626C43.1087 45.9823 43.4645 45.6775 43.8801 45.4792C44.2958 45.2808 44.7565 45.196 45.2155 45.2333Z" fill="#9E9FA3"/>
</g>
</g>
<g id="Group_43">
<g id="Group_44">
<path id="Vector_74" d="M42.8324 46.3685L42.3872 46.2898C41.6181 47.3139 41.1017 48.5052 40.88 49.7666C40.6583 51.028 40.7376 52.324 41.1115 53.549C41.2266 53.9905 41.4555 54.3942 41.7753 54.7197C42.0951 55.0452 42.4947 55.2812 42.9342 55.4041L43.3712 55.4858C42.9302 55.3627 42.5294 55.1256 42.2089 54.7986C41.8885 54.4715 41.6597 54.0659 41.5456 53.6225C41.1748 52.3973 41.0982 51.102 41.3217 49.8417C41.5453 48.5813 42.0629 47.3914 42.8324 46.3685Z" fill="#9E9FA3"/>
</g>
</g>
<path id="Vector_75" d="M42.8328 46.3685C42.0632 47.3914 41.5457 48.5813 41.3221 49.8416C41.0985 51.102 41.1752 52.3973 41.5459 53.6224C42.3489 55.83 44.2428 56.1502 45.7516 54.3424C46.5236 53.3208 47.0427 52.1308 47.2664 50.87C47.4901 49.6091 47.4119 48.3132 47.0384 47.0884C46.2273 44.8838 44.3445 44.5688 42.8328 46.3685Z" fill="#DEE0E5"/>
</g>
<g id="Group_45">
<g id="Group_46">
<g id="Group_47">
<path id="Vector_76" d="M46.6813 45.3946L46.239 45.324C45.78 45.2867 45.3192 45.3715 44.9036 45.5698C44.488 45.7682 44.1322 46.0729 43.8724 46.4532L44.3095 46.535C44.568 46.1536 44.9229 45.8475 45.338 45.6478C45.7532 45.448 46.2138 45.3617 46.6731 45.3976L46.6813 45.3946Z" fill="#9E9FA3"/>
</g>
</g>
<g id="Group_48">
<g id="Group_49">
<path id="Vector_77" d="M44.293 46.541L43.8559 46.4592C43.0849 47.4824 42.5673 48.6737 42.3456 49.9355C42.1238 51.1973 42.2043 52.4937 42.5802 53.7184C42.6953 54.16 42.9242 54.5636 43.244 54.8892C43.5639 55.2147 43.9634 55.4506 44.4029 55.5735L44.84 55.6553C44.399 55.5321 43.9981 55.2951 43.6776 54.9681C43.3572 54.641 43.1284 54.2354 43.0143 53.7919C42.6429 52.5678 42.5652 51.2735 42.7873 50.0137C43.0095 48.7539 43.5253 47.5642 44.293 46.541Z" fill="#9E9FA3"/>
</g>
</g>
<path id="Vector_78" d="M44.2933 46.541C43.5257 47.5642 43.0099 48.754 42.7877 50.0137C42.5656 51.2735 42.6433 52.5679 43.0147 53.792C43.8146 55.9913 45.7116 56.3197 47.2203 54.5119C47.9911 53.4897 48.5095 52.2997 48.7331 51.0391C48.9567 49.7785 48.8793 48.4829 48.5072 47.2579C47.696 45.0534 45.8133 44.7384 44.2933 46.541Z" fill="#DEE0E5"/>
</g>
<g id="Group_50">
<g id="Group_51">
<g id="Group_52">
<path id="Vector_79" d="M47.922 45.6747L47.4849 45.593C47.0256 45.5571 46.565 45.6435 46.1498 45.8433C45.7347 46.043 45.3798 46.3491 45.1213 46.7305L45.5636 46.801C45.8233 46.4208 46.1791 46.116 46.5947 45.9176C47.0104 45.7193 47.4711 45.6345 47.9301 45.6718L47.922 45.6747Z" fill="#9E9FA3"/>
</g>
</g>
<g id="Group_53">
<g id="Group_54">
<path id="Vector_80" d="M45.5472 46.8345L45.1049 46.7639C44.336 47.7865 43.8194 48.9763 43.5972 50.2363C43.375 51.4963 43.4535 52.7909 43.8263 54.0149C43.9414 54.4565 44.1703 54.8601 44.4901 55.1857C44.8099 55.5112 45.2095 55.7471 45.649 55.87L46.0942 55.9488C45.6547 55.8259 45.2552 55.5899 44.9353 55.2644C44.6155 54.9389 44.3866 54.5352 44.2715 54.0936C43.8956 52.8689 43.8151 51.5726 44.0369 50.3108C44.2586 49.049 44.7762 47.8577 45.5472 46.8345Z" fill="#9E9FA3"/>
</g>
</g>
<path id="Vector_81" d="M45.5473 46.8344C44.7764 47.8576 44.2588 49.0489 44.0371 50.3107C43.8153 51.5725 43.8957 52.8688 44.2717 54.0936C45.0716 56.2929 46.9574 56.6161 48.4743 54.8053C49.2439 53.7831 49.7609 52.5933 49.9831 51.3332C50.2053 50.073 50.1265 48.7782 49.753 47.5543C48.9359 45.3334 47.0502 45.0102 45.5473 46.8344Z" fill="#DEE0E5"/>
</g>
<g id="Group_55">
<g id="Group_56">
<g id="Group_57">
<path id="Vector_82" d="M49.3909 45.8441L48.9538 45.7623C48.4948 45.725 48.0341 45.8099 47.6184 46.0082C47.2028 46.2065 46.847 46.5113 46.5873 46.8916L47.0325 46.9704C47.2923 46.5901 47.6481 46.2853 48.0637 46.087C48.4793 45.8886 48.9401 45.8038 49.3991 45.8411L49.3909 45.8441Z" fill="#9E9FA3"/>
</g>
</g>
<g id="Group_58">
<g id="Group_59">
<path id="Vector_83" d="M47.0072 46.9793L46.5619 46.9005C45.7928 47.9246 45.2765 49.1159 45.0548 50.3773C44.8331 51.6388 44.9124 52.9347 45.2863 54.1597C45.4014 54.6012 45.6303 55.0049 45.9501 55.3304C46.2699 55.6559 46.6695 55.8919 47.109 56.0148L47.546 56.0965C47.1077 55.9722 46.7096 55.7352 46.3912 55.4092C46.0729 55.0832 45.8454 54.6796 45.7315 54.2384C45.3555 53.0137 45.2751 51.7173 45.4969 50.4555C45.7186 49.1937 46.2362 48.0024 47.0072 46.9793Z" fill="#9E9FA3"/>
</g>
</g>
<path id="Vector_84" d="M47.0077 46.9793C46.2367 48.0025 45.7191 49.1938 45.4974 50.4556C45.2756 51.7174 45.356 53.0138 45.732 54.2385C46.5319 56.4379 48.4177 56.761 49.9264 54.9532C50.6985 53.9316 51.2176 52.7417 51.4413 51.4808C51.665 50.22 51.5868 48.9241 51.2133 47.6993C50.4051 45.5029 48.5194 45.1797 47.0077 46.9793Z" fill="#DEE0E5"/>
</g>
<g id="Group_60">
<g id="Group_61">
<g id="Group_62">
<path id="Vector_85" d="M50.553 46.1621L50.1189 46.0885C49.6599 46.0512 49.1991 46.136 48.7835 46.3344C48.3678 46.5327 48.0121 46.8375 47.7523 47.2178L48.1894 47.2995C48.4479 46.9182 48.8028 46.6121 49.2179 46.4123C49.633 46.2125 50.0937 46.1262 50.553 46.1621Z" fill="#9E9FA3"/>
</g>
</g>
<g id="Group_63">
<g id="Group_64">
<path id="Vector_86" d="M48.1888 47.2995L47.7517 47.2178C46.9815 48.2398 46.4641 49.4295 46.2419 50.6898C46.0197 51.95 46.0989 53.245 46.473 54.4688C46.586 54.9118 46.8133 55.3174 47.1323 55.6449C47.4513 55.9724 47.8507 56.2104 48.2906 56.3351L48.7328 56.4056C48.2934 56.2827 47.8938 56.0468 47.574 55.7213C47.2541 55.3958 47.0252 54.9921 46.9101 54.5505C46.5366 53.3266 46.4578 52.0318 46.68 50.7717C46.9022 49.5116 47.4192 48.3218 48.1888 47.2995Z" fill="#9E9FA3"/>
</g>
</g>
<path id="Vector_87" d="M48.1892 47.2996C47.4196 48.3219 46.9026 49.5116 46.6804 50.7718C46.4582 52.0319 46.537 53.3267 46.9105 54.5506C47.7105 56.7499 49.5963 57.0731 51.1162 55.2705C51.8857 54.2482 52.4027 53.0584 52.6249 51.7983C52.8471 50.5382 52.7683 49.2434 52.3948 48.0195C51.5592 45.8239 49.6734 45.5007 48.1892 47.2996Z" fill="#DEE0E5"/>
</g>
<g id="Group_65">
<g id="Group_66">
<g id="Group_67">
<path id="Vector_88" d="M52.0052 46.3374L51.5681 46.2556C51.1088 46.2197 50.6482 46.3061 50.233 46.5059C49.8179 46.7056 49.463 47.0117 49.2045 47.3931L49.6416 47.4748C49.9001 47.0935 50.255 46.7874 50.6701 46.5876C51.0852 46.3878 51.5459 46.3015 52.0052 46.3374Z" fill="#9E9FA3"/>
</g>
</g>
<g id="Group_68">
<g id="Group_69">
<path id="Vector_89" d="M49.6252 47.4808L49.1435 47.3783C48.3727 48.4006 47.8544 49.5905 47.6308 50.8511C47.4071 52.1117 47.4845 53.4072 47.8567 54.6322C47.9667 55.0831 48.195 55.4965 48.518 55.8298C48.841 56.163 49.247 56.4042 49.6942 56.5283L50.1365 56.5989C49.697 56.476 49.2974 56.24 48.9776 55.9145C48.6578 55.589 48.4289 55.1853 48.3138 54.7437C47.9389 53.52 47.8593 52.2249 48.0816 50.9645C48.3038 49.7042 48.8216 48.5144 49.5925 47.4927L49.6252 47.4808Z" fill="#9E9FA3"/>
</g>
</g>
<path id="Vector_90" d="M49.6252 47.4808C48.8543 48.5025 48.3366 49.6922 48.1143 50.9526C47.892 52.213 47.9716 53.5081 48.3465 54.7318C49.1465 56.9312 51.0322 57.2544 52.5521 55.4517C53.3204 54.4288 53.8366 53.2391 54.0588 51.9792C54.281 50.7193 54.2029 49.4248 53.8308 48.2008C53.0189 45.9687 51.1421 45.67 49.6252 47.4808Z" fill="#DEE0E5"/>
</g>
<g id="Group_70">
<g id="Group_71">
<g id="Group_72">
<path id="Vector_91" d="M53.2536 46.6145L52.8083 46.5358C52.3493 46.4985 51.8886 46.5833 51.4729 46.7816C51.0573 46.98 50.7015 47.2848 50.4418 47.665L50.8788 47.7468C51.1386 47.3665 51.4944 47.0617 51.91 46.8634C52.3257 46.665 52.7864 46.5802 53.2454 46.6175L53.2536 46.6145Z" fill="#9E9FA3"/>
</g>
</g>
<g id="Group_73">
<g id="Group_74">
<path id="Vector_92" d="M50.8623 47.7527L50.4252 47.671C49.6542 48.6942 49.1367 49.8855 48.9149 51.1473C48.6932 52.4091 48.7736 53.7054 49.1495 54.9302C49.2647 55.3718 49.4936 55.7754 49.8134 56.1009C50.1332 56.4265 50.5328 56.6624 50.9722 56.7853L51.4093 56.8671C50.9683 56.7439 50.5674 56.5069 50.247 56.1798C49.9265 55.8528 49.6978 55.4472 49.5836 55.0037C49.2116 53.7797 49.1334 52.4852 49.3556 51.2253C49.5778 49.9654 50.094 48.7757 50.8623 47.7527Z" fill="#9E9FA3"/>
</g>
</g>
<path id="Vector_93" d="M50.8631 47.7528C50.0948 48.7757 49.5786 49.9654 49.3564 51.2253C49.1343 52.4852 49.2124 53.7797 49.5845 55.0038C50.3874 57.2113 52.2813 57.5315 53.7901 55.7237C54.5609 54.7014 55.0792 53.5115 55.3028 52.2509C55.5265 50.9903 55.4491 49.6947 55.0769 48.4697C54.2933 46.2644 52.383 45.9501 50.8631 47.7528Z" fill="#DEE0E5"/>
</g>
<g id="Group_75">
<g id="Group_76">
<g id="Group_77">
<path id="Vector_94" d="M54.7223 46.7838L54.2771 46.7051C53.8181 46.6678 53.3573 46.7526 52.9417 46.9509C52.526 47.1493 52.1703 47.454 51.9105 47.8343L52.3476 47.9161C52.6073 47.5358 52.9631 47.231 53.3788 47.0327C53.7944 46.8343 54.2551 46.7495 54.7141 46.7868L54.7223 46.7838Z" fill="#9E9FA3"/>
</g>
</g>
<g id="Group_78">
<g id="Group_79">
<path id="Vector_95" d="M52.3311 47.9221L51.894 47.8403C51.123 48.8635 50.6054 50.0548 50.3837 51.3166C50.1619 52.5784 50.2423 53.8748 50.6183 55.0995C50.7334 55.5411 50.9623 55.9447 51.2821 56.2703C51.6019 56.5958 52.0015 56.8318 52.441 56.9547L52.8781 57.0364C52.4371 56.9132 52.0362 56.6762 51.7158 56.3491C51.3953 56.0221 51.1665 55.6165 51.0524 55.1731C50.6789 53.9492 50.6001 52.6544 50.8223 51.3942C51.0445 50.1341 51.5615 48.9443 52.3311 47.9221Z" fill="#9E9FA3"/>
</g>
</g>
<path id="Vector_96" d="M52.3314 47.9221C51.5619 48.9444 51.0449 50.1341 50.8227 51.3943C50.6005 52.6544 50.6793 53.9492 51.0528 55.1731C51.8527 57.3725 53.7415 57.7038 55.2584 55.893C56.0292 54.8708 56.5475 53.6808 56.7711 52.4202C56.9948 51.1597 56.9174 49.8641 56.5452 48.639C55.7341 46.4345 53.8513 46.1195 52.3314 47.9221Z" fill="#DEE0E5"/>
<path id="Vector_97" d="M52.9518 49.6033C52.5062 50.1941 52.2073 50.8822 52.0797 51.611C51.9521 52.3399 51.9994 53.0887 52.2177 53.7956C52.6787 55.0629 53.7654 55.2509 54.6372 54.2117C55.0826 53.6219 55.3823 52.9351 55.5118 52.2075C55.6413 51.4798 55.597 50.7319 55.3824 50.0246C54.9103 48.7521 53.8236 48.5641 52.9518 49.6033Z" fill="#EDEFF5" fill-opacity="0.28"/>
</g>
<g id="Group_80">
<g id="Group_81">
<g id="Group_82">
<path id="Vector_98" d="M38.8663 52.2089L38.4293 52.1272C37.9699 52.0913 37.5093 52.1777 37.0942 52.3774C36.679 52.5772 36.3242 52.8833 36.0656 53.2646L36.5109 53.3434C36.7694 52.9621 37.1243 52.656 37.5394 52.4562C37.9546 52.2564 38.4152 52.1701 38.8745 52.2059L38.8663 52.2089Z" fill="#9E9FA3"/>
</g>
</g>
<path id="Vector_99" d="M36.0077 53.2855C35.7947 53.5468 35.6052 53.8264 35.4414 54.121L35.6406 54.6688C35.8552 54.2014 36.1282 53.7631 36.453 53.3643L36.0077 53.2855Z" fill="#9E9FA3"/>
<path id="Vector_100" d="M36.4531 53.3642C36.1283 53.763 35.8554 54.2014 35.6408 54.6688L38.3767 62.1908C38.756 61.9627 39.095 61.6737 39.3801 61.3352C40.1484 60.3122 40.6646 59.1225 40.8868 57.8626C41.1089 56.6027 41.0308 55.3082 40.6588 54.0842C39.8477 51.8796 37.9619 51.5564 36.4531 53.3642Z" fill="#DEE0E5"/>
</g>
<g id="Group_83">
<g id="Group_84">
<g id="Group_85">
<path id="Vector_101" d="M40.3019 52.3903L39.8648 52.3086C39.4055 52.2727 38.9449 52.3591 38.5297 52.5588C38.1146 52.7586 37.7597 53.0647 37.5012 53.4461L37.9464 53.5248C38.205 53.1435 38.5598 52.8374 38.975 52.6376C39.3901 52.4378 39.8507 52.3515 40.31 52.3874L40.3019 52.3903Z" fill="#9E9FA3"/>
</g>
</g>
<path id="Vector_102" d="M37.9216 53.5337L37.4741 53.4743C36.8544 54.2534 36.4061 55.1547 36.1587 56.119L36.4382 56.8876C36.6447 55.6632 37.1546 54.5101 37.9216 53.5337Z" fill="#9E9FA3"/>
<path id="Vector_103" d="M37.922 53.5336C37.1591 54.4995 36.6481 55.6397 36.4349 56.8518L38.5374 62.6323C38.9871 62.6521 39.4345 62.5575 39.8377 62.3574C40.2409 62.1574 40.5868 61.8583 40.8431 61.4882C41.6122 60.4641 42.1286 59.2728 42.3502 58.0114C42.5719 56.75 42.4926 55.454 42.1188 54.2291C41.3255 52.0736 39.4308 51.7258 37.922 53.5336Z" fill="#DEE0E5"/>
</g>
<g id="Group_86">
<g id="Group_87">
<g id="Group_88">
<path id="Vector_104" d="M41.5402 52.6623L41.1031 52.5806C40.6438 52.5447 40.1832 52.631 39.768 52.8308C39.3529 53.0306 38.998 53.3367 38.7395 53.718L39.1765 53.7997C39.4351 53.4184 39.79 53.1123 40.2051 52.9125C40.6202 52.7128 41.0808 52.6264 41.5402 52.6623Z" fill="#9E9FA3"/>
</g>
</g>
<path id="Vector_105" d="M39.1538 53.7893L38.7167 53.7075C37.6448 55.1252 37.0707 56.857 37.0833 58.6343L37.6335 60.1468C37.4418 59.0394 37.4778 57.9046 37.7392 56.8115C38.0005 55.7185 38.4819 54.6902 39.1538 53.7893Z" fill="#9E9FA3"/>
<path id="Vector_106" d="M39.2615 62.8412L39.7038 62.9118C39.3933 62.8424 39.1014 62.7071 38.8479 62.515C38.5943 62.3229 38.385 62.0786 38.2342 61.7985L38.4751 62.4607C38.7042 62.6468 38.9734 62.777 39.2615 62.8412Z" fill="#9E9FA3"/>
<path id="Vector_107" d="M39.1542 53.7893C38.483 54.6875 38.0015 55.7128 37.7391 56.803C37.4767 57.8931 37.4389 59.0253 37.6279 60.1305L38.2227 61.7657C39.1527 63.279 40.7441 63.3019 42.0693 61.7275C42.8376 60.7046 43.3538 59.5149 43.576 58.255C43.7981 56.9951 43.72 55.7006 43.348 54.4765C42.6038 52.3032 40.6444 52.0068 39.1542 53.7893Z" fill="#DEE0E5"/>
</g>
<g id="Group_89">
<g id="Group_90">
<g id="Group_91">
<path id="Vector_108" d="M43.0079 52.8315L42.5709 52.7498C42.1116 52.7139 41.6509 52.8002 41.2358 53C40.8206 53.1998 40.4658 53.5059 40.2072 53.8872L40.6443 53.9689C40.9029 53.5876 41.2577 53.2815 41.6729 53.0817C42.088 52.882 42.5486 52.7956 43.0079 52.8315Z" fill="#9E9FA3"/>
</g>
</g>
<g id="Group_92">
<g id="Group_93">
<path id="Vector_109" d="M40.628 53.975L40.191 53.8932C39.4202 54.9155 38.9019 56.1054 38.6783 57.366C38.4546 58.6266 38.532 59.9222 38.9041 61.1472C39.0183 61.5907 39.2471 61.9963 39.5675 62.3233C39.888 62.6504 40.2888 62.8874 40.7298 63.0105L41.1721 63.0811C40.7302 62.9631 40.328 62.7288 40.0074 62.4025C39.6868 62.0762 39.4596 61.6699 39.3494 61.2259C38.9745 60.0023 38.8949 58.7072 39.1172 57.4468C39.3395 56.1864 39.8572 54.9966 40.628 53.975Z" fill="#9E9FA3"/>
</g>
</g>
<path id="Vector_110" d="M40.6286 53.975C39.8578 54.9967 39.34 56.1864 39.1178 57.4468C38.8955 58.7072 38.9751 60.0023 39.35 61.226C40.1499 63.4253 42.0357 63.7486 43.5556 61.9459C44.3239 60.923 44.8401 59.7333 45.0623 58.4734C45.2845 57.2135 45.2063 55.919 44.8343 54.6949C44.0232 52.4904 42.1456 52.1642 40.6286 53.975Z" fill="#DEE0E5"/>
</g>
<g id="Group_94">
<g id="Group_95">
<g id="Group_96">
<path id="Vector_111" d="M44.1645 53.1608L43.7193 53.082C43.26 53.0462 42.7994 53.1325 42.3842 53.3323C41.9691 53.532 41.6142 53.8381 41.3557 54.2195L41.7898 54.293C42.0495 53.9127 42.4053 53.608 42.821 53.4096C43.2366 53.2113 43.6973 53.1265 44.1564 53.1638L44.1645 53.1608Z" fill="#9E9FA3"/>
</g>
</g>
<g id="Group_97">
<g id="Group_98">
<path id="Vector_112" d="M41.7734 54.299L41.3393 54.2254C40.5672 55.2465 40.0487 56.4363 39.8264 57.6969C39.604 58.9575 39.6843 60.2529 40.0606 61.4765C40.1758 61.918 40.4046 62.3217 40.7245 62.6472C41.0443 62.9727 41.4439 63.2087 41.8834 63.3316L42.3204 63.4133C41.8809 63.2904 41.4814 63.0545 41.1615 62.7289C40.8417 62.4034 40.6128 61.9998 40.4977 61.5582C40.126 60.333 40.0477 59.0374 40.2694 57.7764C40.491 56.5153 41.0062 55.3241 41.7734 54.299Z" fill="#9E9FA3"/>
</g>
</g>
<path id="Vector_113" d="M41.7733 54.299C41.0061 55.3241 40.4909 56.5153 40.2692 57.7764C40.0476 59.0375 40.1258 60.333 40.4976 61.5582C41.2975 63.7576 43.1915 64.0778 44.7003 62.27C45.471 61.2477 45.9894 60.0578 46.213 58.7972C46.4366 57.5366 46.3592 56.241 45.9871 55.016C45.179 52.8196 43.2932 52.4964 41.7733 54.299Z" fill="#DEE0E5"/>
</g>
<g id="Group_99">
<g id="Group_100">
<g id="Group_101">
<path id="Vector_114" d="M45.6333 53.3301L45.188 53.2514C44.7287 53.2155 44.2681 53.3018 43.853 53.5016C43.4378 53.7014 43.083 54.0075 42.8244 54.3888L43.2585 54.4623C43.5183 54.0821 43.874 53.7773 44.2897 53.579C44.7053 53.3806 45.1661 53.2958 45.6251 53.3331L45.6333 53.3301Z" fill="#9E9FA3"/>
</g>
</g>
<g id="Group_102">
<g id="Group_103">
<path id="Vector_115" d="M43.2418 54.4684L42.8077 54.3948C42.0356 55.4158 41.5171 56.6056 41.2947 57.8662C41.0724 59.1269 41.1528 60.4223 41.5291 61.6458C41.6392 62.0898 41.8664 62.496 42.187 62.8223C42.5076 63.1486 42.9098 63.383 43.3518 63.5009L43.7888 63.5827C43.3494 63.4598 42.9498 63.2238 42.63 62.8983C42.3101 62.5728 42.0812 62.1691 41.9661 61.7275C41.5923 60.5025 41.513 59.2066 41.7346 57.9452C41.9563 56.6837 42.4727 55.4925 43.2418 54.4684Z" fill="#9E9FA3"/>
</g>
</g>
<path id="Vector_116" d="M43.2417 54.4683C42.4726 55.4924 41.9562 56.6837 41.7345 57.9451C41.5129 59.2065 41.5922 60.5025 41.966 61.7275C42.766 63.9268 44.6518 64.25 46.1687 62.4392C46.9395 61.417 47.4578 60.227 47.6814 58.9664C47.9051 57.7058 47.8276 56.4103 47.4555 55.1852C46.6474 52.9889 44.7646 52.6738 43.2417 54.4683Z" fill="#DEE0E5"/>
</g>
<g id="Group_104">
<g id="Group_105">
<g id="Group_106">
<path id="Vector_117" d="M46.8713 53.6021L46.4342 53.5204C45.9749 53.4845 45.5143 53.5709 45.0991 53.7706C44.684 53.9704 44.3291 54.2765 44.0706 54.6578L44.5158 54.7366C44.7744 54.3553 45.1292 54.0491 45.5444 53.8494C45.9595 53.6496 46.4201 53.5633 46.8794 53.5991L46.8713 53.6021Z" fill="#9E9FA3"/>
</g>
</g>
<g id="Group_107">
<g id="Group_108">
<path id="Vector_118" d="M44.4907 54.7455L44.0454 54.6667C43.2759 55.689 42.7589 56.8788 42.5367 58.1389C42.3145 59.399 42.3933 60.6939 42.7668 61.9177C42.8819 62.3593 43.1108 62.763 43.4306 63.0885C43.7504 63.414 44.15 63.65 44.5895 63.7729L45.0265 63.8546C44.5882 63.7302 44.1901 63.4932 43.8718 63.1673C43.5534 62.8413 43.326 62.4376 43.212 61.9965C42.8357 60.773 42.7554 59.4776 42.9777 58.2169C43.2 56.9563 43.7186 55.7665 44.4907 54.7455Z" fill="#9E9FA3"/>
</g>
</g>
<path id="Vector_119" d="M44.491 54.7455C43.7189 55.7665 43.2003 56.9563 42.978 58.2169C42.7557 59.4776 42.836 60.773 43.2123 61.9965C44.0123 64.1959 45.8981 64.5191 47.4098 62.7194C48.1812 61.6975 48.6999 60.5075 48.9236 59.2468C49.1472 57.9861 49.0695 56.6904 48.6966 55.4654C47.8855 53.2609 45.9997 52.9377 44.491 54.7455Z" fill="#DEE0E5"/>
</g>
<g id="Group_109">
<g id="Group_110">
<g id="Group_111">
<path id="Vector_120" d="M48.3393 53.7714L47.8941 53.6926C47.4348 53.6568 46.9741 53.7431 46.559 53.9429C46.1439 54.1426 45.789 54.4488 45.5305 54.8301L45.9675 54.9118C46.2261 54.5305 46.5809 54.2244 46.9961 54.0246C47.4112 53.8248 47.8718 53.7385 48.3311 53.7744L48.3393 53.7714Z" fill="#9E9FA3"/>
</g>
</g>
<g id="Group_112">
<g id="Group_113">
<path id="Vector_121" d="M45.9511 54.9178L45.5141 54.8361C44.7445 55.8583 44.2275 57.0481 44.0053 58.3082C43.7831 59.5684 43.862 60.8632 44.2354 62.087C44.3506 62.5286 44.5794 62.9323 44.8993 63.2578C45.2191 63.5833 45.6187 63.8193 46.0581 63.9422L46.4952 64.0239C46.0557 63.901 45.6562 63.665 45.3363 63.3395C45.0165 63.014 44.7876 62.6104 44.6725 62.1688C44.2997 60.9448 44.2212 59.6501 44.4434 58.3901C44.6656 57.1301 45.1822 55.9404 45.9511 54.9178Z" fill="#9E9FA3"/>
</g>
</g>
<path id="Vector_122" d="M45.9519 54.9179C45.1829 55.9405 44.6664 57.1302 44.4442 58.3902C44.222 59.6502 44.3004 60.9449 44.6732 62.1689C45.4732 64.3682 47.3671 64.6884 48.8789 62.8888C49.6503 61.8668 50.169 60.6769 50.3926 59.4162C50.6163 58.1555 50.5385 56.8597 50.1657 55.6348C49.3546 53.4303 47.4688 53.1071 45.9519 54.9179Z" fill="#DEE0E5"/>
<path id="Vector_123" d="M46.5871 56.6399C46.1448 57.2307 45.8477 57.9173 45.7196 58.6441C45.5916 59.3709 45.6363 60.1177 45.8501 60.824C46.314 62.0995 47.3977 62.2793 48.2777 61.2371C48.7219 60.6473 49.0202 59.9607 49.1483 59.2335C49.2764 58.5063 49.2306 57.7591 49.0148 57.053C48.5389 55.7449 47.4849 55.545 46.5871 56.6399Z" fill="#EDEFF5" fill-opacity="0.28"/>
</g>
<path id="Vector_124" d="M56.6559 46.8307L56.8849 47.4602L56.6634 47.7167L56.4426 47.0841L56.6559 46.8307Z" fill="#353535"/>
<path id="Vector_125" d="M56.4427 47.0841L56.6635 47.7166L56.4583 47.9671L56.2294 47.3376L56.4427 47.0841Z" fill="#353535"/>
<path id="Vector_126" d="M56.229 47.3376L56.4579 47.9671L56.1234 47.9129L55.8944 47.2833L56.229 47.3376Z" fill="#4B4B4B"/>
<path id="Vector_127" d="M45.1789 60.1239L45.4049 60.7453L45.1946 61.0069L44.9656 60.3774L45.1789 60.1239Z" fill="#353535"/>
<path id="Vector_128" d="M45.2949 60.4428L45.5209 61.0642L45.1946 61.007L44.9656 60.3774L45.2949 60.4428Z" fill="#4B4B4B"/>
<path id="Vector_129" d="M56.769 47.1413L56.9898 47.7738L45.8472 61.1214L45.6294 60.4971L56.769 47.1413Z" fill="#737477"/>
<path id="Vector_130" d="M56.7686 47.1413L45.629 60.497L45.2945 60.4428L44.9653 60.3774L45.1786 60.1239L55.8945 47.2833L56.229 47.3376L56.4423 47.0841L56.7686 47.1413Z" fill="#313131"/>
<path id="Vector_131" d="M45.6293 60.4971L45.8472 61.1215L45.5209 61.0643L45.2949 60.4429L45.6293 60.4971Z" fill="#4B4B4B"/>
<path id="Vector_132" d="M45.2949 60.4428L45.5209 61.0642L45.3076 61.3176L45.0898 60.6933L45.2949 60.4428Z" fill="#353535"/>
<path id="Vector_133" d="M45.0901 60.6933L45.2002 60.9958L45.1979 61.0152L45.308 61.3177L44.4866 61.1721L44.4561 61.1646L43.0624 60.9217L42.9821 60.9046L41.7958 60.6973L41.746 60.6876L40.3635 60.4499L40.2638 60.4306L39.2269 60.2522L39.1273 60.2329L37.7804 59.9915L37.6534 59.9729L37.5619 59.9506L37.3329 59.321L37.6317 59.379L37.9774 59.4384L39.0946 59.6338L39.4321 59.6963L40.2422 59.8367L40.5879 59.8961L41.7162 60.0967L42.0314 60.1487L42.9524 60.3137L43.2898 60.3761L44.4182 60.5767L44.7222 60.6235L45.079 60.6881L45.0901 60.6933Z" fill="#4B4B4B"/>
<path id="Vector_134" d="M44.9657 60.3775L45.2949 60.4428L45.0898 60.6933L45.0787 60.6881L44.7219 60.6235L44.4179 60.5767L43.2895 60.3761L42.9521 60.3137L42.0311 60.1487L41.7159 60.0967L40.5876 59.8961L40.2419 59.8367L39.4317 59.6963L39.0943 59.6339L37.9771 59.4385L37.6314 59.379L37.3326 59.3211L37.1036 58.6915L37.2032 58.7108L37.6485 58.7896L38.1324 58.8728L39.1031 59.0474L39.587 59.1306L40.259 59.2473L40.7652 59.3409L41.736 59.5155L42.2117 59.6017L42.9802 59.7295L43.4753 59.8179L44.4267 59.9902L44.9106 60.0735L45.1871 60.121L44.9657 60.3775Z" fill="#313131"/>
<path id="Vector_135" d="M46.5881 63.9994L46.8141 64.6208L46.6038 64.8824L46.3748 64.2529L46.5881 63.9994Z" fill="#353535"/>
<path id="Vector_136" d="M46.7012 64.3101L46.9302 64.9397L46.6039 64.8825L46.3749 64.2529L46.7012 64.3101Z" fill="#4B4B4B"/>
<path id="Vector_137" d="M58.1785 51.0168L58.3994 51.6493L47.2568 64.9969L47.039 64.3725L58.1785 51.0168Z" fill="#737477"/>
<path id="Vector_138" d="M58.1785 51.0168L47.039 64.3725L46.7015 64.3101L46.3752 64.2529L46.5885 63.9994L57.3044 51.1588L57.6389 51.2131L57.8522 50.9596L58.1785 51.0168Z" fill="#313131"/>
<path id="Vector_139" d="M47.0385 64.3725L47.2564 64.9968L46.9301 64.9396L46.7011 64.3101L47.0385 64.3725Z" fill="#4B4B4B"/>
<path id="Vector_140" d="M46.7015 64.3101L46.9305 64.9396L46.7172 65.1931L46.4994 64.5687L46.7015 64.3101Z" fill="#353535"/>
<path id="Vector_141" d="M46.4967 64.5606L46.6097 64.8713L46.6045 64.8824L46.7205 65.2013L43.4351 64.6188L38.9603 63.8208L38.7314 63.1913L38.831 63.2106L39.3453 63.3012L40.2968 63.4736L41.8785 63.75L43.0232 63.9447L43.0344 63.9498L43.6595 64.065L43.69 64.0725L43.8669 64.1007L44.0772 64.1445L44.0966 64.1467L44.6578 64.2389L44.6659 64.2359L45.6285 64.4135L45.6397 64.4187L46.4885 64.5636L46.4967 64.5606Z" fill="#4B4B4B"/>
<path id="Vector_142" d="M46.3752 64.2529L46.7015 64.3101L46.518 64.5435L46.4964 64.5606L46.4882 64.5636L45.6394 64.4187L45.6282 64.4135L44.6656 64.236L44.6575 64.2389L44.0962 64.1468L44.0769 64.1446L44.0576 64.1424L43.8666 64.1007L43.709 64.0747L43.6897 64.0725L43.6592 64.0651L43.0341 63.9499L43.0229 63.9447L41.8782 63.7501L40.2964 63.4737L39.3755 63.3087L39.345 63.3013L38.9302 63.23L38.8307 63.2107L38.7311 63.1913L38.5021 62.5618L38.7094 62.5975L40.0481 62.8419L40.0593 62.8471L41.0739 63.015L41.3727 63.073L42.6282 63.2921L42.7278 63.3114L43.8257 63.5046L44.0167 63.5462L44.3014 63.5908L45.3688 63.7765L45.3717 63.7847L45.3799 63.7818L46.5937 63.9883L46.4577 64.1488L46.4525 64.16L46.3752 64.2529Z" fill="#313131"/>
<path id="Vector_143" d="M52.5641 38.1262L52.7901 38.7475L52.414 38.6807L52.1375 38.6331L52.0572 38.616L51.8417 38.5833L51.6841 38.5573L49.1293 38.1257L48.9272 38.0789L48.5845 38.0276L48.4046 37.9912L48.2552 37.9622L47.998 37.9169L47.8211 37.8887L45.2574 37.4325L45.05 37.3968L44.5468 37.3114L44.2287 37.2512L44.06 37.22L41.4413 36.7653L41.2614 36.7289L40.5946 36.6011L40.3731 36.552L40.2074 36.529L38.8687 36.2846L39.3035 35.7746L40.2936 35.9515L40.4623 35.9827L41.8924 36.2494L42.166 36.2888L44.2569 36.667L44.4145 36.693L45.7197 36.9218L46.0156 36.9716L47.8605 37.3096L47.9712 37.3342L48.1206 37.3631L48.2782 37.3891L48.4663 37.4226L49.5448 37.6135L49.8711 37.6707L51.6157 37.9619L51.7955 37.9984L52.0416 38.0385L52.5641 38.1262Z" fill="#4B4B4B"/>
<path id="Vector_144" d="M53.3256 37.6734L53.1123 37.9269L52.899 38.1803L52.5644 38.1261L52.1772 38.054L51.9312 38.0139L51.7513 37.9775L50.0067 37.6863L49.6804 37.6291L48.6019 37.4381L48.4138 37.4047L48.2562 37.3787L48.1068 37.3497L47.9961 37.3252L46.1512 36.9871L45.8553 36.9373L44.5501 36.7085L44.3925 36.6825L42.3016 36.3043L42.028 36.265L40.5979 35.9982L40.4292 35.967L39.4391 35.7902L39.6442 35.5397L39.7668 35.3932L39.8657 35.2832L43.4083 35.911L43.4655 35.8902L44.0104 35.9883L48.3275 36.7602L48.4576 36.787L48.5067 36.7692L52.0493 37.397L53.3256 37.6734Z" fill="#313131"/>
<path id="Vector_145" d="M49.9804 41.1025L50.1618 41.6012L49.7277 41.5277L49.5396 41.4942L49.385 41.4764L49.2356 41.4474L49.1948 41.4623L49.084 41.4378L47.2034 41.1034L46.9128 41.0425L45.6878 40.8308L45.5191 40.7995L43.5359 40.4377L43.2676 40.3872L42.056 40.1613L41.9742 40.1911L41.8196 40.1732L39.4663 39.7609L39.2173 39.7126L38.3766 39.5647L38.2079 39.5335L38.0392 39.5023L36.6008 39.2386L36.945 38.8357L38.0926 39.0385L38.2614 39.0697L39.9487 39.3818L40.3136 39.4434L41.7297 39.6968L41.9452 39.7295L44.2822 40.1478L45.4269 40.3424L48.079 40.8127L48.9502 40.968L49.2349 41.0126L49.3843 41.0416L49.7492 41.1032L49.9804 41.1025Z" fill="#4B4B4B"/>
<path id="Vector_146" d="M50.5819 40.745L50.541 40.7598L50.4771 40.8386L50.405 40.9204L50.2319 41.1315L50.052 41.0951L49.9717 41.078L49.6231 41.0104L49.2581 40.9488L49.1087 40.9198L48.824 40.8752L47.9529 40.7199L45.3007 40.2496L44.156 40.055L41.8191 39.6367L41.6035 39.604L40.1875 39.3506L39.8225 39.2889L38.1352 38.9769L37.9665 38.9457L36.8188 38.7428L37.0373 38.4782L37.16 38.3318L37.4365 38.3793L37.6327 38.4098L37.9672 38.464L38.6391 38.5807L38.7663 38.5992L38.935 38.6304L39.0732 38.6542L39.3609 38.707L45.7519 39.8355L46.2886 39.9366L46.5123 39.9663L46.8334 40.0347L48.9741 40.4225L49.015 40.4076L49.3495 40.4619L50.0438 40.5889L50.1515 40.6053L50.2348 40.6306L50.3426 40.6469L50.5819 40.745Z" fill="#313131"/>
<path id="Vector_147" d="M47.388 44.258L47.5694 44.7568L47.0937 44.6706L33.7698 42.3235L34.111 41.9125L47.388 44.258Z" fill="#4B4B4B"/>
<path id="Vector_148" d="M47.9973 43.8975L47.8375 44.0945L47.7736 44.1733L47.6963 44.2662L47.4666 44.2202L47.4258 44.235L34.1487 41.8894L34.4899 41.4784L39.6336 42.3848L40.1562 42.4725L40.3665 42.5163L40.704 42.5787L42.2278 42.8484L42.8083 42.9428L42.919 42.9673L43.1956 43.0149L44.6309 43.2704L44.8108 43.3068L46.3234 43.5713L47.7312 43.8277L47.9973 43.8975Z" fill="#313131"/>
<path id="Vector_149" d="M44.6956 47.774L44.874 48.2646L44.8547 48.2624L44.4399 48.191L44.1939 48.1509L44.1828 48.1457L38.4972 47.1494L38.1872 47.0862L38.0103 47.058L37.2083 46.9146L36.8515 46.85L32.5209 46.0921L32.3395 45.5934L37.348 46.4842L37.3562 46.4813L38.1968 46.6291L38.2853 46.6432L38.6726 46.7153L38.6919 46.7175L40.7412 47.0831L40.7494 47.0801L44.1121 47.6715L44.4466 47.7257L44.4496 47.7339L44.5298 47.751L44.6956 47.774Z" fill="#4B4B4B"/>
<path id="Vector_150" d="M45.2861 47.4112L45.1211 47.6194L44.9531 47.8193L44.6878 47.777L44.5302 47.751L44.4648 47.7748L44.1303 47.7205L40.7556 47.0964L38.7064 46.7309L38.3191 46.6588L38.2306 46.6447L37.3899 46.4969L32.3815 45.606L32.2001 45.1073L38.4945 46.2247L38.6825 46.2581L41.4729 46.7522L43.9838 47.1906L44.4291 47.2693L44.9048 47.3555L45.2861 47.4112Z" fill="#313131"/>
<path id="Vector_151" d="M53.3218 37.6652L53.5508 38.2948L53.3323 38.5594L53.1115 37.9269L53.3218 37.6652Z" fill="#353535"/>
<path id="Vector_152" d="M53.1115 37.9269L53.3323 38.5594L53.1272 38.8099L52.8982 38.1804L53.1115 37.9269Z" fill="#353535"/>
<path id="Vector_153" d="M52.8989 38.1804L53.1279 38.81L52.7904 38.7476L52.5614 38.118L52.8989 38.1804Z" fill="#4B4B4B"/>
<g id="Group_114">
<path id="Vector_154" d="M37.8542 38.1533L37.7583 38.2715L37.6476 38.2469C37.5387 38.2153 37.4347 38.1691 37.3383 38.1095L37.4156 38.0165C37.409 37.9882 37.399 37.9607 37.3859 37.9348C37.411 37.9569 37.442 37.9714 37.4751 37.9764C37.6036 38.0653 37.7513 38.1226 37.9062 38.1436L37.8542 38.1533Z" fill="#BD0C32"/>
<path id="Vector_155" d="M38.0155 38.5205C37.9544 38.519 37.8936 38.5133 37.8334 38.5034L37.681 38.4663C37.5274 38.4191 37.381 38.3508 37.2462 38.2634L37.3718 38.1251C37.4681 38.1847 37.5722 38.231 37.681 38.2626L37.7917 38.2871L37.9389 38.4373L38.0155 38.5205Z" fill="#E70F3D"/>
</g>
<path id="Vector_156" d="M38.6593 38.5085C38.6853 38.5642 38.7264 38.6115 38.7779 38.6451C38.8294 38.6787 38.8892 38.6973 38.9506 38.6988C39.1128 38.7194 39.2775 38.7011 39.4311 38.6452C39.5847 38.5893 39.7227 38.4976 39.8337 38.3776C39.8749 38.3385 39.905 38.2891 39.9209 38.2345C39.9368 38.1799 39.938 38.1221 39.9243 38.0669L39.9719 38.1978C39.9856 38.2529 39.9844 38.3108 39.9685 38.3653C39.9525 38.4199 39.9225 38.4693 39.8813 38.5085C39.7703 38.6284 39.6322 38.7201 39.4786 38.776C39.3251 38.8319 39.1604 38.8503 38.9982 38.8296C38.9359 38.826 38.8757 38.8057 38.8239 38.7708C38.7721 38.7359 38.7306 38.6877 38.7039 38.6312L38.6593 38.5085Z" fill="#D40E37"/>
<path id="Vector_157" d="M40.4496 36.0243C40.5092 36.1967 40.5464 36.376 40.5604 36.5579C40.5702 36.6493 40.5727 36.7412 40.5679 36.8329C40.5666 36.9356 40.5574 37.038 40.5404 37.1392C40.5263 37.2348 40.5049 37.3292 40.4765 37.4217C40.4726 37.4529 40.4651 37.4836 40.4542 37.5131L40.4052 37.6328C40.3892 37.686 40.3675 37.7373 40.3405 37.7859L40.3093 37.8528L40.2431 37.9509L40.1213 38.1248C40.0765 38.184 40.0242 38.2372 39.9659 38.2832C39.9251 38.3347 39.8749 38.3781 39.818 38.411C39.7049 38.5017 39.5776 38.5731 39.4412 38.6222C39.362 38.6659 39.2765 38.697 39.1877 38.7144L39.0487 38.7649C38.9821 38.7715 38.915 38.7742 38.848 38.7731L38.6823 38.7501C38.5055 38.722 38.3336 38.6693 38.1716 38.5933L38.0906 38.5487L37.9367 38.4565C37.855 38.4004 37.7771 38.3391 37.7033 38.273L37.4996 38.0693C37.493 38.041 37.483 38.0135 37.4699 37.9875C37.495 38.0097 37.526 38.0242 37.5591 38.0292L37.7939 37.7586L37.8512 37.7378C38.3013 37.7906 38.7575 37.7375 39.1834 37.5826C39.6093 37.4277 39.993 37.1753 40.304 36.8456C40.3707 36.779 40.4238 36.6999 40.4601 36.6129C40.5191 36.5123 40.5573 36.4008 40.5723 36.2851C40.4311 36.1513 40.4541 36.0874 40.4496 36.0243Z" fill="#FE1142"/>
<path id="Vector_158" d="M40.4319 35.9752L40.4497 36.0243L40.4549 36.2168C40.4399 36.3325 40.4017 36.4439 40.3427 36.5446C40.298 36.6268 40.2457 36.7047 40.1866 36.7773C39.8757 37.1069 39.4919 37.3593 39.066 37.5142C38.6401 37.6691 38.1839 37.7223 37.7338 37.6694L37.6766 37.6902L37.791 37.5468L38.6361 36.5358L38.8598 36.26L39.2946 35.7501L39.4997 35.4996L39.6223 35.3531C39.8056 35.3583 39.9825 35.4212 40.1279 35.533C40.2733 35.6447 40.3797 35.7995 40.4319 35.9752Z" fill="#FE708F"/>
<path id="Vector_159" d="M40.2631 35.944C40.2911 36.0384 40.2974 36.1379 40.2814 36.2351C40.2655 36.3323 40.2277 36.4246 40.171 36.5052C40.1411 36.5643 40.1057 36.6205 40.0655 36.6732C39.7748 37.0037 39.4016 37.2513 38.984 37.3905C38.5955 37.5394 38.1771 37.5932 37.7635 37.5475L38.6086 36.5365L38.8323 36.2607L39.2671 35.7508L39.4722 35.5003L39.5882 35.5136C39.7255 35.5208 39.8588 35.5625 39.9757 35.6349C40.0927 35.7072 40.1895 35.8079 40.2572 35.9276L40.2631 35.944Z" fill="#D40E37"/>
<g id="Group_115">
<path id="Vector_160" d="M41.961 39.0576L42.0569 38.9394C42.0153 38.9081 41.9774 38.8722 41.9439 38.8324C41.8931 38.7879 41.8449 38.7405 41.7997 38.6905L41.6956 38.8116L41.8398 38.9536L41.961 39.0576Z" fill="#0C93BD"/>
<path id="Vector_161" d="M40.6872 37.6692L40.5831 37.7904C40.5831 37.7904 40.6278 37.913 40.6962 38.1011C40.7987 38.2815 40.9383 38.4381 41.1058 38.5607C41.2732 38.6833 41.4647 38.769 41.6677 38.8123L41.7718 38.6912C41.5676 38.6511 41.3747 38.5667 41.2068 38.4438C41.0388 38.3208 40.9 38.1625 40.8002 37.9799C40.6828 37.8097 40.6552 37.7086 40.6902 37.6774L40.6872 37.6692Z" fill="#0C93BD"/>
<path id="Vector_162" d="M40.4511 37.4775L40.3552 37.5957C40.411 37.5199 40.5596 37.5214 40.6979 37.5451L40.7937 37.4269C40.6555 37.4032 40.515 37.3987 40.4511 37.4775Z" fill="#0C93BD"/>
<path id="Vector_163" d="M40.9555 37.8216L41.0514 37.7034C41.0217 37.6217 40.989 37.5317 40.9592 37.45L40.8604 37.56C40.8767 37.6559 40.9065 37.7376 40.9555 37.8216Z" fill="#0FB4E7"/>
<path id="Vector_164" d="M40.8277 37.5719L40.9265 37.4619L40.7935 37.4269L40.6976 37.5451L40.8277 37.5719Z" fill="#0C93BD"/>
<path id="Vector_165" d="M40.6976 37.545C40.4129 37.5005 40.1222 37.5414 40.5014 38.1256C40.6329 38.3593 40.8134 38.5619 41.0305 38.7194C41.2476 38.8769 41.4961 38.9857 41.7591 39.0383C41.8253 39.0525 41.8929 39.059 41.9606 39.0576L41.8394 38.9535L41.6952 38.8116C41.4922 38.7683 41.3007 38.6825 41.1333 38.5599C40.9658 38.4373 40.8262 38.2807 40.7236 38.1003C40.6552 37.9123 40.6195 37.8141 40.6106 37.7896C40.6017 37.7651 40.7006 37.7569 40.8083 37.7732L40.983 37.8208C40.9503 37.7309 40.9206 37.6491 40.8879 37.5591L40.6976 37.545Z" fill="#0FB4E7"/>
</g>
<path id="Vector_166" d="M42.6044 39.0457C42.6294 39.1007 42.6691 39.1478 42.719 39.1818C42.7689 39.2159 42.8273 39.2357 42.8876 39.2389C43.0513 39.2612 43.218 39.2434 43.3733 39.1869C43.5285 39.1305 43.6677 39.037 43.7788 38.9147C43.8188 38.8755 43.8476 38.8263 43.8621 38.7721C43.8766 38.718 43.8763 38.661 43.8613 38.607L43.9089 38.7378C43.9232 38.7929 43.9234 38.8507 43.9095 38.9059C43.8956 38.9612 43.8681 39.012 43.8294 39.0538C43.7157 39.1726 43.5762 39.2637 43.4216 39.3199C43.2671 39.3761 43.1017 39.396 42.9382 39.3779C42.8767 39.3735 42.8175 39.3524 42.7671 39.3169C42.7167 39.2814 42.6769 39.2329 42.652 39.1765L42.6044 39.0457Z" fill="#0EA4D4"/>
<path id="Vector_167" d="M41.6525 38.2622C42.1025 38.3137 42.5583 38.2599 42.984 38.1051C43.4096 37.9503 43.7935 37.6986 44.1053 37.3701C44.2153 37.2563 44.2947 37.1166 44.3363 36.9639C44.3779 36.8112 44.3802 36.6505 44.3431 36.4967C44.4109 36.7029 44.4573 36.9157 44.4814 37.1315C44.5319 37.2705 44.4888 37.4065 44.4926 37.4422C44.4963 37.4778 44.4807 37.6131 44.4651 37.7484C44.4372 37.9172 44.3919 38.0825 44.3298 38.2419C44.2999 38.3163 44.2641 38.3881 44.2228 38.4568L44.1678 38.5601L44.046 38.734C43.96 38.8443 43.8578 38.9408 43.7427 39.0202C43.6292 39.1103 43.5019 39.1816 43.3658 39.2314C43.2309 39.2807 43.0903 39.3132 42.9474 39.328C42.8796 39.3329 42.8115 39.3329 42.7437 39.328L42.5505 39.3058C42.3737 39.2777 42.2018 39.225 42.0398 39.149C41.9811 39.1148 41.903 39.0784 41.7826 39.0018C41.7009 38.9457 41.6229 38.8844 41.5492 38.8182C41.4737 38.7527 41.402 38.683 41.3344 38.6094C41.2644 38.5327 41.2005 38.4507 41.1433 38.3641C41.0836 38.2794 41.0297 38.1907 40.982 38.0988C40.9582 38.0333 40.9285 37.9516 40.9076 37.8944C40.8948 37.8467 40.8779 37.8002 40.8571 37.7554C40.9359 37.9003 41.0503 38.0228 41.1894 38.1114C41.3285 38.2001 41.4878 38.252 41.6525 38.2622Z" fill="#11C4FE"/>
<path id="Vector_168" d="M44.1291 37.3337C44.6508 36.6811 44.3944 36.0523 43.5567 35.9126C43.1066 35.8611 42.6508 35.9149 42.2251 36.0697C41.7995 36.2245 41.4156 36.4762 41.1038 36.8047C40.5821 37.4574 40.8386 38.0862 41.6763 38.2259C42.1263 38.2774 42.5821 38.2236 43.0078 38.0688C43.4335 37.9139 43.8173 37.6623 44.1291 37.3337Z" fill="#70DDFE"/>
<path id="Vector_169" d="M42.9347 37.944C43.3479 37.8021 43.7176 37.5561 44.008 37.2296C44.1054 37.1376 44.176 37.021 44.2122 36.892C44.2485 36.7631 44.249 36.6267 44.2138 36.4974C44.1497 36.3722 44.0533 36.2663 43.9347 36.1907C43.8161 36.1151 43.6794 36.0724 43.5389 36.0671C43.1162 36.0171 42.6878 36.0713 42.2909 36.2248C41.8758 36.363 41.5053 36.6096 41.2176 36.9392C41.1202 37.0311 41.0496 37.1478 41.0133 37.2768C40.9771 37.4057 40.9765 37.5421 41.0117 37.6714C41.0759 37.7966 41.1722 37.9025 41.2908 37.9781C41.4095 38.0537 41.5461 38.0964 41.6867 38.1017C42.1093 38.1516 42.5378 38.0975 42.9347 37.944Z" fill="#0EA4D4"/>
<g id="Group_116">
<path id="Vector_170" d="M48.067 38.9471L47.9176 38.9181L47.9354 38.7635C47.9474 38.6931 47.9556 38.6222 47.9599 38.5509L48.1093 38.5799C48.1079 38.65 48.1024 38.72 48.093 38.7895L48.067 38.9471Z" fill="#BD8F0C"/>
<path id="Vector_171" d="M48.1646 37.0509L48.314 37.0799C48.314 37.0799 48.3557 37.1944 48.4241 37.3824C48.4625 37.5866 48.4567 37.7965 48.4071 37.9982C48.3575 38.1999 48.2652 38.3887 48.1365 38.5517L47.9871 38.5227C48.1189 38.3614 48.2132 38.1728 48.2629 37.9706C48.3127 37.7683 48.3167 37.5574 48.2746 37.3534C48.2553 37.1475 48.1706 37.0673 48.1646 37.0509Z" fill="#BD8F0C"/>
<path id="Vector_172" d="M48.2067 36.7581L48.3561 36.787C48.2964 36.7932 48.239 36.8128 48.1879 36.8442C48.1368 36.8756 48.0935 36.918 48.061 36.9684L47.9116 36.9394C47.944 36.889 47.9874 36.8466 48.0385 36.8152C48.0896 36.7838 48.147 36.7643 48.2067 36.7581Z" fill="#BD8F0C"/>
<path id="Vector_173" d="M48.0433 37.3542L47.8939 37.3252C47.8612 37.2353 47.8314 37.1535 47.7987 37.0636L47.9481 37.0926C48.0054 37.1736 48.0269 37.2583 48.0433 37.3542Z" fill="#E7AF0F"/>
<path id="Vector_174" d="M47.9808 37.0807L47.8314 37.0517L47.9109 36.9395L48.0603 36.9685L47.9808 37.0807Z" fill="#BD8F0C"/>
<path id="Vector_175" d="M48.0602 36.9685C48.2497 36.7514 48.5017 36.6043 48.5917 37.2844C48.6376 37.5492 48.6281 37.8206 48.5636 38.0815C48.4991 38.3424 48.3812 38.5871 48.2172 38.8L48.0752 38.9442L48.1012 38.7866C48.1106 38.7171 48.1161 38.6471 48.1176 38.577C48.2463 38.414 48.3386 38.2253 48.3882 38.0236C48.4378 37.8219 48.4435 37.6119 48.4051 37.4078C48.3776 37.2049 48.301 37.1216 48.2951 37.1053C48.2891 37.0889 48.2133 37.135 48.1331 37.2197L48.0298 37.3684C47.997 37.2785 47.9673 37.1967 47.9346 37.1068L48.0602 36.9685Z" fill="#E7AF0F"/>
</g>
<path id="Vector_176" d="M47.5745 39.3484C47.5883 39.4079 47.5863 39.47 47.5686 39.5285C47.5508 39.5869 47.518 39.6397 47.4734 39.6814C47.3598 39.8003 47.2202 39.8914 47.0657 39.9476C46.9111 40.0038 46.7457 40.0237 46.5822 40.0056C46.5257 39.9984 46.472 39.9772 46.4258 39.9438C46.3797 39.9105 46.3428 39.866 46.3183 39.8146L46.3659 39.9454C46.3904 39.9968 46.4273 40.0413 46.4734 40.0747C46.5195 40.108 46.5733 40.1293 46.6298 40.1364C46.7934 40.1566 46.9594 40.1377 47.1143 40.0814C47.2692 40.025 47.4086 39.9328 47.521 39.8123C47.5656 39.7705 47.5984 39.7178 47.6161 39.6593C47.6339 39.6009 47.6359 39.5387 47.622 39.4793L47.5745 39.3484Z" fill="#D4A10E"/>
<path id="Vector_177" d="M47.7895 38.1318C47.4778 38.4603 47.0939 38.7119 46.6682 38.8668C46.2425 39.0216 45.7867 39.0754 45.3367 39.0239C45.1784 39.0126 45.0263 38.9582 44.8967 38.8666C44.7671 38.775 44.665 38.6498 44.6015 38.5044C44.6778 38.708 44.7792 38.9012 44.9033 39.0797C45.0223 39.2516 45.1605 39.4095 45.3152 39.5502C45.4406 39.6605 45.578 39.7565 45.7248 39.8363L45.9478 39.9403L46.0533 39.976C46.1229 39.9992 46.1942 40.0166 46.2666 40.028C46.4016 40.0571 46.5397 40.0691 46.6777 40.0637C46.8242 40.0515 46.9685 40.0207 47.1073 39.9722C47.2438 39.9266 47.3729 39.861 47.4901 39.7775L47.6462 39.6466L47.7747 39.5165C47.8903 39.3777 47.987 39.2242 48.0624 39.0601C48.105 38.9708 48.1394 38.8777 48.1649 38.7821C48.2051 38.6379 48.2266 38.519 48.234 38.4885C48.2465 38.3906 48.2539 38.2921 48.2563 38.1934C48.2619 38.0897 48.2581 37.9857 48.2452 37.8827C48.2402 37.7786 48.2272 37.6749 48.2065 37.5728C48.186 37.5031 48.1611 37.4349 48.1321 37.3684C48.1192 37.3207 48.1023 37.2742 48.0816 37.2294C48.1146 37.3922 48.1051 37.5608 48.054 37.7189C48.0028 37.877 47.9117 38.0192 47.7895 38.1318Z" fill="#FEC111"/>
<path id="Vector_178" d="M45.2947 39.0112C44.4786 38.8544 44.2682 38.1996 44.8286 37.5514C45.1407 37.2233 45.5247 36.9721 45.9502 36.8173C46.3758 36.6625 46.8314 36.6084 47.2814 36.6592C48.1005 36.8242 48.3109 37.479 47.7557 38.1161C47.4434 38.4463 47.0583 38.6992 46.6311 38.8546C46.2038 39.01 45.7463 39.0636 45.2947 39.0112Z" fill="#FED970"/>
<path id="Vector_179" d="M46.6218 38.7138C46.211 38.8744 45.7646 38.9217 45.3292 38.8507C45.1965 38.8393 45.0689 38.7938 44.9589 38.7187C44.8489 38.6436 44.7601 38.5414 44.7011 38.4219C44.6208 38.2011 44.7182 37.9343 44.9501 37.6555C45.2375 37.3451 45.5984 37.112 45.9995 36.9775C46.4104 36.8214 46.8539 36.7715 47.2892 36.8325C47.4218 36.8421 47.5493 36.8873 47.6584 36.9633C47.7675 37.0392 47.8541 37.1433 47.9091 37.2643C47.9404 37.4015 47.9346 37.5445 47.8923 37.6787C47.85 37.8128 47.7727 37.9333 47.6683 38.0277C47.3803 38.3379 47.0211 38.5734 46.6218 38.7138Z" fill="#D4A10E"/>
<g id="Group_117">
<path id="Vector_180" d="M35.6443 41.5213L35.7483 41.4001L35.6272 41.2961C35.6063 41.2388 35.5283 41.2024 35.48 41.1459L35.3841 41.2641C35.429 41.3181 35.4782 41.3683 35.5313 41.4143C35.5716 41.4471 35.6093 41.4828 35.6443 41.5213Z" fill="#0C93BD"/>
<path id="Vector_181" d="M35.4802 41.146L35.3762 41.2671C35.3322 41.264 35.2896 41.251 35.2513 41.2292C35.1073 41.1983 34.9715 41.1373 34.8528 41.0501L34.9569 40.929C35.1083 41.0358 35.2828 41.1056 35.4661 41.1326L35.4802 41.146Z" fill="#0C93BD"/>
<path id="Vector_182" d="M35.6442 41.5214L35.451 41.4991C35.1859 41.4548 34.9361 41.3453 34.724 41.1803L34.8414 41.045C34.9601 41.1321 35.0959 41.1932 35.2398 41.2241C35.2781 41.2459 35.3208 41.2588 35.3647 41.262L35.5201 41.4091L35.6271 41.4998L35.6442 41.5214Z" fill="#0FB4E7"/>
</g>
<path id="Vector_183" d="M36.288 41.5094C36.3149 41.5645 36.3561 41.6112 36.4074 41.6447C36.4587 41.6782 36.5182 41.6972 36.5794 41.6997C36.743 41.7198 36.909 41.701 37.0639 41.6446C37.2188 41.5883 37.3582 41.4961 37.4706 41.3755C37.5093 41.3338 37.5368 41.283 37.5507 41.2277C37.5646 41.1725 37.5644 41.1147 37.5501 41.0596L37.5977 41.1904C37.6142 41.2465 37.6148 41.306 37.5993 41.3624C37.5838 41.4187 37.5529 41.4696 37.51 41.5093C37.399 41.6293 37.261 41.721 37.1074 41.7768C36.9538 41.8327 36.7891 41.8511 36.627 41.8305C36.5657 41.828 36.5063 41.8091 36.455 41.7756C36.4037 41.7421 36.3624 41.6953 36.3356 41.6402L36.288 41.5094Z" fill="#0EA4D4"/>
<path id="Vector_184" d="M38.0758 39.0169C38.132 39.1713 38.1687 39.3321 38.1851 39.4956C38.191 39.515 38.1979 39.5342 38.2059 39.5528C38.2207 39.653 38.2234 39.7546 38.2141 39.8554C38.2138 39.9606 38.2056 40.0657 38.1896 40.1698C38.1652 40.337 38.1188 40.5002 38.0514 40.6552C38.0346 40.6929 38.0209 40.7319 38.0105 40.7719L37.9577 40.8559L37.8998 40.951C37.8721 41.0002 37.8392 41.0463 37.8016 41.0885C37.7362 41.1123 37.6946 41.2015 37.6411 41.258L37.4902 41.3777C37.373 41.4616 37.2453 41.5299 37.1104 41.5807C36.9765 41.6334 36.8355 41.666 36.692 41.6773L36.4913 41.6855L36.3285 41.6706C36.1519 41.6428 35.9811 41.5861 35.823 41.5027C35.7872 41.4929 35.7532 41.477 35.7226 41.4559C35.6724 41.4315 35.6246 41.4024 35.5799 41.3689C35.4975 41.3182 35.4204 41.2594 35.3495 41.1935C35.2787 41.1324 35.2117 41.0672 35.1488 40.998L35.0693 40.9066L35.2662 40.6591C35.3309 40.6797 35.3977 40.6927 35.4654 40.6977C35.9157 40.7541 36.373 40.7026 36.7994 40.5475C37.2259 40.3924 37.6094 40.1381 37.9183 39.8056L38.0401 39.6316C38.0725 39.5815 38.0997 39.5282 38.1212 39.4726C38.1488 39.396 38.1697 39.3172 38.1835 39.2369C38.1681 39.1552 38.1309 39.0792 38.0758 39.0169Z" fill="#11C4FE"/>
<path id="Vector_185" d="M38.0702 39.0006C38.0877 39.07 38.0887 39.1425 38.0732 39.2124C38.0594 39.2926 38.0385 39.3715 38.0108 39.448L37.9298 39.6071L37.8079 39.781C37.4991 40.1135 37.1156 40.3678 36.6891 40.523C36.2626 40.6781 35.8054 40.7296 35.3551 40.6732C35.2874 40.6681 35.2206 40.6552 35.1559 40.6346L35.2815 40.4963L36.4231 39.1553L36.7672 38.7524L36.9857 38.4878L37.1084 38.3413C37.1474 38.3419 37.1862 38.3464 37.2243 38.3547C37.2794 38.3566 37.3338 38.3682 37.3849 38.3889C37.549 38.4056 37.7036 38.4738 37.8267 38.5837C37.9498 38.6935 38.035 38.8394 38.0702 39.0006Z" fill="#70DDFE"/>
<path id="Vector_186" d="M37.8986 38.9612C37.9211 39.0382 37.928 39.1189 37.9188 39.1986C37.9096 39.2782 37.8846 39.3552 37.8451 39.4251C37.8072 39.5175 37.7536 39.6028 37.6868 39.677C37.3988 40.0111 37.0263 40.2617 36.6083 40.4026C36.2154 40.5534 35.7908 40.6027 35.3737 40.5461L35.2741 40.5268L36.4157 39.1858L36.7598 38.7829L36.9783 38.5183L37.2214 38.5502C37.36 38.555 37.4952 38.5952 37.6137 38.6672C37.7323 38.7392 37.8304 38.8404 37.8986 38.9612Z" fill="#0EA4D4"/>
<g id="Group_118">
<path id="Vector_187" d="M39.3904 42.3254L39.4944 42.2042L39.3733 42.1002L39.2261 41.95L39.1302 42.0682C39.1764 42.121 39.2255 42.1711 39.2774 42.2183L39.3904 42.3254Z" fill="#BD0C32"/>
<path id="Vector_188" d="M38.1167 40.9369L38.0179 41.047C38.0179 41.047 38.0595 41.1614 38.1279 41.3495C38.2282 41.5317 38.3672 41.6897 38.535 41.8126C38.7028 41.9355 38.8955 42.0202 39.0995 42.0607L39.1953 41.9425C38.992 41.9003 38.8 41.815 38.6324 41.6923C38.4648 41.5696 38.3255 41.4124 38.2238 41.2313C38.1145 41.0581 38.1197 40.9451 38.1138 40.9288L38.1167 40.9369Z" fill="#BD0C32"/>
<path id="Vector_189" d="M37.8856 40.7341L37.7816 40.8552C37.8312 40.8217 37.8878 40.7997 37.9471 40.791C38.0065 40.7822 38.067 40.7869 38.1242 40.8047L38.2312 40.6917C38.1744 40.6709 38.1134 40.6639 38.0533 40.6713C37.9932 40.6787 37.9358 40.7002 37.8856 40.7341Z" fill="#BD0C32"/>
<path id="Vector_190" d="M38.399 41.1027L38.4949 40.9845C38.4622 40.8945 38.4325 40.8128 38.3998 40.7228L38.3039 40.841C38.3061 40.9235 38.344 41.0023 38.399 41.1027Z" fill="#E70F3D"/>
<path id="Vector_191" d="M38.2655 40.8366L38.3614 40.7184L38.2313 40.6917L38.1243 40.8047L38.2655 40.8366Z" fill="#BD0C32"/>
<path id="Vector_192" d="M38.1239 40.8047C37.8473 40.7571 37.5515 40.8092 37.9277 41.3852C38.0613 41.6187 38.2426 41.8214 38.4599 41.98C38.6771 42.1387 38.9253 42.2498 39.1884 42.3061L39.3816 42.3283L39.2686 42.2213C39.2168 42.1741 39.1677 42.124 39.1215 42.0712C38.9175 42.0306 38.7248 41.9459 38.557 41.8231C38.3892 41.7002 38.2502 41.5421 38.1499 41.3599C38.0406 41.1867 38.0049 41.0886 38.0399 41.0574C38.0748 41.0262 38.1298 41.0247 38.2376 41.041L38.4205 41.0856C38.3878 40.9957 38.358 40.9139 38.3253 40.824L38.1239 40.8047Z" fill="#E70F3D"/>
</g>
<path id="Vector_193" d="M40.0488 42.3542C40.0764 42.4087 40.1179 42.455 40.169 42.4884C40.2202 42.5218 40.2792 42.5412 40.3402 42.5445C40.5022 42.563 40.6663 42.5436 40.8195 42.4879C40.9727 42.4322 41.1109 42.3416 41.2232 42.2233C41.2645 42.1826 41.2944 42.1316 41.3098 42.0756C41.3252 42.0197 41.3256 41.9606 41.3109 41.9045L41.3585 42.0353C41.3731 42.0915 41.3728 42.1505 41.3574 42.2065C41.342 42.2624 41.3121 42.3134 41.2708 42.3542C41.1598 42.4741 41.0218 42.5658 40.8682 42.6217C40.7146 42.6776 40.5499 42.6959 40.3878 42.6753C40.3266 42.6729 40.2671 42.6539 40.2158 42.6204C40.1645 42.5869 40.1232 42.5401 40.0964 42.4851L40.0488 42.3542Z" fill="#D40E37"/>
<path id="Vector_194" d="M39.0876 41.5188C39.5379 41.5737 39.9947 41.5216 40.4209 41.3665C40.8472 41.2115 41.2308 40.958 41.5405 40.6266C41.6564 40.5169 41.74 40.3773 41.7819 40.2233C41.8238 40.0692 41.8226 39.9066 41.7783 39.7532C41.8506 39.9582 41.8971 40.1715 41.9166 40.388C41.9317 40.4908 41.9355 40.5951 41.9277 40.6987C41.9275 40.804 41.9193 40.9091 41.9032 41.0131C41.8745 41.1775 41.831 41.339 41.7732 41.4955L41.6691 41.7185L41.6112 41.8137L41.4811 41.9906C41.3933 42.1005 41.2925 42.1993 41.1808 42.285C41.0663 42.3732 40.938 42.4418 40.801 42.4879C40.6673 42.5413 40.5262 42.5739 40.3826 42.5846L40.1789 42.5846L39.9886 42.5705C39.813 42.5389 39.6427 42.4823 39.4831 42.4025C39.39 42.3677 39.3032 42.318 39.2259 42.2554C39.1389 42.2044 39.0579 42.1438 38.9844 42.0748C38.9076 42.0107 38.8357 41.9409 38.7695 41.8659C38.6729 41.753 38.5986 41.6504 38.5785 41.6207C38.5584 41.5909 38.4781 41.472 38.4172 41.3553C38.3882 41.2888 38.3633 41.2205 38.3428 41.1509C38.3221 41.1061 38.3051 41.0596 38.2923 41.0119C38.3677 41.1596 38.4812 41.2844 38.621 41.3735C38.7609 41.4626 38.9219 41.5128 39.0876 41.5188Z" fill="#FE1142"/>
<path id="Vector_195" d="M41.5564 40.5932C42.0811 39.9488 41.8298 39.3088 40.9839 39.1721C40.5338 39.1192 40.0776 39.1724 39.6517 39.3273C39.2258 39.4822 38.842 39.7346 38.5311 40.0642C38.0064 40.7087 38.2658 41.3457 39.1006 41.4772C39.5506 41.5337 40.0076 41.483 40.4344 41.3294C40.8611 41.1758 41.2455 40.9236 41.5564 40.5932Z" fill="#FE708F"/>
<path id="Vector_196" d="M40.3564 41.2147C40.7744 41.0738 41.1468 40.8233 41.4349 40.4892C41.5293 40.3951 41.5978 40.2784 41.6339 40.1501C41.6699 40.0218 41.6723 39.8864 41.6407 39.757C41.5733 39.6342 41.4752 39.5311 41.356 39.4576C41.2367 39.3841 41.1005 39.3429 40.9605 39.3378C40.5405 39.2827 40.1134 39.333 39.7178 39.4843C39.3026 39.6286 38.9306 39.8754 38.6363 40.2017C38.5419 40.2957 38.4734 40.4125 38.4373 40.5408C38.4012 40.6691 38.3989 40.8044 38.4305 40.9339C38.4977 41.058 38.596 41.1627 38.7158 41.2375C38.8355 41.3124 38.9725 41.355 39.1136 41.3612C39.5336 41.4164 39.9607 41.3661 40.3564 41.2147Z" fill="#D40E37"/>
<g id="Group_119">
<path id="Vector_197" d="M43.1492 43.217L43.245 43.0989C43.2302 43.058 43.1744 43.032 43.1321 42.9918C43.0813 42.9473 43.0331 42.9 42.9878 42.8499L42.8838 42.971L43.0362 43.11C43.0697 43.1498 43.1076 43.1857 43.1492 43.217Z" fill="#0C93BD"/>
<path id="Vector_198" d="M41.8753 41.8287L41.7794 41.9469C41.7794 41.9469 41.824 42.0695 41.8924 42.2576C41.9922 42.4401 42.1311 42.5985 42.299 42.7214C42.4669 42.8444 42.6598 42.9288 42.864 42.9688L42.968 42.8477C42.765 42.8044 42.5735 42.7186 42.4061 42.5961C42.2386 42.4735 42.099 42.3168 41.9965 42.1364C41.9309 42.0452 41.8918 41.9377 41.8835 41.8257L41.8753 41.8287Z" fill="#0C93BD"/>
<path id="Vector_199" d="M41.6476 41.6338L41.5435 41.755C41.6075 41.6762 41.748 41.6807 41.8862 41.7044L41.9902 41.5833C41.852 41.5595 41.7033 41.558 41.6476 41.6338Z" fill="#0C93BD"/>
<path id="Vector_200" d="M42.1438 41.9811L42.2478 41.8599C42.2151 41.77 42.1854 41.6882 42.1527 41.5983L42.0486 41.7194C42.065 41.8153 42.1029 41.8941 42.1438 41.9811Z" fill="#0FB4E7"/>
<path id="Vector_201" d="M42.0159 41.7313L42.12 41.6102L41.9899 41.5834L41.8858 41.7046L42.0159 41.7313Z" fill="#0C93BD"/>
<path id="Vector_202" d="M41.8802 41.6881C41.6037 41.6406 41.3049 41.6845 41.684 42.2687C41.816 42.502 41.9966 42.7044 42.2136 42.8618C42.4306 43.0193 42.6789 43.1283 42.9417 43.1814C43.005 43.1965 43.0699 43.204 43.135 43.2036C43.0935 43.1723 43.0556 43.1364 43.022 43.0966L42.8696 42.9576C42.6654 42.9176 42.4725 42.8332 42.3046 42.7102C42.1367 42.5873 41.9979 42.4289 41.8981 42.2464C41.7806 42.0761 41.7531 41.9751 41.7851 41.9357C41.817 41.8963 41.875 41.903 41.9828 41.9193L42.1575 41.9669C42.1247 41.8769 42.095 41.7952 42.0623 41.7052L41.8802 41.6881Z" fill="#0FB4E7"/>
</g>
<path id="Vector_203" d="M43.7928 43.2051C43.8189 43.2607 43.86 43.308 43.9115 43.3416C43.9629 43.3753 44.0228 43.3938 44.0842 43.3953C44.2464 43.4159 44.4111 43.3976 44.5647 43.3417C44.7182 43.2858 44.8562 43.1941 44.9672 43.0741C45.0064 43.0336 45.0351 42.9841 45.0509 42.93C45.0667 42.8759 45.0691 42.8187 45.0579 42.7634L45.1055 42.8943C45.1205 42.9483 45.1208 43.0053 45.1063 43.0594C45.0918 43.1135 45.063 43.1628 45.023 43.202C44.912 43.3219 44.774 43.4137 44.6204 43.4695C44.4668 43.5254 44.3021 43.5438 44.14 43.5232C44.0776 43.5196 44.0174 43.4992 43.9656 43.4643C43.9138 43.4294 43.8724 43.3812 43.8456 43.3247L43.7928 43.2051Z" fill="#0EA4D4"/>
<path id="Vector_204" d="M42.8491 42.4187C43.2991 42.4695 43.7547 42.4154 44.1802 42.2606C44.6058 42.1059 44.9897 41.8546 45.3019 41.5266C45.4133 41.4137 45.4937 41.274 45.5353 41.121C45.577 40.9681 45.5785 40.8069 45.5397 40.6532C45.6121 40.8582 45.6585 41.0714 45.678 41.2879C45.6916 41.3909 45.6953 41.4949 45.6892 41.5986C45.6879 41.7013 45.6787 41.8037 45.6617 41.9049C45.6373 42.0744 45.5918 42.2402 45.5264 42.3985L45.4276 42.6103L45.3726 42.7136L45.2425 42.8905C45.1566 43.0008 45.0543 43.0973 44.9393 43.1767C44.8262 43.2674 44.6989 43.3388 44.5625 43.3879C44.4277 43.4399 44.2854 43.4698 44.141 43.4763C44.0749 43.489 44.0073 43.4918 43.9403 43.4845L43.7471 43.4622C43.5724 43.4348 43.403 43.3809 43.2446 43.3025C43.1502 43.2559 43.0595 43.2023 42.9733 43.1419C42.8916 43.0859 42.8136 43.0245 42.7399 42.9584C42.6644 42.8928 42.5927 42.8231 42.525 42.7495C42.4254 42.6284 42.3541 42.534 42.334 42.5042C42.2743 42.4195 42.2204 42.3309 42.1727 42.2389C42.1489 42.1735 42.1191 42.0917 42.0983 42.0345L42.0478 41.8955C42.1229 42.0459 42.2368 42.1737 42.3776 42.2656C42.5184 42.3576 42.6811 42.4104 42.8491 42.4187Z" fill="#11C4FE"/>
<path id="Vector_205" d="M45.3183 41.4931C45.8401 40.8405 45.5836 40.2116 44.7459 40.072C44.2958 40.0191 43.8396 40.0722 43.4137 40.2272C42.9878 40.3821 42.604 40.6344 42.2931 40.9641C41.7602 41.6116 42.0196 42.2486 42.8655 42.3853C43.3155 42.4361 43.7711 42.382 44.1967 42.2272C44.6222 42.0724 45.0062 41.8211 45.3183 41.4931Z" fill="#70DDFE"/>
<path id="Vector_206" d="M44.1154 42.1064C44.5305 41.9621 44.9025 41.7154 45.1968 41.389C45.2912 41.295 45.3598 41.1782 45.3958 41.05C45.4319 40.9217 45.4342 40.7863 45.4027 40.6569C45.3354 40.5327 45.2371 40.4281 45.1174 40.3532C44.9977 40.2783 44.8606 40.2357 44.7195 40.2295C44.2998 40.18 43.8744 40.233 43.4797 40.3842C43.0616 40.5223 42.6881 40.7701 42.3983 41.1016C42.3039 41.1956 42.2353 41.3124 42.1993 41.4407C42.1632 41.5689 42.1609 41.7043 42.1924 41.8338C42.2597 41.9579 42.358 42.0625 42.4777 42.1374C42.5974 42.2123 42.7345 42.2549 42.8756 42.2611C43.2953 42.3143 43.7216 42.2611 44.1154 42.1064Z" fill="#0EA4D4"/>
<g id="Group_120">
<path id="Vector_207" d="M39.3298 50.2808L39.775 49.7485L39.9653 50.2718L39.5201 50.8041L39.3298 50.2808Z" fill="#008BC9"/>
<path id="Vector_208" d="M37.1864 47.7464L37.6286 47.206C37.5431 47.3158 37.4891 47.4468 37.4725 47.585C37.4559 47.7231 37.4773 47.8632 37.5343 47.9901C37.7632 48.4229 38.081 48.8025 38.4666 49.1041C38.8523 49.4057 39.2973 49.6226 39.7725 49.7404L39.3303 50.2809C38.8566 50.1595 38.4131 49.9413 38.0279 49.6401C37.6427 49.3388 37.3241 48.961 37.0921 48.5306C37.0331 48.4041 37.0107 48.2636 37.0273 48.125C37.044 47.9864 37.0991 47.8553 37.1864 47.7464Z" fill="#008BC9"/>
<path id="Vector_209" d="M38.0954 46.8602L38.5488 46.325L38.7309 46.8513L38.2887 47.3917L38.0954 46.8602Z" fill="#008BC9"/>
<path id="Vector_210" d="M36.4636 47.3613L36.9059 46.8209C37.1281 46.6149 37.3957 46.4641 37.687 46.3807C37.9783 46.2972 38.2851 46.2835 38.5827 46.3406L38.1293 46.8758C37.8331 46.8169 37.5271 46.8303 37.2371 46.9148C36.9471 46.9993 36.6818 47.1525 36.4636 47.3613Z" fill="#008BC9"/>
<path id="Vector_211" d="M38.0954 46.8603L38.2887 47.3917C37.3491 47.3539 36.8333 47.8192 37.0921 48.5306C37.324 48.961 37.6427 49.3388 38.0279 49.64C38.4131 49.9413 38.8566 50.1595 39.3303 50.2808L39.5206 50.8041C38.8464 50.6551 38.2123 50.3624 37.6614 49.9461C37.1106 49.5298 36.656 48.9995 36.3287 48.3916C35.9659 47.3941 36.7522 46.7563 38.0954 46.8603Z" fill="#079FE3"/>
</g>
<path id="Vector_212" d="M40.3802 51.1304L40.1973 51.0858L39.8531 50.9795C39.7446 50.9357 39.6027 50.8762 39.4993 50.8212C39.3532 50.7482 39.2137 50.6627 39.0823 50.5656C38.9556 50.4722 38.8352 50.3707 38.7218 50.2616C38.4902 50.0333 38.2972 49.769 38.1501 49.4789C38.124 49.4207 38.1021 49.3606 38.0847 49.2991L37.9687 48.9802C37.9302 48.8511 37.9008 48.7195 37.881 48.5863C37.8588 48.4528 37.8469 48.3179 37.8453 48.1826C37.842 48.1083 37.8427 48.0339 37.8475 47.9597C37.8527 47.8467 37.8683 47.7114 37.8846 47.6036C37.906 47.4454 37.9423 47.2896 37.9931 47.1383L38.0518 46.9688L38.1529 46.7376C38.221 46.5942 38.3011 46.4567 38.3922 46.3266C38.4677 46.2104 38.5511 46.0996 38.6419 45.995L38.7676 45.8568L38.9526 45.6784L39.183 45.4464L39.3629 45.381C39.5434 45.2602 39.7362 45.1591 39.9382 45.0792C40.1252 44.992 40.3194 44.9214 40.5187 44.8681L40.842 44.8153C40.9623 44.7997 41.0835 44.7927 41.2047 44.7944L41.4277 44.7966L41.6017 44.8167L41.8752 44.8561C41.7255 44.8251 41.571 44.8246 41.421 44.8546C40.9634 44.7998 40.4992 44.8533 40.0661 45.0108C39.6329 45.1684 39.2428 45.4256 38.9273 45.7616C38.367 46.4098 38.5774 47.0647 39.3965 47.2296C39.8557 47.2861 40.3218 47.2331 40.7567 47.0749C41.1915 46.9168 41.5827 46.658 41.8984 46.3196C42.4588 45.6714 42.2483 45.0166 41.421 44.8546C41.571 44.8246 41.7255 44.8251 41.8752 44.8561L42.0581 44.9007L42.3271 44.9787C42.4768 45.03 42.6228 45.0913 42.7642 45.1622C43.016 45.2944 43.2498 45.4582 43.46 45.6498C43.5627 45.7437 43.6584 45.845 43.7462 45.953C43.767 46.0103 43.8458 46.0742 43.883 46.1255C43.9201 46.1767 44.0153 46.3365 44.0703 46.4369C44.1346 46.5705 44.1854 46.7102 44.222 46.8539C44.2821 46.9923 44.3337 47.1343 44.3766 47.279C44.4039 47.4258 44.4207 47.5743 44.4272 47.7235C44.4348 47.8748 44.4343 48.0264 44.4257 48.1777C44.4066 48.3288 44.3776 48.4785 44.3388 48.6259C44.3035 48.7793 44.256 48.9297 44.1969 49.0756L44.1136 49.254C44.0689 49.3488 44.0191 49.4412 43.9642 49.5305C43.8687 49.6933 43.7566 49.8457 43.6298 49.9854C43.5257 50.1066 43.3674 50.2568 43.3191 50.3021L43.0553 50.5184L42.885 50.6359C42.7057 50.7524 42.5146 50.8498 42.315 50.9266C42.1251 51.0144 41.9282 51.086 41.7263 51.1407L41.403 51.1935C41.2852 51.2065 41.1668 51.2124 41.0484 51.2113C40.8239 51.2014 40.6005 51.1744 40.3802 51.1304Z" fill="#5AC3F2"/>
<path id="Vector_213" d="M41.435 44.868C42.2623 45.03 42.4727 45.6848 41.9123 46.333C41.5966 46.6713 41.2054 46.9302 40.7706 47.0883C40.3357 47.2465 39.8696 47.2995 39.4104 47.243C38.5913 47.078 38.3809 46.4232 38.9413 45.775C39.2567 45.439 39.6468 45.1818 40.08 45.0242C40.5132 44.8667 40.9773 44.8132 41.435 44.868Z" fill="#079FE3"/>
<g id="Group_121">
<path id="Vector_214" d="M39.84 45.8278L40.0347 45.5995C40.0562 45.569 40.0866 45.5458 40.1216 45.5331C40.1567 45.5203 40.1949 45.5186 40.2309 45.5282L40.0362 45.7564C40.0001 45.75 39.963 45.7532 39.9285 45.7658C39.8941 45.7783 39.8636 45.7997 39.84 45.8278Z" fill="#0FB4E7"/>
<path id="Vector_215" d="M40.0417 45.7727L40.2364 45.5444C40.3398 45.569 40.436 45.6176 40.5172 45.6861C40.5984 45.7547 40.6624 45.8413 40.704 45.9391C40.704 45.9391 40.7189 45.98 40.7248 45.9964L40.5301 46.2246C40.5277 46.2041 40.5206 46.1845 40.5092 46.1673C40.4671 46.0699 40.4029 45.9836 40.3218 45.9151C40.2407 45.8466 40.1448 45.7979 40.0417 45.7727Z" fill="#0FB4E7"/>
<path id="Vector_216" d="M40.0423 45.7727C40.1454 45.7979 40.2413 45.8467 40.3224 45.9152C40.4035 45.9836 40.4677 46.07 40.5098 46.1674C40.5212 46.1845 40.5283 46.2042 40.5306 46.2246L39.8587 46.108L39.8349 46.0426C39.7613 45.8657 39.8542 45.7393 40.0423 45.7727Z" fill="#008BC9"/>
</g>
<g id="Group_122">
<path id="Vector_217" d="M43.9013 46.5076L44.2476 46.0853C44.1569 46.1924 43.9615 46.1894 43.9451 46.1954L43.5958 46.6094C43.5958 46.6094 43.8195 46.6391 43.9013 46.5076Z" fill="#1A6080"/>
<path id="Vector_218" d="M45.3278 48.2661L45.6771 47.8521C46.0264 47.438 45.3299 46.312 45.0058 45.8281C44.9054 45.7051 44.8495 45.5517 44.8472 45.3929C44.8449 45.2341 44.8963 45.0792 44.993 44.9532L44.6437 45.3673C44.5469 45.4932 44.4955 45.6481 44.4978 45.8069C44.5001 45.9657 44.556 46.1191 44.6564 46.2422C44.9805 46.726 45.6771 47.8521 45.3278 48.2661Z" fill="#2EABE3"/>
<path id="Vector_219" d="M44.634 44.7042L44.3716 44.67C44.3567 44.6693 44.3418 44.6716 44.3278 44.6767C44.3137 44.6818 44.3008 44.6897 44.2899 44.6998L43.9405 45.1138C43.9512 45.1033 43.9641 45.0951 43.9782 45.09C43.9923 45.0849 44.0073 45.0829 44.0223 45.0841L44.2847 45.1182C44.4728 45.1517 44.689 45.2119 44.6891 45.3137L45.0384 44.8996C45.0413 44.806 44.8221 44.7376 44.634 44.7042Z" fill="#35ADD1"/>
<path id="Vector_220" d="M44.6831 45.2973C44.6534 45.2156 44.4898 45.1732 44.2713 45.1324L44.0587 45.1078L44.3144 44.7927L44.3553 44.7778L44.6095 44.815C44.8637 44.8521 44.9618 44.9182 44.9849 44.9561L44.6831 45.2973Z" fill="#2484B0"/>
</g>
<path id="Vector_221" d="M44.6835 45.2974C44.6508 45.2075 44.4672 45.1354 44.2791 45.1019L44.0167 45.0678C43.7967 45.0737 43.8265 45.8683 43.9254 46.2675C44.0243 46.6666 43.7552 46.5886 43.6422 46.5834L43.8065 46.8569C43.8662 46.9924 43.9168 47.1317 43.9582 47.2739C44.0211 47.4112 44.0728 47.5534 44.1128 47.699C44.1469 47.8468 44.1675 47.9973 44.1745 48.1487C44.1983 48.2141 44.1731 48.2974 44.1775 48.3606C44.2466 48.3946 44.3206 48.4177 44.3968 48.4289C44.6437 48.4666 44.896 48.4446 45.1327 48.365C45.844 48.1062 45.0151 46.7691 44.6479 46.2176C44.535 46.0887 44.4759 45.9215 44.4825 45.7504C44.4891 45.5793 44.561 45.4172 44.6835 45.2974Z" fill="#2484B0"/>
<g id="Group_123">
<path id="Vector_222" d="M49.19 43.0285L49.0406 42.9996C49.0437 42.9503 49.0507 42.9013 49.0614 42.8531L49.0778 42.6435L49.2354 42.6695L49.2108 42.8821C49.2077 42.9314 49.2008 42.9803 49.19 43.0285Z" fill="#BD8F0C"/>
<path id="Vector_223" d="M49.2744 41.1465L49.4238 41.1754C49.4238 41.1754 49.4654 41.2899 49.5338 41.4779C49.5746 41.682 49.57 41.8925 49.5203 42.0946C49.4706 42.2967 49.377 42.4853 49.2462 42.6472L49.0886 42.6212C49.2164 42.4576 49.308 42.2689 49.3576 42.0674C49.4072 41.8658 49.4135 41.6561 49.3762 41.4519C49.3487 41.249 49.2721 41.1658 49.2662 41.1494L49.2744 41.1465Z" fill="#BD8F0C"/>
<path id="Vector_224" d="M49.326 40.8314L49.4754 40.8603C49.3758 40.841 49.271 40.9347 49.1803 41.0417L49.0227 41.0157C49.1216 40.9057 49.2442 40.8611 49.326 40.8314Z" fill="#BD8F0C"/>
<path id="Vector_225" d="M49.1666 41.4356L49.0091 41.4096C48.9794 41.3278 48.9466 41.2379 48.9169 41.1561L49.0745 41.1821C49.1205 41.2579 49.1533 41.3479 49.1666 41.4356Z" fill="#E7AF0F"/>
<path id="Vector_226" d="M49.1071 41.1703L48.9495 41.1443L49.0291 41.032L49.1866 41.058L49.1071 41.1703Z" fill="#BD8F0C"/>
<path id="Vector_227" d="M49.1869 41.058C49.3682 40.8439 49.6254 40.6856 49.7102 41.3768C49.759 41.6405 49.7505 41.9115 49.6854 42.1716C49.6203 42.4317 49.5 42.6747 49.3327 42.8843C49.294 42.9366 49.249 42.984 49.1989 43.0255C49.2097 42.9773 49.2166 42.9284 49.2198 42.8791L49.2918 42.6955C49.4226 42.5336 49.5162 42.345 49.5659 42.1429C49.6156 41.9408 49.6202 41.7303 49.5794 41.5263C49.56 41.3204 49.4753 41.2401 49.4694 41.2238C49.4634 41.2074 49.3794 41.2565 49.3073 41.3382C49.2663 41.3805 49.2306 41.4277 49.2011 41.4787C49.1713 41.3969 49.1386 41.307 49.1089 41.2252L49.1869 41.058Z" fill="#E7AF0F"/>
</g>
<path id="Vector_228" d="M48.6893 43.4328C48.7051 43.4933 48.7043 43.5568 48.687 43.6169C48.6698 43.6769 48.6367 43.7312 48.5912 43.774C48.4803 43.894 48.3422 43.9857 48.1886 44.0415C48.035 44.0974 47.8703 44.1158 47.7082 44.0952C47.6523 44.0908 47.5987 44.0716 47.5528 44.0394C47.5069 44.0073 47.4705 43.9634 47.4473 43.9123L47.4949 44.0432C47.5193 44.0946 47.5563 44.139 47.6024 44.1724C47.6485 44.2058 47.7023 44.227 47.7588 44.2342C47.9208 44.2527 48.0849 44.2333 48.2381 44.1776C48.3913 44.1218 48.5295 44.0313 48.6418 43.913C48.6864 43.8712 48.7192 43.8185 48.7369 43.76C48.7547 43.7016 48.7567 43.6395 48.7429 43.58L48.6893 43.4328Z" fill="#D4A10E"/>
<path id="Vector_229" d="M48.907 42.2242C48.5961 42.5539 48.2123 42.8063 47.7864 42.9612C47.3605 43.1161 46.9043 43.1692 46.4542 43.1164C46.2964 43.1015 46.145 43.0461 46.0148 42.9556C45.8846 42.8651 45.7799 42.7426 45.7109 42.5998C45.7871 42.8034 45.8885 42.9967 46.0127 43.1751C46.1041 43.2993 46.1837 43.3907 46.2038 43.4204C46.2238 43.4501 46.3227 43.5438 46.4216 43.6375C46.5492 43.7517 46.6905 43.8495 46.8423 43.9288L47.0571 44.0358L47.1708 44.0685L47.376 44.1235C47.5139 44.1513 47.6547 44.1622 47.7952 44.1561C47.9389 44.1452 48.0806 44.1154 48.2166 44.0677C48.3518 44.0188 48.4804 43.9534 48.5994 43.8729L48.7555 43.7421L48.8893 43.6008C49.0067 43.4658 49.1046 43.3149 49.1799 43.1526C49.203 43.0887 49.2394 43.0106 49.2825 42.8746C49.309 42.7791 49.3294 42.682 49.3434 42.5839C49.3591 42.4852 49.3693 42.3857 49.3738 42.2859C49.3723 42.1291 49.3664 42.0109 49.3627 41.9752C49.354 41.8719 49.3383 41.7694 49.3158 41.6682C49.292 41.6028 49.2623 41.521 49.2415 41.4638L49.1909 41.3248C49.2271 41.4865 49.2199 41.6548 49.17 41.8127C49.1202 41.9707 49.0294 42.1126 48.907 42.2242Z" fill="#FEC111"/>
<path id="Vector_230" d="M46.4211 43.1008C45.605 42.944 45.3946 42.2892 45.9468 41.6439C46.2586 41.3154 46.6425 41.0638 47.0681 40.9089C47.4938 40.7541 47.9496 40.7003 48.3996 40.7518C49.2188 40.9167 49.4262 41.5634 48.8658 42.2116C48.5554 42.5396 48.1729 42.7907 47.7485 42.945C47.3242 43.0994 46.8697 43.1527 46.4211 43.1008Z" fill="#FED970"/>
<path id="Vector_231" d="M47.7367 42.7982C47.3273 42.9598 46.8822 43.0098 46.4471 42.9433C46.3145 42.9337 46.1869 42.8885 46.0778 42.8125C45.9687 42.7365 45.8821 42.6325 45.8272 42.5114C45.7958 42.3743 45.8017 42.2313 45.844 42.0971C45.8863 41.9629 45.9636 41.8424 46.068 41.748C46.3645 41.4363 46.7292 41.1976 47.1335 41.0506C47.5378 40.9035 47.9706 40.8521 48.3981 40.9005C48.5309 40.9119 48.6584 40.9574 48.7685 41.0325C48.8785 41.1076 48.9673 41.2099 49.0263 41.3294C49.0544 41.4677 49.0463 41.611 49.0027 41.7453C48.9591 41.8796 48.8814 42.0003 48.7773 42.0957C48.4952 42.4138 48.1372 42.6555 47.7367 42.7982Z" fill="#D4A10E"/>
<g id="Group_124">
<path id="Vector_232" d="M49.5108 40.5509L49.6096 40.4409C49.5918 40.3919 49.536 40.3658 49.4966 40.3339L49.3495 40.1837L49.2454 40.3049C49.2662 40.3621 49.3443 40.3986 49.3926 40.455L49.5108 40.5509Z" fill="#BD0C32"/>
<path id="Vector_233" d="M48.2382 39.1626L48.1341 39.2838C48.1341 39.2838 48.1757 39.3983 48.2441 39.5863C48.3467 39.7667 48.4863 39.9234 48.6537 40.0459C48.8212 40.1685 49.0127 40.2543 49.2157 40.2976L49.3197 40.1764C49.1162 40.1347 48.924 40.0496 48.7563 39.9269C48.5886 39.8041 48.4494 39.6466 48.3482 39.4652C48.2389 39.292 48.2032 39.1938 48.2382 39.1626Z" fill="#BD0C32"/>
<path id="Vector_234" d="M48.0014 38.9708L47.9055 39.089C47.9695 39.0102 48.1099 39.0146 48.2482 39.0384L48.3441 38.9202C48.2868 38.9024 48.2263 38.8978 48.167 38.9065C48.1077 38.9153 48.0511 38.9372 48.0014 38.9708Z" fill="#BD0C32"/>
<path id="Vector_235" d="M48.5092 39.3231L48.6132 39.2019C48.5805 39.112 48.5478 39.022 48.4772 38.9552L48.3813 39.0733C48.4274 39.1492 48.4601 39.2391 48.5092 39.3231Z" fill="#E70F3D"/>
<path id="Vector_236" d="M48.3813 39.0734L48.4772 38.9552L48.3441 38.9202L48.2482 39.0385L48.3813 39.0734Z" fill="#BD0C32"/>
<path id="Vector_237" d="M48.2482 39.0385C47.9635 38.9939 47.6729 39.0348 48.052 39.619C48.1849 39.8516 48.3658 40.0534 48.5826 40.2107C48.7995 40.3681 49.0474 40.4775 49.3098 40.5317C49.3753 40.5498 49.4434 40.5563 49.5112 40.551L49.393 40.4551C49.3692 40.3897 49.2912 40.3533 49.2458 40.3049C49.0429 40.2617 48.8514 40.1759 48.6839 40.0533C48.5165 39.9307 48.3768 39.7741 48.2743 39.5937C48.165 39.4205 48.1702 39.3075 48.1642 39.2912C48.1583 39.2748 48.2542 39.2585 48.362 39.2748C48.4221 39.2824 48.481 39.2984 48.5367 39.3224C48.5039 39.2324 48.4712 39.1425 48.4415 39.0607L48.2482 39.0385Z" fill="#E70F3D"/>
</g>
<path id="Vector_238" d="M50.1523 40.5309C50.1787 40.5862 50.2189 40.6338 50.269 40.6691C50.3192 40.7044 50.3775 40.7261 50.4385 40.7323C50.602 40.7504 50.7674 40.7306 50.922 40.6743C51.0765 40.6181 51.2161 40.527 51.3297 40.4081C51.3684 40.3664 51.396 40.3156 51.4099 40.2604C51.4237 40.2051 51.4235 40.1473 51.4092 40.0922L51.4568 40.2231C51.4711 40.2782 51.4713 40.336 51.4574 40.3912C51.4435 40.4464 51.416 40.4972 51.3773 40.539C51.2636 40.6578 51.1241 40.7489 50.9696 40.8052C50.815 40.8614 50.6496 40.8812 50.4861 40.8631C50.4265 40.8573 50.3693 40.8365 50.3198 40.8027C50.2703 40.769 50.2301 40.7233 50.2029 40.6699L50.1523 40.5309Z" fill="#D40E37"/>
<path id="Vector_239" d="M49.2123 39.7527C49.6624 39.8056 50.1186 39.7524 50.5445 39.5975C50.9704 39.4426 51.3541 39.1903 51.6651 38.8606C51.7751 38.7468 51.8545 38.6071 51.8961 38.4544C51.9377 38.3017 51.94 38.141 51.9029 37.9872C51.9708 38.1934 52.0171 38.4061 52.0412 38.6219C52.0538 38.784 52.0486 38.897 52.0523 38.9326C52.049 39.0352 52.0398 39.1374 52.0249 39.2389C51.997 39.4076 51.9517 39.5731 51.8896 39.7325L51.7856 39.9554L51.7276 40.0506L51.6057 40.2245C51.5179 40.3344 51.4171 40.4333 51.3055 40.5189C51.1883 40.6028 51.0606 40.6711 50.9257 40.7219C50.7919 40.7753 50.6508 40.8079 50.5072 40.8185L50.3035 40.8185L50.1132 40.8044C49.9355 40.7723 49.7628 40.7168 49.5996 40.6394C49.5409 40.6053 49.4628 40.5689 49.3424 40.4923C49.2593 40.4382 49.1812 40.3768 49.109 40.3087C49.0335 40.2432 48.9618 40.1735 48.8942 40.0999C48.8242 40.0232 48.7603 39.9412 48.7031 39.8546C48.6434 39.7699 48.5895 39.6812 48.5418 39.5893C48.521 39.532 48.4913 39.4503 48.4675 39.3849L48.4169 39.2458C48.493 39.3929 48.6067 39.5173 48.7464 39.6063C48.8861 39.6953 49.0468 39.7458 49.2123 39.7527Z" fill="#FE1142"/>
<path id="Vector_240" d="M51.6804 38.8271C52.2052 38.1826 51.9457 37.5456 51.108 37.4059C50.6581 37.3565 50.2028 37.4112 49.7775 37.5659C49.3522 37.7206 48.9681 37.9711 48.6552 38.2981C48.1334 38.9507 48.3899 39.5796 49.2358 39.7163C49.6843 39.7682 50.1388 39.7148 50.5632 39.5605C50.9875 39.4062 51.3701 39.155 51.6804 38.8271Z" fill="#FE708F"/>
<path id="Vector_241" d="M50.4922 39.4814C50.9071 39.3404 51.2767 39.0909 51.5625 38.7588C51.6599 38.6668 51.7305 38.5501 51.7668 38.4212C51.803 38.2922 51.8036 38.1558 51.7683 38.0266C51.7042 37.9014 51.6079 37.7955 51.4892 37.7199C51.3706 37.6442 51.234 37.6016 51.0934 37.5963C50.6708 37.5463 50.2423 37.6005 49.8454 37.754C49.4322 37.8959 49.0625 38.1419 48.7721 38.4684C48.6777 38.5624 48.6092 38.6792 48.5731 38.8074C48.5371 38.9357 48.5347 39.0711 48.5663 39.2005C48.6322 39.3258 48.7301 39.4314 48.8502 39.5064C48.9702 39.5815 49.1079 39.6234 49.2494 39.6279C49.6694 39.6842 50.0968 39.6338 50.4922 39.4814Z" fill="#D40E37"/>
<path id="Vector_242" d="M41.8449 50.9585L42.0739 51.5881L41.8606 51.8416L41.6346 51.2202L41.8449 50.9585Z" fill="#353535"/>
<path id="Vector_243" d="M41.9612 51.2774L42.1902 51.907L41.8609 51.8416L41.6349 51.2202L41.9612 51.2774Z" fill="#4B4B4B"/>
<path id="Vector_244" d="M42.2953 51.3317L42.5162 51.9642L42.1898 51.907L41.9608 51.2775L42.2953 51.3317Z" fill="#4B4B4B"/>
<path id="Vector_245" d="M41.9612 51.2775L42.1902 51.907L41.9769 52.1605L41.7561 51.528L41.9612 51.2775Z" fill="#353535"/>
<path id="Vector_246" d="M41.745 51.5227L34.0019 50.1638L34.2309 50.7934L41.977 52.1605L41.8639 51.8498L41.8662 51.8304L41.7562 51.5279L41.745 51.5227Z" fill="#4B4B4B"/>
<path id="Vector_247" d="M41.7127 51.1273L41.8539 50.9556L39.708 50.5789L39.4203 50.5262L38.9141 50.4325L38.903 50.4274L38.3336 50.3382L33.7704 49.5261L34.0024 50.1639L41.7455 51.5228L41.7566 51.528L41.9617 51.2775L41.6354 51.2202L41.7127 51.1273Z" fill="#313131"/>
<path id="Vector_248" d="M53.4383 37.9841L53.6591 38.6166L42.5166 51.9642L42.2957 51.3317L53.4383 37.9841Z" fill="#737477"/>
<path id="Vector_249" d="M53.4385 37.9841L42.296 51.3316L41.9615 51.2774L41.6352 51.2202L41.8455 50.9585L52.5615 38.1179L52.8989 38.1803L53.1122 37.9268L53.4385 37.9841Z" fill="#313131"/>
</g>
</svg>
