<svg width="51" height="63" viewBox="0 0 51 63" fill="none" xmlns="http://www.w3.org/2000/svg">
<g id="Group 3">
<g id="Group">
<path id="Vector" d="M17.4607 49.5135L20.2795 47.8779L17.1997 46.103L14.3895 47.7387L17.4607 49.5135Z" fill="#1D2225"/>
<path id="Vector_2" d="M29.9801 56.7432L32.799 55.1076L20.2795 47.8778L17.4607 49.5134L29.9801 56.7432Z" fill="#1D2225"/>
<path id="Vector_3" d="M33.06 58.5181L35.8701 56.8825L32.799 55.1077L29.9802 56.7433L33.06 58.5181Z" fill="#1D2225"/>
<path id="Vector_4" d="M33.0513 59.7796L35.8701 58.1439V56.8824L33.06 58.5181L33.0513 59.7796Z" fill="#171B1D"/>
<path id="Vector_5" d="M14.3891 47.7386L14.3804 49.0002L33.0509 59.7796L33.0596 58.5181L29.9798 56.7433L17.4603 49.5135L14.3891 47.7386Z" fill="#2B3236"/>
</g>
<g id="Group_2">
<g id="Group_3">
<g id="Group_4">
<path id="Vector_6" d="M2.59231 34.5057L5.41113 32.8701C5.09272 32.6639 4.82748 32.3855 4.637 32.0574C4.44651 31.7293 4.33617 31.3609 4.31494 30.9822L1.49608 32.6178C1.51732 32.9966 1.62768 33.3649 1.81817 33.693C2.00865 34.0211 2.27389 34.2995 2.59231 34.5057Z" fill="#1D2124"/>
</g>
</g>
<path id="Vector_7" d="M1.5052 32.6177L4.31534 30.9821L4.38493 7.05676L1.56611 8.69239L1.5052 32.6177Z" fill="#171B1D"/>
<g id="Group_5">
<g id="Group_6">
<path id="Vector_8" d="M1.56601 8.69246L4.38484 7.05684C4.37161 6.92357 4.39357 6.78915 4.44853 6.66702C4.50349 6.54489 4.58951 6.43932 4.69803 6.36084L1.88791 7.99644C1.77645 8.07262 1.68768 8.17754 1.63101 8.30007C1.57433 8.4226 1.55188 8.5582 1.56601 8.69246Z" fill="#1D2124"/>
</g>
</g>
<g id="Group_7">
<g id="Group_8">
<path id="Vector_9" d="M2.64492 8.07473L5.46375 6.43911C5.3497 6.35897 5.21689 6.30964 5.07818 6.29592C4.93947 6.2822 4.79956 6.30456 4.67203 6.36081L1.86191 7.99641C1.98793 7.94007 2.12649 7.91765 2.26384 7.93139C2.40119 7.94512 2.53255 7.99455 2.64492 8.07473Z" fill="#8B9895"/>
</g>
</g>
<g id="Group_9">
<g id="Group_10">
<path id="Vector_10" d="M1.93115 6.23898L4.75 4.60335C4.56584 4.4662 4.34751 4.38232 4.11889 4.36084C3.89028 4.33936 3.66015 4.38112 3.45367 4.48157L0.634838 6.11719C0.842022 6.01956 1.07163 5.97934 1.29967 6.00077C1.5277 6.02219 1.74577 6.10446 1.93115 6.23898Z" fill="#1D2124"/>
</g>
</g>
<path id="Vector_11" d="M29.9984 53.5502L32.8086 51.9146L20.2891 44.6848L17.4703 46.3204L29.9984 53.5502Z" fill="#191919"/>
<path id="Vector_12" d="M29.9811 56.7431L32.7999 55.1075L32.8086 51.9146L29.9984 53.5502L29.9811 56.7431Z" fill="#141414"/>
<path id="Vector_13" d="M17.4699 46.3204L17.4612 49.5134L29.9806 56.7432L29.998 53.5502L17.4699 46.3204Z" fill="#252525"/>
<path id="Vector_14" d="M44.8921 58.927L47.7109 57.2913L5.41101 32.8701L2.59218 34.5057L44.8921 58.927Z" fill="#1D2225"/>
<g id="Group_11">
<g id="Group_12">
<path id="Vector_15" d="M45.6752 59.0052L48.4854 57.3696C48.3613 57.4278 48.2237 57.4513 48.0874 57.4376C47.951 57.4238 47.8209 57.3732 47.711 57.2913L44.8922 58.9269C45.0038 59.0087 45.1353 59.0591 45.273 59.0729C45.4107 59.0867 45.5496 59.0633 45.6752 59.0052Z" fill="#1D2124"/>
</g>
</g>
<g id="Group_13">
<g id="Group_14">
<path id="Vector_16" d="M46.9198 62.694L49.7386 61.0584C49.9218 60.9279 50.0672 60.7514 50.1604 60.5467C50.2536 60.342 50.2912 60.1164 50.2693 59.8926L47.4505 61.5282C47.4723 61.752 47.4348 61.9777 47.3416 62.1823C47.2484 62.387 47.1029 62.5635 46.9198 62.694Z" fill="#1D2124"/>
</g>
</g>
<g id="Group_15">
<g id="Group_16">
<path id="Vector_17" d="M45.6754 59.0052L48.4855 57.3696C48.597 57.2934 48.6857 57.1885 48.7424 57.066C48.7991 56.9434 48.8215 56.8078 48.8074 56.6736L45.9973 58.3092C46.007 58.443 45.9825 58.577 45.9262 58.6988C45.8699 58.8205 45.7836 58.926 45.6754 59.0052Z" fill="#8B9895"/>
</g>
</g>
<path id="Vector_18" d="M47.4508 61.5282L50.2696 59.8926L50.2783 57.587L47.4595 59.2227L47.4508 61.5282Z" fill="#171B1D"/>
<path id="Vector_19" d="M45.9885 58.3092L48.8073 56.6736L48.877 32.7483L46.0581 34.3839L45.9885 58.3092Z" fill="#707B78"/>
<path id="Vector_20" d="M47.4591 59.2227L50.278 57.5871L50.3389 35.3235L47.52 36.9591L47.4591 59.2227Z" fill="#171B1D"/>
<path id="Vector_21" d="M44.9711 32.4959L47.7812 30.8603L5.48132 6.43909L2.67117 8.07471L44.9711 32.4959Z" fill="#8C9A97"/>
<g id="Group_17">
<g id="Group_18">
<path id="Vector_22" d="M46.0581 34.3839L48.877 32.7483C48.8571 32.3692 48.7473 32.0003 48.5567 31.672C48.3661 31.3437 48.1001 31.0655 47.7807 30.8604L44.9706 32.496C45.2889 32.7016 45.5535 32.9801 45.7427 33.3084C45.9318 33.6368 46.0399 34.0054 46.0581 34.3839Z" fill="#8B9895"/>
</g>
</g>
<path id="Vector_23" d="M2.64481 8.07472C2.0358 7.72672 1.54861 8.00511 1.53991 8.69242L1.47029 32.6177C1.49153 32.9965 1.60189 33.3649 1.79238 33.6929C1.98286 34.021 2.2481 34.2994 2.56651 34.5056L44.8664 58.9269C45.4755 59.2836 45.9627 58.9965 45.9714 58.3092L46.0323 34.3838C46.0141 34.0054 45.9059 33.6367 45.7168 33.3084C45.5277 32.98 45.263 32.7015 44.9447 32.4959L2.64481 8.07472Z" fill="#00B5AC"/>
<path id="Vector_24" d="M47.52 36.9591L50.3389 35.3235V33.0179L47.5287 34.6623L47.52 36.9591Z" fill="#171B1D"/>
<path id="Vector_25" d="M45.7105 31.5128L48.5293 29.8772L4.75036 4.60339L1.93151 6.23899L45.7105 31.5128Z" fill="#1D2225"/>
<g id="Group_19">
<g id="Group_20">
<path id="Vector_26" d="M47.5287 34.6535L50.3389 33.0179C50.3068 32.3877 50.1251 31.7741 49.8089 31.228C49.4928 30.6819 49.0511 30.2188 48.5205 29.8772L45.7104 31.5128C46.2376 31.858 46.6767 32.3219 46.9924 32.8673C47.3081 33.4127 47.4918 34.0244 47.5287 34.6535Z" fill="#1D2124"/>
</g>
</g>
<path id="Vector_27" d="M1.93183 6.23897C0.931316 5.65606 0.113499 6.12588 0.104801 7.283V9.58852L0.0439186 31.8434V34.1489C0.0794907 34.7795 0.262524 35.393 0.578331 35.94C0.894135 36.487 1.3339 36.9523 1.86224 37.2984L17.5224 46.3204L30.0419 53.5502L45.6238 62.5461C46.6243 63.1203 47.4508 62.6592 47.4508 61.5021V59.1965L47.5117 36.933V34.6274C47.4748 33.9983 47.2911 33.3866 46.9754 32.8412C46.6596 32.2958 46.2206 31.8319 45.6934 31.4867L1.93183 6.23897ZM1.49682 32.6177L1.56644 8.69241C1.56644 8.0051 2.06234 7.72671 2.67134 8.07471L44.9713 32.4959C45.2895 32.7015 45.5542 32.98 45.7433 33.3083C45.9325 33.6367 46.0406 34.0054 46.0588 34.3838L45.9979 58.3091C45.9979 58.9964 45.502 59.2835 44.893 58.9268L2.59304 34.5056C2.27463 34.2994 2.0094 34.021 1.81891 33.6929C1.62842 33.3649 1.51806 32.9965 1.49682 32.6177Z" fill="#2B3236"/>
</g>
<g id="Group_21">
<g id="Group_22">
<g id="Clip path group">
<mask id="mask0_578_941" style="mask-type:luminance" maskUnits="userSpaceOnUse" x="1" y="0" width="9" height="3">
<g id="clip-path-6">
<path id="Vector_28" d="M1.67006 1.19296L2.16597 0.914548C4.2192 0.044537 6.82921 0.366436 9.51755 1.91506L9.02163 2.20217C6.342 0.644854 3.73198 0.296847 1.67006 1.19296Z" fill="white"/>
</g>
</mask>
<g mask="url(#mask0_578_941)">
<g id="Group_23">
<g id="Group_24">
<path id="Vector_29" d="M1.67006 1.19296L2.16597 0.914548C4.2192 0.044537 6.82921 0.366436 9.51755 1.91506L9.02163 2.20217C6.342 0.644854 3.73198 0.296847 1.67006 1.19296Z" fill="#ACACAC"/>
</g>
</g>
</g>
</g>
</g>
<path id="Vector_30" d="M16.2862 9.56248L16.7734 9.27539L15.799 9.99749L15.3031 10.2846L16.2862 9.56248Z" fill="#737373"/>
<g id="Group_25">
<g id="Clip path group_2">
<mask id="mask1_578_941" style="mask-type:luminance" maskUnits="userSpaceOnUse" x="9" y="1" width="8" height="9">
<g id="clip-path-7">
<path id="Vector_31" d="M9.02161 2.20216L9.51752 1.91504C12.4827 3.76198 14.969 6.28406 16.7734 9.27533L16.2862 9.56244C14.4812 6.56875 11.9914 4.0462 9.02161 2.20216Z" fill="white"/>
</g>
</mask>
<g mask="url(#mask1_578_941)">
<g id="Group_26">
<g id="Group_27">
<path id="Vector_32" d="M9.02161 2.20216L9.51752 1.91504C12.4827 3.76198 14.969 6.28406 16.7734 9.27533L16.2862 9.56244C14.4812 6.56875 11.9914 4.0462 9.02161 2.20216Z" fill="#ACACAC"/>
</g>
</g>
</g>
</g>
</g>
<path id="Vector_33" d="M9.02167 2.20217C11.9915 4.04622 14.4812 6.56876 16.2863 9.56246L15.3032 10.2846C13.7402 7.69425 11.588 5.50933 9.02167 3.90738C6.69874 2.56757 4.43674 2.26306 2.65321 3.03737L1.6701 1.18425C3.73202 0.296835 6.34204 0.644851 9.02167 2.20217Z" fill="#FAFBFD"/>
</g>
<g id="Group_28">
<g id="Group_29">
<g id="Clip path group_3">
<mask id="mask2_578_941" style="mask-type:luminance" maskUnits="userSpaceOnUse" x="4" y="5" width="6" height="3">
<g id="clip-path-8">
<path id="Vector_34" d="M4.16697 6.58707L4.66288 6.29997C6.0114 5.70837 7.73401 5.94325 9.50014 6.96117L9.01293 7.24828C7.23811 6.23037 5.51548 5.99546 4.16697 6.58707Z" fill="white"/>
</g>
</mask>
<g mask="url(#mask2_578_941)">
<g id="Group_30">
<g id="Group_31">
<path id="Vector_35" d="M4.16697 6.58707L4.66288 6.29997C6.0114 5.70837 7.73401 5.94325 9.50014 6.96117L9.01293 7.24828C7.27291 6.23037 5.53288 5.99546 4.16697 6.58707Z" fill="#ACACAC"/>
</g>
</g>
</g>
</g>
</g>
<path id="Vector_36" d="M13.798 12.0942L14.2852 11.8158L13.3108 12.5379L12.8149 12.825L13.798 12.0942Z" fill="#737373"/>
<g id="Group_32">
<g id="Clip path group_4">
<mask id="mask3_578_941" style="mask-type:luminance" maskUnits="userSpaceOnUse" x="9" y="6" width="6" height="7">
<g id="clip-path-9">
<path id="Vector_37" d="M9.01294 7.2483L9.50014 6.96118C11.4561 8.17888 13.0959 9.84251 14.2852 11.8159L13.798 12.103C12.6061 10.1316 10.9668 8.46858 9.01294 7.2483Z" fill="white"/>
</g>
</mask>
<g mask="url(#mask3_578_941)">
<g id="Group_33">
<g id="Group_34">
<path id="Vector_38" d="M9.01294 7.2483L9.50014 6.96118C11.4561 8.17888 13.0959 9.84251 14.2852 11.8159L13.798 12.103C12.6061 10.1316 10.9668 8.46858 9.01294 7.2483Z" fill="#ACACAC"/>
</g>
</g>
</g>
</g>
</g>
<path id="Vector_39" d="M9.01288 7.24829C10.9668 8.46857 12.606 10.1316 13.7979 12.1029L12.8148 12.8251C11.8693 11.2509 10.5632 9.92387 9.00417 8.95351C8.4463 8.57342 7.80764 8.32838 7.1387 8.23778C6.46976 8.14718 5.78891 8.21349 5.15003 8.4315L4.16691 6.58708C5.51543 5.99547 7.23806 6.23038 9.01288 7.24829Z" fill="#FAFBFD"/>
</g>
<g id="Group_35">
<g id="Group_36">
<g id="Clip path group_5">
<mask id="mask4_578_941" style="mask-type:luminance" maskUnits="userSpaceOnUse" x="6" y="11" width="4" height="2">
<g id="clip-path-10">
<path id="Vector_40" d="M6.4203 11.8941L6.9075 11.607C7.33967 11.4552 7.80174 11.4084 8.25555 11.4704C8.70937 11.5325 9.14193 11.7015 9.51753 11.9637L9.02162 12.2508C8.64856 11.9867 8.21739 11.8164 7.76458 11.7544C7.31177 11.6923 6.85066 11.7402 6.4203 11.8941Z" fill="white"/>
</g>
</mask>
<g mask="url(#mask4_578_941)">
<g id="Group_37">
<g id="Group_38">
<path id="Vector_41" d="M6.4203 11.8941L6.9075 11.607C7.33967 11.4552 7.80174 11.4084 8.25555 11.4704C8.70937 11.5325 9.14193 11.7015 9.51753 11.9637L9.02162 12.2508C8.64755 11.9853 8.21485 11.8142 7.76039 11.7521C7.30592 11.69 6.84317 11.7387 6.41159 11.8941H6.4203Z" fill="#ACACAC"/>
</g>
</g>
</g>
</g>
</g>
<path id="Vector_42" d="M11.545 14.8261L12.0409 14.5389L11.0578 15.2697L10.5706 15.5569L11.545 14.8261Z" fill="#737373"/>
<g id="Group_39">
<g id="Clip path group_6">
<mask id="mask5_578_941" style="mask-type:luminance" maskUnits="userSpaceOnUse" x="8" y="11" width="5" height="4">
<g id="clip-path-11">
<path id="Vector_43" d="M8.99589 12.2507L9.4918 11.9636C10.5371 12.6184 11.411 13.5132 12.0409 14.5737L11.545 14.8608C10.9151 13.8004 10.0411 12.9056 8.99589 12.2507Z" fill="white"/>
</g>
</mask>
<g mask="url(#mask5_578_941)">
<g id="Group_40">
<g id="Group_41">
<path id="Vector_44" d="M8.99589 12.2507L9.4918 11.9636C10.5371 12.6184 11.411 13.5132 12.0409 14.5737L11.545 14.8608C10.9151 13.8004 10.0411 12.9056 8.99589 12.2507Z" fill="#ACACAC"/>
</g>
</g>
</g>
</g>
</g>
<path id="Vector_45" d="M8.99591 12.2508C10.0412 12.9056 10.9151 13.8004 11.5451 14.8608L10.5706 15.5916C10.1804 14.9404 9.64057 14.3917 8.99591 13.9908C8.7652 13.8344 8.5015 13.7334 8.22533 13.6956C7.94916 13.6579 7.668 13.6845 7.4038 13.7733L6.42068 11.9289C6.8447 11.7744 7.29937 11.7231 7.74715 11.779C8.19493 11.835 8.62295 11.9967 8.99591 12.2508Z" fill="#FAFBFD"/>
</g>
</g>
</svg>
