<svg width="63" height="58" viewBox="0 0 63 58" fill="none" xmlns="http://www.w3.org/2000/svg">
<g id="Group 12">
<g id="Group">
<path id="Vector" d="M25.3701 57.7895L0.94022 43.5996L0.722717 21.4666L25.1526 35.6651L25.3701 57.7895Z" fill="#C8D1E3" fill-opacity="0.5"/>
<path id="Vector_2" d="M25.1526 35.6651L0.722656 21.4665L37.759 0.090332L62.1889 14.2889L25.1526 35.6651Z" fill="#4D4E4E"/>
<path id="Vector_3" d="M62.1194 14.3585L62.3369 36.4829L25.3005 57.8591L25.083 35.7347L62.1194 14.3585Z" fill="#DADFEA" fill-opacity="0.42"/>
<path id="Vector_4" d="M52.9495 19.6307L25.1526 35.665L25.3701 57.7894L52.9495 41.8856V19.6307Z" fill="#E1E4EA" fill-opacity="0.47"/>
<path id="Vector_5" d="M25.5441 35.8913L52.558 20.3094V41.6595L25.7616 57.1109L25.5441 35.8913Z" fill="#BFCBE3" fill-opacity="0.02"/>
<path id="Vector_6" d="M50.9307 22.7194L27.0576 36.4916L27.2403 54.9968L50.9307 41.3376V22.7194Z" fill="#2B3E4F"/>
</g>
<path id="Vector_7" d="M61.6757 22.2495L53.0713 27.2173V21.5013L61.6757 16.5336V22.2495Z" fill="#025074"/>
<path id="Vector_8" d="M59.7617 25.1554L61.6757 24.0505V22.7194L59.7617 23.8243V25.1554Z" fill="#BBBBBB"/>
<path id="Vector_9" d="M59.5089 23.9722L57.5166 25.1206V26.4517L59.5089 25.2946V23.9722Z" fill="#BBBBBB"/>
<path id="Vector_10" d="M55.29 27.7306L57.265 26.5909V25.2598L55.29 26.3995V27.7306Z" fill="#BBBBBB"/>
<path id="Vector_11" d="M55.0462 26.5474L53.0713 27.6871V29.0095L55.0462 27.8785V26.5474Z" fill="#BBBBBB"/>
<path id="Vector_12" d="M54.3934 24.7725C53.8975 25.0596 53.5234 24.8247 53.5234 24.2592C53.5368 23.9497 53.6224 23.6477 53.7735 23.3772C53.9246 23.1068 54.1369 22.8755 54.3934 22.7019C54.8894 22.4148 55.2635 22.6497 55.2635 23.2239C55.2488 23.5319 55.1625 23.8322 55.0115 24.101C54.8604 24.3698 54.6488 24.5998 54.3934 24.7725ZM54.3934 22.9716C54.201 23.0979 54.041 23.2676 53.9261 23.4671C53.8113 23.6665 53.7449 23.8902 53.7322 24.12C53.7322 24.5463 54.028 24.7203 54.3934 24.5028C54.5868 24.3775 54.7476 24.208 54.8626 24.0084C54.9776 23.8087 55.0434 23.5845 55.0547 23.3544C55.0547 22.9194 54.7589 22.7628 54.3934 22.9716Z" fill="white" fill-opacity="0.49"/>
<path id="Vector_13" d="M54.5419 23.9547C54.5412 24.006 54.5273 24.0562 54.5013 24.1004C54.4754 24.1447 54.4384 24.1814 54.394 24.207C54.3157 24.2592 54.2461 24.207 54.2461 24.12V23.5284C54.2491 23.4765 54.264 23.4259 54.2896 23.3807C54.3153 23.3354 54.351 23.2967 54.394 23.2674C54.481 23.2152 54.5419 23.2674 54.5419 23.3544V23.9547Z" fill="white" fill-opacity="0.49"/>
<path id="Vector_14" d="M61.2578 19.6569L61.2143 19.4394L60.9707 19.5786C60.9399 19.5346 60.9016 19.4963 60.8576 19.4655L60.9446 19.1523H60.7706C60.764 19.1485 60.7565 19.1465 60.7488 19.1465C60.7412 19.1465 60.7337 19.1485 60.7271 19.1523L60.5618 19.4568C60.4914 19.4352 60.4172 19.4293 60.3443 19.4394L60.2399 19.2393L60.0311 19.4133C60.0272 19.4215 60.0252 19.4304 60.0252 19.4394C60.0252 19.4484 60.0272 19.4574 60.0311 19.4655V19.7439C59.9713 19.8106 59.9187 19.8835 59.8745 19.9614H59.6483C59.6483 19.9614 59.6483 19.9614 59.6048 19.9614L59.4917 20.2311C59.4917 20.2311 59.4917 20.2311 59.4917 20.2746L59.657 20.3703C59.657 20.4573 59.657 20.5356 59.657 20.6139L59.4395 20.8575C59.4395 20.8575 59.4395 20.8575 59.4395 20.9097L59.483 21.1185L59.7266 20.9793C59.755 21.0253 59.7937 21.064 59.8397 21.0924L59.7527 21.4056V21.4491H59.9354L60.1094 21.1533C60.1769 21.1419 60.2417 21.1183 60.3008 21.0837L60.4052 21.2751L60.614 21.1011V21.0489V20.7705L60.7706 20.553H60.9968C60.9968 20.553 60.9968 20.553 61.0403 20.553L61.1534 20.2833V20.2398L60.9794 20.1441C60.9908 20.0633 60.9908 19.9813 60.9794 19.9005L61.2056 19.6569C61.2228 19.6607 61.2406 19.6607 61.2578 19.6569ZM60.3878 20.727C60.179 20.901 59.9789 20.8662 59.9354 20.6487C59.9232 20.5181 59.943 20.3865 59.993 20.2653C60.043 20.144 60.1218 20.0368 60.2225 19.9527C60.4313 19.7787 60.6401 19.8135 60.6836 20.031C60.6889 20.166 60.6607 20.3003 60.6015 20.4217C60.5423 20.5432 60.4539 20.6481 60.3443 20.727H60.3878Z" fill="white" fill-opacity="0.49"/>
<path id="Vector_15" d="M55.6814 23.2848L56.2033 23.5806C56.2468 23.5806 56.2991 23.5806 56.36 23.5806C56.4246 23.5425 56.4784 23.4886 56.5166 23.424L57.0299 22.554C57.1082 22.4148 57.1082 22.2669 57.0299 22.2147C56.9516 22.1625 56.8211 22.2147 56.7341 22.3887L56.6036 22.6149V21.8493C56.6036 21.6927 56.4905 21.6231 56.36 21.7014C56.2877 21.75 56.2274 21.8144 56.1836 21.8898C56.1399 21.9652 56.1139 22.0495 56.1077 22.1364V22.902L55.9772 22.8237C55.8989 22.8237 55.7684 22.8237 55.6814 22.9977C55.5944 23.1717 55.6031 23.2326 55.6814 23.2848Z" fill="white" fill-opacity="0.49"/>
<path id="Vector_16" d="M58.9616 20.8227L58.4744 20.5356C58.4499 20.524 58.4232 20.5179 58.3961 20.5179C58.369 20.5179 58.3423 20.524 58.3178 20.5356C58.2542 20.5721 58.2028 20.6266 58.1699 20.6922L57.674 21.5622C57.5957 21.6927 57.5957 21.8406 57.674 21.8841C57.7523 21.9276 57.8828 21.8841 57.9524 21.7188L58.0829 21.5013V22.2408C58.0829 22.3887 58.1873 22.4496 58.3178 22.38C58.3881 22.3341 58.4467 22.2725 58.489 22.2C58.5313 22.1275 58.5561 22.0462 58.5614 21.9624V21.2316L58.6832 21.3012C58.7615 21.3447 58.8833 21.3012 58.9616 21.1446C59.0399 20.988 59.0399 20.8662 58.9616 20.8227Z" fill="white" fill-opacity="0.49"/>
<path id="Vector_17" d="M61.7105 28.3483L59.6398 29.5402V29.2966L61.7105 28.0959V28.3483Z" fill="#BBBBBB"/>
<path id="Vector_18" d="M61.7105 29.749L59.6398 30.9409V30.6886L61.7105 29.4967V29.749Z" fill="#BBBBBB"/>
<path id="Vector_19" d="M61.7105 31.3498L59.6398 32.5505V32.2982L61.7105 31.0975V31.3498Z" fill="#BBBBBB"/>
<path id="Vector_20" d="M61.7105 32.7506L59.6398 33.9425V33.6989L61.7105 32.4983V32.7506Z" fill="#BBBBBB"/>
<path id="Vector_21" d="M55.1419 32.2025L53.0713 33.3944V33.1508L55.1419 31.9589V32.2025Z" fill="#BBBBBB"/>
<path id="Vector_22" d="M55.1419 33.6031L53.0713 34.795V34.5514L55.1419 33.3508V33.6031Z" fill="#BBBBBB"/>
<path id="Vector_23" d="M55.1419 35.2041L53.0713 36.4047V36.1524L55.1419 34.9604V35.2041Z" fill="#BBBBBB"/>
<path id="Vector_24" d="M55.1419 36.6047L53.0713 37.7966V37.553L55.1419 36.3524V36.6047Z" fill="#BBBBBB"/>
<g id="Group_2">
<g id="Group_3">
<g id="Clip path group">
<mask id="mask0_578_889" style="mask-type:luminance" maskUnits="userSpaceOnUse" x="57" y="30" width="3" height="1">
<g id="clip-path-28">
<path id="Vector_25" d="M58.7607 30.2884L59.5437 30.7408C59.3263 30.64 59.0859 30.599 58.8474 30.6219C58.6088 30.6448 58.3807 30.7309 58.1865 30.8713L57.4122 30.4189C57.6051 30.2793 57.8317 30.1936 58.0687 30.1707C58.3057 30.1477 58.5446 30.1884 58.7607 30.2884Z" fill="white"/>
</g>
</mask>
<g mask="url(#mask0_578_889)">
<g id="Group_4">
<g id="Group_5">
<path id="Vector_26" d="M58.1865 30.8715L57.4122 30.4191C57.7406 30.2036 58.1393 30.1227 58.5258 30.1929L59.3001 30.6453C58.9136 30.576 58.5153 30.6569 58.1865 30.8715Z" fill="#CACACA"/>
<path id="Vector_27" d="M59.2997 30.645L58.5255 30.1926C58.6077 30.2139 58.6867 30.2461 58.7603 30.2883L59.5433 30.7407C59.4674 30.6967 59.3853 30.6645 59.2997 30.645Z" fill="#BBBBBB"/>
</g>
</g>
</g>
</g>
</g>
<g id="Group_6">
<g id="Clip path group_2">
<mask id="mask1_578_889" style="mask-type:luminance" maskUnits="userSpaceOnUse" x="55" y="30" width="4" height="6">
<g id="clip-path-29">
<path id="Vector_28" d="M56.8641 35.378L56.0897 34.9256C55.8989 34.7907 55.747 34.6078 55.6493 34.3956C55.5515 34.1833 55.5114 33.949 55.5329 33.7163C55.5664 33.055 55.7566 32.4111 56.0878 31.8378C56.4191 31.2645 56.882 30.7781 57.4383 30.4189L58.2126 30.8714C57.6586 31.2302 57.1978 31.7154 56.868 32.2872C56.5383 32.8589 56.3491 33.5008 56.3159 34.16C56.2919 34.3933 56.3299 34.6288 56.4262 34.8427C56.5224 35.0566 56.6735 35.2413 56.8641 35.378Z" fill="white"/>
</g>
</mask>
<g mask="url(#mask1_578_889)">
<g id="Group_7">
<path id="Vector_29" d="M56.864 35.3781L56.0897 34.9257C55.8989 34.7907 55.747 34.6079 55.6492 34.3956C55.5515 34.1833 55.5114 33.9491 55.5329 33.7163C55.5591 33.1043 55.7321 32.5075 56.0375 31.9763L56.8118 32.4287C56.5043 32.9584 56.3338 33.5565 56.3159 34.1687C56.2918 34.4021 56.3299 34.6376 56.4261 34.8515C56.5224 35.0654 56.6734 35.25 56.864 35.3868V35.3781Z" fill="#BBBBBB"/>
<path id="Vector_30" d="M56.786 32.3852L56.0117 31.9328C56.3359 31.3128 56.8194 30.7903 57.4124 30.4189L58.1867 30.8714C57.5937 31.2427 57.1102 31.7652 56.786 32.3852Z" fill="#BBBBBB"/>
</g>
</g>
</g>
</g>
<path id="Vector_31" d="M58.1864 30.8713C59.2304 30.271 60.0917 30.7495 60.1004 31.9675C60.0623 32.6253 59.8699 33.2649 59.5389 33.8347C59.208 34.4044 58.7476 34.8884 58.1951 35.2474C57.1424 35.8564 56.2898 35.3692 56.2898 34.1599C56.3229 33.5007 56.5121 32.8588 56.8419 32.2871C57.1716 31.7153 57.6324 31.2301 58.1864 30.8713Z" fill="#E0E0E0"/>
</g>
<g id="Group_8">
<path id="Vector_32" d="M51.0352 37.4747L51.8269 37.0049L52.5055 37.3964L51.7051 37.8575L51.0352 37.4747Z" fill="#413F46"/>
<path id="Vector_33" d="M52.4102 38.2664L53.2106 37.8053V38.336L52.4102 38.7971V38.2664Z" fill="#5E5B65"/>
<path id="Vector_34" d="M51.0703 25.7818L51.8707 25.3207L52.5493 25.7122L51.7489 26.1733L51.0703 25.7818Z" fill="#413F46"/>
<path id="Vector_35" d="M52.4536 27.1129L53.2454 26.6431L53.2106 37.8053L52.4102 38.2664L52.4536 27.1129Z" fill="#5E5B65"/>
<path id="Vector_36" d="M52.4532 26.5822L53.2537 26.1211L53.245 26.6431L52.4532 27.1129V26.5822Z" fill="#5E5B65"/>
<path id="Vector_37" d="M51.748 26.1733L52.5485 25.7122L53.2532 26.1211L52.4528 26.5822L51.748 26.1733Z" fill="#413F46"/>
<path id="Vector_38" d="M52.4533 26.5821V27.1129L52.4098 38.2664V38.7971L51.7051 38.3969L51.0352 38.0054V37.4747L51.7051 37.8575L51.7486 26.704L51.07 26.3124V25.7817L51.7486 26.1732L52.4533 26.5821Z" fill="#333137"/>
</g>
</g>
</svg>
