<svg width="47" height="66" viewBox="0 0 47 66" fill="none" xmlns="http://www.w3.org/2000/svg">
<g id="Group 8">
<path id="Vector" d="M21.5032 65.9885L0.118374 53.5647L0.0226591 17.1287L0.0139771 16.5545V15.3973L21.3988 27.8298V28.9086L21.4075 29.4828L21.5032 65.9885Z" fill="#C8D1E3" fill-opacity="0.5"/>
<path id="Vector_2" d="M20.2325 28.4911V65.2577L19.7366 64.9619V28.204L20.2325 28.4911Z" fill="#A0A7B5"/>
<path id="Vector_3" d="M21.3988 27.8298L0.013916 15.4061L25.0963 0.92041L46.4812 13.3442L21.3988 27.8298Z" fill="#EDEFF5" fill-opacity="0.28"/>
<path id="Vector_4" d="M1.58911 15.4061L25.0968 1.83398L44.907 13.3442L21.3993 26.9164L1.58911 15.4061Z" fill="#4D4E4E"/>
<path id="Vector_5" d="M46.5508 38.9834V51.529L25.0268 63.9527L22.408 65.4666L21.5032 65.9886L21.4249 38.3309V37.7654L21.3988 27.8299L46.4812 13.3529L46.5073 23.271L46.516 23.8452L46.5508 38.9834Z" fill="#DADFEA" fill-opacity="0.42"/>
<path id="Vector_6" d="M22.512 41.2977V59.8637L23.3646 59.3765L25.7919 57.9758L45.8109 46.4133V27.8473L22.512 41.2977Z" fill="#171717"/>
<path id="Vector_7" d="M24.0958 42.2111L44.2279 30.5791V42.6462L24.0958 54.2695V42.2111Z" fill="#252525"/>
<g id="Group">
<path id="Vector_8" d="M37.9808 11.2997C40.0862 12.6569 40.0166 14.7798 37.8155 16.1283C36.6091 16.7761 35.2584 17.1078 33.8892 17.0926C32.52 17.0774 31.177 16.7157 29.9854 16.0413C27.8712 14.6841 27.9496 12.5177 30.142 11.2127C31.3484 10.5602 32.7011 10.2258 34.0726 10.241C35.4441 10.2562 36.7891 10.6206 37.9808 11.2997Z" fill="#374246"/>
<path id="Vector_9" d="M37.9455 11.1692C40.0423 12.422 39.9726 14.4317 37.7889 15.6497C36.5837 16.2487 35.2538 16.5539 33.908 16.5403C32.5622 16.5267 31.2387 16.1947 30.0458 15.5714C27.9491 14.3099 28.0187 12.3002 30.2024 11.0909C31.4076 10.4918 32.7376 10.1867 34.0834 10.2003C35.4292 10.2139 36.7527 10.5459 37.9455 11.1692Z" fill="#56676E"/>
</g>
<g id="Group_2">
<path id="Vector_10" d="M26.0271 18.4424C27.7671 19.5647 27.7149 21.357 25.8878 22.4445C24.8931 22.9776 23.7797 23.2508 22.6512 23.2386C21.5226 23.2264 20.4154 22.9293 19.4324 22.3749C17.6923 21.2439 17.7446 19.4603 19.5629 18.3728C20.5592 17.8397 21.6739 17.5666 22.8039 17.5788C23.9338 17.5909 25.0424 17.888 26.0271 18.4424Z" fill="#374246"/>
<path id="Vector_11" d="M26.0006 18.2945C27.7406 19.3385 27.671 21.009 25.8701 22.0182C24.8697 22.5119 23.767 22.7628 22.6514 22.7507C21.5359 22.7387 20.4389 22.4638 19.4494 21.9486C17.7094 20.9045 17.779 19.2428 19.5886 18.2336C20.5863 17.7366 21.6874 17.483 22.8019 17.4936C23.9164 17.5042 25.0126 17.7787 26.0006 18.2945Z" fill="#56676E"/>
</g>
<g id="Group_3">
<path id="Vector_12" d="M26.5493 6.26237C27.7586 7.03668 27.7151 8.27209 26.4623 9.0203C25.7753 9.38701 25.007 9.57448 24.2284 9.56536C23.4497 9.55623 22.686 9.35081 22.0078 8.9681C20.8072 8.19379 20.8507 6.96707 22.1035 6.21886C22.7881 5.85081 23.5547 5.6618 24.332 5.66941C25.1092 5.67702 25.872 5.88099 26.5493 6.26237Z" fill="#374246"/>
<path id="Vector_13" d="M26.5316 6.19273C27.7322 6.90614 27.6888 8.05455 26.4446 8.75056C25.7565 9.09155 24.9976 9.26532 24.2296 9.25776C23.4616 9.2502 22.7063 9.06152 22.025 8.70706C20.8331 7.98495 20.8679 6.83653 22.1207 6.14922C22.8067 5.80626 23.5644 5.63134 24.3314 5.63891C25.0983 5.64647 25.8525 5.8363 26.5316 6.19273Z" fill="#56676E"/>
</g>
<g id="Group_4">
<path id="Vector_14" d="M16.5704 12.1174C18.6758 13.4747 18.6062 15.641 16.4138 16.946C15.2084 17.5959 13.858 17.9296 12.4886 17.9159C11.1193 17.9022 9.77581 17.5416 8.58369 16.8677C6.47826 15.5105 6.54784 13.3442 8.74897 12.0305C9.95422 11.3842 11.3034 11.0533 12.6709 11.0685C14.0384 11.0837 15.3798 11.4445 16.5704 12.1174Z" fill="#374246"/>
<path id="Vector_15" d="M16.5443 11.987C18.6323 13.2485 18.5627 15.2582 16.379 16.4763C15.1738 17.0753 13.8438 17.3804 12.498 17.3668C11.1522 17.3532 9.82877 17.0212 8.6359 16.3979C6.53918 15.1364 6.60877 13.1267 8.7925 11.9087C9.99925 11.3096 11.3306 11.0044 12.6778 11.018C14.025 11.0316 15.3499 11.3637 16.5443 11.987Z" fill="#56676E"/>
</g>
<path id="Vector_16" d="M32.7353 30.4224L23.4436 35.7904V28.9086L32.7353 23.5406V30.4224Z" fill="#C8D1E3" fill-opacity="0.5"/>
<path id="Vector_17" d="M32.3961 28.2126L23.8352 33.163V29.2131L32.3961 24.2715V28.2126Z" fill="#025074"/>
<path id="Vector_18" d="M30.4905 31.0837L32.3958 29.9788V28.6564L30.4905 29.7613V31.0837Z" fill="#EDEFF5" fill-opacity="0.28"/>
<path id="Vector_19" d="M30.2465 29.9005L28.2542 31.0489V32.3713L30.2465 31.2229V29.9005Z" fill="#EDEFF5" fill-opacity="0.28"/>
<path id="Vector_20" d="M26.0442 33.6502L28.0104 32.5192V31.1968L26.0442 32.3278V33.6502Z" fill="#EDEFF5" fill-opacity="0.28"/>
<path id="Vector_21" d="M25.7927 32.4757L23.8352 33.6067V34.9291L25.7927 33.7981V32.4757Z" fill="#EDEFF5" fill-opacity="0.28"/>
<path id="Vector_22" d="M25.0702 31.5621C24.5656 31.8492 24.2002 31.6143 24.2002 31.0314C24.2129 30.7182 24.2981 30.4122 24.4491 30.1374C24.6 29.8627 24.8126 29.6267 25.0702 29.448C25.5748 29.1609 25.9837 29.3958 25.9837 29.9787C25.9661 30.2958 25.8742 30.6042 25.7156 30.8792C25.5569 31.1543 25.3358 31.3882 25.0702 31.5621ZM25.0702 29.7264C24.8737 29.854 24.71 30.026 24.5921 30.2285C24.4742 30.431 24.4055 30.6583 24.3916 30.8922C24.3916 31.3272 24.6961 31.5012 25.0702 31.2837C25.2677 31.1571 25.4322 30.9854 25.5502 30.7827C25.6682 30.58 25.7362 30.3521 25.7488 30.1179C25.7488 29.6829 25.4443 29.5089 25.0702 29.7525V29.7264Z" fill="white" fill-opacity="0.49"/>
<path id="Vector_23" d="M25.2266 30.7183C25.224 30.7725 25.2084 30.8253 25.1811 30.8722C25.1539 30.9191 25.1158 30.9588 25.07 30.988C24.983 31.0315 24.9221 30.988 24.9221 30.901V30.292C24.9238 30.2385 24.938 30.1863 24.9638 30.1394C24.9895 30.0925 25.0259 30.0524 25.07 30.0223C25.157 29.9788 25.2266 30.0223 25.2266 30.118V30.7183Z" fill="white" fill-opacity="0.49"/>
<path id="Vector_24" d="M32.0656 26.3421L32.022 26.1333L31.7698 26.2812C31.7441 26.2309 31.7049 26.1887 31.6567 26.1594L31.7437 25.8375H31.5696C31.5556 25.8322 31.5402 25.8322 31.5262 25.8375L31.3521 26.142C31.2822 26.1547 31.2147 26.1782 31.152 26.2116L31.0476 26.0115L30.8388 26.1855C30.835 26.1937 30.833 26.2026 30.833 26.2116C30.833 26.2206 30.835 26.2296 30.8388 26.2377V26.5248C30.7789 26.5945 30.7264 26.6704 30.6822 26.751H30.4473C30.4333 26.7457 30.4178 26.7457 30.4038 26.751L30.2907 27.0294V27.0729L30.4647 27.1773C30.452 27.258 30.452 27.3402 30.4647 27.4209L30.2385 27.6732C30.2347 27.6814 30.2327 27.6903 30.2327 27.6993C30.2327 27.7084 30.2347 27.7173 30.2385 27.7254L30.2907 27.9342L30.5343 27.7863C30.5627 27.8347 30.6013 27.8763 30.6474 27.9081L30.5604 28.23H30.7344L30.9084 27.9255C30.9787 27.9142 31.0464 27.8907 31.1085 27.8559L31.2129 28.056L31.4218 27.882C31.4256 27.8739 31.4276 27.865 31.4276 27.8559C31.4276 27.8469 31.4256 27.838 31.4218 27.8298V27.5427C31.4817 27.471 31.5369 27.3954 31.587 27.3165H31.822L31.9351 27.0381L31.7611 26.9337C31.7653 26.8526 31.7653 26.7713 31.7611 26.6901L31.9786 26.4378C31.9912 26.4494 32.008 26.4554 32.0251 26.4546C32.0423 26.4537 32.0584 26.4462 32.0699 26.4335C32.0815 26.4208 32.0875 26.404 32.0866 26.3869C32.0858 26.3698 32.0783 26.3537 32.0656 26.3421ZM31.152 27.4383C30.9432 27.6123 30.7344 27.5775 30.6909 27.36C30.6777 27.226 30.6977 27.0907 30.7493 26.9662C30.8009 26.8417 30.8825 26.732 30.9868 26.6466C31.1956 26.4726 31.4043 26.5074 31.4565 26.7249C31.4644 26.8593 31.441 26.9936 31.3882 27.1174C31.3354 27.2412 31.2545 27.3511 31.152 27.4383Z" fill="white" fill-opacity="0.49"/>
<path id="Vector_25" d="M26.3836 30.0397L26.9056 30.3442C26.93 30.3606 26.9588 30.3694 26.9882 30.3694C27.0177 30.3694 27.0465 30.3606 27.0709 30.3442C27.1374 30.3085 27.1918 30.2541 27.2275 30.1876L27.7582 29.2741C27.8365 29.1349 27.8365 28.9782 27.7582 28.926C27.6799 28.8738 27.5407 28.9261 27.4537 29.1001L27.3232 29.335V28.552C27.3283 28.5207 27.3239 28.4886 27.3105 28.4599C27.297 28.4312 27.2752 28.4073 27.2479 28.3913C27.2205 28.3752 27.189 28.3679 27.1574 28.3702C27.1258 28.3724 27.0956 28.3843 27.0709 28.4041C26.9975 28.4535 26.9365 28.5194 26.8927 28.5963C26.8489 28.6733 26.8236 28.7594 26.8186 28.8478V29.6221L26.6881 29.5438C26.6011 29.5003 26.4706 29.5438 26.3836 29.7178C26.2966 29.8918 26.3053 29.9962 26.3836 30.0397Z" fill="white" fill-opacity="0.49"/>
<path id="Vector_26" d="M29.7252 27.5341L29.2206 27.247C29.1985 27.2331 29.1728 27.2257 29.1467 27.2257C29.1205 27.2257 29.0949 27.2331 29.0727 27.247C29.0084 27.2854 28.9546 27.3392 28.9161 27.4036L28.4115 28.2736C28.3332 28.4041 28.3332 28.552 28.4115 28.6042C28.4898 28.6564 28.6203 28.6042 28.6986 28.4389L28.8291 28.2127V28.9609C28.8291 29.1175 28.9335 29.1784 29.0727 29.1001C29.143 29.0542 29.2016 28.9926 29.2439 28.9201C29.2862 28.8476 29.311 28.7663 29.3163 28.6825V27.9343L29.4381 28.0039C29.5164 28.0561 29.6469 28.0039 29.7252 27.8386C29.8035 27.6733 29.8035 27.5863 29.7252 27.5341Z" fill="white" fill-opacity="0.49"/>
<g id="Group_5">
<g id="Group_6">
<g id="Clip path group">
<mask id="mask0_578_1040" style="mask-type:luminance" maskUnits="userSpaceOnUse" x="35" y="21" width="2" height="2">
<g id="clip-path-32">
<path id="Vector_27" d="M36.4495 21.8442L36.9367 22.1226C36.7969 22.059 36.6428 22.0336 36.49 22.0489C36.3372 22.0641 36.1912 22.1196 36.0667 22.2096L35.5882 21.9312C35.7117 21.8428 35.8562 21.7882 36.0073 21.773C36.1584 21.7577 36.3109 21.7823 36.4495 21.8442Z" fill="white"/>
</g>
</mask>
<g mask="url(#mask0_578_1040)">
<g id="Group_7">
<g id="Group_8">
<path id="Vector_28" d="M36.0931 22.2096L35.6146 21.9311C35.8173 21.798 36.0624 21.7453 36.3019 21.7832L36.7891 22.0617C36.5468 22.0232 36.2988 22.0759 36.0931 22.2096Z" fill="#CACACA"/>
<path id="Vector_29" d="M36.7891 22.0616L36.3019 21.7832L36.4498 21.8441L36.937 22.1225L36.7891 22.0616Z" fill="#BBBBBB"/>
</g>
</g>
</g>
</g>
</g>
<g id="Group_9">
<g id="Clip path group_2">
<mask id="mask1_578_1040" style="mask-type:luminance" maskUnits="userSpaceOnUse" x="34" y="21" width="3" height="4">
<g id="clip-path-33">
<path id="Vector_30" d="M35.2667 24.9936L34.7795 24.7152C34.6644 24.6273 34.5731 24.5119 34.5139 24.3798C34.4546 24.2476 34.4293 24.1027 34.4402 23.9583C34.4645 23.5522 34.5833 23.1575 34.7873 22.8055C34.9912 22.4536 35.2745 22.1541 35.6147 21.9312L36.0933 22.2096C35.7531 22.4326 35.4697 22.732 35.2658 23.0839C35.0619 23.4359 34.943 23.8306 34.9187 24.2367C34.9027 24.3826 34.9266 24.53 34.9879 24.6634C35.0492 24.7967 35.1455 24.9108 35.2667 24.9936Z" fill="white"/>
</g>
</mask>
<g mask="url(#mask1_578_1040)">
<g id="Group_10">
<path id="Vector_31" d="M35.2667 24.9936L34.7795 24.7152C34.6644 24.6272 34.5731 24.5119 34.5138 24.3798C34.4546 24.2476 34.4292 24.1027 34.4402 23.9583C34.4533 23.5727 34.5609 23.1963 34.7534 22.8621L35.2319 23.1405C35.0416 23.4757 34.9342 23.8515 34.9187 24.2367C34.9026 24.3825 34.9265 24.53 34.9878 24.6634C35.0491 24.7967 35.1455 24.9108 35.2667 24.9936Z" fill="#BBBBBB"/>
<path id="Vector_32" d="M35.2319 23.1405L34.7534 22.8621C34.9524 22.4778 35.2534 22.1557 35.6234 21.9312L36.1019 22.2096C35.7339 22.4365 35.4334 22.758 35.2319 23.1405Z" fill="#BBBBBB"/>
</g>
</g>
</g>
</g>
<path id="Vector_33" d="M36.0928 22.2096C36.7453 21.8355 37.276 22.1313 37.276 22.8795C37.2517 23.2856 37.1329 23.6803 36.929 24.0323C36.7251 24.3842 36.4417 24.6837 36.1015 24.9067C35.449 25.2895 34.927 24.985 34.9183 24.2368C34.9425 23.8307 35.0614 23.436 35.2653 23.084C35.4692 22.732 35.7526 22.4326 36.0928 22.2096Z" fill="#EDEFF5" fill-opacity="0.28"/>
</g>
<g id="Group_11">
<g id="Group_12">
<g id="Clip path group_3">
<mask id="mask2_578_1040" style="mask-type:luminance" maskUnits="userSpaceOnUse" x="43" y="17" width="3" height="1">
<g id="clip-path-34">
<path id="Vector_34" d="M44.672 17.1635L45.1505 17.4419C45.0129 17.3714 44.8582 17.3413 44.7042 17.3552C44.5502 17.369 44.4033 17.4263 44.2805 17.5202L43.802 17.2418C43.9248 17.1479 44.0717 17.0906 44.2257 17.0768C44.3797 17.0629 44.5344 17.093 44.672 17.1635Z" fill="white"/>
</g>
</mask>
<g mask="url(#mask2_578_1040)">
<g id="Group_13">
<g id="Group_14">
<path id="Vector_35" d="M44.3069 17.5202L43.8284 17.2418C44.0302 17.1067 44.2772 17.0567 44.5157 17.1026L45.0029 17.381C44.7616 17.3346 44.5118 17.3846 44.3069 17.5202Z" fill="#CACACA"/>
<path id="Vector_36" d="M45.0029 17.3809L44.5157 17.1025C44.571 17.1136 44.624 17.1342 44.6723 17.1634L45.1508 17.4418C45.1049 17.4142 45.055 17.3936 45.0029 17.3809Z" fill="#BBBBBB"/>
</g>
</g>
</g>
</g>
</g>
<g id="Group_15">
<g id="Clip path group_4">
<mask id="mask3_578_1040" style="mask-type:luminance" maskUnits="userSpaceOnUse" x="42" y="17" width="3" height="4">
<g id="clip-path-35">
<path id="Vector_37" d="M43.4797 20.3043L43.0012 20.0259C42.8807 19.9445 42.7847 19.8319 42.7234 19.7001C42.6621 19.5682 42.6378 19.4222 42.6532 19.2777C42.6761 18.8701 42.7944 18.4736 42.9983 18.12C43.2023 17.7665 43.4864 17.4657 43.8277 17.2418L44.3062 17.5202C43.9649 17.7441 43.6808 18.0449 43.4768 18.3985C43.2729 18.752 43.1547 19.1485 43.1317 19.5561C43.1163 19.7006 43.1405 19.8466 43.2019 19.9785C43.2632 20.1103 43.3592 20.2229 43.4797 20.3043Z" fill="white"/>
</g>
</mask>
<g mask="url(#mask3_578_1040)">
<g id="Group_16">
<path id="Vector_38" d="M43.4797 20.3043L43.0012 20.0259C42.8807 19.9445 42.7847 19.8319 42.7234 19.7001C42.6621 19.5682 42.6378 19.4222 42.6532 19.2776C42.6674 18.8895 42.7748 18.5105 42.9664 18.1727L43.4449 18.4511C43.2533 18.7889 43.1459 19.1679 43.1317 19.556C43.1163 19.7006 43.1405 19.8466 43.2019 19.9785C43.2632 20.1103 43.3592 20.2229 43.4797 20.3043Z" fill="#BBBBBB"/>
<path id="Vector_39" d="M43.4446 18.4425L42.9661 18.1641C43.17 17.7833 43.4699 17.4624 43.8361 17.2332L44.3146 17.5116C43.9484 17.7408 43.6485 18.0617 43.4446 18.4425Z" fill="#BBBBBB"/>
</g>
</g>
</g>
</g>
<path id="Vector_40" d="M44.3066 17.5202C44.9591 17.1461 45.4898 17.4419 45.4898 18.1901C45.4669 18.5976 45.3487 18.9941 45.1447 19.3477C44.9407 19.7012 44.6566 20.002 44.3153 20.2259C43.6628 20.6 43.1408 20.2955 43.1321 19.556C43.155 19.1485 43.2732 18.752 43.4772 18.3984C43.6812 18.0448 43.9653 17.744 44.3066 17.5202Z" fill="#EDEFF5" fill-opacity="0.28"/>
</g>
<g id="Group_17">
<g id="Group_18">
<g id="Clip path group_5">
<mask id="mask4_578_1040" style="mask-type:luminance" maskUnits="userSpaceOnUse" x="35" y="25" width="2" height="2">
<g id="clip-path-36">
<path id="Vector_41" d="M36.4495 25.7419L36.9367 26.0203C36.7977 25.9555 36.644 25.9286 36.4912 25.9423C36.3384 25.9561 36.192 26.01 36.0667 26.0986L35.5882 25.8202C35.7125 25.7332 35.8574 25.6802 36.0084 25.6664C36.1595 25.6527 36.3116 25.6787 36.4495 25.7419Z" fill="white"/>
</g>
</mask>
<g mask="url(#mask4_578_1040)">
<g id="Group_19">
<g id="Group_20">
<path id="Vector_42" d="M36.0931 26.0985L35.6146 25.8201C35.8164 25.685 36.0634 25.635 36.3019 25.6809L36.7891 25.9593C36.5478 25.9174 36.2997 25.9671 36.0931 26.0985Z" fill="#CACACA"/>
<path id="Vector_43" d="M36.7891 25.9593L36.3019 25.6809L36.4498 25.7418L36.937 26.0202L36.7891 25.9593Z" fill="#BBBBBB"/>
</g>
</g>
</g>
</g>
</g>
<g id="Group_21">
<g id="Clip path group_6">
<mask id="mask5_578_1040" style="mask-type:luminance" maskUnits="userSpaceOnUse" x="34" y="25" width="3" height="4">
<g id="clip-path-37">
<path id="Vector_44" d="M35.2667 28.8827L34.7795 28.6043C34.6644 28.5163 34.5731 28.401 34.5139 28.2688C34.4546 28.1367 34.4293 27.9918 34.4402 27.8473C34.4632 27.4398 34.5814 27.0433 34.7854 26.6898C34.9894 26.3362 35.2734 26.0354 35.6147 25.8115L36.0933 26.0899C35.7519 26.3138 35.4679 26.6146 35.2639 26.9681C35.0599 27.3217 34.9417 27.7182 34.9187 28.1258C34.9027 28.2716 34.9266 28.4191 34.9879 28.5524C35.0492 28.6858 35.1455 28.7999 35.2667 28.8827Z" fill="white"/>
</g>
</mask>
<g mask="url(#mask5_578_1040)">
<g id="Group_22">
<path id="Vector_45" d="M35.2666 28.8826L34.7794 28.6042C34.6643 28.5163 34.573 28.401 34.5138 28.2688C34.4545 28.1366 34.4292 27.9917 34.4401 27.8473C34.4533 27.4618 34.5608 27.0854 34.7533 26.7511L35.2318 27.0295C35.0393 27.3638 34.9318 27.7402 34.9186 28.1257C34.9025 28.2716 34.9264 28.4191 34.9877 28.5524C35.049 28.6857 35.1454 28.7999 35.2666 28.8826Z" fill="#BBBBBB"/>
<path id="Vector_46" d="M35.2318 27.0382L34.7533 26.7598C34.9547 26.3749 35.255 26.0505 35.6233 25.8202L36.1018 26.0986C35.7353 26.3312 35.4355 26.6549 35.2318 27.0382Z" fill="#BBBBBB"/>
</g>
</g>
</g>
</g>
<path id="Vector_47" d="M36.0928 26.0986C36.7453 25.7245 37.276 26.029 37.276 26.7772C37.2517 27.1832 37.1329 27.578 36.929 27.9299C36.7251 28.2819 36.4417 28.5813 36.1015 28.8043C35.449 29.1784 34.927 28.8826 34.9183 28.1344C34.9412 27.7269 35.0594 27.3304 35.2634 26.9768C35.4674 26.6232 35.7515 26.3224 36.0928 26.0986Z" fill="#EDEFF5" fill-opacity="0.28"/>
</g>
<g id="Group_23">
<g id="Group_24">
<g id="Clip path group_7">
<mask id="mask6_578_1040" style="mask-type:luminance" maskUnits="userSpaceOnUse" x="43" y="20" width="3" height="2">
<g id="clip-path-38">
<path id="Vector_48" d="M44.672 21.0524L45.1505 21.3395C45.0129 21.269 44.8582 21.2389 44.7042 21.2528C44.5502 21.2666 44.4033 21.3239 44.2805 21.4178L43.802 21.1394C43.9264 21.0494 44.0725 20.994 44.2253 20.9787C44.3781 20.9634 44.5322 20.9888 44.672 21.0524Z" fill="white"/>
</g>
</mask>
<g mask="url(#mask6_578_1040)">
<g id="Group_25">
<g id="Group_26">
<path id="Vector_49" d="M44.3069 21.4178L43.8284 21.1394C44.0302 21.0043 44.2772 20.9542 44.5157 21.0002L45.0029 21.2785C44.7616 21.2322 44.5118 21.2821 44.3069 21.4178Z" fill="#CACACA"/>
<path id="Vector_50" d="M45.0029 21.2785L44.5157 21.0001C44.5705 21.0083 44.6235 21.026 44.6723 21.0523L45.1508 21.3394C45.1067 21.3082 45.0562 21.2874 45.0029 21.2785Z" fill="#BBBBBB"/>
</g>
</g>
</g>
</g>
</g>
<g id="Group_27">
<g id="Clip path group_8">
<mask id="mask7_578_1040" style="mask-type:luminance" maskUnits="userSpaceOnUse" x="42" y="21" width="3" height="4">
<g id="clip-path-39">
<path id="Vector_51" d="M43.4797 24.2018L43.0012 23.9234C42.8807 23.8421 42.7847 23.7295 42.7234 23.5976C42.6621 23.4658 42.6378 23.3198 42.6532 23.1752C42.6761 22.7677 42.7944 22.3712 42.9983 22.0176C43.2023 21.6641 43.4864 21.3633 43.8277 21.1394L44.3062 21.4178C43.9649 21.6417 43.6808 21.9425 43.4768 22.296C43.2729 22.6496 43.1547 23.0461 43.1317 23.4536C43.1163 23.5982 43.1405 23.7442 43.2019 23.876C43.2632 24.0078 43.3592 24.1205 43.4797 24.2018Z" fill="white"/>
</g>
</mask>
<g mask="url(#mask7_578_1040)">
<g id="Group_28">
<path id="Vector_52" d="M43.4797 24.2018L43.0012 23.9234C42.8807 23.8421 42.7847 23.7295 42.7234 23.5976C42.6621 23.4658 42.6378 23.3198 42.6532 23.1752C42.6674 22.7871 42.7748 22.4081 42.9664 22.0703L43.4449 22.3487C43.2533 22.6865 43.1459 23.0655 43.1317 23.4536C43.1163 23.5982 43.1405 23.7442 43.2019 23.876C43.2632 24.0079 43.3592 24.1205 43.4797 24.2018Z" fill="#BBBBBB"/>
<path id="Vector_53" d="M43.4446 22.3487L42.9661 22.0703C43.17 21.6895 43.4699 21.3686 43.8361 21.1394L44.3146 21.4178C43.9484 21.647 43.6485 21.9679 43.4446 22.3487Z" fill="#BBBBBB"/>
</g>
</g>
</g>
</g>
<path id="Vector_54" d="M44.3066 21.4178C44.9591 21.0437 45.4898 21.3395 45.4898 22.0877C45.4669 22.4952 45.3487 22.8917 45.1447 23.2453C44.9407 23.5988 44.6566 23.8996 44.3153 24.1235C43.6628 24.4976 43.1408 24.1931 43.1321 23.4536C43.155 23.046 43.2732 22.6496 43.4772 22.296C43.6812 21.9424 43.9653 21.6416 44.3066 21.4178Z" fill="#EDEFF5" fill-opacity="0.28"/>
</g>
<g id="Group_29">
<g id="Group_30">
<g id="Clip path group_9">
<mask id="mask8_578_1040" style="mask-type:luminance" maskUnits="userSpaceOnUse" x="39" y="20" width="3" height="2">
<g id="clip-path-40">
<path id="Vector_55" d="M40.87 20.9915L41.5486 21.383C41.3584 21.2962 41.1485 21.2616 40.9405 21.2831C40.7325 21.3045 40.534 21.381 40.3654 21.5048L39.6868 21.1046C39.8569 20.9839 40.0557 20.9099 40.2633 20.8901C40.471 20.8702 40.6802 20.9052 40.87 20.9915Z" fill="white"/>
</g>
</mask>
<g mask="url(#mask8_578_1040)">
<g id="Group_31">
<g id="Group_32">
<path id="Vector_56" d="M40.3655 21.5047L39.6869 21.1045C39.9733 20.9135 40.3228 20.8418 40.6613 20.9044L41.3399 21.3046C41.0014 21.242 40.6519 21.3138 40.3655 21.5047Z" fill="#CACACA"/>
<path id="Vector_57" d="M41.34 21.3047L40.6614 20.9045C40.7349 20.9229 40.8053 20.9522 40.8702 20.9915L41.5488 21.383C41.4835 21.3465 41.4131 21.3201 41.34 21.3047Z" fill="#BBBBBB"/>
</g>
</g>
</g>
</g>
</g>
<g id="Group_33">
<g id="Clip path group_10">
<mask id="mask9_578_1040" style="mask-type:luminance" maskUnits="userSpaceOnUse" x="38" y="21" width="3" height="5">
<g id="clip-path-41">
<path id="Vector_58" d="M39.1822 25.4547L38.5036 25.0545C38.3375 24.9348 38.2053 24.7741 38.1199 24.5881C38.0345 24.402 37.9988 24.197 38.0164 23.9931C38.0476 23.414 38.2151 22.8506 38.5054 22.3486C38.7957 21.8467 39.2005 21.4204 39.6868 21.1046L40.3654 21.5048C39.8794 21.8182 39.4752 22.2429 39.1862 22.7437C38.8972 23.2445 38.7318 23.807 38.7037 24.3846C38.6827 24.5892 38.7159 24.7958 38.7999 24.9836C38.8839 25.1714 39.0157 25.3338 39.1822 25.4547Z" fill="white"/>
</g>
</mask>
<g mask="url(#mask9_578_1040)">
<g id="Group_34">
<path id="Vector_59" d="M39.1823 25.4546L38.5037 25.0544C38.3376 24.9348 38.2054 24.7741 38.12 24.588C38.0346 24.402 37.999 24.197 38.0165 23.993C38.033 23.4424 38.1855 22.9044 38.4602 22.427L39.1388 22.8272C38.8658 23.3017 38.7162 23.8372 38.7038 24.3845C38.6829 24.5892 38.716 24.7957 38.8 24.9835C38.884 25.1714 39.0158 25.3338 39.1823 25.4546Z" fill="#BBBBBB"/>
<path id="Vector_60" d="M39.1388 22.7924L38.4602 22.3922C38.7481 21.8529 39.1707 21.3973 39.6869 21.0698L40.3655 21.47C39.8454 21.7927 39.4216 22.2495 39.1388 22.7924Z" fill="#BBBBBB"/>
</g>
</g>
</g>
</g>
<path id="Vector_61" d="M40.3651 21.5048C41.2786 20.9741 42.0355 21.3917 42.0355 22.4531C42.0074 23.0307 41.842 23.5932 41.553 24.094C41.264 24.5948 40.8597 25.0195 40.3738 25.3329C39.4516 25.8636 38.7034 25.4373 38.7034 24.3846C38.7315 23.807 38.8969 23.2445 39.1858 22.7437C39.4748 22.2428 39.8791 21.8181 40.3651 21.5048Z" fill="#EDEFF5" fill-opacity="0.28"/>
</g>
<g id="Group_35">
<path id="Vector_62" d="M44.6368 26.5858V27.8734L42.8271 28.9261L42.8359 27.6385L44.6368 26.5858Z" fill="#CFD3DE"/>
<path id="Vector_63" d="M42.8359 27.6385L42.8272 28.9261L41.8528 28.3606V27.073L42.8359 27.6385Z" fill="#85888F"/>
<path id="Vector_64" d="M44.6368 26.5858L42.8359 27.6385L41.8528 27.073L43.6624 26.0203L44.6368 26.5858Z" fill="#E5E7ED"/>
</g>
<g id="Group_36">
<path id="Vector_65" d="M26.3575 37.2173L26.3488 38.5049L24.5392 39.5489L24.5479 38.2613L26.3575 37.2173Z" fill="#CFD3DE"/>
<path id="Vector_66" d="M25.8094 38.9921L25.8007 40.2797L24.5392 39.5489L24.5479 38.2612L25.8094 38.9921Z" fill="#85888F"/>
<path id="Vector_67" d="M25.8094 38.9921L25.8007 40.2797L23.5648 38.9834L23.5735 37.7045L25.8094 38.9921Z" fill="#ABB2C2"/>
<path id="Vector_68" d="M45.8979 27.3165L25.8094 38.9921L24.5479 38.2612L26.3575 37.2172L42.8355 27.6384L44.6364 26.5857L45.8979 27.3165Z" fill="#E5E7ED"/>
<path id="Vector_69" d="M45.8983 27.3165V28.6041L25.801 40.2797L25.8097 38.9921L45.8983 27.3165Z" fill="#C8D1E3" fill-opacity="0.5"/>
<path id="Vector_70" d="M26.3575 37.2172L24.5479 38.2612L25.8094 38.9921L23.5735 37.7044L25.3744 36.6517L26.3575 37.2172Z" fill="#E5E7ED"/>
</g>
<path id="Vector_71" d="M46.516 23.8452L24.3308 36.6518L21.5119 38.2787L21.4249 38.3309V37.7654L46.5074 23.271L46.516 23.8452Z" fill="#B7BFCF"/>
<path id="Vector_72" d="M46.516 14.9885L24.3308 27.7951L21.5119 29.422L21.4249 29.4829V28.9087L46.5074 14.4143L46.516 14.9885Z" fill="#B7BFCF"/>
<path id="Vector_73" d="M21.4249 28.9261V29.4916L21.4075 29.4829L21.3379 29.4394L18.5191 27.8125L0.0226591 17.1288L0.0139771 16.5546L21.3988 28.9087L21.4249 28.9261Z" fill="#A0A7B5"/>
<path id="Vector_74" d="M21.4244 37.7653V38.3308L20.2325 37.6348L19.7366 37.3651V36.7822L20.2325 37.0693L21.4244 37.7653Z" fill="#A0A7B5"/>
</g>
</svg>
