<svg width="27" height="26" viewBox="0 0 27 26" fill="none" xmlns="http://www.w3.org/2000/svg">
<g id="Group">
<path id="Vector" d="M13.5743 18.3334C14.9888 18.3334 16.3454 17.7715 17.3456 16.7713C18.3458 15.7711 18.9077 14.4146 18.9077 13.0001C18.9077 11.5856 18.3458 10.229 17.3456 9.22885C16.3454 8.22865 14.9888 7.66675 13.5743 7.66675C12.1598 7.66675 10.8033 8.22865 9.80309 9.22885C8.8029 10.229 8.241 11.5856 8.241 13.0001C8.241 14.4146 8.8029 15.7711 9.80309 16.7713C10.8033 17.7715 12.1598 18.3334 13.5743 18.3334Z" stroke="#FAFAFA" stroke-width="1.5" stroke-linecap="round" stroke-linejoin="round"/>
<path id="Vector_2" d="M1.57434 18.3333V7.66667C1.57434 5.89856 2.27672 4.20286 3.52696 2.95262C4.7772 1.70238 6.4729 1 8.24101 1H18.9077C20.6758 1 22.3715 1.70238 23.6217 2.95262C24.872 4.20286 25.5743 5.89856 25.5743 7.66667V18.3333C25.5743 20.1014 24.872 21.7971 23.6217 23.0474C22.3715 24.2976 20.6758 25 18.9077 25H8.24101C6.4729 25 4.7772 24.2976 3.52696 23.0474C2.27672 21.7971 1.57434 20.1014 1.57434 18.3333Z" stroke="#FAFAFA" stroke-width="1.5"/>
<path id="Vector_3" d="M20.9077 5.67995L20.921 5.66528" stroke="#FAFAFA" stroke-width="1.5" stroke-linecap="round" stroke-linejoin="round"/>
</g>
</svg>
