<svg width="33" height="34" viewBox="0 0 33 34" fill="none" xmlns="http://www.w3.org/2000/svg">
<g id="Group 27">
<circle id="Ellipse 14" cx="16.5" cy="17.011" r="16.5" fill="white" fill-opacity="0.24"/>
<g id="Group 32">
<path id="Vector" d="M16.2857 18.7211C15.7206 18.7211 15.1682 18.5536 14.6984 18.2396C14.2285 17.9257 13.8623 17.4794 13.6461 16.9574C13.4298 16.4353 13.3732 15.8608 13.4835 15.3066C13.5937 14.7523 13.8658 14.2433 14.2654 13.8437C14.665 13.4441 15.1741 13.172 15.7283 13.0617C16.2826 12.9515 16.857 13.0081 17.3791 13.2243C17.9012 13.4406 18.3474 13.8068 18.6614 14.2766C18.9753 14.7465 19.1429 15.2989 19.1429 15.864C19.142 16.6215 18.8407 17.3477 18.305 17.8833C17.7694 18.4189 17.0432 18.7202 16.2857 18.7211ZM16.2857 14.1497C15.9467 14.1497 15.6152 14.2502 15.3333 14.4386C15.0514 14.627 14.8317 14.8947 14.7019 15.208C14.5722 15.5212 14.5382 15.8659 14.6044 16.1984C14.6705 16.531 14.8338 16.8364 15.0735 17.0762C15.3133 17.3159 15.6188 17.4792 15.9513 17.5453C16.2838 17.6115 16.6285 17.5775 16.9418 17.4478C17.255 17.318 17.5227 17.0983 17.7111 16.8164C17.8995 16.5345 18 16.203 18 15.864C17.9996 15.4095 17.8188 14.9737 17.4974 14.6523C17.176 14.3309 16.7403 14.1501 16.2857 14.1497Z" fill="white"/>
<path id="Vector_2" d="M16.2857 25.5784L11.4651 19.8932C11.3982 19.8079 11.3319 19.722 11.2663 19.6355C10.4429 18.5508 9.99801 17.2259 10 15.8641C10 14.197 10.6622 12.5982 11.841 11.4194C13.0199 10.2406 14.6186 9.57837 16.2857 9.57837C17.9528 9.57837 19.5516 10.2406 20.7304 11.4194C21.9092 12.5982 22.5714 14.197 22.5714 15.8641C22.5734 17.2253 22.1288 18.5496 21.3057 19.6338L21.3052 19.6355C21.3052 19.6355 21.1337 19.8607 21.108 19.8909L16.2857 25.5784ZM12.1783 18.9469C12.1794 18.9469 12.312 19.1229 12.3423 19.1607L16.2857 23.8115L20.2343 19.1544C20.2594 19.1229 20.3931 18.9458 20.3937 18.9452C21.0664 18.059 21.4299 16.9767 21.4286 15.8641C21.4286 14.5001 20.8867 13.192 19.9223 12.2275C18.9578 11.2631 17.6497 10.7212 16.2857 10.7212C14.9218 10.7212 13.6136 11.2631 12.6492 12.2275C11.6847 13.192 11.1429 14.5001 11.1429 15.8641C11.1417 16.9774 11.505 18.0603 12.1783 18.9469Z" fill="white"/>
</g>
</g>
</svg>
