<svg width="81" height="80" viewBox="0 0 81 80" fill="none" xmlns="http://www.w3.org/2000/svg">
<g id="Frame 17">
<rect x="0.56012" width="80" height="80" rx="40" fill="white" fill-opacity="0.12"/>
<path id="Vector" d="M58.9505 32.4624C59.6146 32.8313 60.2196 33.2814 60.7656 33.8127C61.3116 34.3439 61.7691 34.9342 62.138 35.5835C62.5069 36.2328 62.8021 36.919 63.0234 37.6421C63.2448 38.3652 63.3481 39.1178 63.3333 39.8999H60.5C60.5 39.1325 60.3524 38.4021 60.0573 37.7085C59.7621 37.0149 59.3563 36.4173 58.8398 35.9155C58.3233 35.4138 57.7183 35.008 57.0247 34.6981C56.3312 34.3882 55.6007 34.2332 54.8333 34.2332C54.0512 34.2332 53.3207 34.3808 52.6419 34.6759C51.9631 34.9711 51.3655 35.3769 50.849 35.8934C50.3325 36.4099 49.9266 37.0149 49.6315 37.7085C49.3364 38.4021 49.1814 39.1325 49.1667 39.8999C49.1667 41.2428 48.8641 42.5193 48.2591 43.7293C47.6541 44.9394 46.8056 45.9429 45.7135 46.7397C46.6727 47.2267 47.536 47.8244 48.3034 48.5327C49.0707 49.241 49.7348 50.0379 50.2956 50.9233C50.8563 51.8088 51.2769 52.7532 51.5573 53.7567C51.8377 54.7601 51.9852 55.8079 52 56.8999H49.1667C49.1667 55.7341 48.9453 54.6347 48.5026 53.6017C48.0599 52.5687 47.4475 51.6686 46.6654 50.9012C45.8832 50.1338 44.9831 49.5288 43.9648 49.0861C42.9466 48.6434 41.8472 48.4147 40.6667 48.3999C39.5009 48.3999 38.4015 48.6213 37.3685 49.064C36.3355 49.5067 35.4353 50.1191 34.668 50.9012C33.9006 51.6833 33.2956 52.5835 32.8529 53.6017C32.4102 54.62 32.1814 55.7193 32.1667 56.8999H29.3333C29.3333 55.8226 29.4809 54.7823 29.776 53.7788C30.0712 52.7753 30.4918 51.8309 31.0378 50.9455C31.5838 50.0601 32.2405 49.2632 33.0078 48.5548C33.7752 47.8465 34.6458 47.2415 35.6198 46.7397C34.5425 45.9429 33.7014 44.9394 33.0964 43.7293C32.4913 42.5193 32.1814 41.2428 32.1667 39.8999C32.1667 39.1325 32.0191 38.4021 31.724 37.7085C31.4288 37.0149 31.023 36.4173 30.5065 35.9155C29.99 35.4138 29.385 35.008 28.6914 34.6981C27.9978 34.3882 27.2674 34.2332 26.5 34.2332C25.7179 34.2332 24.9874 34.3808 24.3086 34.6759C23.6298 34.9711 23.0321 35.3769 22.5156 35.8934C21.9991 36.4099 21.5933 37.0149 21.2982 37.7085C21.003 38.4021 20.8481 39.1325 20.8333 39.8999H18C18 39.1325 18.1033 38.3873 18.3099 37.6642C18.5165 36.9411 18.8043 36.2549 19.1732 35.6056C19.5421 34.9563 20.0069 34.366 20.5677 33.8348C21.1285 33.3035 21.7335 32.8461 22.3828 32.4624C21.8958 31.9459 21.5195 31.3483 21.2539 30.6694C20.9883 29.9906 20.8481 29.2897 20.8333 28.5666C20.8333 27.7992 20.9809 27.0687 21.276 26.3752C21.5712 25.6816 21.977 25.0839 22.4935 24.5822C23.01 24.0805 23.6076 23.6746 24.2865 23.3647C24.9653 23.0549 25.7031 22.8999 26.5 22.8999C27.2674 22.8999 27.9978 23.0475 28.6914 23.3426C29.385 23.6377 29.9826 24.0436 30.4844 24.5601C30.9861 25.0766 31.3919 25.6816 31.7018 26.3752C32.0117 27.0687 32.1667 27.7992 32.1667 28.5666C32.1667 29.2897 32.0339 29.9906 31.7682 30.6694C31.5026 31.3483 31.1189 31.9459 30.6172 32.4624C31.8273 33.1265 32.816 34.0414 33.5833 35.2072C34.3802 34.0266 35.3984 33.097 36.638 32.4181C37.8776 31.7393 39.2205 31.3999 40.6667 31.3999C42.0981 31.3999 43.4336 31.7393 44.6732 32.4181C45.9128 33.097 46.9384 34.0266 47.75 35.2072C48.5174 34.0414 49.5061 33.1265 50.7161 32.4624C50.2292 31.9459 49.8529 31.3483 49.5872 30.6694C49.3216 29.9906 49.1814 29.2897 49.1667 28.5666C49.1667 27.7992 49.3142 27.0687 49.6094 26.3752C49.9045 25.6816 50.3103 25.0839 50.8268 24.5822C51.3433 24.0805 51.941 23.6746 52.6198 23.3647C53.2986 23.0549 54.0365 22.8999 54.8333 22.8999C55.6007 22.8999 56.3312 23.0475 57.0247 23.3426C57.7183 23.6377 58.316 24.0436 58.8177 24.5601C59.3194 25.0766 59.7253 25.6816 60.0352 26.3752C60.3451 27.0687 60.5 27.7992 60.5 28.5666C60.5 29.2897 60.3672 29.9906 60.1016 30.6694C59.8359 31.3483 59.4523 31.9459 58.9505 32.4624ZM23.6667 28.5666C23.6667 28.965 23.7405 29.3339 23.888 29.6733C24.0356 30.0127 24.2348 30.3079 24.4857 30.5588C24.7365 30.8096 25.0391 31.0162 25.3932 31.1785C25.7474 31.3409 26.1163 31.4147 26.5 31.3999C26.8984 31.3999 27.2674 31.3261 27.6068 31.1785C27.9462 31.031 28.2413 30.8318 28.4922 30.5809C28.7431 30.33 28.9497 30.0275 29.112 29.6733C29.2743 29.3192 29.3481 28.9502 29.3333 28.5666C29.3333 28.1681 29.2595 27.7992 29.112 27.4598C28.9644 27.1204 28.7652 26.8252 28.5143 26.5744C28.2635 26.3235 27.9609 26.1169 27.6068 25.9546C27.2526 25.7923 26.8837 25.7185 26.5 25.7332C26.1016 25.7332 25.7326 25.807 25.3932 25.9546C25.0538 26.1022 24.7587 26.3014 24.5078 26.5522C24.2569 26.8031 24.0503 27.1056 23.888 27.4598C23.7257 27.814 23.6519 28.1829 23.6667 28.5666ZM40.6667 45.5666C41.434 45.5666 42.1645 45.419 42.8581 45.1239C43.5516 44.8287 44.1493 44.4229 44.651 43.9064C45.1528 43.3899 45.5586 42.7923 45.8685 42.1134C46.1784 41.4346 46.3333 40.6968 46.3333 39.8999C46.3333 39.1325 46.1858 38.4021 45.8906 37.7085C45.5955 37.0149 45.1897 36.4173 44.6732 35.9155C44.1567 35.4138 43.5516 35.008 42.8581 34.6981C42.1645 34.3882 41.434 34.2332 40.6667 34.2332C39.8845 34.2332 39.1541 34.3808 38.4753 34.6759C37.7964 34.9711 37.1988 35.3769 36.6823 35.8934C36.1658 36.4099 35.76 37.0149 35.4648 37.7085C35.1697 38.4021 35.0148 39.1325 35 39.8999C35 40.682 35.1476 41.4125 35.4427 42.0913C35.7378 42.7701 36.1437 43.3678 36.6602 43.8843C37.1766 44.4008 37.7743 44.8066 38.4531 45.1017C39.1319 45.3969 39.8698 45.5518 40.6667 45.5666ZM52 28.5666C52 28.965 52.0738 29.3339 52.2214 29.6733C52.3689 30.0127 52.5681 30.3079 52.819 30.5588C53.0699 30.8096 53.3724 31.0162 53.7266 31.1785C54.0807 31.3409 54.4497 31.4147 54.8333 31.3999C55.2318 31.3999 55.6007 31.3261 55.9401 31.1785C56.2795 31.031 56.5746 30.8318 56.8255 30.5809C57.0764 30.33 57.283 30.0275 57.4453 29.6733C57.6076 29.3192 57.6814 28.9502 57.6667 28.5666C57.6667 28.1681 57.5929 27.7992 57.4453 27.4598C57.2977 27.1204 57.0985 26.8252 56.8477 26.5744C56.5968 26.3235 56.2943 26.1169 55.9401 25.9546C55.5859 25.7923 55.217 25.7185 54.8333 25.7332C54.4349 25.7332 54.066 25.807 53.7266 25.9546C53.3872 26.1022 53.092 26.3014 52.8411 26.5522C52.5903 26.8031 52.3837 27.1056 52.2214 27.4598C52.059 27.814 51.9852 28.1829 52 28.5666Z" fill="#33A7F9"/>
</g>
</svg>
