<svg width="81" height="80" viewBox="0 0 81 80" fill="none" xmlns="http://www.w3.org/2000/svg">
<g id="Frame 17">
<rect x="0.56012" width="80" height="80" rx="40" fill="white" fill-opacity="0.12"/>
<g id="Group 13">
<path id="Vector" d="M59.0019 50.2899C58.9179 49.992 58.7216 49.7383 58.4542 49.5823C58.1868 49.4263 57.8693 49.3802 57.5686 49.4538L54.5944 50.2541C56.2219 47.855 57.2088 45.0795 57.4611 42.1916C57.7051 39.4896 57.31 36.7681 56.3078 34.2471C55.3056 31.726 53.7244 29.4761 51.6919 27.6791C51.457 27.4847 51.1566 27.3876 50.8524 27.4076C50.5481 27.4276 50.2631 27.5632 50.0556 27.7866C49.8468 28.0243 49.7408 28.3351 49.761 28.6509C49.7811 28.9666 49.9257 29.2615 50.1631 29.4707C51.9144 31.0166 53.2769 32.9534 54.1402 35.124C55.0035 37.2947 55.3432 39.6382 55.1319 41.9646C54.9274 44.415 54.1055 46.7737 52.7431 48.8207L52.4444 45.8227C52.467 45.6462 52.4498 45.467 52.3942 45.298C52.3386 45.1291 52.2459 44.9747 52.123 44.8461C52.0001 44.7175 51.8501 44.618 51.6838 44.5548C51.5175 44.4917 51.3392 44.4664 51.1619 44.481C50.9847 44.4955 50.8129 44.5495 50.6591 44.6389C50.5054 44.7283 50.3735 44.851 50.2732 44.9979C50.1729 45.1448 50.1067 45.3122 50.0793 45.488C50.052 45.6637 50.0643 45.8434 50.1153 46.0138L50.7125 53.706L58.1778 51.7232C58.4735 51.6367 58.7244 51.4393 58.8779 51.1722C59.0315 50.9051 59.076 50.589 59.0019 50.2899Z" fill="#33A7F9"/>
<path id="Vector_2" d="M24.1481 39.3011C24.3068 39.4032 24.4864 39.4685 24.6736 39.4922C24.9854 39.5331 25.3006 39.4494 25.5511 39.2594C25.8015 39.0693 25.9669 38.7882 26.0114 38.4769C26.505 34.8329 28.3569 31.5097 31.1964 29.173C34.0359 26.8363 37.6533 25.6586 41.3242 25.8755L38.6486 27.703C38.4593 27.8457 38.3167 28.0414 38.239 28.2653C38.1612 28.4892 38.1519 28.7312 38.2121 28.9604C38.2723 29.1896 38.3993 29.3958 38.577 29.5526C38.7547 29.7095 38.9751 29.8099 39.21 29.8411C39.4791 29.8657 39.7486 29.7983 39.9745 29.65L46.3409 25.2783L40.8942 19.8078C40.7973 19.6592 40.6685 19.5342 40.5172 19.4416C40.3659 19.3491 40.1959 19.2914 40.0196 19.2727C39.8432 19.2541 39.6649 19.2749 39.4976 19.3338C39.3303 19.3926 39.1782 19.488 39.0524 19.6129C38.9265 19.7379 38.8301 19.8893 38.77 20.0561C38.71 20.223 38.6878 20.4011 38.7052 20.5776C38.7226 20.7541 38.7791 20.9245 38.8705 21.0765C38.962 21.2284 39.0861 21.3581 39.2339 21.4561L41.2645 23.4867C37.0252 23.284 32.8639 24.6779 29.6022 27.3935C26.3405 30.109 24.2154 33.9486 23.6464 38.1544C23.6158 38.3733 23.6465 38.5963 23.735 38.7987C23.8236 39.0012 23.9666 39.1751 24.1481 39.3011Z" fill="#33A7F9"/>
<path id="Vector_3" d="M44.9552 54.6497C43.09 55.2455 41.1225 55.4528 39.1741 55.2588C36.8011 55.0262 34.5205 54.2196 32.5289 52.9086C30.5374 51.5976 28.8949 49.8215 27.7432 47.7338L30.7174 48.8447C30.9915 48.8922 31.2737 48.8426 31.5152 48.7043C31.7566 48.566 31.9422 48.3477 32.0399 48.0872C32.1376 47.8267 32.1413 47.5402 32.0503 47.2772C31.9593 47.0143 31.7794 46.7913 31.5416 46.6469L26.0591 44.6163L24.3032 43.9833L22.9774 51.568C22.9314 51.8711 23.0038 52.1802 23.1794 52.4315C23.355 52.6827 23.6206 52.8568 23.921 52.9177H24.1241C24.4052 52.9228 24.6791 52.8286 24.8976 52.6516C25.1161 52.4747 25.2651 52.2263 25.3185 51.9502L25.8202 49.0836C27.1711 51.4501 29.0687 53.459 31.3544 54.9427C33.64 56.4263 36.2475 57.3415 38.9591 57.6119C41.2261 57.8366 43.515 57.5926 45.6838 56.8952C45.9599 56.7809 46.1832 56.5672 46.3094 56.2963C46.4357 56.0254 46.4558 55.717 46.3658 55.432C46.2758 55.147 46.0822 54.906 45.8233 54.7568C45.5643 54.6075 45.2588 54.5608 44.9671 54.6258L44.9552 54.6497Z" fill="#33A7F9"/>
<path id="Vector_4" d="M45.2778 34.4277H35.7222C35.4054 34.4277 35.1016 34.5536 34.8776 34.7776C34.6536 35.0016 34.5278 35.3054 34.5278 35.6222V45.1777C34.5278 45.4945 34.6536 45.7983 34.8776 46.0223C35.1016 46.2463 35.4054 46.3722 35.7222 46.3722H45.2778C45.5946 46.3722 45.8984 46.2463 46.1224 46.0223C46.3464 45.7983 46.4722 45.4945 46.4722 45.1777V35.6222C46.4722 35.3054 46.3464 35.0016 46.1224 34.7776C45.8984 34.5536 45.5946 34.4277 45.2778 34.4277ZM44.0833 43.9833H36.9167V36.8166H44.0833V43.9833Z" fill="#33A7F9"/>
</g>
</g>
</svg>
