<svg width="33" height="34" viewBox="0 0 33 34" fill="none" xmlns="http://www.w3.org/2000/svg">
<g id="Group 28">
<circle id="Ellipse 14" cx="16.5" cy="17.011" r="16.5" fill="white" fill-opacity="0.24"/>
<g id="Group 32">
<path id="Vector" d="M23.2297 20.3371L19.4609 18.6482L19.4505 18.6434C19.2548 18.5598 19.0414 18.5262 18.8295 18.5457C18.6176 18.5653 18.4139 18.6374 18.2368 18.7554C18.216 18.7692 18.196 18.7842 18.1768 18.8003L16.2296 20.4603C14.996 19.8611 13.7224 18.597 13.1232 17.3794L14.7856 15.4026C14.8016 15.3826 14.8168 15.3626 14.8312 15.341C14.9468 15.1645 15.0169 14.9621 15.0353 14.7519C15.0537 14.5417 15.0199 14.3302 14.9368 14.1362V14.1266L13.2432 10.3514C13.1334 10.098 12.9446 9.8869 12.7049 9.74963C12.4653 9.61237 12.1877 9.55629 11.9136 9.58976C10.8295 9.73241 9.83451 10.2648 9.1143 11.0875C8.3941 11.9101 7.99799 12.9668 7.99995 14.0602C7.99995 20.4123 13.168 25.5803 19.5201 25.5803C20.6134 25.5823 21.6701 25.1862 22.4928 24.466C23.3155 23.7458 23.8479 22.7507 23.9905 21.6667C24.024 21.3926 23.9681 21.1151 23.831 20.8755C23.6938 20.6359 23.4829 20.447 23.2297 20.3371ZM19.5201 24.3003C16.8051 24.2973 14.2022 23.2175 12.2825 21.2978C10.3627 19.378 9.28292 16.7751 9.27996 14.0602C9.27695 13.279 9.5584 12.5234 10.0718 11.9345C10.5851 11.3456 11.2953 10.9637 12.0696 10.8602C12.0693 10.8634 12.0693 10.8666 12.0696 10.8698L13.7496 14.6298L12.096 16.609C12.0792 16.6283 12.064 16.6489 12.0504 16.6706C11.93 16.8554 11.8594 17.0681 11.8454 17.2881C11.8313 17.5082 11.8744 17.7281 11.9704 17.9266C12.6952 19.4091 14.1888 20.8915 15.6872 21.6155C15.8872 21.7106 16.1084 21.7521 16.3293 21.7361C16.5501 21.7202 16.763 21.6472 16.9472 21.5243C16.9678 21.5104 16.9875 21.4955 17.0064 21.4795L18.9513 19.8203L22.7113 21.5043H22.7201C22.6178 22.2797 22.2365 22.9913 21.6475 23.5059C21.0585 24.0205 20.3022 24.3029 19.5201 24.3003Z" fill="white"/>
</g>
</g>
</svg>
