<svg width="222" height="378" viewBox="0 0 222 378" fill="none" xmlns="http://www.w3.org/2000/svg">
<path d="M129.423 2.17562C131.024 1.94406 132.656 1.82458 134.315 1.82458H138.699V0.915039H134.315C132.621 0.915039 130.953 1.03708 129.317 1.27372L129.423 2.17562Z" fill="url(#paint0_linear_602_318)"/>
<path d="M147.467 1.82458H156.236V0.915039H147.467V1.82458Z" fill="url(#paint1_linear_602_318)"/>
<path d="M165.005 1.82458H173.773V0.915039H165.005V1.82458Z" fill="url(#paint2_linear_602_318)"/>
<path d="M182.542 1.82458H191.31V0.915039H182.542V1.82458Z" fill="url(#paint3_linear_602_318)"/>
<path d="M200.079 1.82458H208.848V0.915039H200.079V1.82458Z" fill="url(#paint4_linear_602_318)"/>
<path d="M217.616 1.82458H222.001V0.915039H217.616V1.82458Z" fill="url(#paint5_linear_602_318)"/>
<path d="M111.515 10.4043C114.093 8.20817 116.935 6.37561 119.979 4.97566L119.665 4.13549C116.553 5.56631 113.649 7.4391 111.016 9.68311L111.515 10.4043Z" fill="url(#paint6_linear_602_318)"/>
<path d="M99.7056 27.4569C100.968 24.081 102.621 20.9295 104.601 18.0717L103.951 17.5175C101.927 20.4376 100.238 23.6581 98.9479 27.1085L99.7056 27.4569Z" fill="url(#paint7_linear_602_318)"/>
<path d="M96.864 43.3536C96.864 41.5148 96.9717 39.7042 97.1805 37.929L96.3672 37.8113C96.1538 39.6255 96.0438 41.4754 96.0438 43.3536V49.1847H96.864V43.3536Z" fill="url(#paint8_linear_602_318)"/>
<path d="M96.864 72.509V60.8469H96.0438V72.509H96.864Z" fill="url(#paint9_linear_602_318)"/>
<path d="M96.864 95.8333V84.1712H96.0438V95.8333H96.864Z" fill="url(#paint10_linear_602_318)"/>
<path d="M96.864 113.327V107.495H96.0438V113.327C96.0438 115.165 95.936 116.976 95.7272 118.751L96.5405 118.869C96.7539 117.055 96.864 115.205 96.864 113.327Z" fill="url(#paint11_linear_602_318)"/>
<path d="M88.957 139.163C90.9807 136.243 92.6695 133.022 93.9598 129.572L93.2022 129.223C91.9397 132.599 90.2871 135.751 88.3067 138.609L88.957 139.163Z" fill="url(#paint12_linear_602_318)"/>
<path d="M73.2429 152.545C76.3545 151.114 79.2587 149.241 81.8921 146.997L81.3923 146.276C78.8151 148.472 75.9732 150.305 72.9287 151.705L73.2429 152.545Z" fill="url(#paint13_linear_602_318)"/>
<path d="M58.5932 155.765C60.287 155.765 61.9553 155.643 63.5912 155.406L63.4851 154.505C61.8842 154.736 60.2514 154.856 58.5932 154.856H54.1564V155.765H58.5932Z" fill="url(#paint14_linear_602_318)"/>
<path d="M0.915283 155.765H9.7888V154.856H0.915283V155.765Z" fill="url(#paint15_linear_602_318)"/>
<path d="M18.6623 155.765H27.5359V154.856H18.6623V155.765Z" fill="url(#paint16_linear_602_318)"/>
<path d="M36.4094 155.765H45.2829V154.856H36.4094V155.765Z" fill="url(#paint17_linear_602_318)"/>
<path d="M129.423 375.824C131.024 376.056 132.656 376.175 134.315 376.175H138.699V377.085H134.315C132.621 377.085 130.953 376.963 129.317 376.726L129.423 375.824Z" fill="url(#paint18_linear_602_318)"/>
<path d="M147.467 376.175H156.236V377.085H147.467V376.175Z" fill="url(#paint19_linear_602_318)"/>
<path d="M165.005 376.175H173.773V377.085H165.005V376.175Z" fill="url(#paint20_linear_602_318)"/>
<path d="M182.542 376.175H191.31V377.085H182.542V376.175Z" fill="url(#paint21_linear_602_318)"/>
<path d="M200.079 376.175H208.848V377.085H200.079V376.175Z" fill="url(#paint22_linear_602_318)"/>
<path d="M217.616 376.175H222.001V377.085H217.616V376.175Z" fill="url(#paint23_linear_602_318)"/>
<path d="M111.515 367.596C114.093 369.792 116.935 371.624 119.979 373.024L119.665 373.864C116.553 372.434 113.649 370.561 111.016 368.317L111.515 367.596Z" fill="url(#paint24_linear_602_318)"/>
<path d="M99.7056 350.543C100.968 353.919 102.621 357.07 104.601 359.928L103.951 360.482C101.927 357.562 100.238 354.342 98.9479 350.891L99.7056 350.543Z" fill="url(#paint25_linear_602_318)"/>
<path d="M96.864 334.646C96.864 336.485 96.9717 338.296 97.1805 340.071L96.3672 340.189C96.1538 338.374 96.0438 336.524 96.0438 334.646V328.815H96.864V334.646Z" fill="url(#paint26_linear_602_318)"/>
<path d="M96.864 305.491V317.153H96.0438V305.491H96.864Z" fill="url(#paint27_linear_602_318)"/>
<path d="M96.864 282.167V293.829H96.0438V282.167H96.864Z" fill="url(#paint28_linear_602_318)"/>
<path d="M96.864 264.673V270.504H96.0438V264.673C96.0438 262.835 95.936 261.024 95.7272 259.249L96.5405 259.131C96.7539 260.945 96.864 262.795 96.864 264.673Z" fill="url(#paint29_linear_602_318)"/>
<path d="M88.957 238.837C90.9807 241.757 92.6695 244.978 93.9598 248.428L93.2022 248.777C91.9397 245.401 90.2871 242.249 88.3067 239.391L88.957 238.837Z" fill="url(#paint30_linear_602_318)"/>
<path d="M73.2429 225.455C76.3545 226.886 79.2587 228.759 81.8921 231.003L81.3923 231.724C78.8151 229.528 75.9732 227.695 72.9287 226.295L73.2429 225.455Z" fill="url(#paint31_linear_602_318)"/>
<path d="M58.5932 222.235C60.287 222.235 61.9553 222.357 63.5912 222.593L63.4851 223.495C61.8842 223.264 60.2514 223.144 58.5932 223.144H54.1564V222.235H58.5932Z" fill="url(#paint32_linear_602_318)"/>
<path d="M0.915283 222.235H9.7888V223.144H0.915283V222.235Z" fill="url(#paint33_linear_602_318)"/>
<path d="M18.6623 222.235H27.5359V223.144H18.6623V222.235Z" fill="url(#paint34_linear_602_318)"/>
<path d="M36.4094 222.235H45.2829V223.144H36.4094V222.235Z" fill="url(#paint35_linear_602_318)"/>
<path d="M152.888 61.603C151.509 61.603 150.151 61.7023 148.82 61.8949L148.714 60.993C150.08 60.7954 151.473 60.6934 152.888 60.6934H157.207V61.603H152.888Z" fill="url(#paint36_linear_602_318)"/>
<path d="M174.485 61.603H165.846V60.6934H174.485V61.603Z" fill="url(#paint37_linear_602_318)"/>
<path d="M191.764 61.603H183.124V60.6934H191.764V61.603Z" fill="url(#paint38_linear_602_318)"/>
<path d="M209.042 61.603H200.403V60.6934H209.042V61.603Z" fill="url(#paint39_linear_602_318)"/>
<path d="M222.001 61.603H217.681V60.6934H222.001V61.603Z" fill="url(#paint40_linear_602_318)"/>
<path d="M140.967 64.2231C138.436 65.3871 136.073 66.9109 133.93 68.737L133.43 68.0158C135.629 66.1419 138.055 64.5778 140.653 63.3829L140.967 64.2231Z" fill="url(#paint41_linear_602_318)"/>
<path d="M128.181 75.1126C126.534 77.4889 125.16 80.1094 124.11 82.9165L123.352 82.5681C124.43 79.6866 125.84 76.997 127.53 74.5584L128.181 75.1126Z" fill="url(#paint42_linear_602_318)"/>
<path d="M122.01 91.624C121.837 93.1001 121.747 94.6057 121.747 96.1347V103.281H120.927V96.1347C120.927 94.5662 121.019 93.0213 121.197 91.5063L122.01 91.624Z" fill="url(#paint43_linear_602_318)"/>
<path d="M121.747 117.573V124.72C121.747 126.355 121.675 127.972 121.536 129.567L120.719 129.479C120.857 127.913 120.927 126.326 120.927 124.72V117.573H121.747Z" fill="url(#paint44_linear_602_318)"/>
<path d="M119.838 139.075C118.984 142.202 117.858 145.197 116.491 148.028L115.768 147.599C117.11 144.82 118.215 141.88 119.053 138.811L119.838 139.075Z" fill="url(#paint45_linear_602_318)"/>
<path d="M111.629 156.082C109.775 158.584 107.705 160.88 105.449 162.935L104.928 162.233C107.143 160.215 109.175 157.961 110.995 155.505L111.629 156.082Z" fill="url(#paint46_linear_602_318)"/>
<path d="M98.1855 168.327C95.6327 169.843 92.9312 171.092 90.1115 172.039L89.8737 171.169C92.6411 170.239 95.2925 169.013 97.7982 167.525L98.1855 168.327Z" fill="url(#paint47_linear_602_318)"/>
<path d="M81.5371 173.921C80.0989 174.076 78.6409 174.156 77.1662 174.156H72.7065V173.246H77.1662C78.6143 173.246 80.0458 173.168 81.4576 173.016L81.5371 173.921Z" fill="url(#paint48_linear_602_318)"/>
<path d="M10.2706 174.156H1.35118V173.246H10.2706V174.156Z" fill="url(#paint49_linear_602_318)"/>
<path d="M28.1094 174.156H19.19V173.246H28.1094V174.156Z" fill="url(#paint50_linear_602_318)"/>
<path d="M45.9483 174.156H37.0288V173.246H45.9483V174.156Z" fill="url(#paint51_linear_602_318)"/>
<path d="M63.7871 174.156H54.8677V173.246H63.7871V174.156Z" fill="url(#paint52_linear_602_318)"/>
<path d="M148.82 316.089C150.151 316.282 151.509 316.381 152.888 316.381H157.207V317.29H152.888C151.473 317.29 150.08 317.189 148.714 316.991L148.82 316.089Z" fill="url(#paint53_linear_602_318)"/>
<path d="M165.846 316.381H174.485V317.29H165.846V316.381Z" fill="url(#paint54_linear_602_318)"/>
<path d="M183.124 316.381H191.764V317.29H183.124V316.381Z" fill="url(#paint55_linear_602_318)"/>
<path d="M200.403 316.381H209.042V317.29H200.403V316.381Z" fill="url(#paint56_linear_602_318)"/>
<path d="M217.681 316.381H222.001V317.29H217.681V316.381Z" fill="url(#paint57_linear_602_318)"/>
<path d="M133.93 309.247C136.073 311.073 138.436 312.597 140.967 313.761L140.653 314.601C138.055 313.406 135.629 311.842 133.43 309.968L133.93 309.247Z" fill="url(#paint58_linear_602_318)"/>
<path d="M124.11 295.067C125.16 297.874 126.534 300.495 128.181 302.871L127.53 303.426C125.84 300.987 124.43 298.297 123.352 295.416L124.11 295.067Z" fill="url(#paint59_linear_602_318)"/>
<path d="M121.747 281.849C121.747 283.378 121.837 284.884 122.01 286.36L121.197 286.478C121.019 284.963 120.927 283.418 120.927 281.849V274.852H121.747V281.849Z" fill="url(#paint60_linear_602_318)"/>
<path d="M121.747 253.86V260.857H120.927V253.86C120.927 252.254 120.857 250.667 120.719 249.101L121.536 249.013C121.675 250.608 121.747 252.225 121.747 253.86Z" fill="url(#paint61_linear_602_318)"/>
<path d="M116.491 230.552C117.858 233.382 118.984 236.378 119.838 239.505L119.053 239.769C118.215 236.7 117.11 233.76 115.768 230.981L116.491 230.552Z" fill="url(#paint62_linear_602_318)"/>
<path d="M105.449 215.644C107.705 217.7 109.775 219.996 111.629 222.498L110.995 223.075C109.175 220.619 107.143 218.365 104.928 216.347L105.449 215.644Z" fill="url(#paint63_linear_602_318)"/>
<path d="M90.1115 206.541C92.9312 207.488 95.6327 208.737 98.1855 210.253L97.7982 211.055C95.2925 209.566 92.6411 208.341 89.8737 207.411L90.1115 206.541Z" fill="url(#paint64_linear_602_318)"/>
<path d="M77.1662 204.424C78.6409 204.424 80.0989 204.504 81.5371 204.659L81.4576 205.564C80.0458 205.412 78.6143 205.334 77.1662 205.334H72.7065V204.424H77.1662Z" fill="url(#paint65_linear_602_318)"/>
<path d="M1.35118 204.424H10.2706V205.334H1.35118V204.424Z" fill="url(#paint66_linear_602_318)"/>
<path d="M19.19 204.424H28.1094V205.334H19.19V204.424Z" fill="url(#paint67_linear_602_318)"/>
<path d="M37.0288 204.424H45.9483V205.334H37.0288V204.424Z" fill="url(#paint68_linear_602_318)"/>
<path d="M54.8677 204.424H63.7871V205.334H54.8677V204.424Z" fill="url(#paint69_linear_602_318)"/>
<path fill-rule="evenodd" clip-rule="evenodd" d="M96.5403 190.061H100.943V189.152H96.459C96.4278 189.152 96.3971 189.155 96.3675 189.163H91.953V190.072H96.4488C96.4586 190.072 96.4684 190.072 96.4781 190.071C96.4992 190.07 96.52 190.066 96.5403 190.061ZM96.6056 190.031L96.6141 190.027L96.4611 189.618L96.459 189.617L96.4488 189.612L96.6056 190.031ZM96.3024 189.193L96.2934 189.197L96.4467 189.606L96.4488 189.607L96.459 189.612L96.3024 189.193Z" fill="url(#paint70_linear_602_318)"/>
<path d="M118.877 190.061H109.91V189.152H118.877V190.061Z" fill="url(#paint71_linear_602_318)"/>
<path d="M136.812 190.061H127.844V189.152H136.812V190.061Z" fill="url(#paint72_linear_602_318)"/>
<path d="M154.746 190.061H145.779V189.152H154.746V190.061Z" fill="url(#paint73_linear_602_318)"/>
<path d="M172.681 190.061H163.713V189.152H172.681V190.061Z" fill="url(#paint74_linear_602_318)"/>
<path d="M190.615 190.061H181.648V189.152H190.615V190.061Z" fill="url(#paint75_linear_602_318)"/>
<path d="M208.55 190.061H199.582V189.152H208.55V190.061Z" fill="url(#paint76_linear_602_318)"/>
<path d="M222.001 190.061H217.517V189.152H222.001V190.061Z" fill="url(#paint77_linear_602_318)"/>
<path d="M11.0286 190.072H2.03698V189.163H11.0286V190.072Z" fill="url(#paint78_linear_602_318)"/>
<path d="M29.0118 190.072H20.0202V189.163H29.0118V190.072Z" fill="url(#paint79_linear_602_318)"/>
<path d="M46.995 190.072H38.0034V189.163H46.995V190.072Z" fill="url(#paint80_linear_602_318)"/>
<path d="M64.9782 190.072H55.9866V189.163H64.9782V190.072Z" fill="url(#paint81_linear_602_318)"/>
<path d="M82.9614 190.072H73.9698V189.163H82.9614V190.072Z" fill="url(#paint82_linear_602_318)"/>
<defs>
<linearGradient id="paint0_linear_602_318" x1="-1.80699" y1="90.3923" x2="219.82" y2="103.831" gradientUnits="userSpaceOnUse">
<stop stop-color="#FBFBFB" stop-opacity="0.74"/>
<stop offset="0.239583" stop-color="#FBFBFB" stop-opacity="0"/>
<stop offset="0.473958" stop-color="#FBFBFB" stop-opacity="0.72"/>
<stop offset="0.692708" stop-color="#FBFBFB" stop-opacity="0.19"/>
<stop offset="1" stop-color="#FBFBFB"/>
</linearGradient>
<linearGradient id="paint1_linear_602_318" x1="-1.80699" y1="90.3923" x2="219.82" y2="103.831" gradientUnits="userSpaceOnUse">
<stop stop-color="#FBFBFB" stop-opacity="0.74"/>
<stop offset="0.239583" stop-color="#FBFBFB" stop-opacity="0"/>
<stop offset="0.473958" stop-color="#FBFBFB" stop-opacity="0.72"/>
<stop offset="0.692708" stop-color="#FBFBFB" stop-opacity="0.19"/>
<stop offset="1" stop-color="#FBFBFB"/>
</linearGradient>
<linearGradient id="paint2_linear_602_318" x1="-1.80699" y1="90.3923" x2="219.82" y2="103.831" gradientUnits="userSpaceOnUse">
<stop stop-color="#FBFBFB" stop-opacity="0.74"/>
<stop offset="0.239583" stop-color="#FBFBFB" stop-opacity="0"/>
<stop offset="0.473958" stop-color="#FBFBFB" stop-opacity="0.72"/>
<stop offset="0.692708" stop-color="#FBFBFB" stop-opacity="0.19"/>
<stop offset="1" stop-color="#FBFBFB"/>
</linearGradient>
<linearGradient id="paint3_linear_602_318" x1="-1.80699" y1="90.3923" x2="219.82" y2="103.831" gradientUnits="userSpaceOnUse">
<stop stop-color="#FBFBFB" stop-opacity="0.74"/>
<stop offset="0.239583" stop-color="#FBFBFB" stop-opacity="0"/>
<stop offset="0.473958" stop-color="#FBFBFB" stop-opacity="0.72"/>
<stop offset="0.692708" stop-color="#FBFBFB" stop-opacity="0.19"/>
<stop offset="1" stop-color="#FBFBFB"/>
</linearGradient>
<linearGradient id="paint4_linear_602_318" x1="-1.80699" y1="90.3923" x2="219.82" y2="103.831" gradientUnits="userSpaceOnUse">
<stop stop-color="#FBFBFB" stop-opacity="0.74"/>
<stop offset="0.239583" stop-color="#FBFBFB" stop-opacity="0"/>
<stop offset="0.473958" stop-color="#FBFBFB" stop-opacity="0.72"/>
<stop offset="0.692708" stop-color="#FBFBFB" stop-opacity="0.19"/>
<stop offset="1" stop-color="#FBFBFB"/>
</linearGradient>
<linearGradient id="paint5_linear_602_318" x1="-1.80699" y1="90.3923" x2="219.82" y2="103.831" gradientUnits="userSpaceOnUse">
<stop stop-color="#FBFBFB" stop-opacity="0.74"/>
<stop offset="0.239583" stop-color="#FBFBFB" stop-opacity="0"/>
<stop offset="0.473958" stop-color="#FBFBFB" stop-opacity="0.72"/>
<stop offset="0.692708" stop-color="#FBFBFB" stop-opacity="0.19"/>
<stop offset="1" stop-color="#FBFBFB"/>
</linearGradient>
<linearGradient id="paint6_linear_602_318" x1="-1.80699" y1="90.3923" x2="219.82" y2="103.831" gradientUnits="userSpaceOnUse">
<stop stop-color="#FBFBFB" stop-opacity="0.74"/>
<stop offset="0.239583" stop-color="#FBFBFB" stop-opacity="0"/>
<stop offset="0.473958" stop-color="#FBFBFB" stop-opacity="0.72"/>
<stop offset="0.692708" stop-color="#FBFBFB" stop-opacity="0.19"/>
<stop offset="1" stop-color="#FBFBFB"/>
</linearGradient>
<linearGradient id="paint7_linear_602_318" x1="-1.80699" y1="90.3923" x2="219.82" y2="103.831" gradientUnits="userSpaceOnUse">
<stop stop-color="#FBFBFB" stop-opacity="0.74"/>
<stop offset="0.239583" stop-color="#FBFBFB" stop-opacity="0"/>
<stop offset="0.473958" stop-color="#FBFBFB" stop-opacity="0.72"/>
<stop offset="0.692708" stop-color="#FBFBFB" stop-opacity="0.19"/>
<stop offset="1" stop-color="#FBFBFB"/>
</linearGradient>
<linearGradient id="paint8_linear_602_318" x1="-1.80699" y1="90.3923" x2="219.82" y2="103.831" gradientUnits="userSpaceOnUse">
<stop stop-color="#FBFBFB" stop-opacity="0.74"/>
<stop offset="0.239583" stop-color="#FBFBFB" stop-opacity="0"/>
<stop offset="0.473958" stop-color="#FBFBFB" stop-opacity="0.72"/>
<stop offset="0.692708" stop-color="#FBFBFB" stop-opacity="0.19"/>
<stop offset="1" stop-color="#FBFBFB"/>
</linearGradient>
<linearGradient id="paint9_linear_602_318" x1="-1.80699" y1="90.3923" x2="219.82" y2="103.831" gradientUnits="userSpaceOnUse">
<stop stop-color="#FBFBFB" stop-opacity="0.74"/>
<stop offset="0.239583" stop-color="#FBFBFB" stop-opacity="0"/>
<stop offset="0.473958" stop-color="#FBFBFB" stop-opacity="0.72"/>
<stop offset="0.692708" stop-color="#FBFBFB" stop-opacity="0.19"/>
<stop offset="1" stop-color="#FBFBFB"/>
</linearGradient>
<linearGradient id="paint10_linear_602_318" x1="-1.80699" y1="90.3923" x2="219.82" y2="103.831" gradientUnits="userSpaceOnUse">
<stop stop-color="#FBFBFB" stop-opacity="0.74"/>
<stop offset="0.239583" stop-color="#FBFBFB" stop-opacity="0"/>
<stop offset="0.473958" stop-color="#FBFBFB" stop-opacity="0.72"/>
<stop offset="0.692708" stop-color="#FBFBFB" stop-opacity="0.19"/>
<stop offset="1" stop-color="#FBFBFB"/>
</linearGradient>
<linearGradient id="paint11_linear_602_318" x1="-1.80699" y1="90.3923" x2="219.82" y2="103.831" gradientUnits="userSpaceOnUse">
<stop stop-color="#FBFBFB" stop-opacity="0.74"/>
<stop offset="0.239583" stop-color="#FBFBFB" stop-opacity="0"/>
<stop offset="0.473958" stop-color="#FBFBFB" stop-opacity="0.72"/>
<stop offset="0.692708" stop-color="#FBFBFB" stop-opacity="0.19"/>
<stop offset="1" stop-color="#FBFBFB"/>
</linearGradient>
<linearGradient id="paint12_linear_602_318" x1="-1.80699" y1="90.3923" x2="219.82" y2="103.831" gradientUnits="userSpaceOnUse">
<stop stop-color="#FBFBFB" stop-opacity="0.74"/>
<stop offset="0.239583" stop-color="#FBFBFB" stop-opacity="0"/>
<stop offset="0.473958" stop-color="#FBFBFB" stop-opacity="0.72"/>
<stop offset="0.692708" stop-color="#FBFBFB" stop-opacity="0.19"/>
<stop offset="1" stop-color="#FBFBFB"/>
</linearGradient>
<linearGradient id="paint13_linear_602_318" x1="-1.80699" y1="90.3923" x2="219.82" y2="103.831" gradientUnits="userSpaceOnUse">
<stop stop-color="#FBFBFB" stop-opacity="0.74"/>
<stop offset="0.239583" stop-color="#FBFBFB" stop-opacity="0"/>
<stop offset="0.473958" stop-color="#FBFBFB" stop-opacity="0.72"/>
<stop offset="0.692708" stop-color="#FBFBFB" stop-opacity="0.19"/>
<stop offset="1" stop-color="#FBFBFB"/>
</linearGradient>
<linearGradient id="paint14_linear_602_318" x1="-1.80699" y1="90.3923" x2="219.82" y2="103.831" gradientUnits="userSpaceOnUse">
<stop stop-color="#FBFBFB" stop-opacity="0.74"/>
<stop offset="0.239583" stop-color="#FBFBFB" stop-opacity="0"/>
<stop offset="0.473958" stop-color="#FBFBFB" stop-opacity="0.72"/>
<stop offset="0.692708" stop-color="#FBFBFB" stop-opacity="0.19"/>
<stop offset="1" stop-color="#FBFBFB"/>
</linearGradient>
<linearGradient id="paint15_linear_602_318" x1="-1.80699" y1="90.3923" x2="219.82" y2="103.831" gradientUnits="userSpaceOnUse">
<stop stop-color="#FBFBFB" stop-opacity="0.74"/>
<stop offset="0.239583" stop-color="#FBFBFB" stop-opacity="0"/>
<stop offset="0.473958" stop-color="#FBFBFB" stop-opacity="0.72"/>
<stop offset="0.692708" stop-color="#FBFBFB" stop-opacity="0.19"/>
<stop offset="1" stop-color="#FBFBFB"/>
</linearGradient>
<linearGradient id="paint16_linear_602_318" x1="-1.80699" y1="90.3923" x2="219.82" y2="103.831" gradientUnits="userSpaceOnUse">
<stop stop-color="#FBFBFB" stop-opacity="0.74"/>
<stop offset="0.239583" stop-color="#FBFBFB" stop-opacity="0"/>
<stop offset="0.473958" stop-color="#FBFBFB" stop-opacity="0.72"/>
<stop offset="0.692708" stop-color="#FBFBFB" stop-opacity="0.19"/>
<stop offset="1" stop-color="#FBFBFB"/>
</linearGradient>
<linearGradient id="paint17_linear_602_318" x1="-1.80699" y1="90.3923" x2="219.82" y2="103.831" gradientUnits="userSpaceOnUse">
<stop stop-color="#FBFBFB" stop-opacity="0.74"/>
<stop offset="0.239583" stop-color="#FBFBFB" stop-opacity="0"/>
<stop offset="0.473958" stop-color="#FBFBFB" stop-opacity="0.72"/>
<stop offset="0.692708" stop-color="#FBFBFB" stop-opacity="0.19"/>
<stop offset="1" stop-color="#FBFBFB"/>
</linearGradient>
<linearGradient id="paint18_linear_602_318" x1="-1.80699" y1="90.3923" x2="219.82" y2="103.831" gradientUnits="userSpaceOnUse">
<stop stop-color="#FBFBFB" stop-opacity="0.74"/>
<stop offset="0.239583" stop-color="#FBFBFB" stop-opacity="0"/>
<stop offset="0.473958" stop-color="#FBFBFB" stop-opacity="0.72"/>
<stop offset="0.692708" stop-color="#FBFBFB" stop-opacity="0.19"/>
<stop offset="1" stop-color="#FBFBFB"/>
</linearGradient>
<linearGradient id="paint19_linear_602_318" x1="-1.80699" y1="90.3923" x2="219.82" y2="103.831" gradientUnits="userSpaceOnUse">
<stop stop-color="#FBFBFB" stop-opacity="0.74"/>
<stop offset="0.239583" stop-color="#FBFBFB" stop-opacity="0"/>
<stop offset="0.473958" stop-color="#FBFBFB" stop-opacity="0.72"/>
<stop offset="0.692708" stop-color="#FBFBFB" stop-opacity="0.19"/>
<stop offset="1" stop-color="#FBFBFB"/>
</linearGradient>
<linearGradient id="paint20_linear_602_318" x1="-1.80699" y1="90.3923" x2="219.82" y2="103.831" gradientUnits="userSpaceOnUse">
<stop stop-color="#FBFBFB" stop-opacity="0.74"/>
<stop offset="0.239583" stop-color="#FBFBFB" stop-opacity="0"/>
<stop offset="0.473958" stop-color="#FBFBFB" stop-opacity="0.72"/>
<stop offset="0.692708" stop-color="#FBFBFB" stop-opacity="0.19"/>
<stop offset="1" stop-color="#FBFBFB"/>
</linearGradient>
<linearGradient id="paint21_linear_602_318" x1="-1.80699" y1="90.3923" x2="219.82" y2="103.831" gradientUnits="userSpaceOnUse">
<stop stop-color="#FBFBFB" stop-opacity="0.74"/>
<stop offset="0.239583" stop-color="#FBFBFB" stop-opacity="0"/>
<stop offset="0.473958" stop-color="#FBFBFB" stop-opacity="0.72"/>
<stop offset="0.692708" stop-color="#FBFBFB" stop-opacity="0.19"/>
<stop offset="1" stop-color="#FBFBFB"/>
</linearGradient>
<linearGradient id="paint22_linear_602_318" x1="-1.80699" y1="90.3923" x2="219.82" y2="103.831" gradientUnits="userSpaceOnUse">
<stop stop-color="#FBFBFB" stop-opacity="0.74"/>
<stop offset="0.239583" stop-color="#FBFBFB" stop-opacity="0"/>
<stop offset="0.473958" stop-color="#FBFBFB" stop-opacity="0.72"/>
<stop offset="0.692708" stop-color="#FBFBFB" stop-opacity="0.19"/>
<stop offset="1" stop-color="#FBFBFB"/>
</linearGradient>
<linearGradient id="paint23_linear_602_318" x1="-1.80699" y1="90.3923" x2="219.82" y2="103.831" gradientUnits="userSpaceOnUse">
<stop stop-color="#FBFBFB" stop-opacity="0.74"/>
<stop offset="0.239583" stop-color="#FBFBFB" stop-opacity="0"/>
<stop offset="0.473958" stop-color="#FBFBFB" stop-opacity="0.72"/>
<stop offset="0.692708" stop-color="#FBFBFB" stop-opacity="0.19"/>
<stop offset="1" stop-color="#FBFBFB"/>
</linearGradient>
<linearGradient id="paint24_linear_602_318" x1="-1.80699" y1="90.3923" x2="219.82" y2="103.831" gradientUnits="userSpaceOnUse">
<stop stop-color="#FBFBFB" stop-opacity="0.74"/>
<stop offset="0.239583" stop-color="#FBFBFB" stop-opacity="0"/>
<stop offset="0.473958" stop-color="#FBFBFB" stop-opacity="0.72"/>
<stop offset="0.692708" stop-color="#FBFBFB" stop-opacity="0.19"/>
<stop offset="1" stop-color="#FBFBFB"/>
</linearGradient>
<linearGradient id="paint25_linear_602_318" x1="-1.80699" y1="90.3923" x2="219.82" y2="103.831" gradientUnits="userSpaceOnUse">
<stop stop-color="#FBFBFB" stop-opacity="0.74"/>
<stop offset="0.239583" stop-color="#FBFBFB" stop-opacity="0"/>
<stop offset="0.473958" stop-color="#FBFBFB" stop-opacity="0.72"/>
<stop offset="0.692708" stop-color="#FBFBFB" stop-opacity="0.19"/>
<stop offset="1" stop-color="#FBFBFB"/>
</linearGradient>
<linearGradient id="paint26_linear_602_318" x1="-1.80699" y1="90.3923" x2="219.82" y2="103.831" gradientUnits="userSpaceOnUse">
<stop stop-color="#FBFBFB" stop-opacity="0.74"/>
<stop offset="0.239583" stop-color="#FBFBFB" stop-opacity="0"/>
<stop offset="0.473958" stop-color="#FBFBFB" stop-opacity="0.72"/>
<stop offset="0.692708" stop-color="#FBFBFB" stop-opacity="0.19"/>
<stop offset="1" stop-color="#FBFBFB"/>
</linearGradient>
<linearGradient id="paint27_linear_602_318" x1="-1.80699" y1="90.3923" x2="219.82" y2="103.831" gradientUnits="userSpaceOnUse">
<stop stop-color="#FBFBFB" stop-opacity="0.74"/>
<stop offset="0.239583" stop-color="#FBFBFB" stop-opacity="0"/>
<stop offset="0.473958" stop-color="#FBFBFB" stop-opacity="0.72"/>
<stop offset="0.692708" stop-color="#FBFBFB" stop-opacity="0.19"/>
<stop offset="1" stop-color="#FBFBFB"/>
</linearGradient>
<linearGradient id="paint28_linear_602_318" x1="-1.80699" y1="90.3923" x2="219.82" y2="103.831" gradientUnits="userSpaceOnUse">
<stop stop-color="#FBFBFB" stop-opacity="0.74"/>
<stop offset="0.239583" stop-color="#FBFBFB" stop-opacity="0"/>
<stop offset="0.473958" stop-color="#FBFBFB" stop-opacity="0.72"/>
<stop offset="0.692708" stop-color="#FBFBFB" stop-opacity="0.19"/>
<stop offset="1" stop-color="#FBFBFB"/>
</linearGradient>
<linearGradient id="paint29_linear_602_318" x1="-1.80699" y1="90.3923" x2="219.82" y2="103.831" gradientUnits="userSpaceOnUse">
<stop stop-color="#FBFBFB" stop-opacity="0.74"/>
<stop offset="0.239583" stop-color="#FBFBFB" stop-opacity="0"/>
<stop offset="0.473958" stop-color="#FBFBFB" stop-opacity="0.72"/>
<stop offset="0.692708" stop-color="#FBFBFB" stop-opacity="0.19"/>
<stop offset="1" stop-color="#FBFBFB"/>
</linearGradient>
<linearGradient id="paint30_linear_602_318" x1="-1.80699" y1="90.3923" x2="219.82" y2="103.831" gradientUnits="userSpaceOnUse">
<stop stop-color="#FBFBFB" stop-opacity="0.74"/>
<stop offset="0.239583" stop-color="#FBFBFB" stop-opacity="0"/>
<stop offset="0.473958" stop-color="#FBFBFB" stop-opacity="0.72"/>
<stop offset="0.692708" stop-color="#FBFBFB" stop-opacity="0.19"/>
<stop offset="1" stop-color="#FBFBFB"/>
</linearGradient>
<linearGradient id="paint31_linear_602_318" x1="-1.80699" y1="90.3923" x2="219.82" y2="103.831" gradientUnits="userSpaceOnUse">
<stop stop-color="#FBFBFB" stop-opacity="0.74"/>
<stop offset="0.239583" stop-color="#FBFBFB" stop-opacity="0"/>
<stop offset="0.473958" stop-color="#FBFBFB" stop-opacity="0.72"/>
<stop offset="0.692708" stop-color="#FBFBFB" stop-opacity="0.19"/>
<stop offset="1" stop-color="#FBFBFB"/>
</linearGradient>
<linearGradient id="paint32_linear_602_318" x1="-1.80699" y1="90.3923" x2="219.82" y2="103.831" gradientUnits="userSpaceOnUse">
<stop stop-color="#FBFBFB" stop-opacity="0.74"/>
<stop offset="0.239583" stop-color="#FBFBFB" stop-opacity="0"/>
<stop offset="0.473958" stop-color="#FBFBFB" stop-opacity="0.72"/>
<stop offset="0.692708" stop-color="#FBFBFB" stop-opacity="0.19"/>
<stop offset="1" stop-color="#FBFBFB"/>
</linearGradient>
<linearGradient id="paint33_linear_602_318" x1="-1.80699" y1="90.3923" x2="219.82" y2="103.831" gradientUnits="userSpaceOnUse">
<stop stop-color="#FBFBFB" stop-opacity="0.74"/>
<stop offset="0.239583" stop-color="#FBFBFB" stop-opacity="0"/>
<stop offset="0.473958" stop-color="#FBFBFB" stop-opacity="0.72"/>
<stop offset="0.692708" stop-color="#FBFBFB" stop-opacity="0.19"/>
<stop offset="1" stop-color="#FBFBFB"/>
</linearGradient>
<linearGradient id="paint34_linear_602_318" x1="-1.80699" y1="90.3923" x2="219.82" y2="103.831" gradientUnits="userSpaceOnUse">
<stop stop-color="#FBFBFB" stop-opacity="0.74"/>
<stop offset="0.239583" stop-color="#FBFBFB" stop-opacity="0"/>
<stop offset="0.473958" stop-color="#FBFBFB" stop-opacity="0.72"/>
<stop offset="0.692708" stop-color="#FBFBFB" stop-opacity="0.19"/>
<stop offset="1" stop-color="#FBFBFB"/>
</linearGradient>
<linearGradient id="paint35_linear_602_318" x1="-1.80699" y1="90.3923" x2="219.82" y2="103.831" gradientUnits="userSpaceOnUse">
<stop stop-color="#FBFBFB" stop-opacity="0.74"/>
<stop offset="0.239583" stop-color="#FBFBFB" stop-opacity="0"/>
<stop offset="0.473958" stop-color="#FBFBFB" stop-opacity="0.72"/>
<stop offset="0.692708" stop-color="#FBFBFB" stop-opacity="0.19"/>
<stop offset="1" stop-color="#FBFBFB"/>
</linearGradient>
<linearGradient id="paint36_linear_602_318" x1="-1.80699" y1="90.3923" x2="219.82" y2="103.831" gradientUnits="userSpaceOnUse">
<stop stop-color="#FBFBFB" stop-opacity="0.74"/>
<stop offset="0.239583" stop-color="#FBFBFB" stop-opacity="0"/>
<stop offset="0.473958" stop-color="#FBFBFB" stop-opacity="0.72"/>
<stop offset="0.692708" stop-color="#FBFBFB" stop-opacity="0.19"/>
<stop offset="1" stop-color="#FBFBFB"/>
</linearGradient>
<linearGradient id="paint37_linear_602_318" x1="-1.80699" y1="90.3923" x2="219.82" y2="103.831" gradientUnits="userSpaceOnUse">
<stop stop-color="#FBFBFB" stop-opacity="0.74"/>
<stop offset="0.239583" stop-color="#FBFBFB" stop-opacity="0"/>
<stop offset="0.473958" stop-color="#FBFBFB" stop-opacity="0.72"/>
<stop offset="0.692708" stop-color="#FBFBFB" stop-opacity="0.19"/>
<stop offset="1" stop-color="#FBFBFB"/>
</linearGradient>
<linearGradient id="paint38_linear_602_318" x1="-1.80699" y1="90.3923" x2="219.82" y2="103.831" gradientUnits="userSpaceOnUse">
<stop stop-color="#FBFBFB" stop-opacity="0.74"/>
<stop offset="0.239583" stop-color="#FBFBFB" stop-opacity="0"/>
<stop offset="0.473958" stop-color="#FBFBFB" stop-opacity="0.72"/>
<stop offset="0.692708" stop-color="#FBFBFB" stop-opacity="0.19"/>
<stop offset="1" stop-color="#FBFBFB"/>
</linearGradient>
<linearGradient id="paint39_linear_602_318" x1="-1.80699" y1="90.3923" x2="219.82" y2="103.831" gradientUnits="userSpaceOnUse">
<stop stop-color="#FBFBFB" stop-opacity="0.74"/>
<stop offset="0.239583" stop-color="#FBFBFB" stop-opacity="0"/>
<stop offset="0.473958" stop-color="#FBFBFB" stop-opacity="0.72"/>
<stop offset="0.692708" stop-color="#FBFBFB" stop-opacity="0.19"/>
<stop offset="1" stop-color="#FBFBFB"/>
</linearGradient>
<linearGradient id="paint40_linear_602_318" x1="-1.80699" y1="90.3923" x2="219.82" y2="103.831" gradientUnits="userSpaceOnUse">
<stop stop-color="#FBFBFB" stop-opacity="0.74"/>
<stop offset="0.239583" stop-color="#FBFBFB" stop-opacity="0"/>
<stop offset="0.473958" stop-color="#FBFBFB" stop-opacity="0.72"/>
<stop offset="0.692708" stop-color="#FBFBFB" stop-opacity="0.19"/>
<stop offset="1" stop-color="#FBFBFB"/>
</linearGradient>
<linearGradient id="paint41_linear_602_318" x1="-1.80699" y1="90.3923" x2="219.82" y2="103.831" gradientUnits="userSpaceOnUse">
<stop stop-color="#FBFBFB" stop-opacity="0.74"/>
<stop offset="0.239583" stop-color="#FBFBFB" stop-opacity="0"/>
<stop offset="0.473958" stop-color="#FBFBFB" stop-opacity="0.72"/>
<stop offset="0.692708" stop-color="#FBFBFB" stop-opacity="0.19"/>
<stop offset="1" stop-color="#FBFBFB"/>
</linearGradient>
<linearGradient id="paint42_linear_602_318" x1="-1.80699" y1="90.3923" x2="219.82" y2="103.831" gradientUnits="userSpaceOnUse">
<stop stop-color="#FBFBFB" stop-opacity="0.74"/>
<stop offset="0.239583" stop-color="#FBFBFB" stop-opacity="0"/>
<stop offset="0.473958" stop-color="#FBFBFB" stop-opacity="0.72"/>
<stop offset="0.692708" stop-color="#FBFBFB" stop-opacity="0.19"/>
<stop offset="1" stop-color="#FBFBFB"/>
</linearGradient>
<linearGradient id="paint43_linear_602_318" x1="-1.80699" y1="90.3923" x2="219.82" y2="103.831" gradientUnits="userSpaceOnUse">
<stop stop-color="#FBFBFB" stop-opacity="0.74"/>
<stop offset="0.239583" stop-color="#FBFBFB" stop-opacity="0"/>
<stop offset="0.473958" stop-color="#FBFBFB" stop-opacity="0.72"/>
<stop offset="0.692708" stop-color="#FBFBFB" stop-opacity="0.19"/>
<stop offset="1" stop-color="#FBFBFB"/>
</linearGradient>
<linearGradient id="paint44_linear_602_318" x1="-1.80699" y1="90.3923" x2="219.82" y2="103.831" gradientUnits="userSpaceOnUse">
<stop stop-color="#FBFBFB" stop-opacity="0.74"/>
<stop offset="0.239583" stop-color="#FBFBFB" stop-opacity="0"/>
<stop offset="0.473958" stop-color="#FBFBFB" stop-opacity="0.72"/>
<stop offset="0.692708" stop-color="#FBFBFB" stop-opacity="0.19"/>
<stop offset="1" stop-color="#FBFBFB"/>
</linearGradient>
<linearGradient id="paint45_linear_602_318" x1="-1.80699" y1="90.3923" x2="219.82" y2="103.831" gradientUnits="userSpaceOnUse">
<stop stop-color="#FBFBFB" stop-opacity="0.74"/>
<stop offset="0.239583" stop-color="#FBFBFB" stop-opacity="0"/>
<stop offset="0.473958" stop-color="#FBFBFB" stop-opacity="0.72"/>
<stop offset="0.692708" stop-color="#FBFBFB" stop-opacity="0.19"/>
<stop offset="1" stop-color="#FBFBFB"/>
</linearGradient>
<linearGradient id="paint46_linear_602_318" x1="-1.80699" y1="90.3923" x2="219.82" y2="103.831" gradientUnits="userSpaceOnUse">
<stop stop-color="#FBFBFB" stop-opacity="0.74"/>
<stop offset="0.239583" stop-color="#FBFBFB" stop-opacity="0"/>
<stop offset="0.473958" stop-color="#FBFBFB" stop-opacity="0.72"/>
<stop offset="0.692708" stop-color="#FBFBFB" stop-opacity="0.19"/>
<stop offset="1" stop-color="#FBFBFB"/>
</linearGradient>
<linearGradient id="paint47_linear_602_318" x1="-1.80699" y1="90.3923" x2="219.82" y2="103.831" gradientUnits="userSpaceOnUse">
<stop stop-color="#FBFBFB" stop-opacity="0.74"/>
<stop offset="0.239583" stop-color="#FBFBFB" stop-opacity="0"/>
<stop offset="0.473958" stop-color="#FBFBFB" stop-opacity="0.72"/>
<stop offset="0.692708" stop-color="#FBFBFB" stop-opacity="0.19"/>
<stop offset="1" stop-color="#FBFBFB"/>
</linearGradient>
<linearGradient id="paint48_linear_602_318" x1="-1.80699" y1="90.3923" x2="219.82" y2="103.831" gradientUnits="userSpaceOnUse">
<stop stop-color="#FBFBFB" stop-opacity="0.74"/>
<stop offset="0.239583" stop-color="#FBFBFB" stop-opacity="0"/>
<stop offset="0.473958" stop-color="#FBFBFB" stop-opacity="0.72"/>
<stop offset="0.692708" stop-color="#FBFBFB" stop-opacity="0.19"/>
<stop offset="1" stop-color="#FBFBFB"/>
</linearGradient>
<linearGradient id="paint49_linear_602_318" x1="-1.80699" y1="90.3923" x2="219.82" y2="103.831" gradientUnits="userSpaceOnUse">
<stop stop-color="#FBFBFB" stop-opacity="0.74"/>
<stop offset="0.239583" stop-color="#FBFBFB" stop-opacity="0"/>
<stop offset="0.473958" stop-color="#FBFBFB" stop-opacity="0.72"/>
<stop offset="0.692708" stop-color="#FBFBFB" stop-opacity="0.19"/>
<stop offset="1" stop-color="#FBFBFB"/>
</linearGradient>
<linearGradient id="paint50_linear_602_318" x1="-1.80699" y1="90.3923" x2="219.82" y2="103.831" gradientUnits="userSpaceOnUse">
<stop stop-color="#FBFBFB" stop-opacity="0.74"/>
<stop offset="0.239583" stop-color="#FBFBFB" stop-opacity="0"/>
<stop offset="0.473958" stop-color="#FBFBFB" stop-opacity="0.72"/>
<stop offset="0.692708" stop-color="#FBFBFB" stop-opacity="0.19"/>
<stop offset="1" stop-color="#FBFBFB"/>
</linearGradient>
<linearGradient id="paint51_linear_602_318" x1="-1.80699" y1="90.3923" x2="219.82" y2="103.831" gradientUnits="userSpaceOnUse">
<stop stop-color="#FBFBFB" stop-opacity="0.74"/>
<stop offset="0.239583" stop-color="#FBFBFB" stop-opacity="0"/>
<stop offset="0.473958" stop-color="#FBFBFB" stop-opacity="0.72"/>
<stop offset="0.692708" stop-color="#FBFBFB" stop-opacity="0.19"/>
<stop offset="1" stop-color="#FBFBFB"/>
</linearGradient>
<linearGradient id="paint52_linear_602_318" x1="-1.80699" y1="90.3923" x2="219.82" y2="103.831" gradientUnits="userSpaceOnUse">
<stop stop-color="#FBFBFB" stop-opacity="0.74"/>
<stop offset="0.239583" stop-color="#FBFBFB" stop-opacity="0"/>
<stop offset="0.473958" stop-color="#FBFBFB" stop-opacity="0.72"/>
<stop offset="0.692708" stop-color="#FBFBFB" stop-opacity="0.19"/>
<stop offset="1" stop-color="#FBFBFB"/>
</linearGradient>
<linearGradient id="paint53_linear_602_318" x1="-1.80699" y1="90.3923" x2="219.82" y2="103.831" gradientUnits="userSpaceOnUse">
<stop stop-color="#FBFBFB" stop-opacity="0.74"/>
<stop offset="0.239583" stop-color="#FBFBFB" stop-opacity="0"/>
<stop offset="0.473958" stop-color="#FBFBFB" stop-opacity="0.72"/>
<stop offset="0.692708" stop-color="#FBFBFB" stop-opacity="0.19"/>
<stop offset="1" stop-color="#FBFBFB"/>
</linearGradient>
<linearGradient id="paint54_linear_602_318" x1="-1.80699" y1="90.3923" x2="219.82" y2="103.831" gradientUnits="userSpaceOnUse">
<stop stop-color="#FBFBFB" stop-opacity="0.74"/>
<stop offset="0.239583" stop-color="#FBFBFB" stop-opacity="0"/>
<stop offset="0.473958" stop-color="#FBFBFB" stop-opacity="0.72"/>
<stop offset="0.692708" stop-color="#FBFBFB" stop-opacity="0.19"/>
<stop offset="1" stop-color="#FBFBFB"/>
</linearGradient>
<linearGradient id="paint55_linear_602_318" x1="-1.80699" y1="90.3923" x2="219.82" y2="103.831" gradientUnits="userSpaceOnUse">
<stop stop-color="#FBFBFB" stop-opacity="0.74"/>
<stop offset="0.239583" stop-color="#FBFBFB" stop-opacity="0"/>
<stop offset="0.473958" stop-color="#FBFBFB" stop-opacity="0.72"/>
<stop offset="0.692708" stop-color="#FBFBFB" stop-opacity="0.19"/>
<stop offset="1" stop-color="#FBFBFB"/>
</linearGradient>
<linearGradient id="paint56_linear_602_318" x1="-1.80699" y1="90.3923" x2="219.82" y2="103.831" gradientUnits="userSpaceOnUse">
<stop stop-color="#FBFBFB" stop-opacity="0.74"/>
<stop offset="0.239583" stop-color="#FBFBFB" stop-opacity="0"/>
<stop offset="0.473958" stop-color="#FBFBFB" stop-opacity="0.72"/>
<stop offset="0.692708" stop-color="#FBFBFB" stop-opacity="0.19"/>
<stop offset="1" stop-color="#FBFBFB"/>
</linearGradient>
<linearGradient id="paint57_linear_602_318" x1="-1.80699" y1="90.3923" x2="219.82" y2="103.831" gradientUnits="userSpaceOnUse">
<stop stop-color="#FBFBFB" stop-opacity="0.74"/>
<stop offset="0.239583" stop-color="#FBFBFB" stop-opacity="0"/>
<stop offset="0.473958" stop-color="#FBFBFB" stop-opacity="0.72"/>
<stop offset="0.692708" stop-color="#FBFBFB" stop-opacity="0.19"/>
<stop offset="1" stop-color="#FBFBFB"/>
</linearGradient>
<linearGradient id="paint58_linear_602_318" x1="-1.80699" y1="90.3923" x2="219.82" y2="103.831" gradientUnits="userSpaceOnUse">
<stop stop-color="#FBFBFB" stop-opacity="0.74"/>
<stop offset="0.239583" stop-color="#FBFBFB" stop-opacity="0"/>
<stop offset="0.473958" stop-color="#FBFBFB" stop-opacity="0.72"/>
<stop offset="0.692708" stop-color="#FBFBFB" stop-opacity="0.19"/>
<stop offset="1" stop-color="#FBFBFB"/>
</linearGradient>
<linearGradient id="paint59_linear_602_318" x1="-1.80699" y1="90.3923" x2="219.82" y2="103.831" gradientUnits="userSpaceOnUse">
<stop stop-color="#FBFBFB" stop-opacity="0.74"/>
<stop offset="0.239583" stop-color="#FBFBFB" stop-opacity="0"/>
<stop offset="0.473958" stop-color="#FBFBFB" stop-opacity="0.72"/>
<stop offset="0.692708" stop-color="#FBFBFB" stop-opacity="0.19"/>
<stop offset="1" stop-color="#FBFBFB"/>
</linearGradient>
<linearGradient id="paint60_linear_602_318" x1="-1.80699" y1="90.3923" x2="219.82" y2="103.831" gradientUnits="userSpaceOnUse">
<stop stop-color="#FBFBFB" stop-opacity="0.74"/>
<stop offset="0.239583" stop-color="#FBFBFB" stop-opacity="0"/>
<stop offset="0.473958" stop-color="#FBFBFB" stop-opacity="0.72"/>
<stop offset="0.692708" stop-color="#FBFBFB" stop-opacity="0.19"/>
<stop offset="1" stop-color="#FBFBFB"/>
</linearGradient>
<linearGradient id="paint61_linear_602_318" x1="-1.80699" y1="90.3923" x2="219.82" y2="103.831" gradientUnits="userSpaceOnUse">
<stop stop-color="#FBFBFB" stop-opacity="0.74"/>
<stop offset="0.239583" stop-color="#FBFBFB" stop-opacity="0"/>
<stop offset="0.473958" stop-color="#FBFBFB" stop-opacity="0.72"/>
<stop offset="0.692708" stop-color="#FBFBFB" stop-opacity="0.19"/>
<stop offset="1" stop-color="#FBFBFB"/>
</linearGradient>
<linearGradient id="paint62_linear_602_318" x1="-1.80699" y1="90.3923" x2="219.82" y2="103.831" gradientUnits="userSpaceOnUse">
<stop stop-color="#FBFBFB" stop-opacity="0.74"/>
<stop offset="0.239583" stop-color="#FBFBFB" stop-opacity="0"/>
<stop offset="0.473958" stop-color="#FBFBFB" stop-opacity="0.72"/>
<stop offset="0.692708" stop-color="#FBFBFB" stop-opacity="0.19"/>
<stop offset="1" stop-color="#FBFBFB"/>
</linearGradient>
<linearGradient id="paint63_linear_602_318" x1="-1.80699" y1="90.3923" x2="219.82" y2="103.831" gradientUnits="userSpaceOnUse">
<stop stop-color="#FBFBFB" stop-opacity="0.74"/>
<stop offset="0.239583" stop-color="#FBFBFB" stop-opacity="0"/>
<stop offset="0.473958" stop-color="#FBFBFB" stop-opacity="0.72"/>
<stop offset="0.692708" stop-color="#FBFBFB" stop-opacity="0.19"/>
<stop offset="1" stop-color="#FBFBFB"/>
</linearGradient>
<linearGradient id="paint64_linear_602_318" x1="-1.80699" y1="90.3923" x2="219.82" y2="103.831" gradientUnits="userSpaceOnUse">
<stop stop-color="#FBFBFB" stop-opacity="0.74"/>
<stop offset="0.239583" stop-color="#FBFBFB" stop-opacity="0"/>
<stop offset="0.473958" stop-color="#FBFBFB" stop-opacity="0.72"/>
<stop offset="0.692708" stop-color="#FBFBFB" stop-opacity="0.19"/>
<stop offset="1" stop-color="#FBFBFB"/>
</linearGradient>
<linearGradient id="paint65_linear_602_318" x1="-1.80699" y1="90.3923" x2="219.82" y2="103.831" gradientUnits="userSpaceOnUse">
<stop stop-color="#FBFBFB" stop-opacity="0.74"/>
<stop offset="0.239583" stop-color="#FBFBFB" stop-opacity="0"/>
<stop offset="0.473958" stop-color="#FBFBFB" stop-opacity="0.72"/>
<stop offset="0.692708" stop-color="#FBFBFB" stop-opacity="0.19"/>
<stop offset="1" stop-color="#FBFBFB"/>
</linearGradient>
<linearGradient id="paint66_linear_602_318" x1="-1.80699" y1="90.3923" x2="219.82" y2="103.831" gradientUnits="userSpaceOnUse">
<stop stop-color="#FBFBFB" stop-opacity="0.74"/>
<stop offset="0.239583" stop-color="#FBFBFB" stop-opacity="0"/>
<stop offset="0.473958" stop-color="#FBFBFB" stop-opacity="0.72"/>
<stop offset="0.692708" stop-color="#FBFBFB" stop-opacity="0.19"/>
<stop offset="1" stop-color="#FBFBFB"/>
</linearGradient>
<linearGradient id="paint67_linear_602_318" x1="-1.80699" y1="90.3923" x2="219.82" y2="103.831" gradientUnits="userSpaceOnUse">
<stop stop-color="#FBFBFB" stop-opacity="0.74"/>
<stop offset="0.239583" stop-color="#FBFBFB" stop-opacity="0"/>
<stop offset="0.473958" stop-color="#FBFBFB" stop-opacity="0.72"/>
<stop offset="0.692708" stop-color="#FBFBFB" stop-opacity="0.19"/>
<stop offset="1" stop-color="#FBFBFB"/>
</linearGradient>
<linearGradient id="paint68_linear_602_318" x1="-1.80699" y1="90.3923" x2="219.82" y2="103.831" gradientUnits="userSpaceOnUse">
<stop stop-color="#FBFBFB" stop-opacity="0.74"/>
<stop offset="0.239583" stop-color="#FBFBFB" stop-opacity="0"/>
<stop offset="0.473958" stop-color="#FBFBFB" stop-opacity="0.72"/>
<stop offset="0.692708" stop-color="#FBFBFB" stop-opacity="0.19"/>
<stop offset="1" stop-color="#FBFBFB"/>
</linearGradient>
<linearGradient id="paint69_linear_602_318" x1="-1.80699" y1="90.3923" x2="219.82" y2="103.831" gradientUnits="userSpaceOnUse">
<stop stop-color="#FBFBFB" stop-opacity="0.74"/>
<stop offset="0.239583" stop-color="#FBFBFB" stop-opacity="0"/>
<stop offset="0.473958" stop-color="#FBFBFB" stop-opacity="0.72"/>
<stop offset="0.692708" stop-color="#FBFBFB" stop-opacity="0.19"/>
<stop offset="1" stop-color="#FBFBFB"/>
</linearGradient>
<linearGradient id="paint70_linear_602_318" x1="-1.80699" y1="90.3923" x2="219.82" y2="103.831" gradientUnits="userSpaceOnUse">
<stop stop-color="#FBFBFB" stop-opacity="0.74"/>
<stop offset="0.239583" stop-color="#FBFBFB" stop-opacity="0"/>
<stop offset="0.473958" stop-color="#FBFBFB" stop-opacity="0.72"/>
<stop offset="0.692708" stop-color="#FBFBFB" stop-opacity="0.19"/>
<stop offset="1" stop-color="#FBFBFB"/>
</linearGradient>
<linearGradient id="paint71_linear_602_318" x1="-1.80699" y1="90.3923" x2="219.82" y2="103.831" gradientUnits="userSpaceOnUse">
<stop stop-color="#FBFBFB" stop-opacity="0.74"/>
<stop offset="0.239583" stop-color="#FBFBFB" stop-opacity="0"/>
<stop offset="0.473958" stop-color="#FBFBFB" stop-opacity="0.72"/>
<stop offset="0.692708" stop-color="#FBFBFB" stop-opacity="0.19"/>
<stop offset="1" stop-color="#FBFBFB"/>
</linearGradient>
<linearGradient id="paint72_linear_602_318" x1="-1.80699" y1="90.3923" x2="219.82" y2="103.831" gradientUnits="userSpaceOnUse">
<stop stop-color="#FBFBFB" stop-opacity="0.74"/>
<stop offset="0.239583" stop-color="#FBFBFB" stop-opacity="0"/>
<stop offset="0.473958" stop-color="#FBFBFB" stop-opacity="0.72"/>
<stop offset="0.692708" stop-color="#FBFBFB" stop-opacity="0.19"/>
<stop offset="1" stop-color="#FBFBFB"/>
</linearGradient>
<linearGradient id="paint73_linear_602_318" x1="-1.80699" y1="90.3923" x2="219.82" y2="103.831" gradientUnits="userSpaceOnUse">
<stop stop-color="#FBFBFB" stop-opacity="0.74"/>
<stop offset="0.239583" stop-color="#FBFBFB" stop-opacity="0"/>
<stop offset="0.473958" stop-color="#FBFBFB" stop-opacity="0.72"/>
<stop offset="0.692708" stop-color="#FBFBFB" stop-opacity="0.19"/>
<stop offset="1" stop-color="#FBFBFB"/>
</linearGradient>
<linearGradient id="paint74_linear_602_318" x1="-1.80699" y1="90.3923" x2="219.82" y2="103.831" gradientUnits="userSpaceOnUse">
<stop stop-color="#FBFBFB" stop-opacity="0.74"/>
<stop offset="0.239583" stop-color="#FBFBFB" stop-opacity="0"/>
<stop offset="0.473958" stop-color="#FBFBFB" stop-opacity="0.72"/>
<stop offset="0.692708" stop-color="#FBFBFB" stop-opacity="0.19"/>
<stop offset="1" stop-color="#FBFBFB"/>
</linearGradient>
<linearGradient id="paint75_linear_602_318" x1="-1.80699" y1="90.3923" x2="219.82" y2="103.831" gradientUnits="userSpaceOnUse">
<stop stop-color="#FBFBFB" stop-opacity="0.74"/>
<stop offset="0.239583" stop-color="#FBFBFB" stop-opacity="0"/>
<stop offset="0.473958" stop-color="#FBFBFB" stop-opacity="0.72"/>
<stop offset="0.692708" stop-color="#FBFBFB" stop-opacity="0.19"/>
<stop offset="1" stop-color="#FBFBFB"/>
</linearGradient>
<linearGradient id="paint76_linear_602_318" x1="-1.80699" y1="90.3923" x2="219.82" y2="103.831" gradientUnits="userSpaceOnUse">
<stop stop-color="#FBFBFB" stop-opacity="0.74"/>
<stop offset="0.239583" stop-color="#FBFBFB" stop-opacity="0"/>
<stop offset="0.473958" stop-color="#FBFBFB" stop-opacity="0.72"/>
<stop offset="0.692708" stop-color="#FBFBFB" stop-opacity="0.19"/>
<stop offset="1" stop-color="#FBFBFB"/>
</linearGradient>
<linearGradient id="paint77_linear_602_318" x1="-1.80699" y1="90.3923" x2="219.82" y2="103.831" gradientUnits="userSpaceOnUse">
<stop stop-color="#FBFBFB" stop-opacity="0.74"/>
<stop offset="0.239583" stop-color="#FBFBFB" stop-opacity="0"/>
<stop offset="0.473958" stop-color="#FBFBFB" stop-opacity="0.72"/>
<stop offset="0.692708" stop-color="#FBFBFB" stop-opacity="0.19"/>
<stop offset="1" stop-color="#FBFBFB"/>
</linearGradient>
<linearGradient id="paint78_linear_602_318" x1="-1.80699" y1="90.3923" x2="219.82" y2="103.831" gradientUnits="userSpaceOnUse">
<stop stop-color="#FBFBFB" stop-opacity="0.74"/>
<stop offset="0.239583" stop-color="#FBFBFB" stop-opacity="0"/>
<stop offset="0.473958" stop-color="#FBFBFB" stop-opacity="0.72"/>
<stop offset="0.692708" stop-color="#FBFBFB" stop-opacity="0.19"/>
<stop offset="1" stop-color="#FBFBFB"/>
</linearGradient>
<linearGradient id="paint79_linear_602_318" x1="-1.80699" y1="90.3923" x2="219.82" y2="103.831" gradientUnits="userSpaceOnUse">
<stop stop-color="#FBFBFB" stop-opacity="0.74"/>
<stop offset="0.239583" stop-color="#FBFBFB" stop-opacity="0"/>
<stop offset="0.473958" stop-color="#FBFBFB" stop-opacity="0.72"/>
<stop offset="0.692708" stop-color="#FBFBFB" stop-opacity="0.19"/>
<stop offset="1" stop-color="#FBFBFB"/>
</linearGradient>
<linearGradient id="paint80_linear_602_318" x1="-1.80699" y1="90.3923" x2="219.82" y2="103.831" gradientUnits="userSpaceOnUse">
<stop stop-color="#FBFBFB" stop-opacity="0.74"/>
<stop offset="0.239583" stop-color="#FBFBFB" stop-opacity="0"/>
<stop offset="0.473958" stop-color="#FBFBFB" stop-opacity="0.72"/>
<stop offset="0.692708" stop-color="#FBFBFB" stop-opacity="0.19"/>
<stop offset="1" stop-color="#FBFBFB"/>
</linearGradient>
<linearGradient id="paint81_linear_602_318" x1="-1.80699" y1="90.3923" x2="219.82" y2="103.831" gradientUnits="userSpaceOnUse">
<stop stop-color="#FBFBFB" stop-opacity="0.74"/>
<stop offset="0.239583" stop-color="#FBFBFB" stop-opacity="0"/>
<stop offset="0.473958" stop-color="#FBFBFB" stop-opacity="0.72"/>
<stop offset="0.692708" stop-color="#FBFBFB" stop-opacity="0.19"/>
<stop offset="1" stop-color="#FBFBFB"/>
</linearGradient>
<linearGradient id="paint82_linear_602_318" x1="-1.80699" y1="90.3923" x2="219.82" y2="103.831" gradientUnits="userSpaceOnUse">
<stop stop-color="#FBFBFB" stop-opacity="0.74"/>
<stop offset="0.239583" stop-color="#FBFBFB" stop-opacity="0"/>
<stop offset="0.473958" stop-color="#FBFBFB" stop-opacity="0.72"/>
<stop offset="0.692708" stop-color="#FBFBFB" stop-opacity="0.19"/>
<stop offset="1" stop-color="#FBFBFB"/>
</linearGradient>
</defs>
</svg>
