<svg width="28" height="24" viewBox="0 0 28 24" fill="none" xmlns="http://www.w3.org/2000/svg">
<path id="Vector" d="M25.804 1.76871C26.0929 1.77112 26.3756 1.8525 26.6215 2.00405C26.8675 2.1556 27.0673 2.37154 27.1993 2.62849C27.3313 2.88544 27.3905 3.17361 27.3705 3.46181C27.3505 3.75 27.2521 4.02723 27.0858 4.26348L25.49 6.5316C25.392 14.3207 22.787 19.6089 17.7469 22.2507C15.3451 23.4443 12.6915 24.0426 10.0099 23.9951C6.69401 24.0713 3.41735 23.2659 0.514696 21.6611C0.319433 21.5299 0.168521 21.3425 0.0818546 21.1238C-0.004812 20.9051 -0.0231644 20.6653 0.029217 20.4359C0.078256 20.2031 0.196719 19.9907 0.368972 19.8267C0.541225 19.6626 0.759171 19.5546 0.994049 19.517C2.944 19.2447 4.86417 18.7904 6.72944 18.1601C-1.62937 14.2931 0.193085 5.60046 0.989454 2.9311C1.06709 2.66608 1.21307 2.42615 1.41274 2.23538C1.61241 2.04462 1.85874 1.90973 2.12702 1.84425C2.39529 1.77877 2.67607 1.78501 2.94118 1.86234C3.20628 1.93967 3.44638 2.08537 3.63738 2.28481C6.08413 4.80598 9.32824 6.40233 12.8186 6.80268C12.7567 5.8647 12.9016 4.92458 13.2433 4.04886C13.585 3.17313 14.115 2.38321 14.7957 1.73501C15.9751 0.615757 17.5407 -0.0056661 19.1666 3.89365e-05C20.7925 0.00574397 22.3537 0.638138 23.5252 1.76564L25.804 1.76871ZM2.23148 20.8693C5.0831 22.2048 11.7665 23.6551 17.0363 20.8938C21.5618 18.5215 23.8912 13.6469 23.9601 6.40449C23.9632 6.16501 24.039 5.93214 24.1776 5.73677L25.8331 3.38135L25.7703 3.30018C24.977 3.28946 24.1944 3.27874 23.3965 3.30018C23.0854 3.29306 22.7876 3.17272 22.5588 2.96173C21.6772 2.06809 20.4802 1.55594 19.2251 1.53532C17.9699 1.5147 16.7568 1.98726 15.8463 2.85146C15.2615 3.40764 14.8244 4.10067 14.5744 4.86802C14.3244 5.63537 14.2694 6.45289 14.4144 7.2468C14.4411 7.3947 14.4337 7.54673 14.3928 7.69135C14.3519 7.83598 14.2787 7.96939 14.1785 8.08146C14.0826 8.19451 13.9604 8.28227 13.8226 8.33701C13.6848 8.39176 13.5357 8.41181 13.3883 8.39541C9.27355 8.10827 5.40991 6.31116 2.53931 3.34919C1.51322 6.5316 0.211462 14.2135 8.4646 17.232C8.63829 17.2944 8.79054 17.405 8.90342 17.551C9.0163 17.697 9.08509 17.8722 9.1017 18.056C9.12037 18.237 9.08707 18.4195 9.0057 18.5823C8.92433 18.745 8.79825 18.8812 8.64225 18.9749C6.6255 19.9583 4.45886 20.5986 2.23148 20.8693Z" fill="#FAFAFA"/>
</svg>
