<svg width="71" height="71" viewBox="0 0 71 71" fill="none" xmlns="http://www.w3.org/2000/svg">
<circle cx="35.5" cy="35.5" r="35.5" fill="white" fill-opacity="0.16"/>
<mask id="path-2-outside-1_613_1584" maskUnits="userSpaceOnUse" x="18" y="16" width="34" height="40" fill="black">
<rect fill="white" x="18" y="16" width="34" height="40"/>
<path d="M21 53V41.6667ZM35.1667 53V30.3333ZM49.3333 53V19Z"/>
</mask>
<path d="M18.5 53C18.5 54.3807 19.6193 55.5 21 55.5C22.3807 55.5 23.5 54.3807 23.5 53H18.5ZM23.5 41.6667C23.5 40.286 22.3807 39.1667 21 39.1667C19.6193 39.1667 18.5 40.286 18.5 41.6667H23.5ZM32.6667 53C32.6667 54.3807 33.786 55.5 35.1667 55.5C36.5474 55.5 37.6667 54.3807 37.6667 53H32.6667ZM37.6667 30.3333C37.6667 28.9526 36.5474 27.8333 35.1667 27.8333C33.786 27.8333 32.6667 28.9526 32.6667 30.3333H37.6667ZM46.8333 53C46.8333 54.3807 47.9526 55.5 49.3333 55.5C50.714 55.5 51.8333 54.3807 51.8333 53H46.8333ZM51.8333 19C51.8333 17.6193 50.714 16.5 49.3333 16.5C47.9526 16.5 46.8333 17.6193 46.8333 19H51.8333ZM23.5 53V41.6667H18.5V53H23.5ZM37.6667 53V30.3333H32.6667V53H37.6667ZM51.8333 53V19H46.8333V53H51.8333Z" fill="#33A7F9" mask="url(#path-2-outside-1_613_1584)"/>
</svg>
